<?xml version="1.0" encoding="UTF-8" standalone="no"?>
<svg
   xmlns:dc="http://purl.org/dc/elements/1.1/"
   xmlns:cc="http://creativecommons.org/ns#"
   xmlns:rdf="http://www.w3.org/1999/02/22-rdf-syntax-ns#"
   xmlns:svg="http://www.w3.org/2000/svg"
   xmlns="http://www.w3.org/2000/svg"
   xmlns:sodipodi="http://sodipodi.sourceforge.net/DTD/sodipodi-0.dtd"
   xmlns:inkscape="http://www.inkscape.org/namespaces/inkscape"
   style="fill-opacity:1; color-rendering:auto; color-interpolation:auto; stroke:black; text-rendering:auto; stroke-linecap:square; stroke-miterlimit:10; stroke-opacity:1; shape-rendering:auto; fill:black; stroke-dasharray:none; font-weight:normal; stroke-width:1; font-family:'Dialog'; font-style:normal; stroke-linejoin:miter; font-size:12px; stroke-dashoffset:0; image-rendering:auto;"
   width="956"
   height="604"
   id="svg2"
   version="1.1"
   inkscape:version="0.91 r13725"
   sodipodi:docname="filt_spectrum.svg">
  <metadata
     id="metadata265">
    <rdf:RDF>
      <cc:Work
         rdf:about="">
        <dc:format>image/svg+xml</dc:format>
        <dc:type
           rdf:resource="http://purl.org/dc/dcmitype/StillImage" />
      </cc:Work>
    </rdf:RDF>
  </metadata>
  <sodipodi:namedview
     pagecolor="#ffffff"
     bordercolor="#666666"
     borderopacity="1"
     objecttolerance="10"
     gridtolerance="10"
     guidetolerance="10"
     inkscape:pageopacity="0"
     inkscape:pageshadow="2"
     inkscape:window-width="944"
     inkscape:window-height="1002"
     id="namedview263"
     showgrid="false"
     inkscape:zoom="1.0325534"
     inkscape:cx="613.22767"
     inkscape:cy="325.92767"
     inkscape:window-x="0"
     inkscape:window-y="0"
     inkscape:window-maximized="0"
     inkscape:current-layer="svg2" />
  <!--Generated by the Batik Graphics2D SVG Generator-->
  <defs
     id="genericDefs">
    <marker
       inkscape:stockid="Arrow1Mend"
       orient="auto"
       refY="0.0"
       refX="0.0"
       id="Arrow1Mend"
       style="overflow:visible;"
       inkscape:isstock="true">
      <path
         id="path4634"
         d="M 0.0,0.0 L 5.0,-5.0 L -12.5,0.0 L 5.0,5.0 L 0.0,0.0 z "
         style="fill-rule:evenodd;stroke:#000000;stroke-width:1pt;stroke-opacity:1;fill:#000000;fill-opacity:1"
         transform="scale(0.4) rotate(180) translate(10,0)" />
    </marker>
    <defs
       id="defs1">
      <clipPath
         id="clipPath1"
         clipPathUnits="userSpaceOnUse">
        <path
           id="path9"
           d="M0 0 L956 0 L956 604 L0 604 L0 0 Z" />
      </clipPath>
    </defs>
    <marker
       inkscape:stockid="Arrow1Mend"
       orient="auto"
       refY="0"
       refX="0"
       id="Arrow1Mend-4"
       style="overflow:visible"
       inkscape:isstock="true">
      <path
         inkscape:connector-curvature="0"
         id="path4634-1"
         d="M 0,0 5,-5 -12.5,0 5,5 0,0 Z"
         style="fill:#000000;fill-opacity:1;fill-rule:evenodd;stroke:#000000;stroke-width:1pt;stroke-opacity:1"
         transform="matrix(-0.4,0,0,-0.4,-4,0)" />
    </marker>
    <marker
       inkscape:stockid="Arrow1Mend"
       orient="auto"
       refY="0"
       refX="0"
       id="Arrow1Mend-9"
       style="overflow:visible"
       inkscape:isstock="true">
      <path
         inkscape:connector-curvature="0"
         id="path4634-7"
         d="M 0,0 5,-5 -12.5,0 5,5 0,0 Z"
         style="fill:#000000;fill-opacity:1;fill-rule:evenodd;stroke:#000000;stroke-width:1pt;stroke-opacity:1"
         transform="matrix(-0.4,0,0,-0.4,-4,0)" />
    </marker>
    <marker
       inkscape:stockid="Arrow1Mend"
       orient="auto"
       refY="0"
       refX="0"
       id="Arrow1Mend-4-0"
       style="overflow:visible"
       inkscape:isstock="true">
      <path
         inkscape:connector-curvature="0"
         id="path4634-1-9"
         d="M 0,0 5,-5 -12.5,0 5,5 0,0 Z"
         style="fill:#000000;fill-opacity:1;fill-rule:evenodd;stroke:#000000;stroke-width:1pt;stroke-opacity:1"
         transform="matrix(-0.4,0,0,-0.4,-4,0)" />
    </marker>
  </defs>
  <line
     y2="45"
     style="color-interpolation:linearRGB;fill:none;fill-opacity:0.14900004;stroke:#262626;stroke-width:0.66670001;stroke-linecap:butt;stroke-linejoin:round;stroke-opacity:0.14900004;color-rendering:optimizeQuality;image-rendering:optimizeQuality;text-rendering:geometricPrecision"
     x1="192.5175"
     x2="192.5175"
     y1="538"
     id="line23" />
  <line
     y2="45"
     style="color-interpolation:linearRGB;fill:none;fill-opacity:0.14900004;stroke:#262626;stroke-width:0.66670001;stroke-linecap:butt;stroke-linejoin:round;stroke-opacity:0.14900004;color-rendering:optimizeQuality;image-rendering:optimizeQuality;text-rendering:geometricPrecision"
     x1="287.54309"
     x2="287.54309"
     y1="538"
     id="line25" />
  <line
     y2="45"
     style="color-interpolation:linearRGB;fill:none;fill-opacity:0.14900004;stroke:#262626;stroke-width:0.66670001;stroke-linecap:butt;stroke-linejoin:round;stroke-opacity:0.14900004;color-rendering:optimizeQuality;image-rendering:optimizeQuality;text-rendering:geometricPrecision"
     x1="382.5686"
     x2="382.5686"
     y1="538"
     id="line27" />
  <line
     y2="45"
     style="color-interpolation:linearRGB;fill:none;fill-opacity:0.14900004;stroke:#262626;stroke-width:0.66670001;stroke-linecap:butt;stroke-linejoin:round;stroke-opacity:0.14900004;color-rendering:optimizeQuality;image-rendering:optimizeQuality;text-rendering:geometricPrecision"
     x1="477.59421"
     x2="477.59421"
     y1="538"
     id="line29" />
  <line
     y2="45"
     style="color-interpolation:linearRGB;fill:none;fill-opacity:0.14900004;stroke:#262626;stroke-width:0.66670001;stroke-linecap:butt;stroke-linejoin:round;stroke-opacity:0.14900004;color-rendering:optimizeQuality;image-rendering:optimizeQuality;text-rendering:geometricPrecision"
     x1="572.61981"
     x2="572.61981"
     y1="538"
     id="line31" />
  <line
     y2="45"
     style="color-interpolation:linearRGB;fill:none;fill-opacity:0.14900004;stroke:#262626;stroke-width:0.66670001;stroke-linecap:butt;stroke-linejoin:round;stroke-opacity:0.14900004;color-rendering:optimizeQuality;image-rendering:optimizeQuality;text-rendering:geometricPrecision"
     x1="667.64539"
     x2="667.64539"
     y1="538"
     id="line33" />
  <line
     y2="45"
     style="color-interpolation:linearRGB;fill:none;fill-opacity:0.14900004;stroke:#262626;stroke-width:0.66670001;stroke-linecap:butt;stroke-linejoin:round;stroke-opacity:0.14900004;color-rendering:optimizeQuality;image-rendering:optimizeQuality;text-rendering:geometricPrecision"
     x1="762.67102"
     x2="762.67102"
     y1="538"
     id="line35" />
  <line
     y2="45"
     style="color-interpolation:linearRGB;fill:none;fill-opacity:0.14900004;stroke:#262626;stroke-width:0.66670001;stroke-linecap:butt;stroke-linejoin:round;stroke-opacity:0.14900004;color-rendering:optimizeQuality;image-rendering:optimizeQuality;text-rendering:geometricPrecision"
     x1="857.69647"
     x2="857.69647"
     y1="538"
     id="line37" />
  <line
     y2="528.50739"
     style="color-interpolation:linearRGB;fill:none;fill-opacity:0.14900004;stroke:#262626;stroke-width:0.66670001;stroke-linecap:butt;stroke-linejoin:round;stroke-opacity:0.14900004;color-rendering:optimizeQuality;image-rendering:optimizeQuality;text-rendering:geometricPrecision"
     x1="865"
     x2="124"
     y1="528.50739"
     id="line39" />
  <line
     y2="484.44312"
     style="color-interpolation:linearRGB;fill:none;fill-opacity:0.14900004;stroke:#262626;stroke-width:0.66670001;stroke-linecap:butt;stroke-linejoin:round;stroke-opacity:0.14900004;color-rendering:optimizeQuality;image-rendering:optimizeQuality;text-rendering:geometricPrecision"
     x1="865"
     x2="124"
     y1="484.44312"
     id="line41" />
  <line
     y2="440.37869"
     style="color-interpolation:linearRGB;fill:none;fill-opacity:0.14900004;stroke:#262626;stroke-width:0.66670001;stroke-linecap:butt;stroke-linejoin:round;stroke-opacity:0.14900004;color-rendering:optimizeQuality;image-rendering:optimizeQuality;text-rendering:geometricPrecision"
     x1="865"
     x2="124"
     y1="440.37869"
     id="line43" />
  <line
     y2="396.3143"
     style="color-interpolation:linearRGB;fill:none;fill-opacity:0.14900004;stroke:#262626;stroke-width:0.66670001;stroke-linecap:butt;stroke-linejoin:round;stroke-opacity:0.14900004;color-rendering:optimizeQuality;image-rendering:optimizeQuality;text-rendering:geometricPrecision"
     x1="865"
     x2="124"
     y1="396.3143"
     id="line45" />
  <line
     y2="352.24991"
     style="color-interpolation:linearRGB;fill:none;fill-opacity:0.14900004;stroke:#262626;stroke-width:0.66670001;stroke-linecap:butt;stroke-linejoin:round;stroke-opacity:0.14900004;color-rendering:optimizeQuality;image-rendering:optimizeQuality;text-rendering:geometricPrecision"
     x1="865"
     x2="124"
     y1="352.24991"
     id="line47" />
  <line
     y2="308.18549"
     style="color-interpolation:linearRGB;fill:none;fill-opacity:0.14900004;stroke:#262626;stroke-width:0.66670001;stroke-linecap:butt;stroke-linejoin:round;stroke-opacity:0.14900004;color-rendering:optimizeQuality;image-rendering:optimizeQuality;text-rendering:geometricPrecision"
     x1="865"
     x2="124"
     y1="308.18549"
     id="line49" />
  <line
     y2="264.12119"
     style="color-interpolation:linearRGB;fill:none;fill-opacity:0.14900004;stroke:#262626;stroke-width:0.66670001;stroke-linecap:butt;stroke-linejoin:round;stroke-opacity:0.14900004;color-rendering:optimizeQuality;image-rendering:optimizeQuality;text-rendering:geometricPrecision"
     x1="865"
     x2="124"
     y1="264.12119"
     id="line51" />
  <line
     y2="220.05679"
     style="color-interpolation:linearRGB;fill:none;fill-opacity:0.14900004;stroke:#262626;stroke-width:0.66670001;stroke-linecap:butt;stroke-linejoin:round;stroke-opacity:0.14900004;color-rendering:optimizeQuality;image-rendering:optimizeQuality;text-rendering:geometricPrecision"
     x1="865"
     x2="124"
     y1="220.05679"
     id="line53" />
  <line
     y2="175.9924"
     style="color-interpolation:linearRGB;fill:none;fill-opacity:0.14900004;stroke:#262626;stroke-width:0.66670001;stroke-linecap:butt;stroke-linejoin:round;stroke-opacity:0.14900004;color-rendering:optimizeQuality;image-rendering:optimizeQuality;text-rendering:geometricPrecision"
     x1="865"
     x2="124"
     y1="175.9924"
     id="line55" />
  <line
     y2="131.92799"
     style="color-interpolation:linearRGB;fill:none;fill-opacity:0.14900004;stroke:#262626;stroke-width:0.66670001;stroke-linecap:butt;stroke-linejoin:round;stroke-opacity:0.14900004;color-rendering:optimizeQuality;image-rendering:optimizeQuality;text-rendering:geometricPrecision"
     x1="865"
     x2="124"
     y1="131.92799"
     id="line57" />
  <line
     y2="87.863602"
     style="color-interpolation:linearRGB;fill:none;fill-opacity:0.14900004;stroke:#262626;stroke-width:0.66670001;stroke-linecap:butt;stroke-linejoin:round;stroke-opacity:0.14900004;color-rendering:optimizeQuality;image-rendering:optimizeQuality;text-rendering:geometricPrecision"
     x1="865"
     x2="124"
     y1="87.863602"
     id="line59" />
  <line
     x1="124"
     x2="865"
     y1="538"
     style="color-interpolation:linearRGB;fill:none;fill-opacity:1;stroke:#262626;stroke-width:0.66670001;stroke-linecap:square;stroke-linejoin:round;stroke-opacity:1;color-rendering:optimizeQuality;image-rendering:optimizeQuality;text-rendering:geometricPrecision"
     y2="538"
     id="line61" />
  <line
     x1="124"
     x2="865"
     y1="45"
     style="color-interpolation:linearRGB;fill:none;fill-opacity:1;stroke:#262626;stroke-width:0.66670001;stroke-linecap:square;stroke-linejoin:round;stroke-opacity:1;color-rendering:optimizeQuality;image-rendering:optimizeQuality;text-rendering:geometricPrecision"
     y2="45"
     id="line63" />
  <line
     x1="192.5175"
     x2="192.5175"
     y1="538"
     style="color-interpolation:linearRGB;fill:none;fill-opacity:1;stroke:#262626;stroke-width:0.66670001;stroke-linecap:square;stroke-linejoin:round;stroke-opacity:1;color-rendering:optimizeQuality;image-rendering:optimizeQuality;text-rendering:geometricPrecision"
     y2="530.59003"
     id="line65" />
  <line
     x1="287.54309"
     x2="287.54309"
     y1="538"
     style="color-interpolation:linearRGB;fill:none;fill-opacity:1;stroke:#262626;stroke-width:0.66670001;stroke-linecap:square;stroke-linejoin:round;stroke-opacity:1;color-rendering:optimizeQuality;image-rendering:optimizeQuality;text-rendering:geometricPrecision"
     y2="530.59003"
     id="line67" />
  <line
     x1="382.5686"
     x2="382.5686"
     y1="538"
     style="color-interpolation:linearRGB;fill:none;fill-opacity:1;stroke:#262626;stroke-width:0.66670001;stroke-linecap:square;stroke-linejoin:round;stroke-opacity:1;color-rendering:optimizeQuality;image-rendering:optimizeQuality;text-rendering:geometricPrecision"
     y2="530.59003"
     id="line69" />
  <line
     x1="477.59421"
     x2="477.59421"
     y1="538"
     style="color-interpolation:linearRGB;fill:none;fill-opacity:1;stroke:#262626;stroke-width:0.66670001;stroke-linecap:square;stroke-linejoin:round;stroke-opacity:1;color-rendering:optimizeQuality;image-rendering:optimizeQuality;text-rendering:geometricPrecision"
     y2="530.59003"
     id="line71" />
  <line
     x1="572.61981"
     x2="572.61981"
     y1="538"
     style="color-interpolation:linearRGB;fill:none;fill-opacity:1;stroke:#262626;stroke-width:0.66670001;stroke-linecap:square;stroke-linejoin:round;stroke-opacity:1;color-rendering:optimizeQuality;image-rendering:optimizeQuality;text-rendering:geometricPrecision"
     y2="530.59003"
     id="line73" />
  <line
     x1="667.64539"
     x2="667.64539"
     y1="538"
     style="color-interpolation:linearRGB;fill:none;fill-opacity:1;stroke:#262626;stroke-width:0.66670001;stroke-linecap:square;stroke-linejoin:round;stroke-opacity:1;color-rendering:optimizeQuality;image-rendering:optimizeQuality;text-rendering:geometricPrecision"
     y2="530.59003"
     id="line75" />
  <line
     x1="762.67102"
     x2="762.67102"
     y1="538"
     style="color-interpolation:linearRGB;fill:none;fill-opacity:1;stroke:#262626;stroke-width:0.66670001;stroke-linecap:square;stroke-linejoin:round;stroke-opacity:1;color-rendering:optimizeQuality;image-rendering:optimizeQuality;text-rendering:geometricPrecision"
     y2="530.59003"
     id="line77" />
  <line
     x1="857.69647"
     x2="857.69647"
     y1="538"
     style="color-interpolation:linearRGB;fill:none;fill-opacity:1;stroke:#262626;stroke-width:0.66670001;stroke-linecap:square;stroke-linejoin:round;stroke-opacity:1;color-rendering:optimizeQuality;image-rendering:optimizeQuality;text-rendering:geometricPrecision"
     y2="530.59003"
     id="line79" />
  <line
     x1="192.5175"
     x2="192.5175"
     y1="45"
     style="color-interpolation:linearRGB;fill:none;fill-opacity:1;stroke:#262626;stroke-width:0.66670001;stroke-linecap:square;stroke-linejoin:round;stroke-opacity:1;color-rendering:optimizeQuality;image-rendering:optimizeQuality;text-rendering:geometricPrecision"
     y2="52.41"
     id="line81" />
  <line
     x1="287.54309"
     x2="287.54309"
     y1="45"
     style="color-interpolation:linearRGB;fill:none;fill-opacity:1;stroke:#262626;stroke-width:0.66670001;stroke-linecap:square;stroke-linejoin:round;stroke-opacity:1;color-rendering:optimizeQuality;image-rendering:optimizeQuality;text-rendering:geometricPrecision"
     y2="52.41"
     id="line83" />
  <line
     x1="382.5686"
     x2="382.5686"
     y1="45"
     style="color-interpolation:linearRGB;fill:none;fill-opacity:1;stroke:#262626;stroke-width:0.66670001;stroke-linecap:square;stroke-linejoin:round;stroke-opacity:1;color-rendering:optimizeQuality;image-rendering:optimizeQuality;text-rendering:geometricPrecision"
     y2="52.41"
     id="line85" />
  <line
     x1="477.59421"
     x2="477.59421"
     y1="45"
     style="color-interpolation:linearRGB;fill:none;fill-opacity:1;stroke:#262626;stroke-width:0.66670001;stroke-linecap:square;stroke-linejoin:round;stroke-opacity:1;color-rendering:optimizeQuality;image-rendering:optimizeQuality;text-rendering:geometricPrecision"
     y2="52.41"
     id="line87" />
  <line
     x1="667.76013"
     x2="667.76013"
     y1="45.483368"
     style="color-interpolation:linearRGB;fill:none;fill-opacity:1;stroke:#262626;stroke-width:0.66670001;stroke-linecap:square;stroke-linejoin:round;stroke-opacity:1;color-rendering:optimizeQuality;image-rendering:optimizeQuality;text-rendering:geometricPrecision"
     y2="52.893372"
     id="line89" />
  <line
     x1="761.58728"
     x2="761.58728"
     y1="62.43251"
     style="color-interpolation:linearRGB;fill:none;fill-opacity:1;stroke:#262626;stroke-width:0.66670001;stroke-linecap:square;stroke-linejoin:round;stroke-opacity:1;color-rendering:optimizeQuality;image-rendering:optimizeQuality;text-rendering:geometricPrecision"
     y2="69.842514"
     id="line91" />
  <line
     x1="762.67102"
     x2="762.67102"
     y1="45"
     style="color-interpolation:linearRGB;fill:none;fill-opacity:1;stroke:#262626;stroke-width:0.66670001;stroke-linecap:square;stroke-linejoin:round;stroke-opacity:1;color-rendering:optimizeQuality;image-rendering:optimizeQuality;text-rendering:geometricPrecision"
     y2="52.41"
     id="line93" />
  <line
     x1="857.69647"
     x2="857.69647"
     y1="45"
     style="color-interpolation:linearRGB;fill:none;fill-opacity:1;stroke:#262626;stroke-width:0.66670001;stroke-linecap:square;stroke-linejoin:round;stroke-opacity:1;color-rendering:optimizeQuality;image-rendering:optimizeQuality;text-rendering:geometricPrecision"
     y2="52.41"
     id="line95" />
  <path
     style="font-size:medium;font-family:SansSerif;color-interpolation:linearRGB;fill:#262626;stroke:none;color-rendering:optimizeQuality;image-rendering:optimizeQuality;text-rendering:geometricPrecision"
     d="m 185.0956,565.1521 0,1.7812 -9.9375,0 q -0.0312,-0.6719 0.2032,-1.2812 0.3906,-1.0157 1.2265,-2 0.8359,-0.9844 2.4141,-2.2813 2.4531,-2 3.3125,-3.1797 0.8593,-1.1797 0.8593,-2.2266 0,-1.0937 -0.789,-1.8437 -0.7891,-0.75 -2.0391,-0.75 -1.3437,0 -2.1406,0.7969 -0.7969,0.7968 -0.8125,2.2187 l -1.8906,-0.2031 q 0.1875,-2.125 1.4609,-3.2344 1.2735,-1.1094 3.4141,-1.1094 2.1718,0 3.4297,1.2032 1.2578,1.2031 1.2578,2.9687 0,0.9063 -0.3672,1.7735 -0.3672,0.8672 -1.2266,1.8359 -0.8593,0.9687 -2.8437,2.6406 -1.6563,1.4063 -2.1328,1.8985 -0.4766,0.4922 -0.7735,0.9922 l 7.375,0 z m 1.9761,-5.625 q 0,-2.6719 0.5469,-4.2969 0.5468,-1.625 1.625,-2.5078 1.0781,-0.8829 2.7187,-0.8829 1.2188,0 2.1328,0.4844 0.9141,0.4844 1.5078,1.4063 0.5938,0.9219 0.9297,2.2343 0.336,1.3126 0.336,3.5626 0,2.6406 -0.5391,4.2656 -0.5391,1.625 -1.625,2.5078 -1.0859,0.8828 -2.7422,0.8828 -2.1719,0 -3.4062,-1.5469 -1.4844,-1.875 -1.4844,-6.1093 z m 1.8906,0 q 0,3.6874 0.8672,4.914 0.8672,1.2266 2.1328,1.2266 1.2813,0 2.1485,-1.2266 0.8671,-1.2266 0.8671,-4.914 0,-3.7188 -0.8671,-4.9376 -0.8672,-1.2187 -2.1641,-1.2187 -1.2656,0 -2.0313,1.0781 -0.9531,1.375 -0.9531,5.0782 z m 9.7886,0 q 0,-2.6719 0.5469,-4.2969 0.5468,-1.625 1.625,-2.5078 1.0781,-0.8829 2.7187,-0.8829 1.2188,0 2.1328,0.4844 0.9141,0.4844 1.5078,1.4063 0.5938,0.9219 0.9297,2.2343 0.336,1.3126 0.336,3.5626 0,2.6406 -0.5391,4.2656 -0.5391,1.625 -1.625,2.5078 -1.0859,0.8828 -2.7422,0.8828 -2.1719,0 -3.4062,-1.5469 -1.4844,-1.875 -1.4844,-6.1093 z m 1.8906,0 q 0,3.6874 0.8672,4.914 0.8672,1.2266 2.1328,1.2266 1.2813,0 2.1485,-1.2266 0.8671,-1.2266 0.8671,-4.914 0,-3.7188 -0.8671,-4.9376 -0.8672,-1.2187 -2.1641,-1.2187 -1.2656,0 -2.0313,1.0781 -0.9531,1.375 -0.9531,5.0782 z"
     id="path99"
     inkscape:connector-curvature="0" />
  <path
     style="font-size:medium;font-family:SansSerif;color-interpolation:linearRGB;fill:#262626;stroke:none;color-rendering:optimizeQuality;image-rendering:optimizeQuality;text-rendering:geometricPrecision"
     d="m 270.4181,562.9645 1.8594,-0.25 q 0.3125,1.5782 1.0781,2.2657 0.7656,0.6875 1.8594,0.6875 1.2969,0 2.1953,-0.8985 0.8984,-0.8984 0.8984,-2.2421 0,-1.2657 -0.8281,-2.0938 -0.8281,-0.8281 -2.1094,-0.8281 -0.5312,0 -1.3125,0.2187 l 0.2188,-1.625 q 0.1718,0.0156 0.2968,0.0156 1.1719,0 2.1172,-0.6171 0.9454,-0.6172 0.9454,-1.8985 0,-1.0156 -0.6876,-1.6797 -0.6874,-0.664 -1.7812,-0.664 -1.0781,0 -1.7891,0.6797 -0.7109,0.6796 -0.9297,2.0234 l -1.8437,-0.3281 q 0.3437,-1.8438 1.5391,-2.8672 1.1953,-1.0235 2.9922,-1.0235 1.2187,0 2.2578,0.5313 1.039,0.5313 1.5859,1.4375 0.5469,0.9062 0.5469,1.9375 0,0.9687 -0.5235,1.7734 -0.5234,0.8047 -1.539,1.2735 1.3281,0.3125 2.0625,1.2812 0.7344,0.9688 0.7344,2.4219 0,1.9687 -1.4297,3.3359 -1.4297,1.3672 -3.6329,1.3672 -1.9687,0 -3.2812,-1.1797 -1.3125,-1.1797 -1.5,-3.0547 z m 11.6792,-3.4374 q 0,-2.6719 0.5469,-4.2969 0.5468,-1.625 1.625,-2.5078 1.0781,-0.8829 2.7187,-0.8829 1.2188,0 2.1328,0.4844 0.9141,0.4844 1.5078,1.4063 0.5938,0.9219 0.9297,2.2343 0.336,1.3126 0.336,3.5626 0,2.6406 -0.5391,4.2656 -0.5391,1.625 -1.625,2.5078 -1.0859,0.8828 -2.7422,0.8828 -2.1719,0 -3.4062,-1.5469 -1.4844,-1.875 -1.4844,-6.1093 z m 1.8906,0 q 0,3.6874 0.8672,4.914 0.8672,1.2266 2.1328,1.2266 1.2813,0 2.1485,-1.2266 0.8671,-1.2266 0.8671,-4.914 0,-3.7188 -0.8671,-4.9376 -0.8672,-1.2187 -2.1641,-1.2187 -1.2656,0 -2.0313,1.0781 -0.9531,1.375 -0.9531,5.0782 z m 9.7886,0 q 0,-2.6719 0.5469,-4.2969 0.5468,-1.625 1.625,-2.5078 1.0781,-0.8829 2.7187,-0.8829 1.2188,0 2.1328,0.4844 0.9141,0.4844 1.5078,1.4063 0.5938,0.9219 0.9297,2.2343 0.336,1.3126 0.336,3.5626 0,2.6406 -0.5391,4.2656 -0.5391,1.625 -1.625,2.5078 -1.0859,0.8828 -2.7422,0.8828 -2.1719,0 -3.4062,-1.5469 -1.4844,-1.875 -1.4844,-6.1093 z m 1.8906,0 q 0,3.6874 0.8672,4.914 0.8672,1.2266 2.1328,1.2266 1.2813,0 2.1485,-1.2266 0.8671,-1.2266 0.8671,-4.914 0,-3.7188 -0.8671,-4.9376 -0.8672,-1.2187 -2.1641,-1.2187 -1.2656,0 -2.0313,1.0781 -0.9531,1.375 -0.9531,5.0782 z"
     id="path103"
     inkscape:connector-curvature="0" />
  <path
     style="font-size:medium;font-family:SansSerif;color-interpolation:linearRGB;fill:#262626;stroke:none;color-rendering:optimizeQuality;image-rendering:optimizeQuality;text-rendering:geometricPrecision"
     d="m 371.3498,566.9333 0,-3.5938 -6.5156,0 0,-1.7031 6.8594,-9.7343 1.5156,0 0,9.7343 2.0313,0 0,1.7031 -2.0313,0 0,3.5938 -1.8594,0 z m 0,-5.2969 0,-6.7656 -4.7031,6.7656 4.7031,0 z m 5.773,-2.1093 q 0,-2.6719 0.5469,-4.2969 0.5468,-1.625 1.625,-2.5078 1.0781,-0.8829 2.7187,-0.8829 1.2188,0 2.1328,0.4844 0.9141,0.4844 1.5078,1.4063 0.5938,0.9219 0.9297,2.2343 0.336,1.3126 0.336,3.5626 0,2.6406 -0.5391,4.2656 -0.5391,1.625 -1.625,2.5078 -1.0859,0.8828 -2.7422,0.8828 -2.1719,0 -3.4062,-1.5469 -1.4844,-1.875 -1.4844,-6.1093 z m 1.8906,0 q 0,3.6874 0.8672,4.914 0.8672,1.2266 2.1328,1.2266 1.2813,0 2.1485,-1.2266 0.8671,-1.2266 0.8671,-4.914 0,-3.7188 -0.8671,-4.9376 -0.8672,-1.2187 -2.1641,-1.2187 -1.2656,0 -2.0313,1.0781 -0.9531,1.375 -0.9531,5.0782 z m 9.7886,0 q 0,-2.6719 0.5469,-4.2969 0.5468,-1.625 1.625,-2.5078 1.0781,-0.8829 2.7187,-0.8829 1.2188,0 2.1328,0.4844 0.9141,0.4844 1.5078,1.4063 0.5938,0.9219 0.9297,2.2343 0.336,1.3126 0.336,3.5626 0,2.6406 -0.5391,4.2656 -0.5391,1.625 -1.625,2.5078 -1.0859,0.8828 -2.7422,0.8828 -2.1719,0 -3.4062,-1.5469 -1.4844,-1.875 -1.4844,-6.1093 z m 1.8906,0 q 0,3.6874 0.8672,4.914 0.8672,1.2266 2.1328,1.2266 1.2813,0 2.1485,-1.2266 0.8671,-1.2266 0.8671,-4.914 0,-3.7188 -0.8671,-4.9376 -0.8672,-1.2187 -2.1641,-1.2187 -1.2656,0 -2.0313,1.0781 -0.9531,1.375 -0.9531,5.0782 z"
     id="path107"
     inkscape:connector-curvature="0" />
  <path
     style="font-size:medium;font-family:SansSerif;color-interpolation:linearRGB;fill:#262626;stroke:none;color-rendering:optimizeQuality;image-rendering:optimizeQuality;text-rendering:geometricPrecision"
     d="m 460.4692,562.9958 1.9375,-0.1719 q 0.2187,1.4219 1,2.1328 0.7813,0.711 1.8906,0.711 1.3281,0 2.25,-1 0.9219,-1 0.9219,-2.6719 0,-1.5781 -0.8828,-2.4922 -0.8828,-0.9141 -2.3203,-0.9141 -0.8907,0 -1.6094,0.4063 -0.7187,0.4063 -1.125,1.0625 l -1.7344,-0.2344 1.4531,-7.7187 7.4688,0 0,1.7656 -6,0 -0.7969,4.0313 q 1.3438,-0.9376 2.8281,-0.9376 1.9688,0 3.3282,1.3672 1.3594,1.3672 1.3594,3.5078 0,2.0313 -1.1876,3.5313 -1.4531,1.8125 -3.9531,1.8125 -2.0469,0 -3.3437,-1.1484 -1.2969,-1.1485 -1.4844,-3.0391 z m 11.6792,-3.4687 q 0,-2.6719 0.5469,-4.2969 0.5468,-1.625 1.625,-2.5078 1.0781,-0.8829 2.7187,-0.8829 1.2188,0 2.1328,0.4844 0.9141,0.4844 1.5078,1.4063 0.5938,0.9219 0.9297,2.2343 0.336,1.3126 0.336,3.5626 0,2.6406 -0.5391,4.2656 -0.5391,1.625 -1.625,2.5078 -1.0859,0.8828 -2.7422,0.8828 -2.1719,0 -3.4062,-1.5469 -1.4844,-1.875 -1.4844,-6.1093 z m 1.8906,0 q 0,3.6874 0.8672,4.914 0.8672,1.2266 2.1328,1.2266 1.2813,0 2.1485,-1.2266 0.8671,-1.2266 0.8671,-4.914 0,-3.7188 -0.8671,-4.9376 -0.8672,-1.2187 -2.1641,-1.2187 -1.2656,0 -2.0313,1.0781 -0.9531,1.375 -0.9531,5.0782 z m 9.7886,0 q 0,-2.6719 0.5469,-4.2969 0.5468,-1.625 1.625,-2.5078 1.0781,-0.8829 2.7187,-0.8829 1.2188,0 2.1328,0.4844 0.9141,0.4844 1.5078,1.4063 0.5938,0.9219 0.9297,2.2343 0.336,1.3126 0.336,3.5626 0,2.6406 -0.5391,4.2656 -0.5391,1.625 -1.625,2.5078 -1.0859,0.8828 -2.7422,0.8828 -2.1719,0 -3.4062,-1.5469 -1.4844,-1.875 -1.4844,-6.1093 z m 1.8906,0 q 0,3.6874 0.8672,4.914 0.8672,1.2266 2.1328,1.2266 1.2813,0 2.1485,-1.2266 0.8671,-1.2266 0.8671,-4.914 0,-3.7188 -0.8671,-4.9376 -0.8672,-1.2187 -2.1641,-1.2187 -1.2656,0 -2.0313,1.0781 -0.9531,1.375 -0.9531,5.0782 z"
     id="path111"
     inkscape:connector-curvature="0" />
  <path
     style="font-size:medium;font-family:SansSerif;color-interpolation:linearRGB;fill:#262626;stroke:none;color-rendering:optimizeQuality;image-rendering:optimizeQuality;text-rendering:geometricPrecision"
     d="m 565.0729,555.5895 -1.8437,0.1407 q -0.2344,-1.0938 -0.6875,-1.5781 -0.75,-0.7969 -1.8438,-0.7969 -0.8906,0 -1.5625,0.5 -0.8594,0.625 -1.3672,1.8437 -0.5078,1.2188 -0.5234,3.4844 0.6719,-1.0156 1.6328,-1.5078 0.961,-0.4922 2.0234,-0.4922 1.8438,0 3.1407,1.3594 1.2969,1.3594 1.2969,3.5156 0,1.4062 -0.6094,2.625 -0.6094,1.2188 -1.6797,1.8594 -1.0703,0.6406 -2.4141,0.6406 -2.3125,0 -3.7656,-1.6953 -1.4531,-1.6953 -1.4531,-5.5859 0,-4.3594 1.6093,-6.3438 1.3907,-1.7188 3.7813,-1.7188 1.7656,0 2.8984,0.9922 1.1329,0.9922 1.3672,2.7578 z m -7.5469,6.4688 q 0,0.9531 0.4063,1.8281 0.4063,0.875 1.1328,1.3281 0.7266,0.4532 1.5391,0.4532 1.1562,0 2,-0.9375 0.8437,-0.9375 0.8437,-2.5625 0,-1.5625 -0.8281,-2.461 -0.8281,-0.8984 -2.0938,-0.8984 -1.25,0 -2.125,0.8984 -0.875,0.8985 -0.875,2.3516 z m 9.648,-2.5312 q 0,-2.6719 0.5469,-4.2969 0.5468,-1.625 1.625,-2.5078 1.0781,-0.8829 2.7187,-0.8829 1.2188,0 2.1328,0.4844 0.9141,0.4844 1.5078,1.4063 0.5938,0.9219 0.9297,2.2343 0.336,1.3126 0.336,3.5626 0,2.6406 -0.5391,4.2656 -0.5391,1.625 -1.625,2.5078 -1.0859,0.8828 -2.7422,0.8828 -2.1719,0 -3.4062,-1.5469 -1.4844,-1.875 -1.4844,-6.1093 z m 1.8906,0 q 0,3.6874 0.8672,4.914 0.8672,1.2266 2.1328,1.2266 1.2813,0 2.1485,-1.2266 0.8671,-1.2266 0.8671,-4.914 0,-3.7188 -0.8671,-4.9376 -0.8672,-1.2187 -2.1641,-1.2187 -1.2656,0 -2.0313,1.0781 -0.9531,1.375 -0.9531,5.0782 z m 9.7886,0 q 0,-2.6719 0.5469,-4.2969 0.5468,-1.625 1.625,-2.5078 1.0781,-0.8829 2.7187,-0.8829 1.2188,0 2.1328,0.4844 0.9141,0.4844 1.5078,1.4063 0.5938,0.9219 0.9297,2.2343 0.336,1.3126 0.336,3.5626 0,2.6406 -0.5391,4.2656 -0.5391,1.625 -1.625,2.5078 -1.0859,0.8828 -2.7422,0.8828 -2.1719,0 -3.4062,-1.5469 -1.4844,-1.875 -1.4844,-6.1093 z m 1.8906,0 q 0,3.6874 0.8672,4.914 0.8672,1.2266 2.1328,1.2266 1.2813,0 2.1485,-1.2266 0.8671,-1.2266 0.8671,-4.914 0,-3.7188 -0.8671,-4.9376 -0.8672,-1.2187 -2.1641,-1.2187 -1.2656,0 -2.0313,1.0781 -0.9531,1.375 -0.9531,5.0782 z"
     id="path115"
     inkscape:connector-curvature="0" />
  <path
     style="font-size:medium;font-family:SansSerif;color-interpolation:linearRGB;fill:#262626;stroke:none;color-rendering:optimizeQuality;image-rendering:optimizeQuality;text-rendering:geometricPrecision"
     d="m 650.6454,553.8708 0,-1.7813 9.7188,0 0,1.4376 q -1.4219,1.5312 -2.836,4.0624 -1.414,2.5313 -2.1797,5.2188 -0.5625,1.875 -0.7031,4.125 l -1.9062,0 q 0.0312,-1.7812 0.6953,-4.2891 0.664,-2.5078 1.914,-4.8437 1.25,-2.336 2.6563,-3.9297 l -7.3594,0 z m 11.5542,5.6563 q 0,-2.6719 0.5469,-4.2969 0.5468,-1.625 1.625,-2.5078 1.0781,-0.8829 2.7187,-0.8829 1.2188,0 2.1328,0.4844 0.9141,0.4844 1.5078,1.4063 0.5938,0.9219 0.9297,2.2343 0.336,1.3126 0.336,3.5626 0,2.6406 -0.5391,4.2656 -0.5391,1.625 -1.625,2.5078 -1.0859,0.8828 -2.7422,0.8828 -2.1719,0 -3.4062,-1.5469 -1.4844,-1.875 -1.4844,-6.1093 z m 1.8906,0 q 0,3.6874 0.8672,4.914 0.8672,1.2266 2.1328,1.2266 1.2813,0 2.1485,-1.2266 0.8671,-1.2266 0.8671,-4.914 0,-3.7188 -0.8671,-4.9376 -0.8672,-1.2187 -2.1641,-1.2187 -1.2656,0 -2.0313,1.0781 -0.9531,1.375 -0.9531,5.0782 z m 9.7886,0 q 0,-2.6719 0.5469,-4.2969 0.5468,-1.625 1.625,-2.5078 1.0781,-0.8829 2.7187,-0.8829 1.2188,0 2.1328,0.4844 0.9141,0.4844 1.5078,1.4063 0.5938,0.9219 0.9297,2.2343 0.336,1.3126 0.336,3.5626 0,2.6406 -0.5391,4.2656 -0.5391,1.625 -1.625,2.5078 -1.0859,0.8828 -2.7422,0.8828 -2.1719,0 -3.4062,-1.5469 -1.4844,-1.875 -1.4844,-6.1093 z m 1.8906,0 q 0,3.6874 0.8672,4.914 0.8672,1.2266 2.1328,1.2266 1.2813,0 2.1485,-1.2266 0.8671,-1.2266 0.8671,-4.914 0,-3.7188 -0.8671,-4.9376 -0.8672,-1.2187 -2.1641,-1.2187 -1.2656,0 -2.0313,1.0781 -0.9531,1.375 -0.9531,5.0782 z"
     id="path119"
     inkscape:connector-curvature="0" />
  <path
     style="font-size:medium;font-family:SansSerif;color-interpolation:linearRGB;fill:#262626;stroke:none;color-rendering:optimizeQuality;image-rendering:optimizeQuality;text-rendering:geometricPrecision"
     d="m 748.3898,558.7771 q -1.1563,-0.4219 -1.711,-1.1954 -0.5547,-0.7734 -0.5547,-1.8672 0,-1.6406 1.1797,-2.7578 1.1797,-1.1172 3.1328,-1.1172 1.9688,0 3.1719,1.1407 1.2031,1.1406 1.2031,2.7812 0,1.0469 -0.5468,1.8203 -0.5469,0.7735 -1.6719,1.1954 1.3906,0.4531 2.1093,1.4609 0.7188,1.0078 0.7188,2.3984 0,1.9219 -1.3594,3.2344 -1.3594,1.3125 -3.5937,1.3125 -2.2188,0 -3.586,-1.3125 -1.3671,-1.3125 -1.3671,-3.2813 0,-1.4687 0.75,-2.4609 0.75,-0.9922 2.125,-1.3515 z m -0.375,-3.125 q 0,1.0624 0.6874,1.7421 0.6876,0.6797 1.7813,0.6797 1.0625,0 1.75,-0.6718 0.6875,-0.6719 0.6875,-1.6407 0,-1.0156 -0.7031,-1.7109 -0.7031,-0.6953 -1.75,-0.6953 -1.0625,0 -1.7578,0.6797 -0.6953,0.6796 -0.6953,1.6172 z m -0.5938,6.9374 q 0,0.7969 0.375,1.5313 0.375,0.7344 1.1094,1.1406 0.7344,0.4063 1.5937,0.4063 1.3125,0 2.1797,-0.8516 0.8672,-0.8516 0.8672,-2.164 0,-1.3282 -0.8906,-2.2032 -0.8906,-0.875 -2.2188,-0.875 -1.3125,0 -2.164,0.8672 -0.8516,0.8672 -0.8516,2.1484 z m 9.8042,-3.0624 q 0,-2.6719 0.5469,-4.2969 0.5468,-1.625 1.625,-2.5078 1.0781,-0.8829 2.7187,-0.8829 1.2188,0 2.1328,0.4844 0.9141,0.4844 1.5078,1.4063 0.5938,0.9219 0.9297,2.2343 0.336,1.3126 0.336,3.5626 0,2.6406 -0.5391,4.2656 -0.5391,1.625 -1.625,2.5078 -1.0859,0.8828 -2.7422,0.8828 -2.1719,0 -3.4062,-1.5469 -1.4844,-1.875 -1.4844,-6.1093 z m 1.8906,0 q 0,3.6874 0.8672,4.914 0.8672,1.2266 2.1328,1.2266 1.2813,0 2.1485,-1.2266 0.8671,-1.2266 0.8671,-4.914 0,-3.7188 -0.8671,-4.9376 -0.8672,-1.2187 -2.1641,-1.2187 -1.2656,0 -2.0313,1.0781 -0.9531,1.375 -0.9531,5.0782 z m 9.7886,0 q 0,-2.6719 0.5469,-4.2969 0.5468,-1.625 1.625,-2.5078 1.0781,-0.8829 2.7187,-0.8829 1.2188,0 2.1328,0.4844 0.9141,0.4844 1.5078,1.4063 0.5938,0.9219 0.9297,2.2343 0.336,1.3126 0.336,3.5626 0,2.6406 -0.5391,4.2656 -0.5391,1.625 -1.625,2.5078 -1.0859,0.8828 -2.7422,0.8828 -2.1719,0 -3.4062,-1.5469 -1.4844,-1.875 -1.4844,-6.1093 z m 1.8906,0 q 0,3.6874 0.8672,4.914 0.8672,1.2266 2.1328,1.2266 1.2813,0 2.1485,-1.2266 0.8671,-1.2266 0.8671,-4.914 0,-3.7188 -0.8671,-4.9376 -0.8672,-1.2187 -2.1641,-1.2187 -1.2656,0 -2.0313,1.0781 -0.9531,1.375 -0.9531,5.0782 z"
     id="path123"
     inkscape:connector-curvature="0" />
  <path
     style="font-size:medium;font-family:SansSerif;color-interpolation:linearRGB;fill:#262626;stroke:none;color-rendering:optimizeQuality;image-rendering:optimizeQuality;text-rendering:geometricPrecision"
     d="m 840.8527,563.4645 1.7657,-0.1718 q 0.2187,1.25 0.8593,1.8125 0.6407,0.5625 1.6407,0.5625 0.8437,0 1.4843,-0.3906 0.6407,-0.3907 1.0547,-1.0391 0.4141,-0.6485 0.6875,-1.7578 0.2735,-1.1094 0.2735,-2.25 0,-0.125 -0.0157,-0.375 -0.5468,0.8906 -1.5078,1.4375 -0.9609,0.5468 -2.0703,0.5468 -1.875,0 -3.164,-1.3515 -1.2891,-1.3516 -1.2891,-3.5703 0,-2.2969 1.3438,-3.6875 1.3437,-1.3907 3.375,-1.3907 1.4687,0 2.6874,0.7891 1.2188,0.7891 1.8438,2.25 0.625,1.4609 0.625,4.2266 0,2.8906 -0.625,4.5937 -0.625,1.7032 -1.8594,2.5938 -1.2344,0.8906 -2.8906,0.8906 -1.7656,0 -2.8828,-0.9766 -1.1172,-0.9765 -1.336,-2.7422 z m 7.5469,-6.6406 q 0,-1.5937 -0.8437,-2.5234 -0.8438,-0.9297 -2.0313,-0.9297 -1.2343,0 -2.1484,1 -0.9141,1 -0.9141,2.6094 0,1.4375 0.8672,2.3281 0.8672,0.8906 2.1328,0.8906 1.2969,0 2.1172,-0.8906 0.8203,-0.8906 0.8203,-2.4844 z m 3.8511,2.7032 q 0,-2.6719 0.5469,-4.2969 0.5468,-1.625 1.625,-2.5078 1.0781,-0.8829 2.7187,-0.8829 1.2188,0 2.1328,0.4844 0.9141,0.4844 1.5078,1.4063 0.5938,0.9219 0.9297,2.2343 0.336,1.3126 0.336,3.5626 0,2.6406 -0.5391,4.2656 -0.5391,1.625 -1.625,2.5078 -1.0859,0.8828 -2.7422,0.8828 -2.1719,0 -3.4062,-1.5469 -1.4844,-1.875 -1.4844,-6.1093 z m 1.8906,0 q 0,3.6874 0.8672,4.914 0.8672,1.2266 2.1328,1.2266 1.2813,0 2.1485,-1.2266 0.8671,-1.2266 0.8671,-4.914 0,-3.7188 -0.8671,-4.9376 -0.8672,-1.2187 -2.1641,-1.2187 -1.2656,0 -2.0313,1.0781 -0.9531,1.375 -0.9531,5.0782 z m 9.7886,0 q 0,-2.6719 0.5469,-4.2969 0.5468,-1.625 1.625,-2.5078 1.0781,-0.8829 2.7187,-0.8829 1.2188,0 2.1328,0.4844 0.9141,0.4844 1.5078,1.4063 0.5938,0.9219 0.9297,2.2343 0.336,1.3126 0.336,3.5626 0,2.6406 -0.5391,4.2656 -0.5391,1.625 -1.625,2.5078 -1.0859,0.8828 -2.7422,0.8828 -2.1719,0 -3.4062,-1.5469 -1.4844,-1.875 -1.4844,-6.1093 z m 1.8906,0 q 0,3.6874 0.8672,4.914 0.8672,1.2266 2.1328,1.2266 1.2813,0 2.1485,-1.2266 0.8671,-1.2266 0.8671,-4.914 0,-3.7188 -0.8671,-4.9376 -0.8672,-1.2187 -2.1641,-1.2187 -1.2656,0 -2.0313,1.0781 -0.9531,1.375 -0.9531,5.0782 z"
     id="path127"
     inkscape:connector-curvature="0" />
  <path
     style="font-size:medium;font-family:SansSerif;color-interpolation:linearRGB;fill:#262626;stroke:none;color-rendering:optimizeQuality;image-rendering:optimizeQuality;text-rendering:geometricPrecision"
     d="m 381.6879,597.2667 0,-16.4688 2.1719,0 0,14.5313 8.1094,0 0,1.9375 -10.2813,0 z m 11.8696,-5.9688 q 0,-3.3124 1.8438,-4.9062 1.5312,-1.3281 3.75,-1.3281 2.4531,0 4.0156,1.6172 1.5625,1.6171 1.5625,4.4609 0,2.2969 -0.6875,3.6172 -0.6875,1.3203 -2.0078,2.0469 -1.3203,0.7265 -2.8828,0.7265 -2.5,0 -4.0469,-1.6015 -1.5469,-1.6016 -1.5469,-4.6329 z m 2.0782,0 q 0,2.2969 1,3.4376 1,1.1406 2.5156,1.1406 1.5,0 2.5,-1.1485 1,-1.1484 1,-3.4921 0,-2.2188 -1.0078,-3.3516 -1.0078,-1.1328 -2.4922,-1.1328 -1.5156,0 -2.5156,1.1328 -1,1.1328 -1,3.414 z m 11.4633,5.9688 0,-11.9219 1.8125,0 0,1.6875 q 1.3282,-1.9687 3.7969,-1.9687 1.0781,0 1.9844,0.3906 0.9062,0.3906 1.3594,1.0234 0.4531,0.6329 0.625,1.4922 0.1093,0.5625 0.1093,1.9688 l 0,7.3281 -2.0156,0 0,-7.25 q 0,-1.2344 -0.2344,-1.8516 -0.2343,-0.6172 -0.8359,-0.9765 -0.6016,-0.3594 -1.4141,-0.3594 -1.2968,0 -2.2343,0.8125 -0.9375,0.8125 -0.9375,3.1094 l 0,6.5156 -2.0157,0 z m 12.4165,0.9844 1.9688,0.2968 q 0.125,0.9063 0.6875,1.3282 0.75,0.5625 2.0469,0.5625 1.4062,0 2.1718,-0.5625 0.7657,-0.5625 1.0313,-1.5782 0.1562,-0.6093 0.1562,-2.5937 -1.3281,1.5625 -3.3125,1.5625 -2.4531,0 -3.8047,-1.7734 -1.3515,-1.7735 -1.3515,-4.2578 0,-1.7032 0.625,-3.1485 0.625,-1.4453 1.7969,-2.2344 1.1718,-0.789 2.75,-0.789 2.1093,0 3.4843,1.7187 l 0,-1.4375 1.8594,0 0,10.2969 q 0,2.7969 -0.5625,3.9609 -0.5625,1.1641 -1.7969,1.836 -1.2343,0.6719 -3.0312,0.6719 -2.125,0 -3.4453,-0.961 -1.3203,-0.9609 -1.2735,-2.8984 z m 1.6719,-7.1563 q 0,2.3438 0.9375,3.4219 0.9375,1.0781 2.3438,1.0781 1.3906,0 2.3281,-1.0703 0.9375,-1.0703 0.9375,-3.3672 0,-2.1875 -0.9688,-3.2968 -0.9687,-1.1094 -2.3437,-1.1094 -1.3438,0 -2.2891,1.0937 -0.9453,1.0938 -0.9453,3.25 z m 11.5103,-7.9687 0,-2.3282 2.0156,0 0,2.3282 -2.0156,0 z m 0,14.1406 0,-11.9219 2.0156,0 0,11.9219 -2.0156,0 z m 9.5161,-1.8125 0.2812,1.7969 q -0.8437,0.1718 -1.5312,0.1718 -1.0938,0 -1.7031,-0.3515 -0.6094,-0.3516 -0.8516,-0.9141 -0.2422,-0.5625 -0.2422,-2.3906 l 0,-6.8594 -1.4844,0 0,-1.5625 1.4844,0 0,-2.9531 2,-1.2188 0,4.1719 2.0469,0 0,1.5625 -2.0469,0 0,6.9844 q 0,0.8594 0.1094,1.1094 0.1094,0.25 0.3515,0.3906 0.2422,0.1406 0.6954,0.1406 0.3281,0 0.8906,-0.0781 z m 9.7807,1.8125 0,-1.75 q -1.3906,2.0156 -3.7812,2.0156 -1.0469,0 -1.9688,-0.4062 -0.9218,-0.4063 -1.3593,-1.0156 -0.4375,-0.6094 -0.625,-1.5 -0.125,-0.5938 -0.125,-1.875 l 0,-7.3907 2.0312,0 0,6.6094 q 0,1.5781 0.1094,2.1406 0.2031,0.7969 0.8203,1.25 0.6172,0.4531 1.5234,0.4531 0.9063,0 1.7032,-0.4687 0.7968,-0.4687 1.1328,-1.2734 0.3359,-0.8047 0.3359,-2.3203 l 0,-6.3907 2.0156,0 0,11.9219 -1.8125,0 z m 12.7134,0 0,-1.5 q -1.125,1.7656 -3.3281,1.7656 -1.4219,0 -2.625,-0.7812 -1.2031,-0.7813 -1.8594,-2.1953 -0.6562,-1.4141 -0.6562,-3.2422 0,-1.7813 0.6015,-3.2344 0.6016,-1.4531 1.7891,-2.2344 1.1875,-0.7812 2.6562,-0.7812 1.0782,0 1.9219,0.4609 0.8438,0.461 1.375,1.1797 l 0,-5.9063 2,0 0,16.4688 -1.875,0 z m -6.3906,-5.9531 q 0,2.2969 0.9687,3.4297 0.9688,1.1328 2.2813,1.1328 1.3281,0 2.25,-1.086 0.9219,-1.0859 0.9219,-3.3046 0,-2.4532 -0.9375,-3.5938 -0.9375,-1.1406 -2.3282,-1.1406 -1.3437,0 -2.25,1.0937 -0.9062,1.0938 -0.9062,3.4688 z m 25.5723,5.9531 0,-1.5 q -1.125,1.7656 -3.3282,1.7656 -1.4218,0 -2.625,-0.7812 -1.2031,-0.7813 -1.8593,-2.1953 -0.6563,-1.4141 -0.6563,-3.2422 0,-1.7813 0.6016,-3.2344 0.6015,-1.4531 1.789,-2.2344 1.1875,-0.7812 2.6563,-0.7812 1.0781,0 1.9219,0.4609 0.8437,0.461 1.375,1.1797 l 0,-5.9063 2,0 0,16.4688 -1.875,0 z m -6.3907,-5.9531 q 0,2.2969 0.9688,3.4297 0.9687,1.1328 2.2812,1.1328 1.3282,0 2.25,-1.086 0.9219,-1.0859 0.9219,-3.3046 0,-2.4532 -0.9375,-3.5938 -0.9375,-1.1406 -2.3281,-1.1406 -1.3438,0 -2.25,1.0937 -0.9063,1.0938 -0.9063,3.4688 z m 19.6197,2.1093 2.0781,0.2657 q -0.4844,1.8281 -1.8203,2.8359 -1.336,1.0078 -3.4141,1.0078 -2.625,0 -4.1562,-1.6094 -1.5313,-1.6093 -1.5313,-4.5156 0,-3.0156 1.5469,-4.6797 1.5469,-1.664 4.0156,-1.664 2.4063,0 3.9219,1.6328 1.5156,1.6328 1.5156,4.5859 0,0.1719 -0.0156,0.5313 l -8.8906,0 q 0.1093,1.9687 1.1093,3.0156 1,1.0469 2.4844,1.0469 1.1094,0 1.8985,-0.586 0.789,-0.5859 1.2578,-1.8672 z m -6.6407,-3.2656 6.6563,0 q -0.1406,-1.5 -0.7656,-2.25 -0.9688,-1.1718 -2.5,-1.1718 -1.3907,0 -2.3438,0.9296 -0.9531,0.9297 -1.0469,2.4922 z m 16.9004,1.1406 q 0,-3.3124 1.8438,-4.9062 1.5312,-1.3281 3.75,-1.3281 2.4531,0 4.0156,1.6172 1.5625,1.6171 1.5625,4.4609 0,2.2969 -0.6875,3.6172 -0.6875,1.3203 -2.0078,2.0469 -1.3203,0.7265 -2.8828,0.7265 -2.5,0 -4.0469,-1.6015 -1.5469,-1.6016 -1.5469,-4.6329 z m 2.0782,0 q 0,2.2969 1,3.4376 1,1.1406 2.5156,1.1406 1.5,0 2.5,-1.1485 1,-1.1484 1,-3.4921 0,-2.2188 -1.0078,-3.3516 -1.0078,-1.1328 -2.4922,-1.1328 -1.5156,0 -2.5156,1.1328 -1,1.1328 -1,3.414 z m 11.4633,5.9688 0,-11.9219 1.8125,0 0,1.6875 q 1.3282,-1.9687 3.7969,-1.9687 1.0781,0 1.9844,0.3906 0.9062,0.3906 1.3594,1.0234 0.4531,0.6329 0.625,1.4922 0.1093,0.5625 0.1093,1.9688 l 0,7.3281 -2.0156,0 0,-7.25 q 0,-1.2344 -0.2344,-1.8516 -0.2343,-0.6172 -0.8359,-0.9765 -0.6016,-0.3594 -1.4141,-0.3594 -1.2968,0 -2.2343,0.8125 -0.9375,0.8125 -0.9375,3.1094 l 0,6.5156 -2.0157,0 z m 20.5259,0 0,-1.5 q -1.125,1.7656 -3.3281,1.7656 -1.4219,0 -2.625,-0.7812 -1.2031,-0.7813 -1.8594,-2.1953 -0.6562,-1.4141 -0.6562,-3.2422 0,-1.7813 0.6015,-3.2344 0.6016,-1.4531 1.7891,-2.2344 1.1875,-0.7812 2.6562,-0.7812 1.0782,0 1.9219,0.4609 0.8438,0.461 1.375,1.1797 l 0,-5.9063 2,0 0,16.4688 -1.875,0 z m -6.3906,-5.9531 q 0,2.2969 0.9687,3.4297 0.9688,1.1328 2.2813,1.1328 1.3281,0 2.25,-1.086 0.9219,-1.0859 0.9219,-3.3046 0,-2.4532 -0.9375,-3.5938 -0.9375,-1.1406 -2.3282,-1.1406 -1.3437,0 -2.25,1.0937 -0.9062,1.0938 -0.9062,3.4688 z m 19.229,4.4843 q -1.125,0.9532 -2.1641,1.3438 -1.039,0.3906 -2.2265,0.3906 -1.9688,0 -3.0235,-0.9609 -1.0547,-0.9609 -1.0547,-2.4453 0,-0.875 0.3985,-1.6016 0.3984,-0.7266 1.0469,-1.164 0.6484,-0.4376 1.4609,-0.6563 0.5937,-0.1719 1.7969,-0.3125 2.4375,-0.2969 3.5937,-0.6875 0.0156,-0.4219 0.0156,-0.5313 0,-1.2343 -0.5781,-1.75 -0.7656,-0.6718 -2.2969,-0.6718 -1.4218,0 -2.1015,0.4922 -0.6797,0.4922 -1.0078,1.7734 l -1.9844,-0.2812 q 0.2812,-1.2657 0.8984,-2.0469 0.6172,-0.7813 1.7813,-1.2031 1.164,-0.4219 2.7109,-0.4219 1.5313,0 2.4844,0.3593 0.9531,0.3594 1.3984,0.9063 0.4453,0.5469 0.6328,1.375 0.0938,0.5156 0.0938,1.875 l 0,2.6875 q 0,2.8281 0.1328,3.5703 0.1328,0.7422 0.5078,1.4297 l -2.1094,0 q -0.3125,-0.625 -0.4062,-1.4688 z m -0.1719,-4.5156 q -1.0937,0.4532 -3.2969,0.7656 -1.25,0.1719 -1.7656,0.3985 -0.5156,0.2265 -0.7969,0.6562 -0.2812,0.4297 -0.2812,0.961 0,0.8125 0.6172,1.3515 0.6172,0.5391 1.789,0.5391 1.1719,0 2.0782,-0.5156 0.9062,-0.5157 1.3437,-1.3907 0.3125,-0.6874 0.3125,-2.0312 l 0,-0.7344 z m 11.6192,10.5625 0,-21.0469 4.4531,0 0,1.6719 -2.4375,0 0,17.6875 2.4375,0 0,1.6875 -4.4531,0 z m 6.3432,-4.5781 0,-11.9219 1.8125,0 0,1.6875 q 1.3281,-1.9687 3.7969,-1.9687 1.0781,0 1.9844,0.3906 0.9062,0.3906 1.3593,1.0234 0.4532,0.6329 0.625,1.4922 0.1094,0.5625 0.1094,1.9688 l 0,7.3281 -2.0156,0 0,-7.25 q 0,-1.2344 -0.2344,-1.8516 -0.2344,-0.6172 -0.8359,-0.9765 -0.6016,-0.3594 -1.4141,-0.3594 -1.2969,0 -2.2344,0.8125 -0.9375,0.8125 -0.9375,3.1094 l 0,6.5156 -2.0156,0 z m 12.7915,0 0,-11.9219 1.8125,0 0,1.6719 q 0.5625,-0.875 1.4922,-1.4141 0.9297,-0.539 2.1172,-0.539 1.3281,0 2.1797,0.5547 0.8515,0.5546 1.1953,1.539 1.4062,-2.0937 3.6875,-2.0937 1.7656,0 2.7187,0.9843 0.9532,0.9844 0.9532,3.0313 l 0,8.1875 -2,0 0,-7.5156 q 0,-1.2032 -0.1953,-1.7422 -0.1954,-0.5391 -0.7188,-0.8594 -0.5234,-0.3203 -1.2109,-0.3203 -1.2657,0 -2.0938,0.8359 -0.8281,0.836 -0.8281,2.6797 l 0,6.9219 -2.0156,0 0,-7.75 q 0,-1.3438 -0.5,-2.0156 -0.5,-0.6719 -1.625,-0.6719 -0.8438,0 -1.5703,0.4453 -0.7266,0.4453 -1.0547,1.3125 -0.3282,0.8672 -0.3282,2.4922 l 0,6.1875 -2.0156,0 z m 22.5342,4.5781 -4.4531,0 0,-1.6875 2.4375,0 0,-17.6875 -2.4375,0 0,-1.6719 4.4531,0 0,21.0469 z"
     id="path131"
     inkscape:connector-curvature="0" />
  <line
     y2="45"
     style="color-interpolation:linearRGB;fill:none;stroke:#262626;stroke-width:0.66670001;stroke-linejoin:round;color-rendering:optimizeQuality;image-rendering:optimizeQuality;text-rendering:geometricPrecision"
     x1="124"
     x2="124"
     y1="538"
     id="line135" />
  <line
     y2="45"
     style="color-interpolation:linearRGB;fill:none;stroke:#262626;stroke-width:0.66670001;stroke-linejoin:round;color-rendering:optimizeQuality;image-rendering:optimizeQuality;text-rendering:geometricPrecision"
     x1="865"
     x2="865"
     y1="538"
     id="line137" />
  <line
     y2="528.50739"
     style="color-interpolation:linearRGB;fill:none;stroke:#262626;stroke-width:0.66670001;stroke-linejoin:round;color-rendering:optimizeQuality;image-rendering:optimizeQuality;text-rendering:geometricPrecision"
     x1="124"
     x2="131.41"
     y1="528.50739"
     id="line139" />
  <line
     y2="484.44312"
     style="color-interpolation:linearRGB;fill:none;stroke:#262626;stroke-width:0.66670001;stroke-linejoin:round;color-rendering:optimizeQuality;image-rendering:optimizeQuality;text-rendering:geometricPrecision"
     x1="124"
     x2="131.41"
     y1="484.44312"
     id="line141" />
  <line
     y2="440.37869"
     style="color-interpolation:linearRGB;fill:none;stroke:#262626;stroke-width:0.66670001;stroke-linejoin:round;color-rendering:optimizeQuality;image-rendering:optimizeQuality;text-rendering:geometricPrecision"
     x1="124"
     x2="131.41"
     y1="440.37869"
     id="line143" />
  <line
     y2="396.3143"
     style="color-interpolation:linearRGB;fill:none;stroke:#262626;stroke-width:0.66670001;stroke-linejoin:round;color-rendering:optimizeQuality;image-rendering:optimizeQuality;text-rendering:geometricPrecision"
     x1="124"
     x2="131.41"
     y1="396.3143"
     id="line145" />
  <line
     y2="352.24991"
     style="color-interpolation:linearRGB;fill:none;stroke:#262626;stroke-width:0.66670001;stroke-linejoin:round;color-rendering:optimizeQuality;image-rendering:optimizeQuality;text-rendering:geometricPrecision"
     x1="124"
     x2="131.41"
     y1="352.24991"
     id="line147" />
  <line
     y2="308.18549"
     style="color-interpolation:linearRGB;fill:none;stroke:#262626;stroke-width:0.66670001;stroke-linejoin:round;color-rendering:optimizeQuality;image-rendering:optimizeQuality;text-rendering:geometricPrecision"
     x1="124"
     x2="131.41"
     y1="308.18549"
     id="line149" />
  <line
     y2="264.12119"
     style="color-interpolation:linearRGB;fill:none;stroke:#262626;stroke-width:0.66670001;stroke-linejoin:round;color-rendering:optimizeQuality;image-rendering:optimizeQuality;text-rendering:geometricPrecision"
     x1="124"
     x2="131.41"
     y1="264.12119"
     id="line151" />
  <line
     y2="220.05679"
     style="color-interpolation:linearRGB;fill:none;stroke:#262626;stroke-width:0.66670001;stroke-linejoin:round;color-rendering:optimizeQuality;image-rendering:optimizeQuality;text-rendering:geometricPrecision"
     x1="124"
     x2="131.41"
     y1="220.05679"
     id="line153" />
  <line
     y2="175.9924"
     style="color-interpolation:linearRGB;fill:none;stroke:#262626;stroke-width:0.66670001;stroke-linejoin:round;color-rendering:optimizeQuality;image-rendering:optimizeQuality;text-rendering:geometricPrecision"
     x1="124"
     x2="131.41"
     y1="175.9924"
     id="line155" />
  <line
     y2="131.92799"
     style="color-interpolation:linearRGB;fill:none;stroke:#262626;stroke-width:0.66670001;stroke-linejoin:round;color-rendering:optimizeQuality;image-rendering:optimizeQuality;text-rendering:geometricPrecision"
     x1="124"
     x2="131.41"
     y1="131.92799"
     id="line157" />
  <line
     y2="87.863602"
     style="color-interpolation:linearRGB;fill:none;stroke:#262626;stroke-width:0.66670001;stroke-linejoin:round;color-rendering:optimizeQuality;image-rendering:optimizeQuality;text-rendering:geometricPrecision"
     x1="124"
     x2="131.41"
     y1="87.863602"
     id="line159" />
  <line
     y2="528.50739"
     style="color-interpolation:linearRGB;fill:none;stroke:#262626;stroke-width:0.66670001;stroke-linejoin:round;color-rendering:optimizeQuality;image-rendering:optimizeQuality;text-rendering:geometricPrecision"
     x1="865"
     x2="857.59003"
     y1="528.50739"
     id="line161" />
  <line
     y2="484.44312"
     style="color-interpolation:linearRGB;fill:none;stroke:#262626;stroke-width:0.66670001;stroke-linejoin:round;color-rendering:optimizeQuality;image-rendering:optimizeQuality;text-rendering:geometricPrecision"
     x1="865"
     x2="857.59003"
     y1="484.44312"
     id="line163" />
  <line
     y2="440.37869"
     style="color-interpolation:linearRGB;fill:none;stroke:#262626;stroke-width:0.66670001;stroke-linejoin:round;color-rendering:optimizeQuality;image-rendering:optimizeQuality;text-rendering:geometricPrecision"
     x1="865"
     x2="857.59003"
     y1="440.37869"
     id="line165" />
  <line
     y2="396.3143"
     style="color-interpolation:linearRGB;fill:none;stroke:#262626;stroke-width:0.66670001;stroke-linejoin:round;color-rendering:optimizeQuality;image-rendering:optimizeQuality;text-rendering:geometricPrecision"
     x1="865"
     x2="857.59003"
     y1="396.3143"
     id="line167" />
  <line
     y2="352.24991"
     style="color-interpolation:linearRGB;fill:none;stroke:#262626;stroke-width:0.66670001;stroke-linejoin:round;color-rendering:optimizeQuality;image-rendering:optimizeQuality;text-rendering:geometricPrecision"
     x1="865"
     x2="857.59003"
     y1="352.24991"
     id="line169" />
  <line
     y2="308.18549"
     style="color-interpolation:linearRGB;fill:none;stroke:#262626;stroke-width:0.66670001;stroke-linejoin:round;color-rendering:optimizeQuality;image-rendering:optimizeQuality;text-rendering:geometricPrecision"
     x1="865"
     x2="857.59003"
     y1="308.18549"
     id="line171" />
  <line
     y2="264.12119"
     style="color-interpolation:linearRGB;fill:none;stroke:#262626;stroke-width:0.66670001;stroke-linejoin:round;color-rendering:optimizeQuality;image-rendering:optimizeQuality;text-rendering:geometricPrecision"
     x1="865"
     x2="857.59003"
     y1="264.12119"
     id="line173" />
  <line
     y2="220.05679"
     style="color-interpolation:linearRGB;fill:none;stroke:#262626;stroke-width:0.66670001;stroke-linejoin:round;color-rendering:optimizeQuality;image-rendering:optimizeQuality;text-rendering:geometricPrecision"
     x1="865"
     x2="857.59003"
     y1="220.05679"
     id="line175" />
  <line
     y2="175.9924"
     style="color-interpolation:linearRGB;fill:none;stroke:#262626;stroke-width:0.66670001;stroke-linejoin:round;color-rendering:optimizeQuality;image-rendering:optimizeQuality;text-rendering:geometricPrecision"
     x1="865"
     x2="857.59003"
     y1="175.9924"
     id="line177" />
  <line
     y2="131.92799"
     style="color-interpolation:linearRGB;fill:none;stroke:#262626;stroke-width:0.66670001;stroke-linejoin:round;color-rendering:optimizeQuality;image-rendering:optimizeQuality;text-rendering:geometricPrecision"
     x1="865"
     x2="857.59003"
     y1="131.92799"
     id="line179" />
  <line
     y2="87.863602"
     style="color-interpolation:linearRGB;fill:none;stroke:#262626;stroke-width:0.66670001;stroke-linejoin:round;color-rendering:optimizeQuality;image-rendering:optimizeQuality;text-rendering:geometricPrecision"
     x1="865"
     x2="857.59003"
     y1="87.863602"
     id="line181" />
  <path
     style="font-size:medium;font-family:SansSerif;color-interpolation:linearRGB;fill:#262626;stroke:none;color-rendering:optimizeQuality;image-rendering:optimizeQuality;text-rendering:geometricPrecision"
     d="m 87.9417,529.6012 q 0,-2.6719 0.5469,-4.2969 0.5469,-1.625 1.625,-2.5078 1.0781,-0.8829 2.7187,-0.8829 1.2188,0 2.1328,0.4844 0.9141,0.4844 1.5078,1.4063 0.5938,0.9219 0.9297,2.2343 0.336,1.3126 0.336,3.5626 0,2.6406 -0.5391,4.2656 -0.539,1.625 -1.625,2.5078 -1.0859,0.8828 -2.7422,0.8828 -2.1718,0 -3.4062,-1.5469 -1.4844,-1.875 -1.4844,-6.1093 z m 1.8906,0 q 0,3.6874 0.8672,4.914 0.8672,1.2266 2.1328,1.2266 1.2813,0 2.1485,-1.2266 0.8671,-1.2266 0.8671,-4.914 0,-3.7188 -0.8671,-4.9376 -0.8672,-1.2187 -2.1641,-1.2187 -1.2656,0 -2.0312,1.0781 -0.9532,1.375 -0.9532,5.0782 z m 10.8198,7.4062 0,-2.1094 2.1094,0 0,2.1094 -2.1094,0 z m 10.7095,0 0,-3.5938 -6.5156,0 0,-1.7031 6.8594,-9.7343 1.5156,0 0,9.7343 2.0312,0 0,1.7031 -2.0312,0 0,3.5938 -1.8594,0 z m 0,-5.2969 0,-6.7656 -4.7031,6.7656 4.7031,0 z"
     id="path185"
     inkscape:connector-curvature="0" />
  <path
     style="font-size:medium;font-family:SansSerif;color-interpolation:linearRGB;fill:#262626;stroke:none;color-rendering:optimizeQuality;image-rendering:optimizeQuality;text-rendering:geometricPrecision"
     d="m 87.9417,485.5369 q 0,-2.6719 0.5469,-4.2969 0.5469,-1.625 1.625,-2.5078 1.0781,-0.8829 2.7187,-0.8829 1.2188,0 2.1328,0.4844 0.9141,0.4844 1.5078,1.4063 0.5938,0.9219 0.9297,2.2343 0.336,1.3126 0.336,3.5626 0,2.6406 -0.5391,4.2656 -0.539,1.625 -1.625,2.5078 -1.0859,0.8828 -2.7422,0.8828 -2.1718,0 -3.4062,-1.5469 -1.4844,-1.875 -1.4844,-6.1093 z m 1.8906,0 q 0,3.6874 0.8672,4.914 0.8672,1.2266 2.1328,1.2266 1.2813,0 2.1485,-1.2266 0.8671,-1.2266 0.8671,-4.914 0,-3.7188 -0.8671,-4.9376 -0.8672,-1.2187 -2.1641,-1.2187 -1.2656,0 -2.0312,1.0781 -0.9532,1.375 -0.9532,5.0782 z m 10.8198,7.4062 0,-2.1094 2.1094,0 0,2.1094 -2.1094,0 z m 14.3814,-11.3438 -1.8438,0.1407 q -0.2343,-1.0938 -0.6875,-1.5781 -0.75,-0.7969 -1.8437,-0.7969 -0.8906,0 -1.5625,0.5 -0.8594,0.625 -1.3672,1.8437 -0.5078,1.2188 -0.5234,3.4844 0.6718,-1.0156 1.6328,-1.5078 0.9609,-0.4922 2.0234,-0.4922 1.8438,0 3.1406,1.3594 1.2969,1.3594 1.2969,3.5156 0,1.4062 -0.6094,2.625 -0.6093,1.2188 -1.6796,1.8594 -1.0704,0.6406 -2.4141,0.6406 -2.3125,0 -3.7656,-1.6953 -1.4532,-1.6953 -1.4532,-5.5859 0,-4.3594 1.6094,-6.3438 1.3906,-1.7188 3.7813,-1.7188 1.7656,0 2.8984,0.9922 1.1328,0.9922 1.3672,2.7578 z m -7.5469,6.4688 q 0,0.9531 0.4063,1.8281 0.4062,0.875 1.1328,1.3281 0.7265,0.4532 1.539,0.4532 1.1563,0 2,-0.9375 0.8438,-0.9375 0.8438,-2.5625 0,-1.5625 -0.8281,-2.461 -0.8282,-0.8984 -2.0938,-0.8984 -1.25,0 -2.125,0.8984 -0.875,0.8985 -0.875,2.3516 z"
     id="path189"
     inkscape:connector-curvature="0" />
  <path
     style="font-size:medium;font-family:SansSerif;color-interpolation:linearRGB;fill:#262626;stroke:none;color-rendering:optimizeQuality;image-rendering:optimizeQuality;text-rendering:geometricPrecision"
     d="m 87.9417,441.4725 q 0,-2.6719 0.5469,-4.2969 0.5469,-1.625 1.625,-2.5078 1.0781,-0.8829 2.7187,-0.8829 1.2188,0 2.1328,0.4844 0.9141,0.4844 1.5078,1.4063 0.5938,0.9219 0.9297,2.2343 0.336,1.3126 0.336,3.5626 0,2.6406 -0.5391,4.2656 -0.539,1.625 -1.625,2.5078 -1.0859,0.8828 -2.7422,0.8828 -2.1718,0 -3.4062,-1.5469 -1.4844,-1.875 -1.4844,-6.1093 z m 1.8906,0 q 0,3.6874 0.8672,4.914 0.8672,1.2266 2.1328,1.2266 1.2813,0 2.1485,-1.2266 0.8671,-1.2266 0.8671,-4.914 0,-3.7188 -0.8671,-4.9376 -0.8672,-1.2187 -2.1641,-1.2187 -1.2656,0 -2.0312,1.0781 -0.9532,1.375 -0.9532,5.0782 z m 10.8198,7.4062 0,-2.1094 2.1094,0 0,2.1094 -2.1094,0 z m 7.647,-8.1562 q -1.1562,-0.4219 -1.7109,-1.1954 -0.5547,-0.7734 -0.5547,-1.8672 0,-1.6406 1.1797,-2.7578 1.1797,-1.1172 3.1328,-1.1172 1.9687,0 3.1719,1.1407 1.2031,1.1406 1.2031,2.7812 0,1.0469 -0.5469,1.8203 -0.5469,0.7735 -1.6719,1.1954 1.3907,0.4531 2.1094,1.4609 0.7188,1.0078 0.7188,2.3984 0,1.9219 -1.3594,3.2344 -1.3594,1.3125 -3.5938,1.3125 -2.2187,0 -3.5859,-1.3125 -1.3672,-1.3125 -1.3672,-3.2813 0,-1.4687 0.75,-2.4609 0.75,-0.9922 2.125,-1.3515 z m -0.375,-3.125 q 0,1.0624 0.6875,1.7421 0.6875,0.6797 1.7813,0.6797 1.0625,0 1.75,-0.6718 0.6875,-0.6719 0.6875,-1.6407 0,-1.0156 -0.7032,-1.7109 -0.7031,-0.6953 -1.75,-0.6953 -1.0625,0 -1.7578,0.6797 -0.6953,0.6796 -0.6953,1.6172 z m -0.5937,6.9374 q 0,0.7969 0.375,1.5313 0.375,0.7344 1.1093,1.1406 0.7344,0.4063 1.5938,0.4063 1.3125,0 2.1797,-0.8516 0.8672,-0.8516 0.8672,-2.164 0,-1.3282 -0.8907,-2.2032 -0.8906,-0.875 -2.2187,-0.875 -1.3125,0 -2.1641,0.8672 -0.8515,0.8672 -0.8515,2.1484 z"
     id="path193"
     inkscape:connector-curvature="0" />
  <path
     style="font-size:medium;font-family:SansSerif;color-interpolation:linearRGB;fill:#262626;stroke:none;color-rendering:optimizeQuality;image-rendering:optimizeQuality;text-rendering:geometricPrecision"
     d="m 112.8948,404.8143 -1.8437,0 0,-11.7656 q -0.6719,0.6406 -1.7578,1.2734 -1.086,0.6328 -1.9454,0.961 l 0,-1.7969 q 1.5469,-0.7188 2.711,-1.7578 1.164,-1.0391 1.6484,-2.0079 l 1.1875,0 0,15.0938 z"
     id="path197"
     inkscape:connector-curvature="0" />
  <path
     style="font-size:medium;font-family:SansSerif;color-interpolation:linearRGB;fill:#262626;stroke:none;color-rendering:optimizeQuality;image-rendering:optimizeQuality;text-rendering:geometricPrecision"
     d="m 94.8948,360.7499 -1.8437,0 0,-11.7656 q -0.6719,0.6406 -1.7578,1.2734 -1.086,0.6328 -1.9454,0.961 l 0,-1.7969 q 1.5469,-0.7188 2.711,-1.7578 1.164,-1.0391 1.6484,-2.0079 l 1.1875,0 0,15.0938 z m 5.7573,0 0,-2.1094 2.1094,0 0,2.1094 -2.1094,0 z m 14.5064,-1.7812 0,1.7812 -9.9375,0 q -0.0313,-0.6719 0.2031,-1.2812 0.3906,-1.0157 1.2266,-2 0.8359,-0.9844 2.414,-2.2813 2.4532,-2 3.3125,-3.1797 0.8594,-1.1797 0.8594,-2.2266 0,-1.0937 -0.789,-1.8437 -0.7891,-0.75 -2.0391,-0.75 -1.3438,0 -2.1406,0.7969 -0.7969,0.7968 -0.8125,2.2187 l -1.8907,-0.2031 q 0.1875,-2.125 1.461,-3.2344 1.2734,-1.1094 3.414,-1.1094 2.1719,0 3.4297,1.2032 1.2578,1.2031 1.2578,2.9687 0,0.9063 -0.3671,1.7735 -0.3672,0.8672 -1.2266,1.8359 -0.8594,0.9687 -2.8438,2.6406 -1.6562,1.4063 -2.1328,1.8985 -0.4765,0.4922 -0.7734,0.9922 l 7.375,0 z"
     id="path201"
     inkscape:connector-curvature="0" />
  <path
     style="font-size:medium;font-family:SansSerif;color-interpolation:linearRGB;fill:#262626;stroke:none;color-rendering:optimizeQuality;image-rendering:optimizeQuality;text-rendering:geometricPrecision"
     d="m 94.8948,316.6855 -1.8437,0 0,-11.7656 q -0.6719,0.6406 -1.7578,1.2734 -1.086,0.6328 -1.9454,0.961 l 0,-1.7969 q 1.5469,-0.7188 2.711,-1.7578 1.164,-1.0391 1.6484,-2.0079 l 1.1875,0 0,15.0938 z m 5.7573,0 0,-2.1094 2.1094,0 0,2.1094 -2.1094,0 z m 10.7095,0 0,-3.5938 -6.5156,0 0,-1.7031 6.8594,-9.7343 1.5156,0 0,9.7343 2.0312,0 0,1.7031 -2.0312,0 0,3.5938 -1.8594,0 z m 0,-5.2969 0,-6.7656 -4.7031,6.7656 4.7031,0 z"
     id="path205"
     inkscape:connector-curvature="0" />
  <path
     style="font-size:medium;font-family:SansSerif;color-interpolation:linearRGB;fill:#262626;stroke:none;color-rendering:optimizeQuality;image-rendering:optimizeQuality;text-rendering:geometricPrecision"
     d="m 94.8948,272.6212 -1.8437,0 0,-11.7656 q -0.6719,0.6406 -1.7578,1.2734 -1.086,0.6328 -1.9454,0.961 l 0,-1.7969 q 1.5469,-0.7188 2.711,-1.7578 1.164,-1.0391 1.6484,-2.0079 l 1.1875,0 0,15.0938 z m 5.7573,0 0,-2.1094 2.1094,0 0,2.1094 -2.1094,0 z m 14.3814,-11.3438 -1.8438,0.1407 q -0.2343,-1.0938 -0.6875,-1.5781 -0.75,-0.7969 -1.8437,-0.7969 -0.8906,0 -1.5625,0.5 -0.8594,0.625 -1.3672,1.8437 -0.5078,1.2188 -0.5234,3.4844 0.6718,-1.0156 1.6328,-1.5078 0.9609,-0.4922 2.0234,-0.4922 1.8438,0 3.1406,1.3594 1.2969,1.3594 1.2969,3.5156 0,1.4062 -0.6094,2.625 -0.6093,1.2188 -1.6796,1.8594 -1.0704,0.6406 -2.4141,0.6406 -2.3125,0 -3.7656,-1.6953 -1.4532,-1.6953 -1.4532,-5.5859 0,-4.3594 1.6094,-6.3438 1.3906,-1.7188 3.7813,-1.7188 1.7656,0 2.8984,0.9922 1.1328,0.9922 1.3672,2.7578 z m -7.5469,6.4688 q 0,0.9531 0.4063,1.8281 0.4062,0.875 1.1328,1.3281 0.7265,0.4532 1.539,0.4532 1.1563,0 2,-0.9375 0.8438,-0.9375 0.8438,-2.5625 0,-1.5625 -0.8281,-2.461 -0.8282,-0.8984 -2.0938,-0.8984 -1.25,0 -2.125,0.8984 -0.875,0.8985 -0.875,2.3516 z"
     id="path209"
     inkscape:connector-curvature="0" />
  <path
     style="font-size:medium;font-family:SansSerif;color-interpolation:linearRGB;fill:#262626;stroke:none;color-rendering:optimizeQuality;image-rendering:optimizeQuality;text-rendering:geometricPrecision"
     d="m 94.8948,228.5568 -1.8437,0 0,-11.7656 q -0.6719,0.6406 -1.7578,1.2734 -1.086,0.6328 -1.9454,0.961 l 0,-1.7969 q 1.5469,-0.7188 2.711,-1.7578 1.164,-1.0391 1.6484,-2.0079 l 1.1875,0 0,15.0938 z m 5.7573,0 0,-2.1094 2.1094,0 0,2.1094 -2.1094,0 z m 7.647,-8.1562 q -1.1562,-0.4219 -1.7109,-1.1954 -0.5547,-0.7734 -0.5547,-1.8672 0,-1.6406 1.1797,-2.7578 1.1797,-1.1172 3.1328,-1.1172 1.9687,0 3.1719,1.1407 1.2031,1.1406 1.2031,2.7812 0,1.0469 -0.5469,1.8203 -0.5469,0.7735 -1.6719,1.1954 1.3907,0.4531 2.1094,1.4609 0.7188,1.0078 0.7188,2.3984 0,1.9219 -1.3594,3.2344 -1.3594,1.3125 -3.5938,1.3125 -2.2187,0 -3.5859,-1.3125 -1.3672,-1.3125 -1.3672,-3.2813 0,-1.4687 0.75,-2.4609 0.75,-0.9922 2.125,-1.3515 z m -0.375,-3.125 q 0,1.0624 0.6875,1.7421 0.6875,0.6797 1.7813,0.6797 1.0625,0 1.75,-0.6718 0.6875,-0.6719 0.6875,-1.6407 0,-1.0156 -0.7032,-1.7109 -0.7031,-0.6953 -1.75,-0.6953 -1.0625,0 -1.7578,0.6797 -0.6953,0.6796 -0.6953,1.6172 z m -0.5937,6.9374 q 0,0.7969 0.375,1.5313 0.375,0.7344 1.1093,1.1406 0.7344,0.4063 1.5938,0.4063 1.3125,0 2.1797,-0.8516 0.8672,-0.8516 0.8672,-2.164 0,-1.3282 -0.8907,-2.2032 -0.8906,-0.875 -2.2187,-0.875 -1.3125,0 -2.1641,0.8672 -0.8515,0.8672 -0.8515,2.1484 z"
     id="path213"
     inkscape:connector-curvature="0" />
  <path
     style="font-size:medium;font-family:SansSerif;color-interpolation:linearRGB;fill:#262626;stroke:none;color-rendering:optimizeQuality;image-rendering:optimizeQuality;text-rendering:geometricPrecision"
     d="m 115.6448,182.7112 0,1.7812 -9.9375,0 q -0.0312,-0.6719 0.2032,-1.2812 0.3906,-1.0157 1.2265,-2 0.8359,-0.9844 2.4141,-2.2813 2.4531,-2 3.3125,-3.1797 0.8593,-1.1797 0.8593,-2.2266 0,-1.0937 -0.789,-1.8437 -0.7891,-0.75 -2.0391,-0.75 -1.3437,0 -2.1406,0.7969 -0.7969,0.7968 -0.8125,2.2187 l -1.8906,-0.2031 q 0.1875,-2.125 1.4609,-3.2344 1.2735,-1.1094 3.4141,-1.1094 2.1718,0 3.4297,1.2032 1.2578,1.2031 1.2578,2.9687 0,0.9063 -0.3672,1.7735 -0.3672,0.8672 -1.2266,1.8359 -0.8593,0.9687 -2.8437,2.6406 -1.6563,1.4063 -2.1328,1.8985 -0.4766,0.4922 -0.7735,0.9922 l 7.375,0 z"
     id="path217"
     inkscape:connector-curvature="0" />
  <path
     style="font-size:medium;font-family:SansSerif;color-interpolation:linearRGB;fill:#262626;stroke:none;color-rendering:optimizeQuality;image-rendering:optimizeQuality;text-rendering:geometricPrecision"
     d="m 97.6448,138.6468 0,1.7812 -9.9375,0 q -0.0312,-0.6719 0.2032,-1.2812 0.3906,-1.0157 1.2265,-2 0.8359,-0.9844 2.4141,-2.2813 2.4531,-2 3.3125,-3.1797 0.8593,-1.1797 0.8593,-2.2266 0,-1.0937 -0.789,-1.8437 -0.7891,-0.75 -2.0391,-0.75 -1.3437,0 -2.1406,0.7969 -0.7969,0.7968 -0.8125,2.2187 l -1.8906,-0.2031 q 0.1875,-2.125 1.4609,-3.2344 1.2735,-1.1094 3.4141,-1.1094 2.1718,0 3.4297,1.2032 1.2578,1.2031 1.2578,2.9687 0,0.9063 -0.3672,1.7735 -0.3672,0.8672 -1.2266,1.8359 -0.8593,0.9687 -2.8437,2.6406 -1.6563,1.4063 -2.1328,1.8985 -0.4766,0.4922 -0.7735,0.9922 l 7.375,0 z m 3.0073,1.7812 0,-2.1094 2.1094,0 0,2.1094 -2.1094,0 z m 14.5064,-1.7812 0,1.7812 -9.9375,0 q -0.0313,-0.6719 0.2031,-1.2812 0.3906,-1.0157 1.2266,-2 0.8359,-0.9844 2.414,-2.2813 2.4532,-2 3.3125,-3.1797 0.8594,-1.1797 0.8594,-2.2266 0,-1.0937 -0.789,-1.8437 -0.7891,-0.75 -2.0391,-0.75 -1.3438,0 -2.1406,0.7969 -0.7969,0.7968 -0.8125,2.2187 l -1.8907,-0.2031 q 0.1875,-2.125 1.461,-3.2344 1.2734,-1.1094 3.414,-1.1094 2.1719,0 3.4297,1.2032 1.2578,1.2031 1.2578,2.9687 0,0.9063 -0.3671,1.7735 -0.3672,0.8672 -1.2266,1.8359 -0.8594,0.9687 -2.8438,2.6406 -1.6562,1.4063 -2.1328,1.8985 -0.4765,0.4922 -0.7734,0.9922 l 7.375,0 z"
     id="path221"
     inkscape:connector-curvature="0" />
  <path
     style="font-size:medium;font-family:SansSerif;color-interpolation:linearRGB;fill:#262626;stroke:none;color-rendering:optimizeQuality;image-rendering:optimizeQuality;text-rendering:geometricPrecision"
     d="m 97.6448,94.5824 0,1.7812 -9.9375,0 q -0.0312,-0.6719 0.2032,-1.2812 0.3906,-1.0157 1.2265,-2 0.8359,-0.9844 2.4141,-2.2813 2.4531,-2 3.3125,-3.1797 0.8593,-1.1797 0.8593,-2.2266 0,-1.0937 -0.789,-1.8437 -0.7891,-0.75 -2.0391,-0.75 -1.3437,0 -2.1406,0.7969 -0.7969,0.7968 -0.8125,2.2187 l -1.8906,-0.2031 q 0.1875,-2.125 1.4609,-3.2344 1.2735,-1.1094 3.4141,-1.1094 2.1718,0 3.4297,1.2032 1.2578,1.2031 1.2578,2.9687 0,0.9063 -0.3672,1.7735 -0.3672,0.8672 -1.2266,1.8359 -0.8593,0.9687 -2.8437,2.6406 -1.6563,1.4063 -2.1328,1.8985 -0.4766,0.4922 -0.7735,0.9922 l 7.375,0 z m 3.0073,1.7812 0,-2.1094 2.1094,0 0,2.1094 -2.1094,0 z m 10.7095,0 0,-3.5938 -6.5156,0 0,-1.7031 6.8594,-9.7343 1.5156,0 0,9.7343 2.0312,0 0,1.7031 -2.0312,0 0,3.5938 -1.8594,0 z m 0,-5.2969 0,-6.7656 -4.7031,6.7656 4.7031,0 z"
     id="path225"
     inkscape:connector-curvature="0" />
  <path
     style="font-size:medium;font-family:SansSerif;color-interpolation:linearRGB;fill:#262626;stroke:none;color-rendering:optimizeQuality;image-rendering:optimizeQuality;text-rendering:geometricPrecision"
     d="m 71.3011,349.9842 0.5468,-2.1875 q 2.6876,0.6875 4.0938,2.4687 1.4062,1.7813 1.4062,4.3438 0,2.6718 -1.0859,4.3359 -1.0859,1.6641 -3.1406,2.5391 -2.0547,0.875 -4.4141,0.875 -2.5625,0 -4.4765,-0.9844 -1.9141,-0.9844 -2.9141,-2.7969 -1,-1.8125 -1,-4 0,-2.4687 1.2578,-4.1484 1.2578,-1.6797 3.5391,-2.3516 l 0.5156,2.1407 q -1.7969,0.5781 -2.6172,1.6718 -0.8203,1.0938 -0.8203,2.7344 0,1.9062 0.9062,3.1797 0.9063,1.2734 2.4376,1.7891 1.5312,0.5156 3.1718,0.5156 2.0938,0 3.6563,-0.6094 1.5625,-0.6094 2.3437,-1.9062 0.7813,-1.2969 0.7813,-2.7969 0,-1.8281 -1.0547,-3.1016 -1.0547,-1.2734 -3.1328,-1.7109 z m 5.7656,-12.4224 -1.75,0 q 2.0156,1.3906 2.0156,3.7813 0,1.0468 -0.4062,1.9687 -0.4063,0.9219 -1.0156,1.3594 -0.6094,0.4375 -1.5,0.625 -0.5938,0.125 -1.875,0.125 l -7.3907,0 0,-2.0313 6.6094,0 q 1.5781,0 2.1406,-0.1093 0.7969,-0.2032 1.25,-0.8204 0.4531,-0.6171 0.4531,-1.5234 0,-0.9062 -0.4687,-1.7031 -0.4687,-0.7969 -1.2734,-1.1328 -0.8047,-0.336 -2.3203,-0.336 l -6.3907,0 0,-2.0156 11.9219,0 0,1.8125 z m -3.8438,-13.1509 0.2657,-2.0781 q 1.8281,0.4844 2.8359,1.8203 1.0078,1.336 1.0078,3.4141 0,2.625 -1.6094,4.1562 -1.6093,1.5313 -4.5156,1.5313 -3.0156,0 -4.6797,-1.5469 -1.664,-1.5469 -1.664,-4.0156 0,-2.4063 1.6328,-3.9219 1.6328,-1.5156 4.5859,-1.5156 0.1719,0 0.5313,0.0156 l 0,8.8906 q 1.9687,-0.1093 3.0156,-1.1093 1.0469,-1 1.0469,-2.4844 0,-1.1094 -0.586,-1.8985 -0.5859,-0.789 -1.8672,-1.2578 z m -3.2656,6.6407 0,-6.6563 q -1.5,0.1406 -2.25,0.7656 -1.1718,0.9688 -1.1718,2.5 0,1.3907 0.9296,2.3438 0.9297,0.9531 2.4922,1.0469 z m 7.1094,-11.2603 -11.9219,0 0,-1.8125 1.6875,0 q -1.9687,-1.3281 -1.9687,-3.7969 0,-1.0781 0.3906,-1.9843 0.3906,-0.9063 1.0234,-1.3594 0.6329,-0.4531 1.4922,-0.625 0.5625,-0.1094 1.9688,-0.1094 l 7.3281,0 0,2.0156 -7.25,0 q -1.2344,0 -1.8516,0.2344 -0.6172,0.2344 -0.9765,0.8359 -0.3594,0.6016 -0.3594,1.4141 0,1.2969 0.8125,2.2344 0.8125,0.9375 3.1094,0.9375 l 6.5156,0 0,2.0156 z m -1.8125,-17.2134 1.7969,-0.2812 q 0.1718,0.8437 0.1718,1.5312 0,1.0938 -0.3515,1.7031 -0.3516,0.6094 -0.9141,0.8516 -0.5625,0.2422 -2.3906,0.2422 l -6.8594,0 0,1.4844 -1.5625,0 0,-1.4844 -2.9531,0 -1.2188,-2 4.1719,0 0,-2.0469 1.5625,0 0,2.0469 6.9844,0 q 0.8594,0 1.1094,-0.1094 0.25,-0.1094 0.3906,-0.3515 0.1406,-0.2422 0.1406,-0.6953 0,-0.3282 -0.0781,-0.8907 z m 0.3437,-9.7495 q 0.9532,1.125 1.3438,2.1641 0.3906,1.039 0.3906,2.2265 0,1.9688 -0.9609,3.0235 -0.9609,1.0547 -2.4453,1.0547 -0.875,0 -1.6016,-0.3985 -0.7266,-0.3984 -1.164,-1.0468 -0.4376,-0.6485 -0.6563,-1.461 -0.1719,-0.5937 -0.3125,-1.7969 -0.2969,-2.4375 -0.6875,-3.5937 -0.4219,-0.0156 -0.5313,-0.0156 -1.2343,0 -1.75,0.5781 -0.6718,0.7656 -0.6718,2.2969 0,1.4218 0.4922,2.1015 0.4922,0.6797 1.7734,1.0078 l -0.2812,1.9844 q -1.2657,-0.2812 -2.0469,-0.8984 -0.7813,-0.6172 -1.2031,-1.7813 -0.4219,-1.164 -0.4219,-2.7109 0,-1.5313 0.3593,-2.4844 0.3594,-0.9531 0.9063,-1.3984 0.5469,-0.4453 1.375,-0.6328 0.5156,-0.0938 1.875,-0.0938 l 2.6875,0 q 2.8281,0 3.5703,-0.1328 0.7422,-0.1328 1.4297,-0.5078 l 0,2.1094 q -0.625,0.3125 -1.4688,0.4062 z m -4.5156,0.1719 q 0.4532,1.0937 0.7656,3.2969 0.1719,1.25 0.3985,1.7656 0.2265,0.5156 0.6562,0.7969 0.4297,0.2812 0.961,0.2812 0.8125,0 1.3515,-0.6172 0.5391,-0.6172 0.5391,-1.789 0,-1.1719 -0.5156,-2.0782 -0.5157,-0.9062 -1.3907,-1.3437 -0.6874,-0.3125 -2.0312,-0.3125 l -0.7344,0 z m 2.4219,-4.3696 -0.3125,-2 q 1.2031,-0.1719 1.8438,-0.9375 0.6406,-0.7657 0.6406,-2.1563 0,-1.3906 -0.5703,-2.0625 -0.5703,-0.6719 -1.336,-0.6719 -0.6719,0 -1.0781,0.5938 -0.2656,0.4062 -0.6719,2.0625 -0.5625,2.2187 -0.9765,3.0781 -0.4141,0.8594 -1.1407,1.3047 -0.7265,0.4453 -1.6015,0.4453 -0.7969,0 -1.4766,-0.3672 -0.6797,-0.3672 -1.1172,-0.9922 -0.3594,-0.4687 -0.6015,-1.2812 -0.2422,-0.8125 -0.2422,-1.75 0,-1.4063 0.4062,-2.4688 0.4063,-1.0625 1.1016,-1.5625 0.6953,-0.5 1.8515,-0.6875 l 0.2657,1.9688 q -0.9219,0.1406 -1.4375,0.7812 -0.5156,0.6407 -0.5156,1.8282 0,1.3906 0.4609,1.9843 0.4609,0.5938 1.0703,0.5938 0.3906,0 0.7188,-0.25 0.3124,-0.25 0.5312,-0.7656 0.1094,-0.3125 0.5156,-1.7969 0.5782,-2.1406 0.9375,-2.9844 0.3594,-0.8437 1.0625,-1.3281 0.7032,-0.4844 1.7344,-0.4844 1,0 1.8984,0.5859 0.8985,0.586 1.3828,1.7032 0.4844,1.1172 0.4844,2.5078 0,2.3281 -0.9609,3.5469 -0.9609,1.2187 -2.8672,1.5625 z m 8.1406,-18.7496 -21.0469,0 0,-4.4531 1.6719,0 0,2.4375 17.6875,0 0,-2.4375 1.6875,0 0,4.4531 z m -6.0469,-14.1245 q 0.9532,1.125 1.3438,2.1641 0.3906,1.0391 0.3906,2.2266 0,1.9687 -0.9609,3.0234 -0.9609,1.0547 -2.4453,1.0547 -0.875,0 -1.6016,-0.3985 -0.7266,-0.3984 -1.164,-1.0468 -0.4376,-0.6485 -0.6563,-1.461 -0.1719,-0.5937 -0.3125,-1.7968 -0.2969,-2.4375 -0.6875,-3.5938 -0.4219,-0.0156 -0.5313,-0.0156 -1.2343,0 -1.75,0.5781 -0.6718,0.7656 -0.6718,2.2969 0,1.4219 0.4922,2.1015 0.4922,0.6797 1.7734,1.0079 l -0.2812,1.9843 q -1.2657,-0.2812 -2.0469,-0.8984 -0.7813,-0.6172 -1.2031,-1.7813 -0.4219,-1.164 -0.4219,-2.7109 0,-1.5312 0.3593,-2.4844 0.3594,-0.9531 0.9063,-1.3984 0.5469,-0.4453 1.375,-0.6328 0.5156,-0.0938 1.875,-0.0938 l 2.6875,0 q 2.8281,0 3.5703,-0.1328 0.7422,-0.1328 1.4297,-0.5078 l 0,2.1094 q -0.625,0.3125 -1.4688,0.4062 z m -4.5156,0.1719 q 0.4532,1.0938 0.7656,3.2969 0.1719,1.25 0.3985,1.7656 0.2265,0.5156 0.6562,0.7969 0.4297,0.2812 0.961,0.2812 0.8125,0 1.3515,-0.6172 0.5391,-0.6171 0.5391,-1.789 0,-1.1719 -0.5156,-2.0781 -0.5157,-0.9063 -1.3907,-1.3438 -0.6874,-0.3125 -2.0312,-0.3125 l -0.7344,0 z m 5.9844,-5.7602 -2.2969,0 0,-2.2969 2.2969,0 0,2.2969 z m 0,-13.6246 -1.75,0 q 2.0156,1.3907 2.0156,3.7813 0,1.0469 -0.4062,1.9687 -0.4063,0.9219 -1.0156,1.3594 -0.6094,0.4375 -1.5,0.625 -0.5938,0.125 -1.875,0.125 l -7.3907,0 0,-2.0312 6.6094,0 q 1.5781,0 2.1406,-0.1094 0.7969,-0.2031 1.25,-0.8203 0.4531,-0.6172 0.4531,-1.5235 0,-0.9062 -0.4687,-1.7031 -0.4687,-0.7969 -1.2734,-1.1328 -0.8047,-0.3359 -2.3203,-0.3359 l -6.3907,0 0,-2.0157 11.9219,0 0,1.8125 z m 0,-5.5571 -2.2969,0 0,-2.2969 2.2969,0 0,2.2969 z m 4.5781,-9.187 0,4.4531 -1.6875,0 0,-2.4375 -17.6875,0 0,2.4375 -1.6719,0 0,-4.4531 21.0469,0 z"
     id="path229"
     inkscape:connector-curvature="0" />
  <path
     style="font-size:medium;font-family:mwb_cmsy10;color-interpolation:linearRGB;fill:#262626;stroke:none;color-rendering:optimizeQuality;image-rendering:optimizeQuality;text-rendering:geometricPrecision"
     d="m 127.0938,39.3906 q 0,-0.1562 0.0937,-0.2968 l 4.375,-4.3438 -4.375,-4.375 q -0.0937,-0.0938 -0.0937,-0.2656 0,-0.1563 0.1171,-0.2891 0.1172,-0.1328 0.2891,-0.1328 0.1562,0 0.3281,0.125 l 4.3438,4.3594 4.3281,-4.3594 q 0.1719,-0.125 0.3125,-0.125 0.1719,0 0.2969,0.125 0.125,0.125 0.125,0.2969 0,0.1718 -0.1094,0.2656 l -4.375,4.375 4.375,4.3438 q 0.1094,0.1406 0.1094,0.2968 0,0.1719 -0.125,0.2969 -0.125,0.125 -0.2969,0.125 -0.1563,0 -0.3125,-0.1563 l -4.3281,-4.3281 -4.3438,4.3281 q -0.1562,0.1563 -0.3281,0.1563 -0.1719,0 -0.2891,-0.1328 -0.1171,-0.1328 -0.1171,-0.2891 z"
     id="path233"
     inkscape:connector-curvature="0" />
  <path
     style="font-size:medium;font-family:SansSerif;color-interpolation:linearRGB;fill:#262626;stroke:none;color-rendering:optimizeQuality;image-rendering:optimizeQuality;text-rendering:geometricPrecision"
     d="m 148.8281,40 -1.8437,0 0,-11.7656 q -0.6719,0.6406 -1.7578,1.2734 -1.086,0.6328 -1.9454,0.961 l 0,-1.7969 q 1.5469,-0.7188 2.711,-1.7578 1.164,-1.0391 1.6484,-2.0079 l 1.1875,0 0,15.0938 z m 4.7261,-7.4062 q 0,-2.6719 0.5469,-4.2969 0.5468,-1.625 1.625,-2.5078 1.0781,-0.8829 2.7187,-0.8829 1.2188,0 2.1328,0.4844 0.9141,0.4844 1.5078,1.4063 0.5938,0.9219 0.9297,2.2343 0.336,1.3126 0.336,3.5626 0,2.6406 -0.5391,4.2656 -0.5391,1.625 -1.625,2.5078 -1.0859,0.8828 -2.7422,0.8828 -2.1719,0 -3.4062,-1.5469 -1.4844,-1.875 -1.4844,-6.1093 z m 1.8906,0 q 0,3.6874 0.8672,4.914 0.8672,1.2266 2.1328,1.2266 1.2813,0 2.1485,-1.2266 0.8671,-1.2266 0.8671,-4.914 0,-3.7188 -0.8671,-4.9376 -0.8672,-1.2187 -2.1641,-1.2187 -1.2656,0 -2.0313,1.0781 -0.9531,1.375 -0.9531,5.0782 z"
     id="path237"
     inkscape:connector-curvature="0" />
  <path
     style="font-size:medium;font-family:SansSerif;color-interpolation:linearRGB;fill:#262626;stroke:none;color-rendering:optimizeQuality;image-rendering:optimizeQuality;text-rendering:geometricPrecision"
     d="m 170.1719,30 0,-2.75 -4.9688,0 0,-1.2812 5.2344,-7.4219 1.1406,0 0,7.4219 1.5469,0 0,1.2812 -1.5469,0 0,2.75 -1.4062,0 z m 0,-4.0312 0,-5.1719 -3.5781,5.1719 3.5781,0 z"
     id="path241"
     inkscape:connector-curvature="0" />
  <path
     d="m 130.3965,533.4426 0.6686,-0.6389 0.6686,0.7271 0.6685,-0.7491 0.6684,0.3525 0.6683,-0.4627 0.6683,0.3966 0.6683,-0.3525 0.6682,0.5067 0.668,-0.3745 0.6681,0.4847 0.668,-0.9254 0.6678,0.9254 0.6679,-0.9695 0.6677,0.9254 0.6677,-0.4847 0.6677,0.5508 0.6676,-0.9915 0.6674,1.1898 0.6675,-0.3745 0.6673,0.2203 0.6674,-0.7051 0.6673,0.7271 0.6672,-0.705 0.667,0.8372 0.6671,-0.7491 0.667,0.9033 0.667,-1.0575 0.6669,0.7491 0.6668,-0.7051 0.6667,0.7932 0.6668,-0.7491 0.6666,0.7711 0.6666,-1.0796 0.6666,1.0796 0.6664,-0.8592 0.6664,1.0355 0.6664,-0.5949 0.6663,0.3085 0.6663,-0.3305 0.6662,0.5949 0.6661,-0.8152 0.6661,0.8152 0.666,-1.2779 0.666,0.9914 0.6659,-0.8813 0.6659,0.6831 0.6657,-0.5949 0.6659,0.5067 0.6656,-0.1542 0.6657,0.2864 0.6657,-0.4627 0.6655,0.4187 0.6655,-0.7932 0.6654,0.9253 0.6654,-0.6389 0.6654,0.7491 0.6653,-0.5508 0.6652,0.3525 0.6653,-0.683 0.6651,0.4407 0.6652,-0.4187 0.665,0.5068 0.665,-0.639 0.665,0.9915 0.6649,-1.0796 0.6649,0.9033 0.6648,-0.705 0.6648,0.5288 0.6647,-0.5288 0.6647,0.9474 0.6647,-0.5728 0.6646,0.1762 0.6645,-0.5728 0.6646,0.727 0.6645,-0.7931 0.6644,0.5067 0.6644,-0.3525 0.6643,0.5729 0.6644,-0.3526 0.6643,0.2204 0.6642,-0.7051 0.6641,0.8152 0.6643,-0.683 0.664,0.8593 0.6641,-0.639 0.6641,0.3305 0.6639,-0.4627 0.664,0.617 0.6639,-0.661 0.664,0.8813 0.6637,-0.9474 0.6639,0.6169 0.6637,-0.683 0.6638,0.7932 0.6637,-0.6831 0.6637,0.9915 0.6636,-0.9915 0.6636,0.8373 0.6636,-0.8373 0.6635,0.7271 0.6635,-0.6389 0.6635,0.8372 0.6634,-0.7711 0.6634,0.5948 0.6634,-1.0134 0.6634,0.8152 0.6632,-0.5509 0.6633,0.4848 0.6633,-0.2424 0.6632,0.7932 0.6632,-0.9254 0.6632,0.7932 0.663,-1.0576 0.6632,1.1237 0.6631,-1.2558 0.663,1.0795 0.6631,-0.5067 0.6629,0.3966 0.663,-0.5068 0.663,0.5288 0.6629,-0.3966 0.6629,0.5067 0.6629,-0.5728 0.6628,0.6169 0.6628,-1.1016 0.6628,0.8593 0.6628,-0.9694 0.6627,1.2337 0.6628,-1.0355 0.6626,0.5068 0.6627,-0.0882 0.6627,0.4627 0.6626,-0.7271 0.6626,1.2339 0.6627,-1.1237 0.6626,0.5729 0.6625,-0.3305 0.6625,0.4626 0.6625,-0.2643 0.6626,0 0.6625,-0.2204 0.6624,0.5288 0.6624,-0.5949 0.6625,0.5949 0.6624,-0.6169 0.6624,0.3305 0.6624,-0.7491 0.6623,0.705 0.6625,-0.705 0.6623,1.1457 0.6623,-0.7271 0.6622,0.7491 0.6624,-1.1457 0.6622,0.8593 0.6623,-0.683 0.6623,0.6389 0.6622,-0.6389 0.6622,0.727 0.6623,-0.5508 0.6622,0.7271 0.6622,-1.1236 0.6622,0.7931 0.6622,-0.661 0.6621,0.8373 0.6622,-0.5729 0.6621,0.4848 0.6622,-0.4187 0.6621,0.5508 0.6621,-1.1015 0.6622,0.6829 0.6621,-0.3966 0.6621,0.7932 0.6621,-0.5508 0.662,0.3525 0.6622,-0.6169 0.662,0.7271 0.6621,-0.4407 0.6621,0.0661 0.6621,-0.3745 0.662,0.7711 0.6621,-0.8152 0.6621,0.6169 0.662,-0.4847 0.662,0.6169 0.6621,-0.7932 0.662,0.7932 0.6621,-0.661 0.662,0.5288 0.6621,-0.8812 0.662,0.8372 0.662,-0.3085 0.6622,0.6389 0.6619,-0.683 0.6622,0.7051 0.6621,-0.7932 0.662,0.4847 0.662,-0.4406 0.6621,0.4847 0.662,-0.3525 0.6621,0.5508 0.6621,-0.9254 0.6621,0.639 0.6621,-0.4627 0.662,0.661 0.6621,-0.4627 0.6621,0.1542 0.6621,-0.3525 0.6622,0.6389 0.6621,-0.3525 0.6622,0.683 0.662,-1.0135 0.6621,0.9915 0.6623,-0.9915 0.6621,0.7271 0.6621,-0.3966 0.6623,0.7491 0.6621,-1.0355 0.6622,0.661 0.6622,-1.1016 0.6622,1.2117 0.6623,-0.4406 0.6622,0.4186 0.6623,-1.0355 0.6622,0.7491 0.6623,-0.3305 0.6623,0.9694 0.6623,-1.366 0.6623,1.0355 0.6624,-0.7711 0.6623,0.683 0.6624,-0.5068 0.6624,0.8152 0.6624,-1.2998 0.6624,0.8592 0.6624,-0.3966 0.6625,0.9474 0.6625,-1.1016 0.6625,0.4627 0.6624,-0.4848 0.6625,0.5288 0.6626,-0.5949 0.6626,0.7492 0.6626,-0.7492 0.6626,0.4187 0.6626,-0.6169 0.6626,1.0575 0.6627,-1.0575 0.6626,1.2558 0.6627,-1.388 0.6628,0.8592 0.6627,-0.3745 0.6628,0.7491 0.6628,-0.683 0.6629,0.5728 0.6628,-0.5949 0.6629,0.5949 0.6629,-0.6169 0.6629,0.4407 0.6629,-0.661 0.663,1.2338 0.663,-1.1016 0.6629,0.5288 0.6631,-0.6831 0.6631,0.7051 0.6631,-0.5508 0.6632,0.9694 0.6631,-1.3439 0.6633,1.0575 0.6631,-0.6169 0.6633,0.8152 0.6633,-0.8373 0.6633,0.617 0.6634,-0.4407 0.6633,0.4407 0.6634,-0.5729 0.6635,0.9254 0.6635,-1.0576 0.6634,0.5068 0.6636,-0.4848 0.6635,1.0576 0.6636,-1.1677 0.6636,0.9914 0.6637,-0.683 0.6637,0.5729 0.6637,-0.8593 0.6638,0.7491 0.6638,-0.5288 0.6639,0.683 0.6639,-0.705 0.6639,1.0355 0.6639,-0.9474 0.664,0.9254 0.6641,-0.9915 0.664,0.4627 0.6642,-0.6389 0.6641,1.4101 0.6642,-1.5863 0.6642,1.41 0.6644,-0.9033 0.6643,0.5067 0.6643,-0.5728 0.6644,0.9033 0.6645,-0.9033 0.6644,0.3966 0.6645,-1.0576 0.6646,1.5423 0.6646,-0.683 0.6647,0.2423 0.6646,-0.8372 0.6648,0.5728 0.6648,-0.3525 0.6648,0.9033 0.6649,-0.5287 0.6649,0.044 0.665,-0.3745 0.665,0.3084 0.6651,-0.5508 0.6652,0.9474 0.665,-0.5508 0.6652,0.7491 0.6653,-0.8593 0.6653,0.639 0.6654,-0.7712 0.6654,0.5509 0.6655,-0.0882 0.6655,0.3085 0.6655,-0.7271 0.6656,0.9033 0.6657,-0.6169 0.6657,0.5949 0.6657,-0.8593 0.6658,0.5288 0.6659,-0.6169 0.6659,0.7051 0.6661,-0.5729 0.6659,0.661 0.6662,-0.683 0.6661,0.6609 0.6662,-0.683 0.6662,0.683 0.6663,-0.7491 0.6665,0.7712 0.6662,-0.4186 0.6666,0.5948 0.6665,-0.8592 0.6666,0.6389 0.6667,-0.705 0.6667,0.7491 0.6668,-0.639 0.6668,0.6169 0.6668,-0.7931 0.667,0.3966 0.667,-0.3085 0.6671,0.5729 0.6671,-0.7932 0.6672,1.1457 0.6672,-0.2864 0.6674,0.0881 0.6674,-0.5729 0.6674,0.4848 0.6675,-0.5509 0.6675,0.7271 0.6677,-0.7491 0.6677,0.4847 0.6678,-0.7711 0.6678,0.8372 0.6679,-0.3525 0.668,0.4847 0.6679,-0.661 0.6681,0.3305 0.6683,-0.4627 0.6682,0.7491 0.6683,-0.7711 0.6683,0.8813 0.6684,-0.6169 0.6685,0.6389 0.6686,-0.8152 0.6686,0.3746 0.6687,-0.3746 0.6688,0.639 0.6689,-0.9474 0.669,1.1236 0.6689,-0.727 0.6691,0.8152 0.6691,-1.1457 0.6692,0.8372 0.6693,-0.5508 0.6694,0.7491 0.6695,-0.7711 0.6694,0.5288 0.6695,-0.3305 0.6698,0.3525 0.6697,-0.5729 0.6698,0.9915 0.6699,-1.1237 0.67,1.0796 0.67,-1.2117 0.6701,1.0795 0.6702,-0.5508 0.6702,0.4847 0.6704,-0.2864 0.6705,0.1543 0.6704,-0.5949 0.6706,0.7491 0.6707,-0.9915 0.6707,0.7712 0.6708,-0.2644 0.671,0.6389 0.671,-0.7932 0.671,0.3526 0.6712,-0.3746 0.6711,0.8813 0.6714,-0.9694 0.6714,0.6609 0.6715,-0.2203 0.6716,0.2203 0.6716,-0.6609 0.6717,0.9253 0.6719,-0.9033 0.6719,0.9915 0.6719,-0.9254 0.6721,0.9694 0.6722,-0.9474 0.6722,0.6169 0.6724,-0.4186 0.6723,0.5508 0.6726,-0.7711 0.6727,0.8152 0.6726,-0.661 0.6728,0.5508 0.6729,-0.683 0.6729,0.9254 0.673,-1.1016 0.6732,0.9474 0.6732,-0.8593 0.6734,0.5288 0.6733,-0.3305 0.6736,0.5949 0.6736,-0.7491 0.6737,1.1016 0.6737,-1.2779 0.6739,0.9474 0.674,-1.1456 0.674,1.3659 0.6742,-0.9474 0.6743,0.9034 0.6743,-1.0356 0.6745,0.7271 0.6745,-0.7711 0.6746,0.8152 0.6748,-0.661 0.6748,0.661 0.6749,-0.4627 0.6751,0.2644 0.6751,-0.5508 0.6752,0.7491 0.6754,-0.3746 0.6754,0.3966 0.6755,-0.8813 0.6756,0.9915 0.6757,-0.8593 0.6758,0.8593 0.6759,-0.8593 0.6762,0.4847 0.6761,-0.4186 0.6762,0.5508 0.6763,-0.5067 0.6764,0.9033 0.6766,-1.0135 0.6766,0.7491 0.6768,-0.5508 0.6769,0.5288 0.6769,-0.8813 0.6771,0.8592 0.6771,-0.6169 0.6773,0.5949 0.6774,-0.4847 0.6774,0.3305 0.6777,-0.2424 0.6777,0.5068 0.6778,-1.2999 0.6779,1.1897 0.678,-0.5728 0.6782,0.683 0.6782,-0.8152 0.6784,0.9914 0.6785,-0.9253 0.6786,0.7711 0.6787,-0.6389 0.6787,0.6169 0.679,-1.1016 0.679,1.2558 0.6791,-0.705 0.6792,0.7711 0.6794,-0.7491 0.6795,0.705 0.6796,-1.2998 0.6797,1.2778 0.6798,-0.9033 0.68,0.5288 0.6799,-0.5068 0.6803,0.683 0.6802,-1.1456 0.6804,0.9033 0.6806,-0.661 0.6806,0.705 0.6807,-0.7932 0.6809,0.9474 0.681,-0.8372 0.6811,0.9474 0.6812,-0.8152 0.6813,0.7491 0.6816,-0.9694 0.6815,0.7711 0.6817,-0.4406 0.6818,0.705 0.682,-1.388 0.682,1.4321 0.6822,-0.683 0.6824,0.3525 0.6824,-0.6169 0.6825,0.7711 0.6828,-0.7491 0.6827,0.639 0.683,-0.5509 0.683,0.7271 0.6832,-0.5288 0.6833,0.5729 0.6834,-0.7932 0.6836,0.7932 0.6837,-1.0135 0.6838,0.8152 0.684,-0.5729 0.6839,0.5288 0.6843,-0.8372 0.6843,0.8372 0.6845,-0.705 0.6845,0.8813 0.6848,-0.9915 0.6849,0.9915 0.6849,-0.7712 0.685,0.8593 0.6854,-0.8152 0.6853,0.9254 0.6855,-1.4101 0.6856,1.1236 0.6858,-0.6169 0.6859,0.4627 0.686,-0.4627 0.6861,0.7712 0.6864,-1.1897 0.6863,1.3219 0.6867,-0.8373 0.6866,0.8152 0.6869,-1.3219 0.6869,0.9915 0.6871,-0.617 0.6873,0.639 0.6874,-0.7712 0.6875,0.639 0.6876,-0.4407 0.6878,0.5509 0.688,-0.9033 0.688,0.4626 0.6883,-0.2424 0.6882,0.5288 0.6885,-0.3084 0.6887,0.6389 0.6887,-0.7932 0.6889,0.8373 0.6891,-0.7932 0.6892,0.7491 0.6894,-0.7932 0.6894,0.8813 0.6897,-0.8813 0.6897,0.5068 0.69,-0.8152 0.6899,0.5949 0.6902,-0.8813 0.6904,1.3219 0.6904,-0.8813 0.6907,0.7932 0.6908,-1.0575 0.6909,1.1236 0.6911,-1.1897 0.6911,1.0355 0.6914,-1.1898 0.6915,1.5423 0.6917,-1.1677 0.6917,0.727 0.6921,-0.8372 0.6921,1.1457 0.6923,-1.0135 0.6923,0.8813 0.6926,-0.8152 0.6927,0.3305 0.6928,-0.0441 0.6929,0.2424 0.6933,-0.9033 0.6933,1.0575 0.6934,-0.6169 0.6936,0.7491 0.6938,-1.0135 0.6939,0.5067 0.6941,-0.2864 0.6942,0.5068 0.6944,-0.683 0.6945,0.9033 0.6948,-0.8152 0.6949,0.4847 0.695,-0.3966 0.6951,0.5949 0.6954,-0.5949 0.6954,0.9033 0.6957,-0.5728 0.6958,-0.0441 0.6958,-0.4185 0.6962,0.8372 0.6963,-0.8813 0.6963,0.5948 0.6968,-0.727 0.6966,0.8152 0.697,-1.1237 0.6971,1.1457 0.6972,-0.8372 0.6974,0.8592 0.6975,-0.5508 0.6977,0.0881 0.6979,-0.8812 0.6981,1.2778 0.6983,-0.6829 0.6983,0.6389 0.6985,-0.9915 0.6987,1.1677 0.6989,-1.1677 0.699,0.7711 0.6992,-0.3745 0.6994,0.0441 0.6995,-0.8593 0.6997,0.3525 0.6998,-0.705 0.7001,0.2864 0.7003,-1.1677 0.7003,0.1322 0.7006,-1.1457 0.7006,0.2204 0.7009,-1.8287 0.7012,-0.4186 0.7011,-2.027 0.7014,-0.0661 0.7016,-2.732 0.7017,-1.366 0.7019,-2.6659 0.7021,-1.4982 0.7022,-3.5912 0.7024,-2.1592 0.7027,-3.459 0.7028,-2.3795 0.7029,-4.5606 0.703,-3.1286 0.7033,-4.6709 0.7035,-3.3268 0.7037,-5.1335 0.7037,-3.6353 0.7041,-5.3318 0.7043,-3.7896 0.7042,-5.7504 0.7046,-4.5166 0.7046,-5.5961 0.705,-4.5166 0.705,-5.9267 0.7052,-4.1641 0.7054,-5.9487 0.7057,-4.6047 0.7056,-6.2571 0.706,-4.4946 0.7062,-6.147 0.7063,-4.12 0.7066,-6.169 0.7066,-4.6047 0.7069,-5.9047 0.7069,-4.6708 0.7073,-5.7944 0.7074,-4.054 0.7076,-5.6843 0.7078,-4.6047 0.7079,-5.3098 0.7083,-4.2301 0.7083,-5.5742 0.7085,-4.2742 0.7087,-5.0014 0.7089,-3.6353 0.7091,-5.9487 0.7092,-3.9878 0.7095,-5.2216 0.7096,-3.5252 0.7099,-5.2877 0.71,-3.3709 0.7103,-5.7945 0.7103,-2.6218 0.7106,-5.1776 0.7108,-3.5692 0.7109,-4.8471 0.7112,-3.2607 0.7114,-4.6268 0.7115,-2.7761 0.7116,-4.8691 0.712,-2.3133 0.7122,-4.4505 0.7122,-3.2829 0.7126,-4.2301 0.7127,-2.732 0.7129,-4.5166 0.713,-2.3575 0.7133,-4.2301 0.7135,-2.6439 0.7136,-4.4946 0.714,-1.7185 0.714,-4.0759 0.7143,-2.5998 0.7144,-3.6133 0.7147,-2.4235 0.7147,-3.1947 0.7151,-2.2253 0.7153,-3.8115 0.7154,-1.6304 0.7158,-2.9964 0.7158,-2.4456 0.716,-3.0404 0.7162,-1.1016 0.7165,-3.6794 0.7166,-1.1897 0.7168,-3.4591 0.7171,-1.1897 0.7173,-2.71 0.7174,-1.41 0.7177,-2.9303 0.7179,-1.2779 0.718,-3.4591 0.7183,-1.1236 0.7185,-3.1065 0.7186,-0.1102 0.719,-2.2473 0.719,-0.1762 0.7193,-2.027 0.7196,-0.3525 0.7196,-1.7846 0.7199,0.022 0.7202,-0.9253 0.7203,0.4626 0.7206,-1.9829 0.7206,-0.4626 0.7211,-1.7846 0.7212,-0.5729 0.7213,-1.7626 0.7217,-0.683 0.7216,-1.5863 0.7221,-0.6609 0.7222,-2.4015 0.7224,-0.7712 0.7227,-2.776 0.7229,-1.8507 0.723,-2.8422 0.7233,-1.6304 0.7235,-1.7185 0.7237,-1.7846 0.7238,-2.3354 0.7243,-0.8813 0.7242,-2.9523 0.7246,-1.366 0.7248,-2.8421 0.725,-1.1898 0.7253,-3.1946 0.7254,-2.027 0.7256,-4.2963 0.7259,-1.2338 0.7261,-3.0404 0.7263,-2.2914 0.7265,-3.7675 0.7267,-2.071 0.7269,-4.12 0.7273,-2.9964 0.7274,-5.1555 0.7277,-2.9083 0.7277,-4.8911 0.7281,-2.4236 0.7282,-3.6794 0.7286,-2.5777 0.7287,-5.1996 0.7289,-2.3795 0.7292,-3.1726 0.7293,-0.4847 0.7297,-1.1457 0.7299,0.4186 0.73,-0.705 0.7303,0.9914 0.7305,0.5949 0.7308,2.2252 0.7308,0.3526 0.7313,3.5692 0.7315,1.5863 0.7316,4.4064 0.7319,1.6084 0.7321,3.8997 0.7323,2.1812 0.7326,4.9131 0.7328,4.1421 0.7329,4.7369 0.7333,4.5827 0.7335,5.3318 0.7337,4.4285 0.7339,5.8826 0.7342,4.9131 0.7345,6.7199 0.7345,4.6928 0.7348,5.8606 0.7353,5.464 0.7353,7.3147 0.7355,4.6928 0.7359,8.1739 0.7359,5.5742 0.7362,7.3587 0.7367,5.9708 0.7367,7.6892 0.737,5.5962 0.7371,7.4469 0.7375,6.2571 0.7376,7.8655 0.7379,5.6182 0.7382,7.8655 0.7384,5.5301 0.7387,7.2706 0.7388,4.9352 0.7391,8.5705 0.7394,5.2217 0.7396,7.7333 0.7398,5.53 0.7401,6.3453 0.7402,5.8826 0.7406,7.3808 0.7408,5.6623 0.741,6.6537 0.7413,5.464 0.7416,6.5876 0.7416,5.4199 0.7422,6.3893 0.7421,4.5827 0.7426,6.4114 0.7427,4.9132 0.743,6.2131 0.7432,4.12 0.7435,6.3232 0.7438,3.1506 0.7439,5.9046 0.7443,3.6133 0.7443,5.0895 0.7447,3.8556 0.745,4.6047 0.7452,3.2388 0.7455,4.3844 0.7457,2.9743 0.746,4.2522 0.7461,1.9609 0.7465,3.7895 0.7467,2.4236 0.7469,3.3709 0.7473,1.5643 0.7474,2.6438 0.7477,0.8373 0.7481,2.6659 0.7481,0.3525 0.7485,2.3574 0.7487,-0.0661 0.749,1.6084 0.7492,-0.683 0.7494,0.727 0.7498,-0.705 0.75,0.2424 0.7502,-0.9915 0.7506,0.3745 0.7507,-1.2558 0.7509,0.2864 0.7513,-1.9388 0.7516,0.8152 0.7518,-1.9609 0.7521,0.3526 0.7523,-1.6525 0.7525,-0.1983 0.7529,-1.6964 0.7531,0.0881 0.7533,-1.8507 0.7536,0.1322 0.7538,-2.0049 0.7541,0.044 0.7544,-2.8642 0.7546,-0.3525 0.755,-1.9168 0.7552,-0.022 0.7554,-1.7406 0.7557,1.0576 0.756,-0.8813 0.7562,0.5949 0.7565,-0.5288 0.7568,0.2644 0.7571,-0.3305 0.7572,1.2118 0.7576,-0.7271 0.7578,1.4321 0.758,-0.7932 0.7584,1.4982 0.7586,-1.1236 0.759,2.4456 0.7591,0.1542 0.7593,1.7185 0.7598,1.1016 0.7599,1.8066 0.7603,1.2779 0.7605,1.6084 0.7608,1.1456 0.761,2.2032 0.7613,1.4762 0.7616,2.1812 0.7619,0.5949 0.7621,2.3794 0.7624,1.5643 0.7627,2.4897 0.763,1.2117 0.7632,2.6659 0.7635,0.4627 0.7638,2.3354 0.7639,0.8593 0.7645,2.0269 0.7647,1.0135 0.7647,2.3574 0.7652,0.9254 0.7653,2.6219 0.7658,0.9914 0.766,3.0845 0.7663,0.705 0.7666,3.0184 0.7668,1.2779 0.7671,2.049 0.7674,0.9033 0.7676,2.6439 0.7679,0.8813 0.7682,2.2473 0.7686,0.5067 0.7687,2.2032 0.7691,0.7711 0.7692,1.9389 0.7698,-0.1102 0.7699,2.1371 0.7702,0.2204 0.7704,1.7846 0.7709,-0.2644 0.771,1.7405 0.7713,-0.4186 0.7716,1.1016 0.7719,0.2424 0.7722,1.1897 0.7725,-0.4186 0.7727,1.0135 0.7731,-0.5728 0.7733,0.8151 0.7736,-0.4186 0.7739,0.6169 0.7742,-0.9473 0.7745,0.8812 0.7747,-0.9914 0.7752,0.7491 0.7753,-1.8067 0.7757,1.0356 0.7758,-1.4321 0.7763,0.5067 0.7765,-1.4541 0.7768,0.4626 0.7771,-1.4541 0.7774,0.1763 0.7777,-1.388 0.778,0.1542 0.7782,-0.7491 0.7786,0.3084 0.7789,-1.0355 0.7792,-0.1542 0.7794,-0.4847 0.7797,0 0.7801,-1.1898 0.7803,-0.022 0.7807,-0.7931 0.7808,0.2643 0.7813,-1.6964 0.7816,0.3745 0.7818,-1.6304 0.7821,0.0661 0.7823,-0.8592 0.7828,0.6169 0.783,-0.5729 0.7833,0.2424 0.7837,-0.7491 0.7838,0.7271 0.7843,-0.7712 0.7845,0.8813 0.7848,-0.2864 0.7852,1.5863 0.7854,-0.8592 0.7857,1.1236 0.7862,-0.2864 0.7862,1.388 0.7866,-0.7271 0.787,1.2339 0.7871,-0.7492 0.7876,1.0356 0.7879,-0.9034 0.7881,1.322 0.7886,-1.0355 0.7886,1.3219 0.7893,-0.2203 0.7893,1.1677 0.7897,0.022 0.7901,1.6304 0.7903,-0.4847 0.7906,1.5202 0.7909,1.1898"
     style="color-interpolation:linearRGB;fill:none;fill-rule:evenodd;stroke:#0000ff;stroke-width:2.66669989;stroke-linecap:butt;stroke-linejoin:round;color-rendering:optimizeQuality;image-rendering:optimizeQuality;text-rendering:geometricPrecision"
     id="path257"
     inkscape:connector-curvature="0" />
  <path
     style="fill:none;fill-rule:evenodd;stroke:#000000;stroke-width:2;stroke-linecap:butt;stroke-linejoin:miter;stroke-opacity:1;marker-end:url(#Arrow1Mend);stroke-miterlimit:10;stroke-dasharray:none"
     d="m 550.11954,292.15173 49.39212,0"
     id="path4619"
     inkscape:connector-curvature="0" />
  <path
     style="font-style:normal;font-weight:normal;font-size:12px;font-family:Dialog;color-interpolation:auto;fill:none;fill-opacity:1;fill-rule:evenodd;stroke:#000000;stroke-width:2;stroke-linecap:butt;stroke-linejoin:miter;stroke-miterlimit:10;stroke-dasharray:none;stroke-dashoffset:0;stroke-opacity:1;marker-end:url(#Arrow1Mend-4);color-rendering:auto;image-rendering:auto;shape-rendering:auto;text-rendering:auto"
     d="m 755.86617,292.15173 -49.39212,0"
     id="path4619-8"
     inkscape:connector-curvature="0" />
  <text
     xml:space="preserve"
     style="font-style:normal;font-variant:normal;font-weight:normal;font-stretch:normal;font-size:27.5px;line-height:125%;font-family:serif;-inkscape-font-specification:serif;letter-spacing:0px;word-spacing:0px;fill:#000000;fill-opacity:1;stroke:none;stroke-width:1px;stroke-linecap:butt;stroke-linejoin:miter;stroke-opacity:1"
     x="468.74088"
     y="327.01675"
     id="text5070"
     sodipodi:linespacing="125%"><tspan
       sodipodi:role="line"
       id="tspan5072"
       x="468.74088"
       y="327.01675">FWHM:</tspan><tspan
       sodipodi:role="line"
       x="468.74088"
       y="361.39175"
       id="tspan5103">101.93nm</tspan></text>
  <text
     xml:space="preserve"
     style="font-style:normal;font-variant:normal;font-weight:normal;font-stretch:normal;font-size:27.5px;line-height:125%;font-family:serif;-inkscape-font-specification:serif;letter-spacing:0px;word-spacing:0px;color-interpolation:auto;fill:#000000;fill-opacity:1;stroke:none;stroke-width:1px;stroke-linecap:butt;stroke-linejoin:miter;stroke-miterlimit:10;stroke-dasharray:none;stroke-dashoffset:0;stroke-opacity:1;color-rendering:auto;image-rendering:auto;shape-rendering:auto;text-rendering:auto"
     x="715.6795"
     y="84.242264"
     id="text5070-8"
     sodipodi:linespacing="125%"><tspan
       sodipodi:role="line"
       id="tspan5072-9"
       x="715.6795"
       y="84.242264">=703.42nm</tspan></text>
  <path
     style="fill:none;fill-rule:evenodd;stroke:#000000;stroke-width:1;stroke-linecap:butt;stroke-linejoin:miter;stroke-miterlimit:10;stroke-dasharray:1,8;stroke-dashoffset:0;stroke-opacity:1"
     d="m 670.18325,69.40296 0,468.74088"
     id="path5095"
     inkscape:connector-curvature="0" />
  <text
     xml:space="preserve"
     style="font-style:normal;font-variant:normal;font-weight:normal;font-stretch:normal;font-size:27.5px;line-height:125%;font-family:serif;-inkscape-font-specification:serif;letter-spacing:0px;word-spacing:0px;fill:#000000;fill-opacity:1;stroke:none;stroke-width:1px;stroke-linecap:butt;stroke-linejoin:miter;stroke-opacity:1"
     x="319.59604"
     y="124.60592"
     id="text5097"
     sodipodi:linespacing="125%"><tspan
       sodipodi:role="line"
       id="tspan5099"
       x="319.59604"
       y="124.60592">Resolucin axial:</tspan><tspan
       sodipodi:role="line"
       x="319.59604"
       y="158.98093"
       id="tspan5101">2.14   m</tspan></text>
  <path
     inkscape:connector-curvature="0"
     style="display:inline;stroke-width:0;stroke-miterlimit:10;stroke-dasharray:none;enable-background:new"
     d="m 386.16202,147.3361 0,8.19594 c 0,1.08796 0.0488,1.84883 0.14845,2.28276 0.0811,0.30847 0.20415,0.5312 0.36654,0.6657 0.1624,0.13479 0.33638,0.20425 0.51733,0.20425 0.22735,0 0.43613,-0.11393 0.63099,-0.33875 0.19488,-0.22509 0.3387,-0.675 0.42918,-1.34556 l 0.55676,0 c -0.15311,1.21328 -0.45237,2.05308 -0.89778,2.51466 -0.44541,0.46172 -1.00681,0.69362 -1.68653,0.69362 -0.67042,0 -1.2063,-0.20397 -1.603,-0.61233 -0.3967,-0.40823 -0.63796,-1.11352 -0.72147,-2.12034 -0.92331,1.02307 -1.80019,1.73754 -2.63068,2.14117 -0.83052,0.40365 -1.54271,0.60554 -2.15051,0.60554 -0.40829,0 -0.8073,-0.0792 -1.19702,-0.23898 -0.38974,-0.16008 -0.7702,-0.39198 -1.14136,-0.70059 -0.0186,1.31306 0.095,2.46132 0.3387,3.43797 0.17165,0.69835 0.2575,1.18786 0.2575,1.46854 0,0.48937 -0.12533,0.87912 -0.3735,1.16911 -0.24823,0.28997 -0.53124,0.43615 -0.84908,0.43615 -0.32707,0 -0.59385,-0.12783 -0.80266,-0.38043 -0.28069,-0.34335 -0.4222,-0.77477 -0.4222,-1.29208 0,-0.25288 0.0534,-0.57066 0.16239,-0.95123 0.25286,-0.85133 0.41292,-1.59595 0.47556,-2.2294 0.10911,-1.08797 0.1624,-2.01127 0.1624,-2.77215 l 0,-10.83357 2.28271,0 0,7.84329 c 0,0.92331 0.0766,1.59136 0.23199,1.99737 0.15542,0.406 0.43149,0.72851 0.82818,0.96499 0.39669,0.23676 0.79803,0.35279 1.19703,0.35279 0.47093,0 1.02769,-0.1416 1.6726,-0.42227 0.64493,-0.28067 1.29679,-0.73308 1.95795,-1.35946 l 0,-9.37671 2.25953,0 z"
     id="path3887" />
  <path
     inkscape:connector-curvature="0"
     style="display:inline;stroke-width:0;stroke-miterlimit:10;stroke-dasharray:none;enable-background:new"
     d="m 699.50205,74.432815 -5.62728,11.670571 -2.9718,0 7.64743,-15.742278 -0.28493,-1.470043 c -0.33337,-1.60417 -0.78069,-2.689722 -1.34485,-3.265353 -0.56415,-0.575631 -1.18814,-0.860457 -1.87766,-0.860457 -0.62399,0 -1.16819,0.228006 -1.6355,0.683824 -0.46726,0.45583 -0.77213,1.196656 -0.91744,2.219577 l -0.6012,0 c 0.0342,-1.735252 0.46158,-3.128495 1.28502,-4.174283 0.59264,-0.752083 1.31066,-1.131114 2.15405,-1.131114 0.74651,0 1.38474,0.296264 1.92039,0.886222 0.80063,0.900221 1.45883,2.493133 1.96884,4.775329 l 2.67261,11.753167 c 0.40175,1.758107 0.85764,2.90066 1.36765,3.422019 0.50146,0.535686 1.09127,0.800557 1.76938,0.800557 0.64678,0 1.17676,-0.216398 1.5956,-0.65243 0.41883,-0.435852 0.66388,-1.128385 0.74366,-2.085596 l 0.65249,0 c 0.012,0.290624 0.017,0.507191 0.017,0.652419 0,1.458953 -0.36186,2.632731 -1.08556,3.521683 -0.54422,0.666757 -1.25654,1.002955 -2.13694,1.002955 -0.77786,0 -1.47593,-0.32767 -2.08567,-0.985718 -0.60975,-0.658228 -1.18529,-2.165474 -1.72096,-4.524807 l -1.50441,-6.496244 z"
     id="path3885" />
  <text
     xml:space="preserve"
     style="font-style:normal;font-variant:normal;font-weight:normal;font-stretch:normal;font-size:15.19468307px;line-height:125%;font-family:serif;-inkscape-font-specification:serif;letter-spacing:0px;word-spacing:0px;color-interpolation:auto;fill:#000000;fill-opacity:1;stroke:none;stroke-width:1px;stroke-linecap:butt;stroke-linejoin:miter;stroke-miterlimit:10;stroke-dasharray:none;stroke-dashoffset:0;stroke-opacity:1;color-rendering:auto;image-rendering:auto;shape-rendering:auto;text-rendering:auto"
     x="708.22375"
     y="89.90966"
     id="text5070-8-9"
     sodipodi:linespacing="125%"><tspan
       sodipodi:role="line"
       id="tspan5072-9-2"
       x="708.22375"
       y="89.90966">0</tspan></text>
  <line
     x1="572.67554"
     x2="572.67554"
     y1="45.767048"
     style="font-style:normal;font-weight:normal;font-size:12px;font-family:Dialog;color-interpolation:linearRGB;fill:none;fill-opacity:1;stroke:#262626;stroke-width:0.66670001;stroke-linecap:square;stroke-linejoin:round;stroke-miterlimit:10;stroke-dasharray:none;stroke-dashoffset:0;stroke-opacity:1;color-rendering:optimizeQuality;image-rendering:optimizeQuality;shape-rendering:auto;text-rendering:geometricPrecision"
     y2="53.177055"
     id="line89-4" />
</svg>
