<?xml version="1.0" encoding="UTF-8" standalone="no"?>
<svg
   xmlns:dc="http://purl.org/dc/elements/1.1/"
   xmlns:cc="http://creativecommons.org/ns#"
   xmlns:rdf="http://www.w3.org/1999/02/22-rdf-syntax-ns#"
   xmlns:svg="http://www.w3.org/2000/svg"
   xmlns="http://www.w3.org/2000/svg"
   xmlns:sodipodi="http://sodipodi.sourceforge.net/DTD/sodipodi-0.dtd"
   xmlns:inkscape="http://www.inkscape.org/namespaces/inkscape"
   style="fill-opacity:1; color-rendering:auto; color-interpolation:auto; stroke:black; text-rendering:auto; stroke-linecap:square; stroke-miterlimit:10; stroke-opacity:1; shape-rendering:auto; fill:black; stroke-dasharray:none; font-weight:normal; stroke-width:1; font-family:'Dialog'; font-style:normal; stroke-linejoin:miter; font-size:12px; stroke-dashoffset:0; image-rendering:auto;"
   width="1800"
   height="500"
   id="svg2"
   version="1.1"
   inkscape:version="0.91 r13725"
   sodipodi:docname="LineaAPXCenterEnvelop.svg">
  <metadata
     id="metadata251">
    <rdf:RDF>
      <cc:Work
         rdf:about="">
        <dc:format>image/svg+xml</dc:format>
        <dc:type
           rdf:resource="http://purl.org/dc/dcmitype/StillImage" />
      </cc:Work>
    </rdf:RDF>
  </metadata>
  <sodipodi:namedview
     pagecolor="#ffffff"
     bordercolor="#666666"
     borderopacity="1"
     objecttolerance="10"
     gridtolerance="10"
     guidetolerance="10"
     inkscape:pageopacity="0"
     inkscape:pageshadow="2"
     inkscape:window-width="1535"
     inkscape:window-height="876"
     id="namedview249"
     showgrid="false"
     inkscape:zoom="0.59554104"
     inkscape:cx="1031.1769"
     inkscape:cy="342.85401"
     inkscape:window-x="65"
     inkscape:window-y="24"
     inkscape:window-maximized="1"
     inkscape:current-layer="svg2" />
  <!--Generated by the Batik Graphics2D SVG Generator-->
  <defs
     id="genericDefs">
    <defs
       id="defs1">
      <clipPath
         id="clipPath1"
         clipPathUnits="userSpaceOnUse">
        <path
           id="path9"
           d="M0 0 L1800 0 L1800 500 L0 500 L0 0 Z" />
      </clipPath>
    </defs>
  </defs>
  <rect
     x="0"
     y="0"
     width="1800"
     style="fill:#ffffff;stroke:none"
     height="500"
     id="rect13"
     clip-path="url(#clipPath1)" />
  <rect
     x="3.4135883"
     width="1800"
     height="500"
     y="-0.74208444"
     style="color-interpolation:sRGB;fill:#ffffff;stroke:none;color-rendering:optimizeSpeed;image-rendering:optimizeSpeed;shape-rendering:crispEdges;text-rendering:optimizeSpeed"
     id="rect17" />
  <path
     style="color-interpolation:sRGB;fill:#ffffff;stroke:none;color-rendering:optimizeSpeed;image-rendering:optimizeSpeed;shape-rendering:crispEdges;text-rendering:optimizeSpeed"
     d="m 234,374 1395,0 0,-308 -1395,0 z"
     id="path19"
     inkscape:connector-curvature="0" />
  <line
     y2="66"
     style="color-interpolation:linearRGB;fill:none;fill-opacity:0.14900004;stroke:#262626;stroke-width:0.66670001;stroke-linecap:butt;stroke-linejoin:round;stroke-opacity:0.14900004;color-rendering:optimizeQuality;image-rendering:optimizeQuality;text-rendering:geometricPrecision"
     x1="234"
     x2="234"
     y1="374"
     id="line23" />
  <line
     y2="66"
     style="color-interpolation:linearRGB;fill:none;fill-opacity:0.14900004;stroke:#262626;stroke-width:0.66670001;stroke-linecap:butt;stroke-linejoin:round;stroke-opacity:0.14900004;color-rendering:optimizeQuality;image-rendering:optimizeQuality;text-rendering:geometricPrecision"
     x1="373.5"
     x2="373.5"
     y1="374"
     id="line25" />
  <line
     y2="66"
     style="color-interpolation:linearRGB;fill:none;fill-opacity:0.14900004;stroke:#262626;stroke-width:0.66670001;stroke-linecap:butt;stroke-linejoin:round;stroke-opacity:0.14900004;color-rendering:optimizeQuality;image-rendering:optimizeQuality;text-rendering:geometricPrecision"
     x1="513"
     x2="513"
     y1="374"
     id="line27" />
  <line
     y2="66"
     style="color-interpolation:linearRGB;fill:none;fill-opacity:0.14900004;stroke:#262626;stroke-width:0.66670001;stroke-linecap:butt;stroke-linejoin:round;stroke-opacity:0.14900004;color-rendering:optimizeQuality;image-rendering:optimizeQuality;text-rendering:geometricPrecision"
     x1="652.5"
     x2="652.5"
     y1="374"
     id="line29" />
  <line
     y2="66"
     style="color-interpolation:linearRGB;fill:none;fill-opacity:0.14900004;stroke:#262626;stroke-width:0.66670001;stroke-linecap:butt;stroke-linejoin:round;stroke-opacity:0.14900004;color-rendering:optimizeQuality;image-rendering:optimizeQuality;text-rendering:geometricPrecision"
     x1="792"
     x2="792"
     y1="374"
     id="line31" />
  <line
     y2="66"
     style="color-interpolation:linearRGB;fill:none;fill-opacity:0.14900004;stroke:#262626;stroke-width:0.66670001;stroke-linecap:butt;stroke-linejoin:round;stroke-opacity:0.14900004;color-rendering:optimizeQuality;image-rendering:optimizeQuality;text-rendering:geometricPrecision"
     x1="931.5"
     x2="931.5"
     y1="374"
     id="line33" />
  <line
     y2="66"
     style="color-interpolation:linearRGB;fill:none;fill-opacity:0.14900004;stroke:#262626;stroke-width:0.66670001;stroke-linecap:butt;stroke-linejoin:round;stroke-opacity:0.14900004;color-rendering:optimizeQuality;image-rendering:optimizeQuality;text-rendering:geometricPrecision"
     x1="1071"
     x2="1071"
     y1="374"
     id="line35" />
  <line
     y2="66"
     style="color-interpolation:linearRGB;fill:none;fill-opacity:0.14900004;stroke:#262626;stroke-width:0.66670001;stroke-linecap:butt;stroke-linejoin:round;stroke-opacity:0.14900004;color-rendering:optimizeQuality;image-rendering:optimizeQuality;text-rendering:geometricPrecision"
     x1="1210.5"
     x2="1210.5"
     y1="374"
     id="line37" />
  <line
     y2="66"
     style="color-interpolation:linearRGB;fill:none;fill-opacity:0.14900004;stroke:#262626;stroke-width:0.66670001;stroke-linecap:butt;stroke-linejoin:round;stroke-opacity:0.14900004;color-rendering:optimizeQuality;image-rendering:optimizeQuality;text-rendering:geometricPrecision"
     x1="1350"
     x2="1350"
     y1="374"
     id="line39" />
  <line
     y2="66"
     style="color-interpolation:linearRGB;fill:none;fill-opacity:0.14900004;stroke:#262626;stroke-width:0.66670001;stroke-linecap:butt;stroke-linejoin:round;stroke-opacity:0.14900004;color-rendering:optimizeQuality;image-rendering:optimizeQuality;text-rendering:geometricPrecision"
     x1="1489.5"
     x2="1489.5"
     y1="374"
     id="line41" />
  <line
     y2="66"
     style="color-interpolation:linearRGB;fill:none;fill-opacity:0.14900004;stroke:#262626;stroke-width:0.66670001;stroke-linecap:butt;stroke-linejoin:round;stroke-opacity:0.14900004;color-rendering:optimizeQuality;image-rendering:optimizeQuality;text-rendering:geometricPrecision"
     x1="1629"
     x2="1629"
     y1="374"
     id="line43" />
  <line
     y2="374"
     style="color-interpolation:linearRGB;fill:none;fill-opacity:0.14900004;stroke:#262626;stroke-width:0.66670001;stroke-linecap:butt;stroke-linejoin:round;stroke-opacity:0.14900004;color-rendering:optimizeQuality;image-rendering:optimizeQuality;text-rendering:geometricPrecision"
     x1="1629"
     x2="234"
     y1="374"
     id="line45" />
  <line
     y2="327.33331"
     style="color-interpolation:linearRGB;fill:none;fill-opacity:0.14900004;stroke:#262626;stroke-width:0.66670001;stroke-linecap:butt;stroke-linejoin:round;stroke-opacity:0.14900004;color-rendering:optimizeQuality;image-rendering:optimizeQuality;text-rendering:geometricPrecision"
     x1="1629"
     x2="234"
     y1="327.33331"
     id="line47" />
  <line
     y2="280.66669"
     style="color-interpolation:linearRGB;fill:none;fill-opacity:0.14900004;stroke:#262626;stroke-width:0.66670001;stroke-linecap:butt;stroke-linejoin:round;stroke-opacity:0.14900004;color-rendering:optimizeQuality;image-rendering:optimizeQuality;text-rendering:geometricPrecision"
     x1="1629"
     x2="234"
     y1="280.66669"
     id="line49" />
  <line
     y2="234"
     style="color-interpolation:linearRGB;fill:none;fill-opacity:0.14900004;stroke:#262626;stroke-width:0.66670001;stroke-linecap:butt;stroke-linejoin:round;stroke-opacity:0.14900004;color-rendering:optimizeQuality;image-rendering:optimizeQuality;text-rendering:geometricPrecision"
     x1="1629"
     x2="234"
     y1="234"
     id="line51" />
  <line
     y2="187.3333"
     style="color-interpolation:linearRGB;fill:none;fill-opacity:0.14900004;stroke:#262626;stroke-width:0.66670001;stroke-linecap:butt;stroke-linejoin:round;stroke-opacity:0.14900004;color-rendering:optimizeQuality;image-rendering:optimizeQuality;text-rendering:geometricPrecision"
     x1="1629"
     x2="234"
     y1="187.3333"
     id="line53" />
  <line
     y2="140.6667"
     style="color-interpolation:linearRGB;fill:none;fill-opacity:0.14900004;stroke:#262626;stroke-width:0.66670001;stroke-linecap:butt;stroke-linejoin:round;stroke-opacity:0.14900004;color-rendering:optimizeQuality;image-rendering:optimizeQuality;text-rendering:geometricPrecision"
     x1="1629"
     x2="234"
     y1="140.6667"
     id="line55" />
  <line
     y2="94"
     style="color-interpolation:linearRGB;fill:none;fill-opacity:0.14900004;stroke:#262626;stroke-width:0.66670001;stroke-linecap:butt;stroke-linejoin:round;stroke-opacity:0.14900004;color-rendering:optimizeQuality;image-rendering:optimizeQuality;text-rendering:geometricPrecision"
     x1="1629"
     x2="234"
     y1="94"
     id="line57" />
  <line
     x1="234"
     x2="1629"
     y1="374"
     style="color-interpolation:linearRGB;fill:none;fill-opacity:1;stroke:#262626;stroke-width:0.66670001;stroke-linecap:square;stroke-linejoin:round;stroke-opacity:1;color-rendering:optimizeQuality;image-rendering:optimizeQuality;text-rendering:geometricPrecision"
     y2="374"
     id="line59" />
  <line
     x1="234"
     x2="1629"
     y1="66"
     style="color-interpolation:linearRGB;fill:none;fill-opacity:1;stroke:#262626;stroke-width:0.66670001;stroke-linecap:square;stroke-linejoin:round;stroke-opacity:1;color-rendering:optimizeQuality;image-rendering:optimizeQuality;text-rendering:geometricPrecision"
     y2="66"
     id="line61" />
  <line
     x1="234"
     x2="234"
     y1="374"
     style="color-interpolation:linearRGB;fill:none;fill-opacity:1;stroke:#262626;stroke-width:0.66670001;stroke-linecap:square;stroke-linejoin:round;stroke-opacity:1;color-rendering:optimizeQuality;image-rendering:optimizeQuality;text-rendering:geometricPrecision"
     y2="360.04999"
     id="line63" />
  <line
     x1="373.5"
     x2="373.5"
     y1="374"
     style="color-interpolation:linearRGB;fill:none;fill-opacity:1;stroke:#262626;stroke-width:0.66670001;stroke-linecap:square;stroke-linejoin:round;stroke-opacity:1;color-rendering:optimizeQuality;image-rendering:optimizeQuality;text-rendering:geometricPrecision"
     y2="360.04999"
     id="line65" />
  <line
     x1="513"
     x2="513"
     y1="374"
     style="color-interpolation:linearRGB;fill:none;fill-opacity:1;stroke:#262626;stroke-width:0.66670001;stroke-linecap:square;stroke-linejoin:round;stroke-opacity:1;color-rendering:optimizeQuality;image-rendering:optimizeQuality;text-rendering:geometricPrecision"
     y2="360.04999"
     id="line67" />
  <line
     x1="652.5"
     x2="652.5"
     y1="374"
     style="color-interpolation:linearRGB;fill:none;fill-opacity:1;stroke:#262626;stroke-width:0.66670001;stroke-linecap:square;stroke-linejoin:round;stroke-opacity:1;color-rendering:optimizeQuality;image-rendering:optimizeQuality;text-rendering:geometricPrecision"
     y2="360.04999"
     id="line69" />
  <line
     x1="792"
     x2="792"
     y1="374"
     style="color-interpolation:linearRGB;fill:none;fill-opacity:1;stroke:#262626;stroke-width:0.66670001;stroke-linecap:square;stroke-linejoin:round;stroke-opacity:1;color-rendering:optimizeQuality;image-rendering:optimizeQuality;text-rendering:geometricPrecision"
     y2="360.04999"
     id="line71" />
  <line
     x1="931.5"
     x2="931.5"
     y1="374"
     style="color-interpolation:linearRGB;fill:none;fill-opacity:1;stroke:#262626;stroke-width:0.66670001;stroke-linecap:square;stroke-linejoin:round;stroke-opacity:1;color-rendering:optimizeQuality;image-rendering:optimizeQuality;text-rendering:geometricPrecision"
     y2="360.04999"
     id="line73" />
  <line
     x1="1071"
     x2="1071"
     y1="374"
     style="color-interpolation:linearRGB;fill:none;fill-opacity:1;stroke:#262626;stroke-width:0.66670001;stroke-linecap:square;stroke-linejoin:round;stroke-opacity:1;color-rendering:optimizeQuality;image-rendering:optimizeQuality;text-rendering:geometricPrecision"
     y2="360.04999"
     id="line75" />
  <line
     x1="1210.5"
     x2="1210.5"
     y1="374"
     style="color-interpolation:linearRGB;fill:none;fill-opacity:1;stroke:#262626;stroke-width:0.66670001;stroke-linecap:square;stroke-linejoin:round;stroke-opacity:1;color-rendering:optimizeQuality;image-rendering:optimizeQuality;text-rendering:geometricPrecision"
     y2="360.04999"
     id="line77" />
  <line
     x1="1350"
     x2="1350"
     y1="374"
     style="color-interpolation:linearRGB;fill:none;fill-opacity:1;stroke:#262626;stroke-width:0.66670001;stroke-linecap:square;stroke-linejoin:round;stroke-opacity:1;color-rendering:optimizeQuality;image-rendering:optimizeQuality;text-rendering:geometricPrecision"
     y2="360.04999"
     id="line79" />
  <line
     x1="1489.5"
     x2="1489.5"
     y1="374"
     style="color-interpolation:linearRGB;fill:none;fill-opacity:1;stroke:#262626;stroke-width:0.66670001;stroke-linecap:square;stroke-linejoin:round;stroke-opacity:1;color-rendering:optimizeQuality;image-rendering:optimizeQuality;text-rendering:geometricPrecision"
     y2="360.04999"
     id="line81" />
  <line
     x1="1629"
     x2="1629"
     y1="374"
     style="color-interpolation:linearRGB;fill:none;fill-opacity:1;stroke:#262626;stroke-width:0.66670001;stroke-linecap:square;stroke-linejoin:round;stroke-opacity:1;color-rendering:optimizeQuality;image-rendering:optimizeQuality;text-rendering:geometricPrecision"
     y2="360.04999"
     id="line83" />
  <line
     x1="373.5"
     x2="373.5"
     y1="66"
     style="color-interpolation:linearRGB;fill:none;fill-opacity:1;stroke:#262626;stroke-width:0.66670001;stroke-linecap:square;stroke-linejoin:round;stroke-opacity:1;color-rendering:optimizeQuality;image-rendering:optimizeQuality;text-rendering:geometricPrecision"
     y2="79.949997"
     id="line87" />
  <line
     x1="513"
     x2="513"
     y1="66"
     style="color-interpolation:linearRGB;fill:none;fill-opacity:1;stroke:#262626;stroke-width:0.66670001;stroke-linecap:square;stroke-linejoin:round;stroke-opacity:1;color-rendering:optimizeQuality;image-rendering:optimizeQuality;text-rendering:geometricPrecision"
     y2="79.949997"
     id="line89" />
  <line
     x1="652.5"
     x2="652.5"
     y1="66"
     style="color-interpolation:linearRGB;fill:none;fill-opacity:1;stroke:#262626;stroke-width:0.66670001;stroke-linecap:square;stroke-linejoin:round;stroke-opacity:1;color-rendering:optimizeQuality;image-rendering:optimizeQuality;text-rendering:geometricPrecision"
     y2="79.949997"
     id="line91" />
  <line
     x1="792"
     x2="792"
     y1="66"
     style="color-interpolation:linearRGB;fill:none;fill-opacity:1;stroke:#262626;stroke-width:0.66670001;stroke-linecap:square;stroke-linejoin:round;stroke-opacity:1;color-rendering:optimizeQuality;image-rendering:optimizeQuality;text-rendering:geometricPrecision"
     y2="79.949997"
     id="line93" />
  <line
     x1="931.5"
     x2="931.5"
     y1="66"
     style="color-interpolation:linearRGB;fill:none;fill-opacity:1;stroke:#262626;stroke-width:0.66670001;stroke-linecap:square;stroke-linejoin:round;stroke-opacity:1;color-rendering:optimizeQuality;image-rendering:optimizeQuality;text-rendering:geometricPrecision"
     y2="79.949997"
     id="line95" />
  <line
     x1="1071"
     x2="1071"
     y1="66"
     style="color-interpolation:linearRGB;fill:none;fill-opacity:1;stroke:#262626;stroke-width:0.66670001;stroke-linecap:square;stroke-linejoin:round;stroke-opacity:1;color-rendering:optimizeQuality;image-rendering:optimizeQuality;text-rendering:geometricPrecision"
     y2="79.949997"
     id="line97" />
  <line
     x1="1210.5"
     x2="1210.5"
     y1="66"
     style="color-interpolation:linearRGB;fill:none;fill-opacity:1;stroke:#262626;stroke-width:0.66670001;stroke-linecap:square;stroke-linejoin:round;stroke-opacity:1;color-rendering:optimizeQuality;image-rendering:optimizeQuality;text-rendering:geometricPrecision"
     y2="79.949997"
     id="line99" />
  <line
     x1="1350"
     x2="1350"
     y1="66"
     style="color-interpolation:linearRGB;fill:none;fill-opacity:1;stroke:#262626;stroke-width:0.66670001;stroke-linecap:square;stroke-linejoin:round;stroke-opacity:1;color-rendering:optimizeQuality;image-rendering:optimizeQuality;text-rendering:geometricPrecision"
     y2="79.949997"
     id="line101" />
  <line
     x1="1489.5"
     x2="1489.5"
     y1="66"
     style="color-interpolation:linearRGB;fill:none;fill-opacity:1;stroke:#262626;stroke-width:0.66670001;stroke-linecap:square;stroke-linejoin:round;stroke-opacity:1;color-rendering:optimizeQuality;image-rendering:optimizeQuality;text-rendering:geometricPrecision"
     y2="79.949997"
     id="line103" />
  <line
     x1="1629"
     x2="1629"
     y1="66"
     style="color-interpolation:linearRGB;fill:none;fill-opacity:1;stroke:#262626;stroke-width:0.66670001;stroke-linecap:square;stroke-linejoin:round;stroke-opacity:1;color-rendering:optimizeQuality;image-rendering:optimizeQuality;text-rendering:geometricPrecision"
     y2="79.949997"
     id="line105" />
  <line
     y2="66"
     style="color-interpolation:linearRGB;fill:none;stroke:#262626;stroke-width:0.66670001;stroke-linejoin:round;color-rendering:optimizeQuality;image-rendering:optimizeQuality;text-rendering:geometricPrecision"
     x1="234"
     x2="234"
     y1="374"
     id="line165" />
  <line
     y2="66"
     style="color-interpolation:linearRGB;fill:none;stroke:#262626;stroke-width:0.66670001;stroke-linejoin:round;color-rendering:optimizeQuality;image-rendering:optimizeQuality;text-rendering:geometricPrecision"
     x1="1629"
     x2="1629"
     y1="374"
     id="line167" />
  <line
     y2="374"
     style="color-interpolation:linearRGB;fill:none;stroke:#262626;stroke-width:0.66670001;stroke-linejoin:round;color-rendering:optimizeQuality;image-rendering:optimizeQuality;text-rendering:geometricPrecision"
     x1="234"
     x2="247.95"
     y1="374"
     id="line169" />
  <line
     y2="327.33331"
     style="color-interpolation:linearRGB;fill:none;stroke:#262626;stroke-width:0.66670001;stroke-linejoin:round;color-rendering:optimizeQuality;image-rendering:optimizeQuality;text-rendering:geometricPrecision"
     x1="234"
     x2="247.95"
     y1="327.33331"
     id="line171" />
  <line
     y2="280.66669"
     style="color-interpolation:linearRGB;fill:none;stroke:#262626;stroke-width:0.66670001;stroke-linejoin:round;color-rendering:optimizeQuality;image-rendering:optimizeQuality;text-rendering:geometricPrecision"
     x1="234"
     x2="247.95"
     y1="280.66669"
     id="line173" />
  <line
     y2="234"
     style="color-interpolation:linearRGB;fill:none;stroke:#262626;stroke-width:0.66670001;stroke-linejoin:round;color-rendering:optimizeQuality;image-rendering:optimizeQuality;text-rendering:geometricPrecision"
     x1="234"
     x2="247.95"
     y1="234"
     id="line175" />
  <line
     y2="187.3333"
     style="color-interpolation:linearRGB;fill:none;stroke:#262626;stroke-width:0.66670001;stroke-linejoin:round;color-rendering:optimizeQuality;image-rendering:optimizeQuality;text-rendering:geometricPrecision"
     x1="234"
     x2="247.95"
     y1="187.3333"
     id="line177" />
  <line
     y2="140.6667"
     style="color-interpolation:linearRGB;fill:none;stroke:#262626;stroke-width:0.66670001;stroke-linejoin:round;color-rendering:optimizeQuality;image-rendering:optimizeQuality;text-rendering:geometricPrecision"
     x1="234"
     x2="247.95"
     y1="140.6667"
     id="line179" />
  <line
     y2="94"
     style="color-interpolation:linearRGB;fill:none;stroke:#262626;stroke-width:0.66670001;stroke-linejoin:round;color-rendering:optimizeQuality;image-rendering:optimizeQuality;text-rendering:geometricPrecision"
     x1="234"
     x2="247.95"
     y1="94"
     id="line181" />
  <line
     y2="374"
     style="color-interpolation:linearRGB;fill:none;stroke:#262626;stroke-width:0.66670001;stroke-linejoin:round;color-rendering:optimizeQuality;image-rendering:optimizeQuality;text-rendering:geometricPrecision"
     x1="1629"
     x2="1615.0499"
     y1="374"
     id="line183" />
  <line
     y2="327.33331"
     style="color-interpolation:linearRGB;fill:none;stroke:#262626;stroke-width:0.66670001;stroke-linejoin:round;color-rendering:optimizeQuality;image-rendering:optimizeQuality;text-rendering:geometricPrecision"
     x1="1629"
     x2="1615.0499"
     y1="327.33331"
     id="line185" />
  <line
     y2="280.66669"
     style="color-interpolation:linearRGB;fill:none;stroke:#262626;stroke-width:0.66670001;stroke-linejoin:round;color-rendering:optimizeQuality;image-rendering:optimizeQuality;text-rendering:geometricPrecision"
     x1="1629"
     x2="1615.0499"
     y1="280.66669"
     id="line187" />
  <line
     y2="234"
     style="color-interpolation:linearRGB;fill:none;stroke:#262626;stroke-width:0.66670001;stroke-linejoin:round;color-rendering:optimizeQuality;image-rendering:optimizeQuality;text-rendering:geometricPrecision"
     x1="1629"
     x2="1615.0499"
     y1="234"
     id="line189" />
  <line
     y2="187.3333"
     style="color-interpolation:linearRGB;fill:none;stroke:#262626;stroke-width:0.66670001;stroke-linejoin:round;color-rendering:optimizeQuality;image-rendering:optimizeQuality;text-rendering:geometricPrecision"
     x1="1629"
     x2="1615.0499"
     y1="187.3333"
     id="line191" />
  <line
     y2="140.6667"
     style="color-interpolation:linearRGB;fill:none;stroke:#262626;stroke-width:0.66670001;stroke-linejoin:round;color-rendering:optimizeQuality;image-rendering:optimizeQuality;text-rendering:geometricPrecision"
     x1="1629"
     x2="1615.0499"
     y1="140.6667"
     id="line193" />
  <line
     y2="94"
     style="color-interpolation:linearRGB;fill:none;stroke:#262626;stroke-width:0.66670001;stroke-linejoin:round;color-rendering:optimizeQuality;image-rendering:optimizeQuality;text-rendering:geometricPrecision"
     x1="1629"
     x2="1615.0499"
     y1="94"
     id="line195" />
  <path
     style="font-weight:bold;font-size:medium;font-family:SansSerif;color-interpolation:linearRGB;stroke:none;color-rendering:optimizeQuality;image-rendering:optimizeQuality;text-rendering:geometricPrecision"
     d="m 710.19326,44.625147 0,-21.325277 15.7937,0 0,3.618842 -11.50287,0 0,4.730219 10.70151,0 0,3.593035 -10.70151,0 0,5.790147 11.91646,0 0,3.593034 -16.20729,0 z m 33.8717,0 -4.08404,0 0,-7.883865 q 0,-2.507298 -0.25857,-3.231232 -0.25841,-0.723603 -0.85297,-1.137185 -0.59457,-0.413582 -1.42173,-0.413582 -1.05977,0 -1.89983,0.581496 -0.84007,0.581662 -1.15026,1.538028 -0.31018,0.956368 -0.31018,3.541255 l 0,7.005085 -4.08421,0 0,-15.431734 3.77402,0 0,2.248727 q 2.04194,-2.610695 5.09219,-2.610695 1.36995,0 2.48149,0.491171 1.11154,0.49117 1.69303,1.240746 0.58167,0.749575 0.80136,1.719011 0.2197,0.969271 0.2197,2.752802 l 0,9.589972 z m 8.3929,0 -6.2297,-15.431734 4.291,0 2.92087,7.858057 0.82716,2.636501 q 0.336,-1.008147 0.4394,-1.318168 0.18098,-0.646346 0.41358,-1.318333 l 2.94685,-7.858057 4.21341,0 -6.15212,15.431734 -3.67045,0 z m 11.3654,-7.935645 q 0,-2.041936 1.00798,-3.941932 1.00815,-1.89983 2.84345,-2.907977 1.83532,-1.008148 4.11001,-1.008148 3.48948,0 5.73837,2.274701 2.24889,2.274701 2.24889,5.76434 0,3.489639 -2.26179,5.80305 -2.2618,2.313577 -5.69965,2.313577 -2.1197,0 -4.04533,-0.969435 -1.9258,-0.969271 -2.93395,-2.817486 -1.00798,-1.848215 -1.00798,-4.51069 z m 4.18743,0.206791 q 0,2.300674 1.09864,3.52835 1.09847,1.227842 2.67537,1.227842 1.60255,0 2.68829,-1.227842 1.08557,-1.227676 1.08557,-3.554157 0,-2.274701 -1.08557,-3.489639 -1.08574,-1.214773 -2.68829,-1.214773 -1.5769,0 -2.67537,1.214773 -1.09864,1.214938 -1.09864,3.515446 z m 14.95843,7.728854 0,-21.325277 4.08421,0 0,21.325277 -4.08421,0 z m 12.51251,0 -6.22954,-15.431734 4.29083,0 2.92089,7.858057 0.82716,2.636501 q 0.33616,-1.008147 0.43956,-1.318168 0.18081,-0.646346 0.41358,-1.318333 l 2.94669,-7.858057 4.2134,0 -6.15211,15.431734 -3.67046,0 z m 21.26556,-4.911368 4.05822,0.672153 q -0.77538,2.248894 -2.46858,3.424955 -1.69304,1.176226 -4.25212,1.176226 -4.03243,0 -5.94515,-2.636667 -1.52513,-2.119524 -1.52513,-5.32495 0,-3.85144 2.00323,-6.022745 2.00339,-2.171306 5.07927,-2.171306 3.43803,0 5.42835,2.274701 1.99032,2.274701 1.91274,6.979278 l -10.23616,0 q 0.026,1.809338 0.96944,2.817485 0.94346,1.008148 2.36519,1.008148 0.95636,0 1.61545,-0.516977 0.65925,-0.516978 0.99525,-1.680301 z m 0.23259,-4.135819 q -0.0516,-1.783531 -0.93056,-2.701187 -0.87878,-0.91749 -2.11952,-0.91749 -1.34414,0 -2.19728,0.982175 -0.87878,0.956366 -0.87878,2.636502 l 6.12614,0 z m 21.42056,9.047187 -4.08403,0 0,-7.883865 q 0,-2.507298 -0.25857,-3.231232 -0.25841,-0.723603 -0.85297,-1.137185 -0.59457,-0.413582 -1.42173,-0.413582 -1.05976,0 -1.89983,0.581496 -0.84007,0.581662 -1.15026,1.538028 -0.31018,0.956368 -0.31018,3.541255 l 0,7.005085 -4.08421,0 0,-15.431734 3.77402,0 0,2.248727 q 2.04211,-2.610695 5.09219,-2.610695 1.36994,0 2.48149,0.491171 1.11154,0.49117 1.6932,1.240746 0.5815,0.749575 0.80119,1.719011 0.21969,0.969271 0.21969,2.752802 l 0,9.589972 z m 11.2362,-15.431734 0,3.256875 -2.79168,0 0,6.203728 q 0,1.886926 0.0776,2.210182 0.0775,0.323091 0.36196,0.516978 0.28421,0.193721 0.69779,0.193721 0.54295,0 1.62853,-0.387608 l 0.36196,3.179452 q -1.44754,0.620372 -3.23123,0.620372 -1.11138,0 -2.00322,-0.37487 -0.89185,-0.374871 -1.30543,-0.969436 -0.41359,-0.5944 -0.5686,-1.602547 -0.1292,-0.697961 -0.1292,-2.869266 l 0,-6.720706 -1.88709,0 0,-3.256875 1.88709,0 0,-3.076057 4.10984,-2.378096 0,5.454153 2.79168,0 z m 11.77749,10.520366 4.05823,0.672153 q -0.77538,2.248894 -2.46859,3.424955 -1.69303,1.176226 -4.25211,1.176226 -4.03242,0 -5.94516,-2.636667 -1.52512,-2.119524 -1.52512,-5.32495 0,-3.85144 2.00322,-6.022745 2.00339,-2.171306 5.07928,-2.171306 3.43802,0 5.42835,2.274701 1.99032,2.274701 1.91273,6.979278 l -10.23615,0 q 0.026,1.809338 0.96943,2.817485 0.94346,1.008148 2.3652,1.008148 0.95637,0 1.61545,-0.516977 0.65925,-0.516978 0.99524,-1.680301 z m 0.2326,-4.135819 q -0.0516,-1.783531 -0.93056,-2.701187 -0.87878,-0.91749 -2.11952,-0.91749 -1.34414,0 -2.19728,0.982175 -0.87878,0.956366 -0.87878,2.636502 l 6.12614,0 z m 15.65788,9.047187 0,-21.325277 4.08421,0 0,21.325277 -4.08421,0 z m 8.27331,0 0,-15.431734 4.08417,0 0,15.431734 -4.08417,0 z m 0.23273,-18.197605 2.01618,-4.34261 4.5752,0 -4.00663,4.34261 -2.58475,0 z m 22.07649,18.197605 -4.08418,0 0,-7.883865 q 0,-2.507298 -0.25838,-3.231232 -0.25855,-0.723603 -0.85295,-1.137185 -0.59457,-0.413582 -1.42178,-0.413582 -1.05978,0 -1.89999,0.581496 -0.84004,0.581662 -1.15023,1.538028 -0.3102,0.956368 -0.3102,3.541255 l 0,7.005085 -4.084,0 0,-15.431734 3.77381,0 0,2.248727 q 2.04208,-2.610695 5.09239,-2.610695 1.36988,0 2.48147,0.491171 1.11133,0.49117 1.69299,1.240746 0.58166,0.749575 0.8014,1.719011 0.21965,0.969271 0.21965,2.752802 l 0,9.589972 z m 13.09731,-4.911368 4.05827,0.672153 q -0.77557,2.248894 -2.46856,3.424955 -1.69307,1.176226 -4.25218,1.176226 -4.03236,0 -5.94526,-2.636667 -1.52498,-2.119524 -1.52498,-5.32495 0,-3.85144 2.00318,-6.022745 2.00327,-2.171306 5.07931,-2.171306 3.43788,0 5.42833,2.274701 1.99036,2.274701 1.91272,6.979278 l -10.23608,0 q 0.0255,1.809338 0.9694,2.817485 0.94349,1.008148 2.36502,1.008148 0.95658,0 1.61561,-0.516977 0.65912,-0.516978 0.99522,-1.680301 z M 921.217,35.57796 q -0.0518,-1.783531 -0.93058,-2.701187 -0.87895,-0.91749 -2.11972,-0.91749 -1.34407,0 -2.1971,0.982175 -0.87878,0.956366 -0.87878,2.636502 l 6.12618,0 z m 10.43484,-1.680136 -3.72225,-0.671988 q 0.64621,-2.248893 2.17128,-3.321558 1.52515,-1.072833 4.52365,-1.072833 2.73985,0 4.07109,0.646347 1.33124,0.64618 1.8869,1.641258 0.55593,0.995244 0.55593,3.657719 l -0.0518,4.781999 q 0,2.016129 0.19392,2.985565 0.19383,0.969271 0.73667,2.080814 l -4.03245,0 q -0.18083,-0.413582 -0.41356,-1.214938 -0.10346,-0.361802 -0.1292,-0.465197 -1.05977,1.008147 -2.24891,1.524959 -1.18896,0.517142 -2.53311,0.517142 -2.40393,0 -3.77407,-1.305429 -1.36988,-1.30543 -1.36988,-3.269944 0,-1.318334 0.62039,-2.33922 0.6203,-1.02105 1.75771,-1.563836 1.13732,-0.54295 3.25705,-0.956532 2.86904,-0.542785 3.95481,-1.008148 l 0,-0.413581 q 0,-1.163158 -0.58166,-1.667232 -0.58149,-0.503908 -2.18419,-0.503908 -1.08559,0 -1.70598,0.426485 -0.62039,0.426487 -0.98232,1.512056 z m 5.45415,3.308655 q -0.77557,0.258572 -2.48147,0.620374 -1.70616,0.361966 -2.2231,0.723768 -0.80122,0.568758 -0.80122,1.447536 0,0.853137 0.64621,1.473511 0.64613,0.620372 1.62852,0.620372 1.11134,0 2.09373,-0.723934 0.7495,-0.542784 0.98215,-1.343975 0.15518,-0.542951 0.15518,-1.990487 l 0,-0.827165 z m 35.56157,7.418668 -4.67858,0 -1.8611,-4.83378 -8.50445,0 -1.75771,4.83378 -4.5752,0 8.29745,-21.325277 4.54938,0 8.53021,21.325277 z m -7.90982,-8.426815 -2.94668,-7.909671 -2.8693,7.909671 5.81598,0 z m 18.32699,-7.004919 3.82563,0 0,2.248727 q 0.72375,-1.163158 1.99035,-1.886926 1.26651,-0.723769 2.81749,-0.723769 2.68821,0 4.56229,2.106787 1.87399,2.106621 1.87399,5.880473 0,3.877414 -1.8869,6.022911 -1.88699,2.145497 -4.57521,2.145497 -1.29259,0 -2.32653,-0.517142 -1.03396,-0.516812 -2.1971,-1.757558 l 0,7.780469 -4.08401,0 0,-21.299469 z m 4.05819,7.444474 q 0,2.610695 1.02112,3.851441 1.02105,1.240746 2.5202,1.240746 1.4217,0 2.36519,-1.137351 0.94341,-1.13735 0.94341,-3.748045 0,-2.429877 -0.96923,-3.605938 -0.96948,-1.176226 -2.417,-1.176226 -1.49916,0 -2.48147,1.150419 -0.98222,1.150254 -0.98222,3.424954 z m 14.26058,-9.538357 0,-3.79966 4.084,0 0,3.79966 -4.084,0 z m 0,17.525617 0,-15.431734 4.084,0 0,15.431734 -4.084,0 z m 6.3087,0 5.5574,-7.961452 -5.3248,-7.470282 4.9888,0 2.7141,4.239214 2.8951,-4.239214 4.7821,0 -5.2215,7.315271 5.7125,8.116463 -5.0146,0 -3.1536,-4.781999 -3.1535,4.781999 -4.782,0 z m 27.4693,-4.911368 4.0583,0.672153 q -0.7756,2.248894 -2.4687,3.424955 -1.693,1.176226 -4.2521,1.176226 -4.0324,0 -5.9453,-2.636667 -1.5249,-2.119524 -1.5249,-5.32495 0,-3.85144 2.0032,-6.022745 2.0032,-2.171306 5.0793,-2.171306 3.4378,0 5.4283,2.274701 1.9904,2.274701 1.9127,6.979278 l -10.2362,0 q 0.025,1.809338 0.9695,2.817485 0.9434,1.008148 2.3651,1.008148 0.9564,0 1.6156,-0.516977 0.659,-0.516978 0.9952,-1.680301 z m 0.2326,-4.135819 q -0.052,-1.783531 -0.9305,-2.701187 -0.879,-0.91749 -2.1198,-0.91749 -1.3441,0 -2.1971,0.982175 -0.8787,0.956366 -0.8787,2.636502 l 6.1261,0 z m 7.3848,9.047187 0,-21.325277 4.084,0 0,21.325277 -4.084,0 z m 30.0136,-10.882333 -4.0325,0.723768 q -0.2067,-1.18913 -0.9305,-1.809504 -0.7237,-0.620372 -1.8611,-0.620372 -1.5249,0 -2.4426,1.059762 -0.9177,1.059928 -0.9177,3.541419 0,2.739898 0.9306,3.877248 0.9305,1.13735 2.4815,1.13735 1.1631,0 1.8998,-0.671988 0.7367,-0.672152 1.0469,-2.2747 l 4.0066,0.671988 q -0.6204,2.76587 -2.391,4.187599 -1.7706,1.421729 -4.7433,1.421729 -3.3862,0 -5.4023,-2.145497 -2.0164,-2.145497 -2.0164,-5.91935 0,-3.825798 2.0164,-5.958227 2.0161,-2.132594 5.4799,-2.132594 2.8175,0 4.4718,1.214939 1.6543,1.214939 2.4039,3.69643 z m 12.0375,5.970965 4.0583,0.672153 q -0.7754,2.248894 -2.4686,3.424955 -1.693,1.176226 -4.2521,1.176226 -4.0325,0 -5.9452,-2.636667 -1.5251,-2.119524 -1.5251,-5.32495 0,-3.85144 2.0032,-6.022745 2.0034,-2.171306 5.0795,-2.171306 3.4379,0 5.4281,2.274701 1.9904,2.274701 1.9129,6.979278 l -10.2361,0 q 0.026,1.809338 0.9693,2.817485 0.9434,1.008148 2.3652,1.008148 0.9563,0 1.6154,-0.516977 0.6592,-0.516978 0.9952,-1.680301 z m 0.2327,-4.135819 q -0.051,-1.783531 -0.9306,-2.701187 -0.8788,-0.91749 -2.1196,-0.91749 -1.3441,0 -2.1971,0.982175 -0.8789,0.956366 -0.8789,2.636502 l 6.1262,0 z m 21.4207,9.047187 -4.0842,0 0,-7.883865 q 0,-2.507298 -0.2584,-3.231232 -0.2586,-0.723603 -0.8532,-1.137185 -0.5944,-0.413582 -1.4215,-0.413582 -1.06,0 -1.9,0.581496 -0.8401,0.581662 -1.1502,1.538028 -0.3102,0.956368 -0.3102,3.541255 l 0,7.005085 -4.0841,0 0,-15.431734 3.7739,0 0,2.248727 q 2.0421,-2.610695 5.0921,-2.610695 1.3701,0 2.4816,0.491171 1.1115,0.49117 1.6931,1.240746 0.5815,0.749575 0.8014,1.719011 0.2197,0.969271 0.2197,2.752802 l 0,9.589972 z m 11.2362,-15.431734 0,3.256875 -2.7917,0 0,6.203728 q 0,1.886926 0.077,2.210182 0.077,0.323091 0.362,0.516978 0.2844,0.193721 0.698,0.193721 0.5427,0 1.6283,-0.387608 l 0.3619,3.179452 q -1.4475,0.620372 -3.231,0.620372 -1.1115,0 -2.0034,-0.37487 -0.8916,-0.374871 -1.3052,-0.969436 -0.4137,-0.5944 -0.5688,-1.602547 -0.1291,-0.697961 -0.1291,-2.869266 l 0,-6.720706 -1.8869,0 0,-3.256875 1.8869,0 0,-3.076057 4.11,-2.378096 0,5.454153 2.7918,0 z m 6.7367,15.431734 -4.084,0 0,-15.431734 3.7998,0 0,2.197112 q 0.9564,-1.576739 1.7446,-2.067909 0.7885,-0.491171 1.7708,-0.491171 1.3958,0 2.6883,0.775549 l -1.2666,3.567062 q -1.034,-0.671988 -1.9128,-0.671988 -0.853,0 -1.4605,0.465197 -0.6074,0.465362 -0.9434,1.706108 -0.3362,1.240746 -0.3362,5.169775 l 0,4.781999 z m 10.7355,-10.727323 -3.7223,-0.671988 q 0.6462,-2.248893 2.1714,-3.321558 1.525,-1.072833 4.5235,-1.072833 2.7399,0 4.0711,0.646347 1.3313,0.64618 1.887,1.641258 0.5558,0.995244 0.5558,3.657719 l -0.051,4.781999 q 0,2.016129 0.1939,2.985565 0.1938,0.969271 0.7367,2.080814 l -4.0325,0 q -0.181,-0.413582 -0.4135,-1.214938 -0.1027,-0.361802 -0.1291,-0.465197 -1.0597,1.008147 -2.2489,1.524959 -1.1889,0.517142 -2.5331,0.517142 -2.4041,0 -3.774,-1.305429 -1.3699,-1.30543 -1.3699,-3.269944 0,-1.318334 0.6203,-2.33922 0.6203,-1.02105 1.7578,-1.563836 1.1373,-0.54295 3.2568,-0.956532 2.8693,-0.542785 3.955,-1.008148 l 0,-0.413581 q 0,-1.163158 -0.5816,-1.667232 -0.5817,-0.503908 -2.1842,-0.503908 -1.0858,0 -1.7062,0.426485 -0.6204,0.426487 -0.9821,1.512056 z m 5.4541,3.308655 q -0.7756,0.258572 -2.4815,0.620374 -1.7061,0.361966 -2.2231,0.723768 -0.8014,0.568758 -0.8014,1.447536 0,0.853137 0.6464,1.473511 0.6462,0.620372 1.6284,0.620372 1.1115,0 2.0939,-0.723934 0.7496,-0.542784 0.9821,-1.343975 0.1555,-0.542951 0.1555,-1.990487 l 0,-0.827165 z m 8.0567,7.418668 0,-21.325277 4.0841,0 0,21.325277 -4.0841,0 z"
     id="path243"
     inkscape:connector-curvature="0" />
  <path
     d="m 234,373.9424 3.724,0.003 3.7241,3e-4 3.724,-0.004 3.724,-0.009 3.7241,-0.0142 3.724,-0.0204 3.724,-0.0268 3.7241,-0.033 3.724,-0.0391 3.7241,-0.0443 3.724,-0.0486 3.724,-0.0514 3.724,-0.0528 3.7241,-0.0524 3.724,-0.0498 3.7241,-0.0455 3.724,-0.0389 3.724,-0.0307 3.7241,-0.0207 3.724,-0.009 3.724,0.003 3.7241,0.0154 3.724,0.0279 3.7241,0.0398 3.724,0.0504 3.724,0.0592 3.7241,0.0656 3.724,0.0694 3.724,0.0698 3.7241,0.0671 3.724,0.0608 3.724,0.051 3.7241,0.0382 3.724,0.0223 3.724,0.004 3.7241,-0.0155 3.724,-0.0364 3.724,-0.0572 3.7241,-0.0772 3.724,-0.0957 3.7241,-0.1114 3.724,-0.1238 3.724,-0.132 3.7241,-0.1356 3.724,-0.1341 3.724,-0.1274 3.7241,-0.1153 3.724,-0.0984 3.724,-0.0771 3.7241,-0.0518 3.724,-0.024 3.724,0.006 3.7241,0.0357 3.724,0.065 3.724,0.0921 3.7241,0.1158 3.724,0.1346 3.724,0.1477 3.7241,0.1542 3.724,0.1534 3.7241,0.1449 3.724,0.1289 3.7241,0.1052 3.724,0.0751 3.724,0.0391 3.724,-0.002 3.7241,-0.0451 3.724,-0.0901 3.724,-0.1346 3.7241,-0.1767 3.724,-0.2147 3.724,-0.2467 3.7241,-0.2712 3.724,-0.2868 3.7241,-0.2926 3.724,-0.288 3.724,-0.2728 3.724,-0.2472 3.7241,-0.212 3.7241,-0.1683 3.724,-0.1177 3.724,-0.0621 3.7241,-0.004 3.724,0.0551 3.724,0.1118 3.724,0.164 3.7241,0.2094 3.724,0.2458 3.724,0.2714 3.7241,0.285 3.724,0.2856 3.7241,0.273 3.724,0.2477 3.724,0.2102 3.724,0.1625 3.7241,0.1065 3.724,0.0446 3.724,-0.0201 3.7241,-0.0846 3.724,-0.1454 3.7241,-0.1997 3.724,-0.2441 3.724,-0.2763 3.7241,-0.2942 3.724,-0.2962 3.724,-0.282 3.7241,-0.252 3.724,-0.2073 3.7241,-0.1506 3.724,-0.0849 3.724,-0.0149 3.7241,0.0542 3.724,0.1167 3.724,0.1656 3.724,0.1942 3.7241,0.1952 3.7241,0.1618 3.724,0.087 3.724,-0.035 3.7241,-0.2097 3.724,-0.4411 3.724,-0.7321 3.724,-1.0837 3.7241,-1.4961 3.7241,-1.9669 3.724,-2.4924 3.724,-3.0672 3.724,-3.6839 3.7241,-4.334 3.724,-5.0075 3.724,-5.6931 3.724,-6.379 3.7241,-7.0528 3.7241,-7.7021 3.724,-8.3141 3.724,-8.8775 3.7241,-9.3809 3.724,-9.8149 3.724,-10.171 3.724,-10.443 3.7241,-10.626 3.724,-10.7177 3.724,-10.7173 3.724,-10.6268 3.7242,-10.4498 3.724,-10.1916 3.724,-9.8599 3.724,-9.4631 3.7241,-9.0109 3.724,-8.5143 3.724,-7.984 3.724,-7.4315 3.7241,-6.8674 3.7241,-6.302 3.724,-5.7445 3.724,-5.2028 3.724,-4.6833 3.7241,-4.1911 3.724,-3.7287 3.724,-3.2975 3.724,-2.8966 3.7242,-2.5238 3.724,-2.1747 3.724,-1.8443 3.724,-1.5256 3.7241,-1.2116 3.724,-0.8945 3.724,-0.5662 3.724,-0.2193 3.7241,0.1533 3.7241,0.5576 3.724,0.9986 3.724,1.4795 3.7241,2.0018 3.724,2.5657 3.724,3.1686 3.724,3.8068 3.7241,4.4746 3.7241,5.164 3.724,5.8661 3.724,6.5709 3.7241,7.2666 3.724,7.9416 3.724,8.5838 3.724,9.1807 3.724,9.7213 3.7241,10.1944 3.7241,10.5904 3.724,10.9017 3.724,11.1213 3.724,11.2452 3.7241,11.2704 3.724,11.1971 3.724,11.0269 3.7241,10.7637 3.724,10.4133 3.7241,9.9832 3.724,9.4827 3.7241,8.9221 3.7239,8.3128 3.7241,7.6667 3.724,6.9963 3.7241,6.3137 3.724,5.6311 3.7241,4.9595 3.724,4.3096 3.7241,3.6903 3.7239,3.1098 3.7241,2.5745 3.724,2.0892 3.7241,1.6572 3.724,1.2801 3.724,0.9585 3.7241,0.6909 3.724,0.4747 3.724,0.3066 3.7241,0.1823 3.724,0.0962 3.724,0.0433 3.724,0.0175 3.724,0.0131 3.7241,0.0243 3.724,0.046 3.7242,0.0735 3.724,0.1023 3.7241,0.1292 3.724,0.1513 3.724,0.1665 3.724,0.1739 3.724,0.1726 3.7241,0.1629 3.724,0.1453 3.724,0.121 3.7241,0.0915 3.724,0.0584 3.7241,0.0234 3.7239,-0.0117 3.7241,-0.045 3.724,-0.0752 3.7242,-0.101 3.724,-0.1213 3.724,-0.1356 3.724,-0.1435 3.7241,-0.1449 3.724,-0.1406 3.724,-0.1306 3.724,-0.1161 3.7241,-0.0983 3.724,-0.0778 3.7241,-0.0562 3.724,-0.0344 3.7241,-0.0137 3.7239,0.005 3.7241,0.0213 3.724,0.034 3.724,0.043 3.7241,0.0483 3.724,0.0497 3.724,0.0477 3.724,0.0425 3.7242,0.0349 3.724,0.0255 3.724,0.0152 3.724,0.005 3.7241,-0.005 3.724,-0.0141 3.7241,-0.021 3.724,-0.0254 3.724,-0.0273 3.724,-0.0261 3.7241,-0.0222 3.724,-0.0155 3.724,-0.006 3.7241,0.005 3.724,0.0178 3.724,0.0315 3.724,0.0456 3.7242,0.0594 3.724,0.0723 3.724,0.0838 3.7241,0.0933 3.724,0.1005 3.7241,0.1053 3.724,0.1074 3.724,0.1068 3.724,0.1037 3.724,0.0983 3.724,0.0909 3.7242,0.0821 3.724,0.0721 3.724,0.0614 3.724,0.0506 3.724,0.0401 3.724,0.0302 3.724,0.0215 3.7242,0.014 3.724,0.008 3.7241,0.003 3.724,3e-4 3.7241,-10e-4 3.7239,-0.002 3.724,-0.002 3.7241,-8e-4 3.724,3e-4 3.724,10e-4 3.7241,0.002 3.7241,0.002 3.724,6e-4 3.724,-0.002 3.724,-0.005 3.7241,-0.01 3.724,-0.0156 3.724,-0.0223 3.724,-0.0298 3.7243,-0.0376 3.724,-0.0456 3.724,-0.0532 3.7239,-0.0602 3.7241,-0.0659 3.724,-0.0704 3.724,-0.0732 3.724,-0.0741 3.7242,-0.0729 3.724,-0.0696 3.724,-0.0644 3.724,-0.0573 3.7241,-0.0485 3.724,-0.0384 3.724,-0.0274 3.724,-0.0158 3.7242,-0.004 3.7241,0.007 3.724,0.0179 3.7239,0.0271 3.724,0.035 3.7241,0.041 3.724,0.045 3.724,0.0469 3.724,0.0467 3.7241,0.0445 3.7241,0.0405 3.724,0.035 3.724,0.0283 3.7241,0.0208 3.724,0.013 3.724,0.005 3.724,-0.002 3.7242,-0.008 3.7241,-0.0132 3.724,-0.0167 3.7239,-0.0182 3.7241,-0.0181 3.724,-0.0159 3.724,-0.0121 3.724,-0.006 3.7241,4e-4 3.724,0.008 3.7241,0.0167 3.724,0.0253 3.7241,0.0338 3.724,0.0413 3.724,0.0478 3.724,0.0528 3.7242,0.0558 3.7239,0.0569 3.7242,0.0557 3.7238,0.0523 3.724,0.0467 3.7242,0.0391 3.724,0.0298 3.724,0.0191 3.724,0.007 3.7241,-0.005 3.724,-0.0168"
     style="color-interpolation:linearRGB;fill:none;fill-rule:evenodd;stroke:#8072bd;stroke-width:1.73329997;stroke-linecap:butt;stroke-linejoin:round;color-rendering:optimizeQuality;image-rendering:optimizeQuality;text-rendering:geometricPrecision"
     id="path247"
     inkscape:connector-curvature="0" />
  <line
     x1="226.99855"
     x2="226.99855"
     y1="-77.301163"
     style="color-interpolation:linearRGB;fill:none;fill-opacity:1;stroke:#262626;stroke-width:1.01834369;stroke-linecap:square;stroke-linejoin:round;stroke-opacity:1;color-rendering:optimizeQuality;image-rendering:optimizeQuality;text-rendering:geometricPrecision"
     y2="-55.993389"
     id="line85" />
  <path
     style="font-size:medium;font-family:SansSerif;color-interpolation:linearRGB;fill:#262626;stroke:none;color-rendering:optimizeQuality;image-rendering:optimizeQuality;text-rendering:geometricPrecision"
     d="m 170.68691,311.8343 -19.68961,0 0,-2.62521 19.68961,0 0,2.62521 z m 0,-6.89883 -14.24811,0 0,-2.17186 2.0286,0 q -2.3628,-1.5751 -2.3628,-4.53451 0,-1.28886 0.46541,-2.37471 0.46541,-1.08586 1.21722,-1.62291 0.7518,-0.53704 1.77809,-0.7518 0.6681,-0.1193 2.36264,-0.1193 l 8.75895,0 0,2.41046 -8.66348,0 q -1.47963,0 -2.21952,0.27448 -0.7399,0.27448 -1.16941,1.00246 -0.42967,0.72782 -0.42967,1.68247 0,1.55127 0.97863,2.67302 0.97848,1.12175 3.72298,1.12175 l 7.78047,0 0,2.41045 z m -2.17187,-20.56513 2.14804,-0.35804 q 0.21476,1.02629 0.21476,1.83767 0,1.31268 -0.4176,2.0405 -0.41776,0.72798 -1.09793,1.01437 -0.68016,0.2864 -2.85203,0.2864 l -8.20999,0 0,1.79001 -1.86149,0 0,-1.79001 -3.5322,0 -1.45595,-2.38662 4.98815,0 0,-2.43428 1.86149,0 0,2.43428 8.35326,0 q 1.02614,0 1.3246,-0.13121 0.29831,-0.13136 0.46526,-0.41776 0.1671,-0.28639 0.1671,-0.8352 0,-0.38186 -0.0955,-1.05011 z m -2.41045,-12.12558 0.31023,-2.50592 q 2.17186,0.59662 3.38908,2.1957 1.21721,1.59892 1.21721,4.08101 0,3.12651 -1.93328,4.96418 -1.93312,1.83781 -5.41767,1.83781 -3.57986,0 -5.57271,-1.84973 -1.99285,-1.84957 -1.99285,-4.80899 0,-2.86395 1.94519,-4.67778 1.94505,-1.81383 5.47725,-1.81383 0.21476,0 0.64443,0.0238 l 0,10.62044 q 2.36264,-0.11929 3.60384,-1.32459 1.24089,-1.20515 1.24089,-2.97133 0,-1.33651 -0.69209,-2.27925 -0.69208,-0.94258 -2.21952,-1.49154 z m -3.91406,7.94742 0,-7.97125 q -1.79001,0.16695 -2.69685,0.90684 -1.40814,1.16941 -1.40814,3.00722 0,1.64674 1.12175,2.7804 1.12175,1.13367 2.98324,1.27679 z m 8.49638,-13.4769 -14.24811,0 0,-2.17187 2.0286,0 q -2.3628,-1.57525 -2.3628,-4.53466 0,-1.2887 0.46541,-2.37456 0.46541,-1.08601 1.21722,-1.62305 0.7518,-0.5369 1.77809,-0.75166 0.6681,-0.11944 2.36264,-0.11944 l 8.75895,0 0,2.4106 -8.66348,0 q -1.47963,0 -2.21952,0.27448 -0.7399,0.27433 -1.16941,1.00231 -0.42967,0.72798 -0.42967,1.68263 0,1.55126 0.97863,2.67301 0.97848,1.1216 3.72298,1.1216 l 7.78047,0 0,2.41061 z m -4.24811,-14.31241 -0.38186,-2.41046 q 1.43182,-0.19093 2.19554,-1.10968 0.76372,-0.91891 0.76372,-2.56564 0,-1.67071 -0.68017,-2.48209 -0.68017,-0.81153 -1.58701,-0.81153 -0.81153,0 -1.28885,0.71607 -0.31023,0.50115 -0.81138,2.48209 -0.66825,2.64903 -1.15749,3.67532 -0.48924,1.02629 -1.36049,1.56333 -0.8711,0.5369 -1.92122,0.5369 -0.95465,0 -1.76602,-0.44143 -0.81153,-0.44158 -1.33651,-1.18148 -0.42967,-0.57279 -0.71606,-1.55126 -0.2864,-0.97848 -0.2864,-2.0764 0,-1.69455 0.48924,-2.95942 0.48939,-1.26487 1.31268,-1.8734 0.82344,-0.60869 2.20761,-0.82344 l 0.31022,2.36279 q -1.09777,0.16695 -1.71837,0.93067 -0.62044,0.76372 -0.62044,2.17187 0,1.67071 0.54896,2.38662 0.54896,0.71606 1.2887,0.71606 0.47732,0 0.85918,-0.31037 0.38186,-0.2864 0.64443,-0.90684 0.11929,-0.38186 0.6206,-2.14804 0.6681,-2.55357 1.10968,-3.56795 0.44159,-1.01437 1.27679,-1.59907 0.83536,-0.58471 2.05257,-0.58471 1.21722,0 2.29116,0.70415 1.07394,0.704 1.65865,2.04051 0.58485,1.33651 0.58485,3.00707 0,2.79246 -1.15764,4.24827 -1.1575,1.4558 -3.42467,1.86149 z m -12.64919,-14.74926 -2.79231,0 0,-2.41045 2.79231,0 0,2.41045 z m 16.8973,0 -14.24811,0 0,-2.41045 14.24811,0 0,2.41045 z m 0,-15.3445 -1.79001,0 q 2.12421,1.36033 2.12421,4.00952 0,1.69455 -0.94273,3.12652 -0.94274,1.43197 -2.62536,2.21952 -1.68263,0.78755 -3.87817,0.78755 -2.14804,0 -3.87832,-0.71591 -1.73029,-0.71607 -2.66111,-2.13613 -0.93082,-1.42006 -0.93082,-3.18608 0,-1.28885 0.54896,-2.29116 0.54896,-1.00246 1.40815,-1.64673 l -7.06441,0 0,-2.38663 19.68961,0 0,2.21953 z m -7.11206,7.66102 q 2.7445,0 4.09292,-1.15749 1.34843,-1.1575 1.34843,-2.73274 0,-1.5751 -1.2887,-2.68494 -1.2887,-1.10968 -3.96172,-1.10968 -2.91176,0 -4.28401,1.1216 -1.37241,1.12175 -1.37241,2.76848 0,1.6229 1.31269,2.70891 1.31268,1.08586 4.1528,1.08586 z m 5.34603,-22.99957 q 1.14558,1.33651 1.62276,2.58947 0.47747,1.25296 0.47747,2.6611 0,2.3628 -1.15764,3.61576 -1.1575,1.25296 -2.9475,1.25296 -1.02614,0 -1.89723,-0.47733 -0.8711,-0.47732 -1.39624,-1.24104 -0.52513,-0.76372 -0.78754,-1.7422 -0.19093,-0.71606 -0.35804,-2.14804 -0.35803,-2.9116 -0.83535,-4.29592 -0.50115,-0.0238 -0.64443,-0.0238 -1.4558,0 -2.07625,0.69208 -0.81153,0.93083 -0.81153,2.74466 0,1.71837 0.59662,2.5299 0.59677,0.81137 2.12421,1.19323 l -0.3342,2.3628 q -1.52744,-0.33421 -2.45811,-1.06203 -0.93082,-0.72798 -1.43213,-2.12421 -0.50115,-1.39608 -0.50115,-3.25772 0,-1.81384 0.42967,-2.95942 0.42952,-1.14557 1.08586,-1.68247 0.65634,-0.53705 1.63481,-0.75181 0.6206,-0.11929 2.24351,-0.11929 l 3.22198,0 q 3.3651,0 4.26002,-0.15519 0.89508,-0.15518 1.70646,-0.60853 l 0,2.52975 q -0.76372,0.38186 -1.76603,0.47732 z m -5.39384,0.21476 q 0.54896,1.31268 0.90684,3.93804 0.21491,1.47963 0.48939,2.10023 0.27433,0.62045 0.78755,0.95465 0.51307,0.33405 1.15749,0.33405 0.95465,0 1.59908,-0.72797 0.64442,-0.72783 0.64442,-2.13598 0,-1.40814 -0.60868,-2.494 -0.60853,-1.08586 -1.65865,-1.58716 -0.83535,-0.38186 -2.43443,-0.38186 l -0.88301,0 z m 7.15987,-15.45784 -1.79001,0 q 2.12421,1.36034 2.12421,4.00953 0,1.69454 -0.94273,3.12652 -0.94274,1.43197 -2.62536,2.21952 -1.68263,0.78754 -3.87817,0.78754 -2.14804,0 -3.87832,-0.71591 -1.73029,-0.71606 -2.66111,-2.13597 -0.93082,-1.42006 -0.93082,-3.18623 0,-1.28871 0.54896,-2.29116 0.54896,-1.00231 1.40815,-1.64674 l -7.06441,0 0,-2.38662 19.68961,0 0,2.21952 z m -7.11206,7.66103 q 2.7445,0 4.09292,-1.1575 1.34843,-1.15749 1.34843,-2.73259 0,-1.57524 -1.2887,-2.68508 -1.2887,-1.10969 -3.96172,-1.10969 -2.91176,0 -4.28401,1.12176 -1.37241,1.12159 -1.37241,2.76848 0,1.6229 1.31269,2.70876 1.31268,1.08586 4.1528,1.08586 z m 12.57739,-21.3782 -25.15494,0 0,-5.34603 2.00477,0 0,2.93558 21.14541,0 0,-2.93558 2.00476,0 0,5.34603 z m -5.46533,-16.92265 -2.10023,0 q 2.43443,1.64689 2.43443,4.51084 0,1.26487 -0.48939,2.36264 -0.48924,1.09792 -1.21706,1.6229 -0.72798,0.52514 -1.80192,0.73989 -0.71606,0.14328 -2.2435,0.14328 l -8.83044,0 0,-2.41061 7.89977,0 q 1.88532,0 2.55357,-0.14312 0.95465,-0.23874 1.4917,-0.97847 0.53704,-0.7399 0.53704,-1.81384 0,-1.09792 -0.54896,-2.05257 -0.54896,-0.95465 -1.51552,-1.34842 -0.96657,-0.39378 -2.7804,-0.39378 l -7.6372,0 0,-2.41045 14.24811,0 0,2.17171 z m 0,-6.65123 -2.74466,0 0,-2.7445 2.74466,0 0,2.7445 z m -1.76603,-16.2544 q 1.14558,1.33651 1.62276,2.58962 0.47747,1.25296 0.47747,2.66096 0,2.36279 -1.15764,3.61575 -1.1575,1.25296 -2.9475,1.25296 -1.02614,0 -1.89723,-0.47733 -0.8711,-0.47732 -1.39624,-1.24104 -0.52513,-0.76372 -0.78754,-1.7422 -0.19093,-0.71591 -0.35804,-2.14788 -0.35803,-2.91176 -0.83535,-4.29593 -0.50115,-0.024 -0.64443,-0.024 -1.4558,0 -2.07625,0.69224 -0.81153,0.93067 -0.81153,2.7445 0,1.71837 0.59662,2.5299 0.59677,0.81138 2.12421,1.19324 l -0.3342,2.36279 q -1.52744,-0.33405 -2.45811,-1.06203 -0.93082,-0.72797 -1.43213,-2.12405 -0.50115,-1.39624 -0.50115,-3.25773 0,-1.81383 0.42967,-2.95941 0.42952,-1.14558 1.08586,-1.68263 0.65634,-0.53704 1.63481,-0.7518 0.6206,-0.1193 2.24351,-0.1193 l 3.22198,0 q 3.3651,0 4.26002,-0.15518 0.89508,-0.15504 1.70646,-0.60854 l 0,2.52975 q -0.76372,0.38186 -1.76603,0.47732 z m -5.39384,0.21491 q 0.54896,1.31253 0.90684,3.9379 0.21491,1.47963 0.48939,2.10022 0.27433,0.62045 0.78755,0.95465 0.51307,0.33405 1.15749,0.33405 0.95465,0 1.59908,-0.72782 0.64442,-0.72798 0.64442,-2.13612 0,-1.408 -0.60868,-2.49401 -0.60853,-1.08585 -1.65865,-1.58701 -0.83535,-0.38186 -2.43443,-0.38186 l -0.88301,0 z m 12.6252,-10.23124 0,5.32221 -2.00476,0 0,-2.91161 -21.14541,0 0,2.91161 -2.00477,0 0,-5.32221 25.15494,0 z"
     id="path227"
     inkscape:connector-curvature="0" />
  <text
     xml:space="preserve"
     style="font-style:normal;font-weight:normal;font-size:24.44412041px;line-height:125%;font-family:sans-serif;letter-spacing:0px;word-spacing:0px;fill:#000000;fill-opacity:1;stroke:none;stroke-width:1px;stroke-linecap:butt;stroke-linejoin:miter;stroke-opacity:1"
     x="186.0742"
     y="103.07106"
     id="text3789"
     sodipodi:linespacing="125%"><tspan
       sodipodi:role="line"
       id="tspan3791"
       x="186.0742"
       y="103.07106"
       style="font-style:normal;font-variant:normal;font-weight:normal;font-stretch:normal;font-family:Leelawadee;-inkscape-font-specification:Leelawadee">1.2</tspan></text>
  <text
     xml:space="preserve"
     style="font-style:normal;font-weight:normal;font-size:24.44412041px;line-height:125%;font-family:sans-serif;letter-spacing:0px;word-spacing:0px;color-interpolation:auto;fill:#000000;fill-opacity:1;stroke:none;stroke-width:1px;stroke-linecap:butt;stroke-linejoin:miter;stroke-miterlimit:10;stroke-dasharray:none;stroke-dashoffset:0;stroke-opacity:1;color-rendering:auto;image-rendering:auto;shape-rendering:auto;text-rendering:auto"
     x="186.0742"
     y="149.5647"
     id="text3789-7"
     sodipodi:linespacing="125%"><tspan
       sodipodi:role="line"
       id="tspan3791-55"
       x="186.0742"
       y="149.5647"
       style="font-style:normal;font-variant:normal;font-weight:normal;font-stretch:normal;font-family:Leelawadee;-inkscape-font-specification:Leelawadee">1.0</tspan></text>
  <text
     xml:space="preserve"
     style="font-style:normal;font-weight:normal;font-size:24.44412041px;line-height:125%;font-family:sans-serif;letter-spacing:0px;word-spacing:0px;color-interpolation:auto;fill:#000000;fill-opacity:1;stroke:none;stroke-width:1px;stroke-linecap:butt;stroke-linejoin:miter;stroke-miterlimit:10;stroke-dasharray:none;stroke-dashoffset:0;stroke-opacity:1;color-rendering:auto;image-rendering:auto;shape-rendering:auto;text-rendering:auto"
     x="186.0742"
     y="196.23129"
     id="text3789-5"
     sodipodi:linespacing="125%"><tspan
       sodipodi:role="line"
       id="tspan3791-6"
       x="186.0742"
       y="196.23129"
       style="font-style:normal;font-variant:normal;font-weight:normal;font-stretch:normal;font-family:Leelawadee;-inkscape-font-specification:Leelawadee">0.8</tspan></text>
  <text
     xml:space="preserve"
     style="font-style:normal;font-weight:normal;font-size:24.44412041px;line-height:125%;font-family:sans-serif;letter-spacing:0px;word-spacing:0px;color-interpolation:auto;fill:#000000;fill-opacity:1;stroke:none;stroke-width:1px;stroke-linecap:butt;stroke-linejoin:miter;stroke-miterlimit:10;stroke-dasharray:none;stroke-dashoffset:0;stroke-opacity:1;color-rendering:auto;image-rendering:auto;shape-rendering:auto;text-rendering:auto"
     x="186.0742"
     y="242.89799"
     id="text3789-8"
     sodipodi:linespacing="125%"><tspan
       sodipodi:role="line"
       id="tspan3791-69"
       x="186.0742"
       y="242.89799"
       style="font-style:normal;font-variant:normal;font-weight:normal;font-stretch:normal;font-family:Leelawadee;-inkscape-font-specification:Leelawadee">0.6</tspan></text>
  <text
     xml:space="preserve"
     style="font-style:normal;font-weight:normal;font-size:24.44412041px;line-height:125%;font-family:sans-serif;letter-spacing:0px;word-spacing:0px;color-interpolation:auto;fill:#000000;fill-opacity:1;stroke:none;stroke-width:1px;stroke-linecap:butt;stroke-linejoin:miter;stroke-miterlimit:10;stroke-dasharray:none;stroke-dashoffset:0;stroke-opacity:1;color-rendering:auto;image-rendering:auto;shape-rendering:auto;text-rendering:auto"
     x="186.0742"
     y="289.56467"
     id="text3789-8-7"
     sodipodi:linespacing="125%"><tspan
       sodipodi:role="line"
       id="tspan3791-69-7"
       x="186.0742"
       y="289.56467"
       style="font-style:normal;font-variant:normal;font-weight:normal;font-stretch:normal;font-family:Leelawadee;-inkscape-font-specification:Leelawadee">0.4</tspan></text>
  <text
     xml:space="preserve"
     style="font-style:normal;font-weight:normal;font-size:24.44412041px;line-height:125%;font-family:sans-serif;letter-spacing:0px;word-spacing:0px;color-interpolation:auto;fill:#000000;fill-opacity:1;stroke:none;stroke-width:1px;stroke-linecap:butt;stroke-linejoin:miter;stroke-miterlimit:10;stroke-dasharray:none;stroke-dashoffset:0;stroke-opacity:1;color-rendering:auto;image-rendering:auto;shape-rendering:auto;text-rendering:auto"
     x="186.0742"
     y="336.23129"
     id="text3789-8-0"
     sodipodi:linespacing="125%"><tspan
       sodipodi:role="line"
       id="tspan3791-69-74"
       x="186.0742"
       y="336.23129"
       style="font-style:normal;font-variant:normal;font-weight:normal;font-stretch:normal;font-family:Leelawadee;-inkscape-font-specification:Leelawadee">0.2</tspan></text>
  <g
     id="g4334"
     transform="translate(4.7493404,144.85488)">
    <path
       inkscape:connector-curvature="0"
       id="path231"
       d="m 230.60239,-84.126983 q 0,-0.19093 0.1193,-0.334051 l 5.08347,-5.059642 -5.08347,-5.083471 q -0.1193,-0.119293 -0.1193,-0.334203 0,-0.16695 0.14312,-0.322137 0.14328,-0.155188 0.33421,-0.155188 0.16695,0 0.38186,0.143274 l 5.05964,5.059642 5.03566,-5.059642 q 0.19093,-0.143274 0.35803,-0.143274 0.19093,0 0.33421,0.143274 0.14312,0.143121 0.14312,0.334051 0,0.21491 -0.1193,0.334203 l -5.08347,5.083471 5.08347,5.059642 q 0.1193,0.143121 0.1193,0.334051 0,0.214911 -0.14312,0.358032 -0.14328,0.143273 -0.33421,0.143273 -0.19093,0 -0.35803,-0.190929 l -5.03566,-5.035815 -5.05964,5.035815 q -0.19093,0.190929 -0.38186,0.190929 -0.19093,0 -0.33421,-0.155187 -0.14312,-0.155188 -0.14312,-0.346118 z"
       style="font-size:medium;font-family:mwb_cmsy10;color-interpolation:linearRGB;fill:#262626;stroke:none;color-rendering:optimizeQuality;image-rendering:optimizeQuality;text-rendering:geometricPrecision" />
    <path
       inkscape:connector-curvature="0"
       id="path235"
       d="m 255.97224,-83.41092 -2.14804,0 0,-13.699296 q -0.78754,0.739891 -2.0405,1.479783 -1.25311,0.739891 -2.25542,1.121751 l 0,-2.076401 q 1.79001,-0.859184 3.13843,-2.064487 1.34842,-1.205149 1.92121,-2.3269 l 1.38432,0 0,17.56555 z m 5.50107,-8.639501 q 0,-3.102687 0.63252,-4.988158 0.63236,-1.885319 1.89738,-2.911605 1.26487,-1.026286 3.17417,-1.026286 1.40815,0 2.47018,0.56088 1.06203,0.560871 1.75411,1.634813 0.69208,1.073943 1.08586,2.601382 0.39392,1.527439 0.39392,4.128974 0,3.078706 -0.63251,4.976091 -0.63251,1.897385 -1.89739,2.935433 -1.26487,1.0382 -3.17417,1.0382 -2.52989,0 -3.9857,-1.837662 -1.71837,-2.171866 -1.71837,-7.112062 z m 2.1957,0 q 0,4.319751 1.01437,5.739811 1.01422,1.419907 2.494,1.419907 1.47963,0 2.48209,-1.431821 1.00231,-1.432127 1.00231,-5.727897 0,-4.319904 -1.00231,-5.739964 -1.00246,-1.42006 -2.50592,-1.42006 -1.47978,0 -2.36279,1.265025 -1.12175,1.598923 -1.12175,5.894999 z"
       style="font-size:medium;font-family:SansSerif;color-interpolation:linearRGB;fill:#262626;stroke:none;color-rendering:optimizeQuality;image-rendering:optimizeQuality;text-rendering:geometricPrecision" />
    <text
       sodipodi:linespacing="125%"
       id="text3789-5-1"
       y="-98.122177"
       x="273.66577"
       style="font-style:normal;font-weight:normal;font-size:20.06119347px;line-height:125%;font-family:sans-serif;letter-spacing:0px;word-spacing:0px;color-interpolation:auto;fill:#000000;fill-opacity:1;stroke:none;stroke-width:1px;stroke-linecap:butt;stroke-linejoin:miter;stroke-miterlimit:10;stroke-dasharray:none;stroke-dashoffset:0;stroke-opacity:1;color-rendering:auto;image-rendering:auto;shape-rendering:auto;text-rendering:auto"
       xml:space="preserve"><tspan
         style="font-style:normal;font-variant:normal;font-weight:normal;font-stretch:normal;font-family:Leelawadee;-inkscape-font-specification:Leelawadee"
         y="-98.122177"
         x="273.66577"
         id="tspan3791-6-4"
         sodipodi:role="line">4</tspan></text>
  </g>
  <path
     style="font-style:normal;font-weight:normal;font-size:medium;font-family:SansSerif;color-interpolation:linearRGB;fill:#262626;fill-opacity:1;stroke:none;stroke-width:1;stroke-linecap:square;stroke-linejoin:miter;stroke-miterlimit:10;stroke-dasharray:none;stroke-dashoffset:0;stroke-opacity:1;color-rendering:optimizeQuality;image-rendering:optimizeQuality;shape-rendering:auto;text-rendering:geometricPrecision"
     d="m 214.53183,386.24059 q 0,-3.65164 0.74424,-5.87071 0.74443,-2.21888 2.23309,-3.42676 1.48867,-1.20786 3.73578,-1.20786 1.6573,0 2.90723,0.66011 1.25011,0.66011 2.06464,1.92406 0.81454,1.26397 1.27798,3.06165 0.46345,1.79769 0.46345,4.85951 0,3.62344 -0.74425,5.85652 -0.74443,2.2331 -2.23309,3.4548 -1.48884,1.22189 -3.73596,1.22189 -2.97734,0 -4.69071,-2.1628 -2.0224,-2.55614 -2.0224,-8.37041 z m 2.58418,0 q 0,5.08406 1.19366,6.75537 1.19385,1.67114 2.93527,1.67114 1.74161,0 2.92125,-1.68516 1.17983,-1.68552 1.17983,-6.74135 0,-5.08422 -1.17983,-6.75553 -1.17964,-1.67131 -2.94929,-1.67131 -1.74142,0 -2.78067,1.48884 -1.32022,1.88183 -1.32022,6.938 z"
     id="path107"
     inkscape:connector-curvature="0" />
  <path
     style="font-style:normal;font-weight:normal;font-size:medium;font-family:SansSerif;color-interpolation:linearRGB;fill:#262626;fill-opacity:1;stroke:none;stroke-width:1;stroke-linecap:square;stroke-linejoin:miter;stroke-miterlimit:10;stroke-dasharray:none;stroke-dashoffset:0;stroke-opacity:1;color-rendering:optimizeQuality;image-rendering:optimizeQuality;shape-rendering:auto;text-rendering:geometricPrecision"
     d="m 375.73179,407.23394 -2.5281,0 0,-16.12313 q -0.92688,0.8708 -2.40153,1.7416 -1.47483,0.8708 -2.65447,1.32023 l 0,-2.44378 q 2.10672,-1.0112 3.69371,-2.42976 1.587,-1.41838 2.26114,-2.7386 l 1.62925,0 0,20.67344 z"
     id="path111"
     inkscape:connector-curvature="0" />
  <path
     style="font-style:normal;font-weight:normal;font-size:medium;font-family:SansSerif;color-interpolation:linearRGB;fill:#262626;fill-opacity:1;stroke:none;stroke-width:1;stroke-linecap:square;stroke-linejoin:miter;stroke-miterlimit:10;stroke-dasharray:none;stroke-dashoffset:0;stroke-opacity:1;color-rendering:optimizeQuality;image-rendering:optimizeQuality;shape-rendering:auto;text-rendering:geometricPrecision"
     d="m 518.25232,401.52107 0,2.44378 -13.623,0 q -0.028,-0.9269 0.3088,-1.76965 0.5057,-1.37631 1.6573,-2.72458 1.1518,-1.34827 3.3146,-3.11791 3.3424,-2.75263 4.5222,-4.36786 1.1799,-1.61504 1.1799,-3.04762 0,-1.48866 -1.0675,-2.52791 -1.0675,-1.03942 -2.8089,-1.03942 -1.8257,0 -2.9212,1.0955 -1.0956,1.09552 -1.0956,3.03362 l -2.6122,-0.25277 q 0.2808,-2.92124 2.0224,-4.43795 1.7416,-1.51689 4.6629,-1.51689 2.9773,0 4.7047,1.64327 1.7276,1.64308 1.7276,4.05882 0,1.23592 -0.5057,2.42958 -0.5055,1.19385 -1.6853,2.51407 -1.1797,1.32004 -3.9044,3.62342 -2.2752,1.91005 -2.9213,2.59821 -0.6459,0.68815 -1.0673,1.36229 l 10.112,0 z"
     id="path115"
     inkscape:connector-curvature="0" />
  <path
     style="font-style:normal;font-weight:normal;font-size:medium;font-family:SansSerif;color-interpolation:linearRGB;fill:#262626;fill-opacity:1;stroke:none;stroke-width:1;stroke-linecap:square;stroke-linejoin:miter;stroke-miterlimit:10;stroke-dasharray:none;stroke-dashoffset:0;stroke-opacity:1;color-rendering:optimizeQuality;image-rendering:optimizeQuality;shape-rendering:auto;text-rendering:geometricPrecision"
     d="m 644.19842,398.51569 2.5279,-0.33726 q 0.4494,2.16299 1.4887,3.10389 1.0394,0.94093 2.5561,0.94093 1.7696,0 3.0056,-1.23575 1.2359,-1.23608 1.2359,-3.06182 0,-1.74142 -1.1376,-2.86497 -1.1376,-1.12356 -2.9072,-1.12356 -0.7022,0 -1.7697,0.2808 l 0.281,-2.21889 q 0.2528,0.028 0.3932,0.028 1.6292,0 2.9212,-0.84274 1.2922,-0.84259 1.2922,-2.61224 0,-1.3763 -0.9411,-2.28917 -0.9409,-0.91304 -2.4296,-0.91304 -1.4887,0 -2.4718,0.92706 -0.9832,0.92689 -1.264,2.78085 l -2.5281,-0.44943 q 0.4775,-2.55612 2.1208,-3.94664 1.6431,-1.39033 4.0868,-1.39033 1.6854,0 3.1039,0.7162 1.4184,0.71638 2.1628,1.96631 0.7445,1.24993 0.7445,2.65446 0,1.34827 -0.7164,2.44361 -0.7162,1.09551 -2.1208,1.7416 1.826,0.4212 2.8372,1.74142 1.0112,1.32022 1.0112,3.31458 0,2.69654 -1.9663,4.57836 -1.9662,1.88199 -4.9717,1.88199 -2.6966,0 -4.4943,-1.61504 -1.7977,-1.61522 -2.0504,-4.19921 z"
     id="path119"
     inkscape:connector-curvature="0" />
  <path
     style="font-style:normal;font-weight:normal;font-size:medium;font-family:SansSerif;color-interpolation:linearRGB;fill:#262626;fill-opacity:1;stroke:none;stroke-width:1;stroke-linecap:square;stroke-linejoin:miter;stroke-miterlimit:10;stroke-dasharray:none;stroke-dashoffset:0;stroke-opacity:1;color-rendering:optimizeQuality;image-rendering:optimizeQuality;shape-rendering:auto;text-rendering:geometricPrecision"
     d="m 792.25152,403.96485 0,-4.94366 -8.9323,0 0,-2.30319 9.4098,-13.34228 2.0504,0 0,13.34228 2.7809,0 0,2.30319 -2.7809,0 0,4.94366 -2.5279,0 z m 0,-7.24685 0,-9.29748 -6.4323,9.29748 6.4323,0 z"
     id="path123"
     inkscape:connector-curvature="0" />
  <path
     style="font-style:normal;font-weight:normal;font-size:medium;font-family:SansSerif;color-interpolation:linearRGB;fill:#262626;fill-opacity:1;stroke:none;stroke-width:1;stroke-linecap:square;stroke-linejoin:miter;stroke-miterlimit:10;stroke-dasharray:none;stroke-dashoffset:0;stroke-opacity:1;color-rendering:optimizeQuality;image-rendering:optimizeQuality;shape-rendering:auto;text-rendering:geometricPrecision"
     d="m 923.11412,398.57177 2.6404,-0.22471 q 0.309,1.93809 1.3763,2.90723 1.0674,0.96896 2.5843,0.96896 1.8258,0 3.0897,-1.37632 1.264,-1.37631 1.264,-3.65147 0,-2.16299 -1.2077,-3.41292 -1.2079,-1.24992 -3.1743,-1.24992 -1.2358,0 -2.2188,0.56177 -0.9832,0.56178 -1.5449,1.43258 l -2.3595,-0.30902 1.9941,-10.56143 10.2246,0 0,2.41574 -8.2022,0 -1.1235,5.53347 q 1.8539,-1.29219 3.9044,-1.29219 2.6965,0 4.5505,1.86799 1.8538,1.86798 1.8538,4.78922 0,2.80889 -1.6291,4.83129 -1.9944,2.52791 -5.4211,2.52791 -2.8091,0 -4.5786,-1.587 -1.7696,-1.587 -2.0224,-4.17118 z"
     id="path127"
     inkscape:connector-curvature="0" />
  <path
     style="font-style:normal;font-weight:normal;font-size:medium;font-family:SansSerif;color-interpolation:linearRGB;fill:#262626;fill-opacity:1;stroke:none;stroke-width:1;stroke-linecap:square;stroke-linejoin:miter;stroke-miterlimit:10;stroke-dasharray:none;stroke-dashoffset:0;stroke-opacity:1;color-rendering:optimizeQuality;image-rendering:optimizeQuality;shape-rendering:auto;text-rendering:geometricPrecision"
     d="m 1075.8721,388.40368 -2.5281,0.19648 q -0.3371,-1.48866 -0.9551,-2.16279 -1.011,-1.06747 -2.5279,-1.06747 -1.2079,0 -2.1067,0.67414 -1.2079,0.87079 -1.8961,2.5421 -0.6881,1.67132 -0.7161,4.76119 0.9268,-1.40453 2.2471,-2.07867 1.3202,-0.67413 2.7525,-0.67413 2.5282,0 4.3118,1.86797 1.7837,1.86781 1.7837,4.81709 0,1.93828 -0.8428,3.59538 -0.8426,1.6573 -2.3032,2.55614 -1.4606,0.89884 -3.3145,0.89884 -3.146,0 -5.1402,-2.33142 -1.9943,-2.33125 -1.9943,-7.66822 0,-5.9829 2.1908,-8.67943 1.9381,-2.35947 5.1966,-2.35947 2.4155,0 3.9745,1.36229 1.559,1.36229 1.868,3.74998 z m -10.3367,8.87591 q 0,1.32022 0.5615,2.51407 0.562,1.19384 1.559,1.81172 0.9972,0.61787 2.0927,0.61787 1.601,0 2.7528,-1.29202 1.1516,-1.29199 1.1516,-3.51105 0,-2.13476 -1.1375,-3.35666 -1.1376,-1.22188 -2.8793,-1.22188 -1.7133,0 -2.9072,1.22188 -1.1936,1.2219 -1.1936,3.21607 z"
     id="path131"
     inkscape:connector-curvature="0" />
  <path
     style="font-style:normal;font-weight:normal;font-size:medium;font-family:SansSerif;color-interpolation:linearRGB;fill:#262626;fill-opacity:1;stroke:none;stroke-width:1;stroke-linecap:square;stroke-linejoin:miter;stroke-miterlimit:10;stroke-dasharray:none;stroke-dashoffset:0;stroke-opacity:1;color-rendering:optimizeQuality;image-rendering:optimizeQuality;shape-rendering:auto;text-rendering:geometricPrecision"
     d="m 1202.2826,386.07226 0,-2.44378 13.3143,0 0,1.96613 q -1.9662,2.10671 -3.8905,5.57572 -1.924,3.469 -2.9913,7.12064 -0.7584,2.584 -0.9551,5.67388 l -2.6122,0 q 0.055,-2.44378 0.9689,-5.88456 0.9129,-3.44096 2.6125,-6.62899 1.6993,-3.1882 3.6374,-5.37904 l -10.084,0 z"
     id="path135"
     inkscape:connector-curvature="0" />
  <path
     style="font-style:normal;font-weight:normal;font-size:medium;font-family:SansSerif;color-interpolation:linearRGB;fill:#262626;fill-opacity:1;stroke:none;stroke-width:1;stroke-linecap:square;stroke-linejoin:miter;stroke-miterlimit:10;stroke-dasharray:none;stroke-dashoffset:0;stroke-opacity:1;color-rendering:optimizeQuality;image-rendering:optimizeQuality;shape-rendering:auto;text-rendering:geometricPrecision"
     d="m 1345.5608,392.78537 q -1.5731,-0.5616 -2.3315,-1.62907 -0.7582,-1.06746 -0.7582,-2.55614 0,-2.2471 1.6149,-3.77784 1.6151,-1.53091 4.3116,-1.53091 2.6965,0 4.3399,1.55895 1.6433,1.55896 1.6433,3.80607 0,1.43241 -0.7584,2.49987 -0.7585,1.06747 -2.2752,1.62907 1.882,0.61804 2.8789,1.99435 0.9972,1.37631 0.9972,3.28654 0,2.64027 -1.8678,4.45198 -1.868,1.81171 -4.9296,1.81171 -3.0337,0 -4.9017,-1.81171 -1.8679,-1.81171 -1.8679,-4.50825 0,-2.02239 1.0114,-3.37066 1.011,-1.34827 2.893,-1.85396 z m -0.5056,-4.26952 q 0,1.4608 0.9409,2.3877 0.941,0.92689 2.4579,0.92689 1.4605,0 2.3874,-0.92689 0.9269,-0.9269 0.9269,-2.24712 0,-1.40453 -0.955,-2.34544 -0.9548,-0.94109 -2.3874,-0.94109 -1.4606,0 -2.4159,0.92706 -0.9548,0.92689 -0.9548,2.21889 z m -0.8146,9.49414 q 0,1.09552 0.5196,2.10672 0.5197,1.0112 1.531,1.55895 1.0111,0.54759 2.1628,0.54759 1.8256,0 3.0055,-1.16563 1.1796,-1.16562 1.1796,-2.96331 0,-1.82574 -1.2218,-3.01958 -1.2219,-1.19385 -3.0476,-1.19385 -1.7697,0 -2.9494,1.17983 -1.1796,1.17964 -1.1796,2.94928 z"
     id="path139"
     inkscape:connector-curvature="0" />
  <path
     style="font-style:normal;font-weight:normal;font-size:medium;font-family:SansSerif;color-interpolation:linearRGB;fill:#262626;fill-opacity:1;stroke:none;stroke-width:1;stroke-linecap:square;stroke-linejoin:miter;stroke-miterlimit:10;stroke-dasharray:none;stroke-dashoffset:0;stroke-opacity:1;color-rendering:optimizeQuality;image-rendering:optimizeQuality;shape-rendering:auto;text-rendering:geometricPrecision"
     d="m 1481.5356,399.18982 2.4437,-0.22472 q 0.3089,1.71338 1.1796,2.48585 0.8708,0.7723 2.2191,0.7723 1.1797,0 2.0504,-0.53357 0.8709,-0.53373 1.4326,-1.41856 0.5618,-0.88481 0.941,-2.40153 0.3793,-1.51688 0.3793,-3.08987 0,-0.16844 0,-0.5055 -0.7585,1.20768 -2.0787,1.95211 -1.3203,0.74442 -2.8371,0.74442 -2.556,0 -4.3257,-1.85396 -1.7695,-1.85377 -1.7695,-4.88737 0,-3.11792 1.8399,-5.02797 1.8399,-1.91004 4.6205,-1.91004 2.0224,0 3.6796,1.08149 1.6574,1.0813 2.5282,3.07567 0.8707,1.99435 0.8707,5.78622 0,3.96067 -0.8566,6.29191 -0.8568,2.33143 -2.5561,3.56734 -1.6993,1.23591 -3.9746,1.23591 -2.4157,0 -3.9466,-1.34827 -1.5307,-1.34827 -1.8397,-3.79186 z m 10.3647,-9.07276 q 0,-2.19103 -1.1656,-3.46901 -1.1657,-1.27815 -2.7949,-1.27815 -1.6853,0 -2.9353,1.37649 -1.2499,1.37631 -1.2499,3.56715 0,1.96632 1.1937,3.20223 1.1939,1.23591 2.9353,1.23591 1.7416,0 2.8791,-1.23591 1.1376,-1.23591 1.1376,-3.39871 z"
     id="path143"
     inkscape:connector-curvature="0" />
  <path
     style="font-style:normal;font-weight:normal;font-size:medium;font-family:SansSerif;color-interpolation:linearRGB;fill:#262626;fill-opacity:1;stroke:none;stroke-width:1;stroke-linecap:square;stroke-linejoin:miter;stroke-miterlimit:10;stroke-dasharray:none;stroke-dashoffset:0;stroke-opacity:1;color-rendering:optimizeQuality;image-rendering:optimizeQuality;shape-rendering:auto;text-rendering:geometricPrecision"
     d="m 1614.3063,403.96485 -2.5281,0 0,-16.12313 q -0.9269,0.8708 -2.4015,1.7416 -1.4748,0.8708 -2.6545,1.32023 l 0,-2.44378 q 2.1067,-1.0112 3.6936,-2.42976 1.587,-1.41838 2.2612,-2.7386 l 1.6293,0 0,20.67344 z m 6.4743,-10.16811 q 0,-3.65164 0.7444,-5.87071 0.7443,-2.21888 2.2331,-3.42676 1.4888,-1.20786 3.7358,-1.20786 1.6573,0 2.9073,0.66011 1.2499,0.66011 2.0644,1.92406 0.8146,1.26397 1.278,3.06165 0.4637,1.79769 0.4637,4.85951 0,3.62344 -0.7445,5.85652 -0.7444,2.2331 -2.233,3.4548 -1.4888,1.22189 -3.7359,1.22189 -2.9774,0 -4.6909,-2.1628 -2.0224,-2.55614 -2.0224,-8.37041 z m 2.5842,0 q 0,5.08406 1.1939,6.75537 1.1937,1.67114 2.9352,1.67114 1.7415,0 2.9213,-1.68516 1.1796,-1.68552 1.1796,-6.74135 0,-5.08422 -1.1796,-6.75553 -1.1798,-1.67131 -2.9493,-1.67131 -1.7417,0 -2.7808,1.48884 -1.3203,1.88183 -1.3203,6.938 z"
     id="path147"
     inkscape:connector-curvature="0" />
  <g
     style="font-style:normal;font-weight:normal;font-size:12px;font-family:Dialog;color-interpolation:auto;fill:#000000;fill-opacity:1;stroke:#000000;stroke-width:1;stroke-linecap:square;stroke-linejoin:miter;stroke-miterlimit:10;stroke-dasharray:none;stroke-dashoffset:0;stroke-opacity:1;color-rendering:auto;image-rendering:auto;shape-rendering:auto;text-rendering:auto"
     id="g4570"
     transform="translate(-545.36047,-2.3409101)">
    <path
       inkscape:connector-curvature="0"
       id="path151"
       d="m 1431.7581,447.89225 0,-2.69653 11.2073,-13.98819 q 1.1798,-1.51689 2.2753,-2.6124 l -12.2187,0 0,-2.58418 15.6735,0 0,2.58418 -12.2748,15.16801 -1.3483,1.54494 13.9885,0 0,2.58417 -17.3028,0 z m 28.619,6.0672 0,-27.9485 5.9266,0 0,2.21906 -3.2583,0 0,23.51038 3.2583,0 0,2.21906 -5.9266,0 z"
       style="font-size:medium;font-family:SansSerif;color-interpolation:linearRGB;fill:#262626;stroke:none;color-rendering:optimizeQuality;image-rendering:optimizeQuality;text-rendering:geometricPrecision" />
    <path
       inkscape:connector-curvature="0"
       id="path155"
       d="m 1467.9366,453.65043 q 0,-0.19649 0.028,-0.25275 l 4.4943,-18.03317 q 0.1404,-0.44942 0.4914,-0.71619 0.3511,-0.26678 0.8006,-0.26678 0.3933,0 0.66,0.23873 0.2671,0.23873 0.2671,0.60384 0,0.11234 -0.015,0.15461 -0.014,0.0421 -0.014,0.12637 l -1.7978,7.13449 q -0.309,1.26396 -0.309,2.19103 0,1.12355 0.5337,1.86779 0.5338,0.74442 1.6293,0.74442 2.2191,0 3.9042,-2.78084 0.028,-0.028 0.028,-0.0421 0,-0.0145 0,-0.0422 l 2.2189,-8.87591 q 0.1131,-0.39334 0.4776,-0.68835 0.3652,-0.29481 0.8146,-0.29481 0.337,0 0.618,0.23873 0.2808,0.23873 0.2808,0.63189 0,0.16862 -0.028,0.22471 l -2.191,8.82001 q -0.2247,0.84257 -0.2247,1.48866 0,1.32022 0.8988,1.32022 0.9551,0 1.4326,-1.17964 0.4775,-1.17982 0.8426,-2.86516 0.057,-0.16861 0.253,-0.16861 l 0.365,0 q 0.1118,0 0.1966,0.0984 0.084,0.0984 0.084,0.18265 -0.5335,2.13476 -1.1657,3.42694 -0.632,1.292 -2.0643,1.292 -1.0395,0 -1.8119,-0.5758 -0.7723,-0.5758 -1.0253,-1.55896 -0.7583,0.95493 -1.7835,1.54494 -1.0252,0.58982 -2.1488,0.58982 -1.9102,0 -3.0055,-0.89884 l -1.545,6.17956 q -0.084,0.44941 -0.4494,0.7162 -0.365,0.26695 -0.8145,0.26695 -0.3653,0 -0.6461,-0.23873 -0.2809,-0.23892 -0.2809,-0.60403 z"
       style="font-size:medium;font-family:mwb_cmmi10;color-interpolation:linearRGB;fill:#262626;stroke:none;color-rendering:optimizeQuality;image-rendering:optimizeQuality;text-rendering:geometricPrecision" />
    <path
       inkscape:connector-curvature="0"
       id="path159"
       d="m 1488.8908,447.89225 0,-15.84214 2.3875,0 0,2.21907 q 0.7585,-1.15178 1.9944,-1.86798 1.2359,-0.71621 2.8089,-0.71621 1.7696,0 2.8931,0.73023 1.1236,0.7304 1.6011,2.05045 1.8819,-2.78068 4.8876,-2.78068 2.3593,0 3.6233,1.30603 1.264,1.30621 1.264,4.03079 l 0,10.87044 -2.6685,0 0,-9.9716 q 0,-1.62907 -0.2527,-2.33143 -0.2528,-0.70217 -0.9409,-1.13758 -0.6883,-0.4354 -1.6153,-0.4354 -1.6853,0 -2.7806,1.10954 -1.0956,1.10953 -1.0956,3.55331 l 0,9.21316 -2.6965,0 0,-10.30867 q 0,-1.76965 -0.66,-2.66849 -0.6602,-0.89885 -2.1489,-0.89885 -1.1236,0 -2.0927,0.59001 -0.9689,0.58982 -1.4043,1.74142 -0.4354,1.15178 -0.4354,3.31458 l 0,8.23 -2.6685,0 z m 29.9515,6.0672 -5.9266,0 0,-2.21906 3.23,0 0,-23.51038 -3.23,0 0,-2.21906 5.9266,0 0,27.9485 z"
       style="font-size:medium;font-family:SansSerif;color-interpolation:linearRGB;fill:#262626;stroke:none;color-rendering:optimizeQuality;image-rendering:optimizeQuality;text-rendering:geometricPrecision" />
  </g>
</svg>
