<?xml version="1.0" encoding="UTF-8" standalone="no"?>
<svg
   xmlns:dc="http://purl.org/dc/elements/1.1/"
   xmlns:cc="http://creativecommons.org/ns#"
   xmlns:rdf="http://www.w3.org/1999/02/22-rdf-syntax-ns#"
   xmlns:svg="http://www.w3.org/2000/svg"
   xmlns="http://www.w3.org/2000/svg"
   xmlns:sodipodi="http://sodipodi.sourceforge.net/DTD/sodipodi-0.dtd"
   xmlns:inkscape="http://www.inkscape.org/namespaces/inkscape"
   style="fill-opacity:1; color-rendering:auto; color-interpolation:auto; stroke:black; text-rendering:auto; stroke-linecap:square; stroke-miterlimit:10; stroke-opacity:1; shape-rendering:auto; fill:black; stroke-dasharray:none; font-weight:normal; stroke-width:1; font-family:'Dialog'; font-style:normal; stroke-linejoin:miter; font-size:12px; stroke-dashoffset:0; image-rendering:auto;"
   width="1800"
   height="500"
   id="svg2"
   version="1.1"
   inkscape:version="0.91 r13725"
   sodipodi:docname="LineaAPXCenter.svg">
  <metadata
     id="metadata241">
    <rdf:RDF>
      <cc:Work
         rdf:about="">
        <dc:format>image/svg+xml</dc:format>
        <dc:type
           rdf:resource="http://purl.org/dc/dcmitype/StillImage" />
      </cc:Work>
    </rdf:RDF>
  </metadata>
  <sodipodi:namedview
     pagecolor="#ffffff"
     bordercolor="#666666"
     borderopacity="1"
     objecttolerance="10"
     gridtolerance="10"
     guidetolerance="10"
     inkscape:pageopacity="0"
     inkscape:pageshadow="2"
     inkscape:window-width="1535"
     inkscape:window-height="876"
     id="namedview239"
     showgrid="false"
     inkscape:zoom="0.45884287"
     inkscape:cx="913.15224"
     inkscape:cy="134.90712"
     inkscape:window-x="65"
     inkscape:window-y="24"
     inkscape:window-maximized="1"
     inkscape:current-layer="svg2" />
  <!--Generated by the Batik Graphics2D SVG Generator-->
  <defs
     id="genericDefs">
    <defs
       id="defs1">
      <clipPath
         id="clipPath1"
         clipPathUnits="userSpaceOnUse">
        <path
           id="path9"
           d="M0 0 L1800 0 L1800 500 L0 500 L0 0 Z" />
      </clipPath>
    </defs>
  </defs>
  <rect
     x="0"
     y="0"
     width="1800"
     style="fill:#ffffff;stroke:none"
     height="500"
     id="rect13"
     clip-path="url(#clipPath1)" />
  <rect
     x="0"
     width="1800"
     height="500"
     y="0"
     style="color-interpolation:sRGB;fill:#ffffff;stroke:none;color-rendering:optimizeSpeed;image-rendering:optimizeSpeed;shape-rendering:crispEdges;text-rendering:optimizeSpeed"
     id="rect17" />
  <path
     style="color-interpolation:sRGB;fill:#ffffff;stroke:none;color-rendering:optimizeSpeed;image-rendering:optimizeSpeed;shape-rendering:crispEdges;text-rendering:optimizeSpeed"
     d="m 234,374 1395,0 0,-308 -1395,0 z"
     id="path19"
     inkscape:connector-curvature="0" />
  <line
     y2="66"
     style="color-interpolation:linearRGB;fill:none;fill-opacity:0.14900004;stroke:#262626;stroke-width:0.66670001;stroke-linecap:butt;stroke-linejoin:round;stroke-opacity:0.14900004;color-rendering:optimizeQuality;image-rendering:optimizeQuality;text-rendering:geometricPrecision"
     x1="234"
     x2="234"
     y1="374"
     id="line23" />
  <line
     y2="66"
     style="color-interpolation:linearRGB;fill:none;fill-opacity:0.14900004;stroke:#262626;stroke-width:0.66670001;stroke-linecap:butt;stroke-linejoin:round;stroke-opacity:0.14900004;color-rendering:optimizeQuality;image-rendering:optimizeQuality;text-rendering:geometricPrecision"
     x1="373.5"
     x2="373.5"
     y1="374"
     id="line25" />
  <line
     y2="66"
     style="color-interpolation:linearRGB;fill:none;fill-opacity:0.14900004;stroke:#262626;stroke-width:0.66670001;stroke-linecap:butt;stroke-linejoin:round;stroke-opacity:0.14900004;color-rendering:optimizeQuality;image-rendering:optimizeQuality;text-rendering:geometricPrecision"
     x1="513"
     x2="513"
     y1="374"
     id="line27" />
  <line
     y2="66"
     style="color-interpolation:linearRGB;fill:none;fill-opacity:0.14900004;stroke:#262626;stroke-width:0.66670001;stroke-linecap:butt;stroke-linejoin:round;stroke-opacity:0.14900004;color-rendering:optimizeQuality;image-rendering:optimizeQuality;text-rendering:geometricPrecision"
     x1="652.5"
     x2="652.5"
     y1="374"
     id="line29" />
  <line
     y2="66"
     style="color-interpolation:linearRGB;fill:none;fill-opacity:0.14900004;stroke:#262626;stroke-width:0.66670001;stroke-linecap:butt;stroke-linejoin:round;stroke-opacity:0.14900004;color-rendering:optimizeQuality;image-rendering:optimizeQuality;text-rendering:geometricPrecision"
     x1="792"
     x2="792"
     y1="374"
     id="line31" />
  <line
     y2="66"
     style="color-interpolation:linearRGB;fill:none;fill-opacity:0.14900004;stroke:#262626;stroke-width:0.66670001;stroke-linecap:butt;stroke-linejoin:round;stroke-opacity:0.14900004;color-rendering:optimizeQuality;image-rendering:optimizeQuality;text-rendering:geometricPrecision"
     x1="931.5"
     x2="931.5"
     y1="374"
     id="line33" />
  <line
     y2="66"
     style="color-interpolation:linearRGB;fill:none;fill-opacity:0.14900004;stroke:#262626;stroke-width:0.66670001;stroke-linecap:butt;stroke-linejoin:round;stroke-opacity:0.14900004;color-rendering:optimizeQuality;image-rendering:optimizeQuality;text-rendering:geometricPrecision"
     x1="1071"
     x2="1071"
     y1="374"
     id="line35" />
  <line
     y2="66"
     style="color-interpolation:linearRGB;fill:none;fill-opacity:0.14900004;stroke:#262626;stroke-width:0.66670001;stroke-linecap:butt;stroke-linejoin:round;stroke-opacity:0.14900004;color-rendering:optimizeQuality;image-rendering:optimizeQuality;text-rendering:geometricPrecision"
     x1="1210.5"
     x2="1210.5"
     y1="374"
     id="line37" />
  <line
     y2="66"
     style="color-interpolation:linearRGB;fill:none;fill-opacity:0.14900004;stroke:#262626;stroke-width:0.66670001;stroke-linecap:butt;stroke-linejoin:round;stroke-opacity:0.14900004;color-rendering:optimizeQuality;image-rendering:optimizeQuality;text-rendering:geometricPrecision"
     x1="1350"
     x2="1350"
     y1="374"
     id="line39" />
  <line
     y2="66"
     style="color-interpolation:linearRGB;fill:none;fill-opacity:0.14900004;stroke:#262626;stroke-width:0.66670001;stroke-linecap:butt;stroke-linejoin:round;stroke-opacity:0.14900004;color-rendering:optimizeQuality;image-rendering:optimizeQuality;text-rendering:geometricPrecision"
     x1="1489.5"
     x2="1489.5"
     y1="374"
     id="line41" />
  <line
     y2="66"
     style="color-interpolation:linearRGB;fill:none;fill-opacity:0.14900004;stroke:#262626;stroke-width:0.66670001;stroke-linecap:butt;stroke-linejoin:round;stroke-opacity:0.14900004;color-rendering:optimizeQuality;image-rendering:optimizeQuality;text-rendering:geometricPrecision"
     x1="1629"
     x2="1629"
     y1="374"
     id="line43" />
  <line
     y2="352.75861"
     style="color-interpolation:linearRGB;fill:none;fill-opacity:0.14900004;stroke:#262626;stroke-width:0.66670001;stroke-linecap:butt;stroke-linejoin:round;stroke-opacity:0.14900004;color-rendering:optimizeQuality;image-rendering:optimizeQuality;text-rendering:geometricPrecision"
     x1="1629"
     x2="234"
     y1="352.75861"
     id="line45" />
  <line
     y2="299.65521"
     style="color-interpolation:linearRGB;fill:none;fill-opacity:0.14900004;stroke:#262626;stroke-width:0.66670001;stroke-linecap:butt;stroke-linejoin:round;stroke-opacity:0.14900004;color-rendering:optimizeQuality;image-rendering:optimizeQuality;text-rendering:geometricPrecision"
     x1="1629"
     x2="234"
     y1="299.65521"
     id="line47" />
  <line
     y2="246.5517"
     style="color-interpolation:linearRGB;fill:none;fill-opacity:0.14900004;stroke:#262626;stroke-width:0.66670001;stroke-linecap:butt;stroke-linejoin:round;stroke-opacity:0.14900004;color-rendering:optimizeQuality;image-rendering:optimizeQuality;text-rendering:geometricPrecision"
     x1="1629"
     x2="234"
     y1="246.5517"
     id="line49" />
  <line
     y2="193.4483"
     style="color-interpolation:linearRGB;fill:none;fill-opacity:0.14900004;stroke:#262626;stroke-width:0.66670001;stroke-linecap:butt;stroke-linejoin:round;stroke-opacity:0.14900004;color-rendering:optimizeQuality;image-rendering:optimizeQuality;text-rendering:geometricPrecision"
     x1="1629"
     x2="234"
     y1="193.4483"
     id="line51" />
  <line
     y2="140.3448"
     style="color-interpolation:linearRGB;fill:none;fill-opacity:0.14900004;stroke:#262626;stroke-width:0.66670001;stroke-linecap:butt;stroke-linejoin:round;stroke-opacity:0.14900004;color-rendering:optimizeQuality;image-rendering:optimizeQuality;text-rendering:geometricPrecision"
     x1="1629"
     x2="234"
     y1="140.3448"
     id="line53" />
  <line
     y2="87.241402"
     style="color-interpolation:linearRGB;fill:none;fill-opacity:0.14900004;stroke:#262626;stroke-width:0.66670001;stroke-linecap:butt;stroke-linejoin:round;stroke-opacity:0.14900004;color-rendering:optimizeQuality;image-rendering:optimizeQuality;text-rendering:geometricPrecision"
     x1="1629"
     x2="234"
     y1="87.241402"
     id="line55" />
  <line
     x1="234"
     x2="1629"
     y1="374"
     style="color-interpolation:linearRGB;fill:none;fill-opacity:1;stroke:#262626;stroke-width:0.66670001;stroke-linecap:square;stroke-linejoin:round;stroke-opacity:1;color-rendering:optimizeQuality;image-rendering:optimizeQuality;text-rendering:geometricPrecision"
     y2="374"
     id="line57" />
  <line
     x1="234"
     x2="1629"
     y1="66"
     style="color-interpolation:linearRGB;fill:none;fill-opacity:1;stroke:#262626;stroke-width:0.66670001;stroke-linecap:square;stroke-linejoin:round;stroke-opacity:1;color-rendering:optimizeQuality;image-rendering:optimizeQuality;text-rendering:geometricPrecision"
     y2="66"
     id="line59" />
  <line
     x1="234"
     x2="234"
     y1="374"
     style="color-interpolation:linearRGB;fill:none;fill-opacity:1;stroke:#262626;stroke-width:0.66670001;stroke-linecap:square;stroke-linejoin:round;stroke-opacity:1;color-rendering:optimizeQuality;image-rendering:optimizeQuality;text-rendering:geometricPrecision"
     y2="360.04999"
     id="line61" />
  <line
     x1="373.5"
     x2="373.5"
     y1="374"
     style="color-interpolation:linearRGB;fill:none;fill-opacity:1;stroke:#262626;stroke-width:0.66670001;stroke-linecap:square;stroke-linejoin:round;stroke-opacity:1;color-rendering:optimizeQuality;image-rendering:optimizeQuality;text-rendering:geometricPrecision"
     y2="360.04999"
     id="line63" />
  <line
     x1="513"
     x2="513"
     y1="374"
     style="color-interpolation:linearRGB;fill:none;fill-opacity:1;stroke:#262626;stroke-width:0.66670001;stroke-linecap:square;stroke-linejoin:round;stroke-opacity:1;color-rendering:optimizeQuality;image-rendering:optimizeQuality;text-rendering:geometricPrecision"
     y2="360.04999"
     id="line65" />
  <line
     x1="652.5"
     x2="652.5"
     y1="374"
     style="color-interpolation:linearRGB;fill:none;fill-opacity:1;stroke:#262626;stroke-width:0.66670001;stroke-linecap:square;stroke-linejoin:round;stroke-opacity:1;color-rendering:optimizeQuality;image-rendering:optimizeQuality;text-rendering:geometricPrecision"
     y2="360.04999"
     id="line67" />
  <line
     x1="792"
     x2="792"
     y1="374"
     style="color-interpolation:linearRGB;fill:none;fill-opacity:1;stroke:#262626;stroke-width:0.66670001;stroke-linecap:square;stroke-linejoin:round;stroke-opacity:1;color-rendering:optimizeQuality;image-rendering:optimizeQuality;text-rendering:geometricPrecision"
     y2="360.04999"
     id="line69" />
  <line
     x1="931.5"
     x2="931.5"
     y1="374"
     style="color-interpolation:linearRGB;fill:none;fill-opacity:1;stroke:#262626;stroke-width:0.66670001;stroke-linecap:square;stroke-linejoin:round;stroke-opacity:1;color-rendering:optimizeQuality;image-rendering:optimizeQuality;text-rendering:geometricPrecision"
     y2="360.04999"
     id="line71" />
  <line
     x1="1071"
     x2="1071"
     y1="374"
     style="color-interpolation:linearRGB;fill:none;fill-opacity:1;stroke:#262626;stroke-width:0.66670001;stroke-linecap:square;stroke-linejoin:round;stroke-opacity:1;color-rendering:optimizeQuality;image-rendering:optimizeQuality;text-rendering:geometricPrecision"
     y2="360.04999"
     id="line73" />
  <line
     x1="1210.5"
     x2="1210.5"
     y1="374"
     style="color-interpolation:linearRGB;fill:none;fill-opacity:1;stroke:#262626;stroke-width:0.66670001;stroke-linecap:square;stroke-linejoin:round;stroke-opacity:1;color-rendering:optimizeQuality;image-rendering:optimizeQuality;text-rendering:geometricPrecision"
     y2="360.04999"
     id="line75" />
  <line
     x1="1350"
     x2="1350"
     y1="374"
     style="color-interpolation:linearRGB;fill:none;fill-opacity:1;stroke:#262626;stroke-width:0.66670001;stroke-linecap:square;stroke-linejoin:round;stroke-opacity:1;color-rendering:optimizeQuality;image-rendering:optimizeQuality;text-rendering:geometricPrecision"
     y2="360.04999"
     id="line77" />
  <line
     x1="1489.5"
     x2="1489.5"
     y1="374"
     style="color-interpolation:linearRGB;fill:none;fill-opacity:1;stroke:#262626;stroke-width:0.66670001;stroke-linecap:square;stroke-linejoin:round;stroke-opacity:1;color-rendering:optimizeQuality;image-rendering:optimizeQuality;text-rendering:geometricPrecision"
     y2="360.04999"
     id="line79" />
  <line
     x1="1629"
     x2="1629"
     y1="374"
     style="color-interpolation:linearRGB;fill:none;fill-opacity:1;stroke:#262626;stroke-width:0.66670001;stroke-linecap:square;stroke-linejoin:round;stroke-opacity:1;color-rendering:optimizeQuality;image-rendering:optimizeQuality;text-rendering:geometricPrecision"
     y2="360.04999"
     id="line81" />
  <line
     x1="234"
     x2="234"
     y1="66"
     style="color-interpolation:linearRGB;fill:none;fill-opacity:1;stroke:#262626;stroke-width:0.66670001;stroke-linecap:square;stroke-linejoin:round;stroke-opacity:1;color-rendering:optimizeQuality;image-rendering:optimizeQuality;text-rendering:geometricPrecision"
     y2="79.949997"
     id="line83" />
  <line
     x1="373.5"
     x2="373.5"
     y1="66"
     style="color-interpolation:linearRGB;fill:none;fill-opacity:1;stroke:#262626;stroke-width:0.66670001;stroke-linecap:square;stroke-linejoin:round;stroke-opacity:1;color-rendering:optimizeQuality;image-rendering:optimizeQuality;text-rendering:geometricPrecision"
     y2="79.949997"
     id="line85" />
  <line
     x1="513"
     x2="513"
     y1="66"
     style="color-interpolation:linearRGB;fill:none;fill-opacity:1;stroke:#262626;stroke-width:0.66670001;stroke-linecap:square;stroke-linejoin:round;stroke-opacity:1;color-rendering:optimizeQuality;image-rendering:optimizeQuality;text-rendering:geometricPrecision"
     y2="79.949997"
     id="line87" />
  <line
     x1="652.5"
     x2="652.5"
     y1="66"
     style="color-interpolation:linearRGB;fill:none;fill-opacity:1;stroke:#262626;stroke-width:0.66670001;stroke-linecap:square;stroke-linejoin:round;stroke-opacity:1;color-rendering:optimizeQuality;image-rendering:optimizeQuality;text-rendering:geometricPrecision"
     y2="79.949997"
     id="line89" />
  <line
     x1="792"
     x2="792"
     y1="66"
     style="color-interpolation:linearRGB;fill:none;fill-opacity:1;stroke:#262626;stroke-width:0.66670001;stroke-linecap:square;stroke-linejoin:round;stroke-opacity:1;color-rendering:optimizeQuality;image-rendering:optimizeQuality;text-rendering:geometricPrecision"
     y2="79.949997"
     id="line91" />
  <line
     x1="931.5"
     x2="931.5"
     y1="66"
     style="color-interpolation:linearRGB;fill:none;fill-opacity:1;stroke:#262626;stroke-width:0.66670001;stroke-linecap:square;stroke-linejoin:round;stroke-opacity:1;color-rendering:optimizeQuality;image-rendering:optimizeQuality;text-rendering:geometricPrecision"
     y2="79.949997"
     id="line93" />
  <line
     x1="1071"
     x2="1071"
     y1="66"
     style="color-interpolation:linearRGB;fill:none;fill-opacity:1;stroke:#262626;stroke-width:0.66670001;stroke-linecap:square;stroke-linejoin:round;stroke-opacity:1;color-rendering:optimizeQuality;image-rendering:optimizeQuality;text-rendering:geometricPrecision"
     y2="79.949997"
     id="line95" />
  <line
     x1="1210.5"
     x2="1210.5"
     y1="66"
     style="color-interpolation:linearRGB;fill:none;fill-opacity:1;stroke:#262626;stroke-width:0.66670001;stroke-linecap:square;stroke-linejoin:round;stroke-opacity:1;color-rendering:optimizeQuality;image-rendering:optimizeQuality;text-rendering:geometricPrecision"
     y2="79.949997"
     id="line97" />
  <line
     x1="1350"
     x2="1350"
     y1="66"
     style="color-interpolation:linearRGB;fill:none;fill-opacity:1;stroke:#262626;stroke-width:0.66670001;stroke-linecap:square;stroke-linejoin:round;stroke-opacity:1;color-rendering:optimizeQuality;image-rendering:optimizeQuality;text-rendering:geometricPrecision"
     y2="79.949997"
     id="line99" />
  <line
     x1="1489.5"
     x2="1489.5"
     y1="66"
     style="color-interpolation:linearRGB;fill:none;fill-opacity:1;stroke:#262626;stroke-width:0.66670001;stroke-linecap:square;stroke-linejoin:round;stroke-opacity:1;color-rendering:optimizeQuality;image-rendering:optimizeQuality;text-rendering:geometricPrecision"
     y2="79.949997"
     id="line101" />
  <line
     x1="1629"
     x2="1629"
     y1="66"
     style="color-interpolation:linearRGB;fill:none;fill-opacity:1;stroke:#262626;stroke-width:0.66670001;stroke-linecap:square;stroke-linejoin:round;stroke-opacity:1;color-rendering:optimizeQuality;image-rendering:optimizeQuality;text-rendering:geometricPrecision"
     y2="79.949997"
     id="line103" />
  <path
     style="font-size:medium;font-family:SansSerif;color-interpolation:linearRGB;fill:#262626;stroke:none;color-rendering:optimizeQuality;image-rendering:optimizeQuality;text-rendering:geometricPrecision"
     d="m 214.41294,396.13765 q 0,-3.65164 0.74424,-5.87071 0.74443,-2.21888 2.23309,-3.42676 1.48867,-1.20786 3.73578,-1.20786 1.6573,0 2.90723,0.66011 1.25011,0.66011 2.06464,1.92406 0.81454,1.26397 1.27798,3.06165 0.46345,1.79769 0.46345,4.85951 0,3.62344 -0.74425,5.85652 -0.74443,2.2331 -2.23309,3.4548 -1.48884,1.22189 -3.73596,1.22189 -2.97734,0 -4.69071,-2.1628 -2.0224,-2.55614 -2.0224,-8.37041 z m 2.58418,0 q 0,5.08406 1.19366,6.75537 1.19385,1.67114 2.93527,1.67114 1.74161,0 2.92125,-1.68516 1.17983,-1.68552 1.17983,-6.74135 0,-5.08422 -1.17983,-6.75553 -1.17964,-1.67131 -2.94929,-1.67131 -1.74142,0 -2.78067,1.48884 -1.32022,1.88183 -1.32022,6.938 z"
     id="path107"
     inkscape:connector-curvature="0" />
  <path
     style="font-size:medium;font-family:SansSerif;color-interpolation:linearRGB;fill:#262626;stroke:none;color-rendering:optimizeQuality;image-rendering:optimizeQuality;text-rendering:geometricPrecision"
     d="m 377.29205,406.48831 -2.5281,0 0,-16.12313 q -0.92688,0.8708 -2.40153,1.7416 -1.47483,0.8708 -2.65447,1.32023 l 0,-2.44378 q 2.10672,-1.0112 3.69371,-2.42976 1.587,-1.41838 2.26114,-2.7386 l 1.62925,0 0,20.67344 z"
     id="path111"
     inkscape:connector-curvature="0" />
  <path
     style="font-size:medium;font-family:SansSerif;color-interpolation:linearRGB;fill:#262626;stroke:none;color-rendering:optimizeQuality;image-rendering:optimizeQuality;text-rendering:geometricPrecision"
     d="m 519.81261,404.04453 0,2.44378 -13.62307,0 q -0.028,-0.9269 0.30884,-1.76965 0.50569,-1.37631 1.65729,-2.72458 1.15178,-1.34827 3.31459,-3.11791 3.34244,-2.75263 4.52226,-4.36786 1.17982,-1.61504 1.17982,-3.04762 0,-1.48866 -1.06746,-2.52791 -1.06747,-1.03942 -2.8089,-1.03942 -1.82572,0 -2.92124,1.0955 -1.09551,1.09552 -1.09551,3.03362 l -2.61223,-0.25277 q 0.2808,-2.92124 2.02241,-4.43795 1.7416,-1.51689 4.66284,-1.51689 2.97733,0 4.70474,1.64327 1.72757,1.64308 1.72757,4.05882 0,1.23592 -0.50568,2.42958 -0.50552,1.19385 -1.68533,2.51407 -1.17965,1.32004 -3.90441,3.62342 -2.27515,1.91005 -2.92125,2.59821 -0.64591,0.68815 -1.06728,1.36229 l 10.112,0 z"
     id="path115"
     inkscape:connector-curvature="0" />
  <path
     style="font-size:medium;font-family:SansSerif;color-interpolation:linearRGB;fill:#262626;stroke:none;color-rendering:optimizeQuality;image-rendering:optimizeQuality;text-rendering:geometricPrecision"
     d="m 645.75865,400.85664 2.5279,-0.33726 q 0.4494,2.16299 1.4887,3.10389 1.0394,0.94093 2.5561,0.94093 1.7696,0 3.0056,-1.23575 1.2359,-1.23608 1.2359,-3.06182 0,-1.74142 -1.1376,-2.86497 -1.1376,-1.12356 -2.9072,-1.12356 -0.7022,0 -1.7697,0.2808 l 0.281,-2.21889 q 0.2528,0.028 0.3932,0.028 1.6292,0 2.9212,-0.84274 1.2922,-0.84259 1.2922,-2.61224 0,-1.3763 -0.9411,-2.28917 -0.9409,-0.91304 -2.4296,-0.91304 -1.4887,0 -2.4718,0.92706 -0.9832,0.92689 -1.264,2.78085 l -2.5281,-0.44943 q 0.4775,-2.55612 2.1208,-3.94664 1.6431,-1.39033 4.0868,-1.39033 1.6854,0 3.1039,0.7162 1.4184,0.71638 2.1628,1.96631 0.7445,1.24993 0.7445,2.65446 0,1.34827 -0.7164,2.44361 -0.7162,1.09551 -2.1208,1.7416 1.826,0.4212 2.8372,1.74142 1.0112,1.32022 1.0112,3.31457 0,2.69655 -1.9663,4.57836 -1.9662,1.88199 -4.9717,1.88199 -2.6966,0 -4.4943,-1.61504 -1.7977,-1.61522 -2.0504,-4.19921 z"
     id="path119"
     inkscape:connector-curvature="0" />
  <path
     style="font-size:medium;font-family:SansSerif;color-interpolation:linearRGB;fill:#262626;stroke:none;color-rendering:optimizeQuality;image-rendering:optimizeQuality;text-rendering:geometricPrecision"
     d="m 793.81175,406.44615 0,-4.94366 -8.9323,0 0,-2.30319 9.4098,-13.34228 2.0504,0 0,13.34228 2.7809,0 0,2.30319 -2.7809,0 0,4.94366 -2.5279,0 z m 0,-7.24685 0,-9.29748 -6.4323,9.29748 6.4323,0 z"
     id="path123"
     inkscape:connector-curvature="0" />
  <path
     style="font-size:medium;font-family:SansSerif;color-interpolation:linearRGB;fill:#262626;stroke:none;color-rendering:optimizeQuality;image-rendering:optimizeQuality;text-rendering:geometricPrecision"
     d="m 924.6744,400.73012 2.6404,-0.22471 q 0.309,1.93809 1.3763,2.90723 1.0674,0.96896 2.5843,0.96896 1.8258,0 3.0897,-1.37632 1.264,-1.37631 1.264,-3.65147 0,-2.16299 -1.2077,-3.41292 -1.2079,-1.24992 -3.1743,-1.24992 -1.2358,0 -2.2188,0.56177 -0.9832,0.56178 -1.5449,1.43258 l -2.3595,-0.30902 1.9941,-10.56143 10.2246,0 0,2.41574 -8.2022,0 -1.1235,5.53347 q 1.8539,-1.29219 3.9044,-1.29219 2.6965,0 4.5505,1.86799 1.8538,1.86798 1.8538,4.78922 0,2.80889 -1.6291,4.83129 -1.9944,2.52792 -5.4211,2.52792 -2.8091,0 -4.5786,-1.587 -1.7696,-1.587 -2.0224,-4.17118 z"
     id="path127"
     inkscape:connector-curvature="0" />
  <path
     style="font-size:medium;font-family:SansSerif;color-interpolation:linearRGB;fill:#262626;stroke:none;color-rendering:optimizeQuality;image-rendering:optimizeQuality;text-rendering:geometricPrecision"
     d="m 1077.4324,390.74459 -2.5281,0.19648 q -0.3371,-1.48866 -0.9551,-2.16279 -1.011,-1.06747 -2.5279,-1.06747 -1.2079,0 -2.1067,0.67414 -1.2079,0.87079 -1.8961,2.5421 -0.6881,1.67132 -0.7161,4.76119 0.9268,-1.40453 2.2471,-2.07867 1.3202,-0.67413 2.7525,-0.67413 2.5282,0 4.3118,1.86797 1.7837,1.86781 1.7837,4.81709 0,1.93828 -0.8428,3.59538 -0.8426,1.6573 -2.3032,2.55614 -1.4606,0.89884 -3.3145,0.89884 -3.146,0 -5.1402,-2.33142 -1.9943,-2.33125 -1.9943,-7.66822 0,-5.9829 2.1908,-8.67943 1.9381,-2.35947 5.1966,-2.35947 2.4155,0 3.9745,1.36229 1.559,1.36229 1.868,3.74998 z m -10.3367,8.87591 q 0,1.32022 0.5615,2.51407 0.562,1.19384 1.559,1.81172 0.9972,0.61787 2.0927,0.61787 1.601,0 2.7528,-1.29202 1.1516,-1.29199 1.1516,-3.51105 0,-2.13476 -1.1375,-3.35666 -1.1376,-1.22188 -2.8793,-1.22188 -1.7133,0 -2.9072,1.22188 -1.1936,1.2219 -1.1936,3.21607 z"
     id="path131"
     inkscape:connector-curvature="0" />
  <path
     style="font-size:medium;font-family:SansSerif;color-interpolation:linearRGB;fill:#262626;stroke:none;color-rendering:optimizeQuality;image-rendering:optimizeQuality;text-rendering:geometricPrecision"
     d="m 1203.8429,388.42718 0,-2.44378 13.3142,0 0,1.96613 q -1.9662,2.10671 -3.8904,5.57572 -1.924,3.469 -2.9913,7.12064 -0.7584,2.584 -0.9551,5.67388 l -2.6122,0 q 0.055,-2.44378 0.9689,-5.88456 0.9129,-3.44096 2.6125,-6.62899 1.6993,-3.1882 3.6374,-5.37904 l -10.084,0 z"
     id="path135"
     inkscape:connector-curvature="0" />
  <path
     style="font-size:medium;font-family:SansSerif;color-interpolation:linearRGB;fill:#262626;stroke:none;color-rendering:optimizeQuality;image-rendering:optimizeQuality;text-rendering:geometricPrecision"
     d="m 1347.121,395.12628 q -1.5731,-0.5616 -2.3315,-1.62907 -0.7582,-1.06746 -0.7582,-2.55614 0,-2.2471 1.6149,-3.77784 1.6151,-1.53091 4.3116,-1.53091 2.6965,0 4.3399,1.55895 1.6433,1.55896 1.6433,3.80607 0,1.43241 -0.7584,2.49987 -0.7585,1.06747 -2.2752,1.62907 1.882,0.61804 2.8789,1.99435 0.9972,1.37631 0.9972,3.28654 0,2.64027 -1.8678,4.45198 -1.868,1.81171 -4.9296,1.81171 -3.0337,0 -4.9017,-1.81171 -1.8679,-1.81171 -1.8679,-4.50825 0,-2.02239 1.0114,-3.37066 1.011,-1.34827 2.893,-1.85396 z m -0.5056,-4.26952 q 0,1.4608 0.9409,2.3877 0.941,0.92689 2.4579,0.92689 1.4605,0 2.3874,-0.92689 0.9269,-0.9269 0.9269,-2.24712 0,-1.40453 -0.955,-2.34544 -0.9548,-0.94109 -2.3874,-0.94109 -1.4606,0 -2.4159,0.92706 -0.9548,0.92689 -0.9548,2.21889 z m -0.8146,9.49414 q 0,1.09552 0.5196,2.10672 0.5197,1.0112 1.531,1.55895 1.0111,0.54759 2.1628,0.54759 1.8256,0 3.0055,-1.16563 1.1796,-1.16562 1.1796,-2.96331 0,-1.82574 -1.2218,-3.01958 -1.2219,-1.19385 -3.0476,-1.19385 -1.7697,0 -2.9494,1.17983 -1.1796,1.17964 -1.1796,2.94928 z"
     id="path139"
     inkscape:connector-curvature="0" />
  <path
     style="font-size:medium;font-family:SansSerif;color-interpolation:linearRGB;fill:#262626;stroke:none;color-rendering:optimizeQuality;image-rendering:optimizeQuality;text-rendering:geometricPrecision"
     d="m 1483.0958,401.53073 2.4437,-0.22472 q 0.3089,1.71338 1.1796,2.48585 0.8708,0.7723 2.2191,0.7723 1.1797,0 2.0504,-0.53357 0.8709,-0.53373 1.4326,-1.41856 0.5618,-0.88481 0.941,-2.40153 0.3793,-1.51688 0.3793,-3.08987 0,-0.16844 0,-0.5055 -0.7585,1.20768 -2.0787,1.95211 -1.3203,0.74442 -2.8371,0.74442 -2.556,0 -4.3257,-1.85396 -1.7695,-1.85377 -1.7695,-4.88737 0,-3.11792 1.8399,-5.02797 1.8399,-1.91004 4.6205,-1.91004 2.0224,0 3.6796,1.08149 1.6574,1.0813 2.5282,3.07567 0.8707,1.99435 0.8707,5.78622 0,3.96067 -0.8566,6.29191 -0.8568,2.33143 -2.5561,3.56734 -1.6993,1.23591 -3.9746,1.23591 -2.4157,0 -3.9466,-1.34827 -1.5307,-1.34827 -1.8397,-3.79186 z m 10.3647,-9.07276 q 0,-2.19103 -1.1656,-3.46901 -1.1657,-1.27815 -2.7949,-1.27815 -1.6853,0 -2.9353,1.37649 -1.2499,1.37631 -1.2499,3.56715 0,1.96632 1.1937,3.20223 1.1939,1.23591 2.9353,1.23591 1.7416,0 2.8791,-1.23591 1.1376,-1.23591 1.1376,-3.39871 z"
     id="path143"
     inkscape:connector-curvature="0" />
  <path
     style="font-size:medium;font-family:SansSerif;color-interpolation:linearRGB;fill:#262626;stroke:none;color-rendering:optimizeQuality;image-rendering:optimizeQuality;text-rendering:geometricPrecision"
     d="m 1615.8665,406.30576 -2.5281,0 0,-16.12313 q -0.9269,0.8708 -2.4015,1.7416 -1.4748,0.8708 -2.6545,1.32023 l 0,-2.44378 q 2.1067,-1.0112 3.6936,-2.42976 1.587,-1.41838 2.2612,-2.7386 l 1.6293,0 0,20.67344 z m 6.4743,-10.16811 q 0,-3.65164 0.7444,-5.87071 0.7443,-2.21888 2.2331,-3.42676 1.4888,-1.20786 3.7358,-1.20786 1.6573,0 2.9073,0.66011 1.2499,0.66011 2.0644,1.92406 0.8146,1.26397 1.278,3.06165 0.4637,1.79769 0.4637,4.85951 0,3.62344 -0.7445,5.85652 -0.7444,2.2331 -2.233,3.4548 -1.4888,1.22189 -3.7359,1.22189 -2.9774,0 -4.6909,-2.1628 -2.0224,-2.55614 -2.0224,-8.37041 z m 2.5842,0 q 0,5.08406 1.1939,6.75537 1.1937,1.67114 2.9352,1.67114 1.7415,0 2.9213,-1.68516 1.1796,-1.68552 1.1796,-6.74135 0,-5.08422 -1.1796,-6.75553 -1.1798,-1.67131 -2.9493,-1.67131 -1.7417,0 -2.7808,1.48884 -1.3203,1.88183 -1.3203,6.938 z"
     id="path147"
     inkscape:connector-curvature="0" />
  <g
     id="g4570"
     transform="translate(-543.8002,0)">
    <path
       inkscape:connector-curvature="0"
       id="path151"
       d="m 1431.7581,447.89225 0,-2.69653 11.2073,-13.98819 q 1.1798,-1.51689 2.2753,-2.6124 l -12.2187,0 0,-2.58418 15.6735,0 0,2.58418 -12.2748,15.16801 -1.3483,1.54494 13.9885,0 0,2.58417 -17.3028,0 z m 28.619,6.0672 0,-27.9485 5.9266,0 0,2.21906 -3.2583,0 0,23.51038 3.2583,0 0,2.21906 -5.9266,0 z"
       style="font-size:medium;font-family:SansSerif;color-interpolation:linearRGB;fill:#262626;stroke:none;color-rendering:optimizeQuality;image-rendering:optimizeQuality;text-rendering:geometricPrecision" />
    <path
       inkscape:connector-curvature="0"
       id="path155"
       d="m 1467.9366,453.65043 q 0,-0.19649 0.028,-0.25275 l 4.4943,-18.03317 q 0.1404,-0.44942 0.4914,-0.71619 0.3511,-0.26678 0.8006,-0.26678 0.3933,0 0.66,0.23873 0.2671,0.23873 0.2671,0.60384 0,0.11234 -0.015,0.15461 -0.014,0.0421 -0.014,0.12637 l -1.7978,7.13449 q -0.309,1.26396 -0.309,2.19103 0,1.12355 0.5337,1.86779 0.5338,0.74442 1.6293,0.74442 2.2191,0 3.9042,-2.78084 0.028,-0.028 0.028,-0.0421 0,-0.0145 0,-0.0422 l 2.2189,-8.87591 q 0.1131,-0.39334 0.4776,-0.68835 0.3652,-0.29481 0.8146,-0.29481 0.337,0 0.618,0.23873 0.2808,0.23873 0.2808,0.63189 0,0.16862 -0.028,0.22471 l -2.191,8.82001 q -0.2247,0.84257 -0.2247,1.48866 0,1.32022 0.8988,1.32022 0.9551,0 1.4326,-1.17964 0.4775,-1.17982 0.8426,-2.86516 0.057,-0.16861 0.253,-0.16861 l 0.365,0 q 0.1118,0 0.1966,0.0984 0.084,0.0984 0.084,0.18265 -0.5335,2.13476 -1.1657,3.42694 -0.632,1.292 -2.0643,1.292 -1.0395,0 -1.8119,-0.5758 -0.7723,-0.5758 -1.0253,-1.55896 -0.7583,0.95493 -1.7835,1.54494 -1.0252,0.58982 -2.1488,0.58982 -1.9102,0 -3.0055,-0.89884 l -1.545,6.17956 q -0.084,0.44941 -0.4494,0.7162 -0.365,0.26695 -0.8145,0.26695 -0.3653,0 -0.6461,-0.23873 -0.2809,-0.23892 -0.2809,-0.60403 z"
       style="font-size:medium;font-family:mwb_cmmi10;color-interpolation:linearRGB;fill:#262626;stroke:none;color-rendering:optimizeQuality;image-rendering:optimizeQuality;text-rendering:geometricPrecision" />
    <path
       inkscape:connector-curvature="0"
       id="path159"
       d="m 1488.8908,447.89225 0,-15.84214 2.3875,0 0,2.21907 q 0.7585,-1.15178 1.9944,-1.86798 1.2359,-0.71621 2.8089,-0.71621 1.7696,0 2.8931,0.73023 1.1236,0.7304 1.6011,2.05045 1.8819,-2.78068 4.8876,-2.78068 2.3593,0 3.6233,1.30603 1.264,1.30621 1.264,4.03079 l 0,10.87044 -2.6685,0 0,-9.9716 q 0,-1.62907 -0.2527,-2.33143 -0.2528,-0.70217 -0.9409,-1.13758 -0.6883,-0.4354 -1.6153,-0.4354 -1.6853,0 -2.7806,1.10954 -1.0956,1.10953 -1.0956,3.55331 l 0,9.21316 -2.6965,0 0,-10.30867 q 0,-1.76965 -0.66,-2.66849 -0.6602,-0.89885 -2.1489,-0.89885 -1.1236,0 -2.0927,0.59001 -0.9689,0.58982 -1.4043,1.74142 -0.4354,1.15178 -0.4354,3.31458 l 0,8.23 -2.6685,0 z m 29.9515,6.0672 -5.9266,0 0,-2.21906 3.23,0 0,-23.51038 -3.23,0 0,-2.21906 5.9266,0 0,27.9485 z"
       style="font-size:medium;font-family:SansSerif;color-interpolation:linearRGB;fill:#262626;stroke:none;color-rendering:optimizeQuality;image-rendering:optimizeQuality;text-rendering:geometricPrecision" />
  </g>
  <line
     y2="66"
     style="color-interpolation:linearRGB;fill:none;stroke:#262626;stroke-width:0.66670001;stroke-linejoin:round;color-rendering:optimizeQuality;image-rendering:optimizeQuality;text-rendering:geometricPrecision"
     x1="234"
     x2="234"
     y1="374"
     id="line163" />
  <line
     y2="66"
     style="color-interpolation:linearRGB;fill:none;stroke:#262626;stroke-width:0.66670001;stroke-linejoin:round;color-rendering:optimizeQuality;image-rendering:optimizeQuality;text-rendering:geometricPrecision"
     x1="1629"
     x2="1629"
     y1="374"
     id="line165" />
  <line
     y2="352.75861"
     style="color-interpolation:linearRGB;fill:none;stroke:#262626;stroke-width:0.66670001;stroke-linejoin:round;color-rendering:optimizeQuality;image-rendering:optimizeQuality;text-rendering:geometricPrecision"
     x1="234"
     x2="247.95"
     y1="352.75861"
     id="line167" />
  <line
     y2="299.65521"
     style="color-interpolation:linearRGB;fill:none;stroke:#262626;stroke-width:0.66670001;stroke-linejoin:round;color-rendering:optimizeQuality;image-rendering:optimizeQuality;text-rendering:geometricPrecision"
     x1="234"
     x2="247.95"
     y1="299.65521"
     id="line169" />
  <line
     y2="246.5517"
     style="color-interpolation:linearRGB;fill:none;stroke:#262626;stroke-width:0.66670001;stroke-linejoin:round;color-rendering:optimizeQuality;image-rendering:optimizeQuality;text-rendering:geometricPrecision"
     x1="234"
     x2="247.95"
     y1="246.5517"
     id="line171" />
  <line
     y2="193.4483"
     style="color-interpolation:linearRGB;fill:none;stroke:#262626;stroke-width:0.66670001;stroke-linejoin:round;color-rendering:optimizeQuality;image-rendering:optimizeQuality;text-rendering:geometricPrecision"
     x1="234"
     x2="247.95"
     y1="193.4483"
     id="line173" />
  <line
     y2="140.3448"
     style="color-interpolation:linearRGB;fill:none;stroke:#262626;stroke-width:0.66670001;stroke-linejoin:round;color-rendering:optimizeQuality;image-rendering:optimizeQuality;text-rendering:geometricPrecision"
     x1="234"
     x2="247.95"
     y1="140.3448"
     id="line175" />
  <line
     y2="87.241402"
     style="color-interpolation:linearRGB;fill:none;stroke:#262626;stroke-width:0.66670001;stroke-linejoin:round;color-rendering:optimizeQuality;image-rendering:optimizeQuality;text-rendering:geometricPrecision"
     x1="234"
     x2="247.95"
     y1="87.241402"
     id="line177" />
  <line
     y2="352.75861"
     style="color-interpolation:linearRGB;fill:none;stroke:#262626;stroke-width:0.66670001;stroke-linejoin:round;color-rendering:optimizeQuality;image-rendering:optimizeQuality;text-rendering:geometricPrecision"
     x1="1629"
     x2="1615.0499"
     y1="352.75861"
     id="line179" />
  <line
     y2="299.65521"
     style="color-interpolation:linearRGB;fill:none;stroke:#262626;stroke-width:0.66670001;stroke-linejoin:round;color-rendering:optimizeQuality;image-rendering:optimizeQuality;text-rendering:geometricPrecision"
     x1="1629"
     x2="1615.0499"
     y1="299.65521"
     id="line181" />
  <line
     y2="246.5517"
     style="color-interpolation:linearRGB;fill:none;stroke:#262626;stroke-width:0.66670001;stroke-linejoin:round;color-rendering:optimizeQuality;image-rendering:optimizeQuality;text-rendering:geometricPrecision"
     x1="1629"
     x2="1615.0499"
     y1="246.5517"
     id="line183" />
  <line
     y2="193.4483"
     style="color-interpolation:linearRGB;fill:none;stroke:#262626;stroke-width:0.66670001;stroke-linejoin:round;color-rendering:optimizeQuality;image-rendering:optimizeQuality;text-rendering:geometricPrecision"
     x1="1629"
     x2="1615.0499"
     y1="193.4483"
     id="line185" />
  <line
     y2="140.3448"
     style="color-interpolation:linearRGB;fill:none;stroke:#262626;stroke-width:0.66670001;stroke-linejoin:round;color-rendering:optimizeQuality;image-rendering:optimizeQuality;text-rendering:geometricPrecision"
     x1="1629"
     x2="1615.0499"
     y1="140.3448"
     id="line187" />
  <line
     y2="87.241402"
     style="color-interpolation:linearRGB;fill:none;stroke:#262626;stroke-width:0.66670001;stroke-linejoin:round;color-rendering:optimizeQuality;image-rendering:optimizeQuality;text-rendering:geometricPrecision"
     x1="1629"
     x2="1615.0499"
     y1="87.241402"
     id="line189" />
  <path
     style="font-size:medium;font-family:SansSerif;color-interpolation:linearRGB;fill:#262626;stroke:none;color-rendering:optimizeQuality;image-rendering:optimizeQuality;text-rendering:geometricPrecision"
     d="m 208.2483,360.65155 0,2.44378 -13.62307,0 q -0.028,-0.92689 0.30885,-1.76965 0.50569,-1.37631 1.65728,-2.72458 1.15178,-1.34827 3.31459,-3.11791 3.34244,-2.75261 4.52226,-4.36785 1.17983,-1.61504 1.17983,-3.04762 0,-1.48867 -1.06747,-2.52792 -1.06747,-1.03942 -2.80889,-1.03942 -1.82573,0 -2.92124,1.09552 -1.09552,1.09551 -1.09552,3.0336 l -2.61223,-0.25276 q 0.28081,-2.92124 2.02241,-4.43795 1.7416,-1.5169 4.66284,-1.5169 2.97734,0 4.70474,1.64328 1.72758,1.64309 1.72758,4.05882 0,1.23591 -0.50569,2.42958 -0.50551,1.19384 -1.68533,2.51407 -1.17965,1.32003 -3.90441,3.62342 -2.27515,1.91004 -2.92125,2.5982 -0.6459,0.68815 -1.06728,1.36229 l 10.112,0 z"
     id="path193"
     inkscape:connector-curvature="0" />
  <path
     style="font-size:medium;font-family:SansSerif;color-interpolation:linearRGB;fill:#262626;stroke:none;color-rendering:optimizeQuality;image-rendering:optimizeQuality;text-rendering:geometricPrecision"
     d="m 183.89517,307.36559 0,2.44378 -13.62307,0 q -0.028,-0.92689 0.30884,-1.76965 0.5057,-1.3763 1.65729,-2.72458 1.15178,-1.34826 3.31459,-3.11791 3.34244,-2.75261 4.52227,-4.36784 1.17981,-1.61505 1.17981,-3.04763 0,-1.48867 -1.06746,-2.5279 -1.06747,-1.03944 -2.8089,-1.03944 -1.82572,0 -2.92124,1.09552 -1.09551,1.09551 -1.09551,3.0336 l -2.61222,-0.25275 q 0.2808,-2.92124 2.0224,-4.43796 1.7416,-1.51688 4.66284,-1.51688 2.97735,0 4.70474,1.64326 1.72759,1.64309 1.72759,4.05882 0,1.23591 -0.5057,2.42958 -0.5055,1.19384 -1.68533,2.51407 -1.17965,1.32005 -3.90441,3.62342 -2.27515,1.91004 -2.92124,2.5982 -0.64591,0.68816 -1.06729,1.36229 l 10.112,0 z m 4.1151,2.44378 0,-2.89319 2.89302,0 0,2.89319 -2.89302,0 z m 6.58673,-5.39307 2.64045,-0.2247 q 0.30885,1.93808 1.37632,2.90721 1.06746,0.96896 2.58417,0.96896 1.82574,0 3.08969,-1.37631 1.26414,-1.37632 1.26414,-3.65147 0,-2.16298 -1.20787,-3.41291 -1.20787,-1.24993 -3.17401,-1.24993 -1.2359,0 -2.21906,0.56177 -0.98316,0.56178 -1.54494,1.43258 l -2.35946,-0.30902 1.99435,-10.56143 10.22436,0 0,2.41574 -8.20196,0 -1.12355,5.53346 q 1.85378,-1.29217 3.9044,-1.29217 2.69653,0 4.55031,1.86798 1.85396,1.86797 1.85396,4.78922 0,2.8089 -1.62925,4.8313 -1.99418,2.5279 -5.42111,2.5279 -2.80889,0 -4.57854,-1.58699 -1.76965,-1.587 -2.0224,-4.17119 z"
     id="path197"
     inkscape:connector-curvature="0" />
  <path
     style="font-size:medium;font-family:SansSerif;color-interpolation:linearRGB;fill:#262626;stroke:none;color-rendering:optimizeQuality;image-rendering:optimizeQuality;text-rendering:geometricPrecision"
     d="m 194.76564,251.25675 2.52789,-0.33725 q 0.44943,2.16299 1.48868,3.1039 1.03942,0.9409 2.55613,0.9409 1.76965,0 3.00556,-1.23573 1.23591,-1.23609 1.23591,-3.06182 0,-1.74142 -1.13757,-2.86498 -1.13759,-1.12356 -2.90723,-1.12356 -0.70218,0 -1.76965,0.2808 l 0.28099,-2.21889 q 0.25275,0.028 0.39314,0.028 1.62926,0 2.92125,-0.84276 1.29218,-0.84257 1.29218,-2.61222 0,-1.37631 -0.94109,-2.28917 -0.9409,-0.91305 -2.42958,-0.91305 -1.48867,0 -2.47182,0.92707 -0.98316,0.92689 -1.26396,2.78085 l -2.52809,-0.44943 q 0.47747,-2.55613 2.12074,-3.94665 1.64309,-1.39033 4.08687,-1.39033 1.68533,0 3.10389,0.7162 1.41838,0.71638 2.1628,1.96632 0.74442,1.24993 0.74442,2.65446 0,1.34827 -0.71637,2.4436 -0.71621,1.09552 -2.12074,1.74161 1.82592,0.42119 2.83711,1.74142 1.0112,1.32022 1.0112,3.31458 0,2.69653 -1.96632,4.57835 -1.96613,1.882 -4.97168,1.882 -2.69653,0 -4.49423,-1.61504 -1.79769,-1.61523 -2.05044,-4.19923 z"
     id="path201"
     inkscape:connector-curvature="0" />
  <path
     style="font-size:medium;font-family:SansSerif;color-interpolation:linearRGB;fill:#262626;stroke:none;color-rendering:optimizeQuality;image-rendering:optimizeQuality;text-rendering:geometricPrecision"
     d="m 170.60917,198.1533 2.52791,-0.33724 q 0.44942,2.16298 1.48866,3.10389 1.03944,0.94091 2.55614,0.94091 1.76965,0 3.00556,-1.23573 1.23592,-1.2361 1.23592,-3.06183 0,-1.74142 -1.13759,-2.86498 -1.13758,-1.12355 -2.90723,-1.12355 -0.70216,0 -1.76963,0.2808 l 0.28097,-2.21889 q 0.25276,0.028 0.39316,0.028 1.62924,0 2.92124,-0.84276 1.29218,-0.84258 1.29218,-2.61222 0,-1.37631 -0.94109,-2.28918 -0.94091,-0.91305 -2.42958,-0.91305 -1.48866,0 -2.47182,0.92707 -0.98316,0.92689 -1.26396,2.78085 l -2.52808,-0.44943 q 0.47747,-2.55613 2.12074,-3.94664 1.64308,-1.39034 4.08686,-1.39034 1.68534,0 3.10389,0.7162 1.41839,0.71638 2.16281,1.96632 0.74442,1.24993 0.74442,2.65446 0,1.34827 -0.71637,2.4436 -0.71621,1.09552 -2.12075,1.74161 1.82591,0.42119 2.83711,1.74142 1.0112,1.32022 1.0112,3.31458 0,2.69653 -1.96629,4.57836 -1.96615,1.88199 -4.9717,1.88199 -2.69654,0 -4.49423,-1.61504 -1.79769,-1.61522 -2.05044,-4.19922 z m 17.4011,5.44916 0,-2.8932 2.89302,0 0,2.8932 -2.89302,0 z m 6.58673,-5.39307 2.64045,-0.22471 q 0.30885,1.93809 1.37632,2.90722 1.06746,0.96896 2.58417,0.96896 1.82574,0 3.08969,-1.37632 1.26414,-1.37631 1.26414,-3.65146 0,-2.16298 -1.20787,-3.41291 -1.20787,-1.24994 -3.17401,-1.24994 -1.2359,0 -2.21906,0.56178 -0.98316,0.56178 -1.54494,1.43258 l -2.35946,-0.30902 1.99435,-10.56143 10.22436,0 0,2.41573 -8.20196,0 -1.12355,5.53347 q 1.85378,-1.29218 3.9044,-1.29218 2.69653,0 4.55031,1.86798 1.85396,1.86798 1.85396,4.78923 0,2.80889 -1.62925,4.83129 -1.99418,2.52791 -5.42111,2.52791 -2.80889,0 -4.57854,-1.587 -1.76965,-1.58699 -2.0224,-4.17118 z"
     id="path205"
     inkscape:connector-curvature="0" />
  <path
     style="font-size:medium;font-family:SansSerif;color-interpolation:linearRGB;fill:#262626;stroke:none;color-rendering:optimizeQuality;image-rendering:optimizeQuality;text-rendering:geometricPrecision"
     d="m 202.93954,150.63936 0,-4.94364 -8.93236,0 0,-2.3032 9.40983,-13.34228 2.05044,0 0,13.34228 2.78085,0 0,2.3032 -2.78085,0 0,4.94364 -2.52791,0 z m 0,-7.24684 0,-9.29748 -6.43232,9.29748 6.43232,0 z"
     id="path209"
     inkscape:connector-curvature="0" />
  <path
     style="font-size:medium;font-family:SansSerif;color-interpolation:linearRGB;fill:#262626;stroke:none;color-rendering:optimizeQuality;image-rendering:optimizeQuality;text-rendering:geometricPrecision"
     d="m 178.69878,97.353407 0,-4.94365 -8.93236,0 0,-2.3032 9.40982,-13.34227 2.05044,0 0,13.34227 2.78085,0 0,2.3032 -2.78085,0 0,4.94365 -2.5279,0 z m 0,-7.24685 0,-9.29747 -6.43233,9.29747 6.43233,0 z m 9.31149,7.24685 0,-2.8932 2.89302,0 0,2.8932 -2.89302,0 z m 6.58673,-5.39307 2.64045,-0.22471 q 0.30885,1.93809 1.37632,2.90722 1.06746,0.96896 2.58417,0.96896 1.82574,0 3.08969,-1.37631 1.26414,-1.37631 1.26414,-3.65147 0,-2.16298 -1.20787,-3.41292 -1.20787,-1.24993 -3.17401,-1.24993 -1.2359,0 -2.21906,0.56178 -0.98316,0.56178 -1.54494,1.43258 l -2.35946,-0.30903 1.99435,-10.56142 10.22436,0 0,2.41573 -8.20196,0 -1.12355,5.53347 q 1.85378,-1.29218 3.9044,-1.29218 2.69653,0 4.55031,1.86798 1.85396,1.86798 1.85396,4.78923 0,2.80889 -1.62925,4.83129 -1.99418,2.52791 -5.42111,2.52791 -2.80889,0 -4.57854,-1.587 -1.76965,-1.587 -2.0224,-4.17118 z"
     id="path213"
     inkscape:connector-curvature="0" />
  <path
     style="font-size:medium;font-family:SansSerif;color-interpolation:linearRGB;fill:#262626;stroke:none;color-rendering:optimizeQuality;image-rendering:optimizeQuality;text-rendering:geometricPrecision"
     d="m 135.40522,328.0826 -23.1733,0 0,-3.08969 23.1733,0 0,3.08969 z m 0,-8.11944 -16.76903,0 0,-2.55614 2.38751,0 q -2.78085,-1.85378 -2.78085,-5.3368 0,-1.5169 0.54776,-2.79487 0.54775,-1.27798 1.43258,-1.91005 0.88482,-0.63207 2.0927,-0.88482 0.7863,-0.14041 2.78065,-0.14041 l 10.30868,0 0,2.83694 -10.19632,0 q -1.74142,0 -2.61222,0.32304 -0.8708,0.32305 -1.37631,1.17983 -0.50569,0.8566 -0.50569,1.98016 0,1.82574 1.15178,3.14596 1.1516,1.32022 4.38169,1.32022 l 9.15707,0 0,2.83694 z m -2.55613,-24.20375 2.52809,-0.42138 q 0.25275,1.20787 0.25275,2.16281 0,1.54494 -0.49149,2.40153 -0.49166,0.85678 -1.29218,1.19385 -0.80051,0.33707 -3.35664,0.33707 l -9.66258,0 0,2.10671 -2.19085,0 0,-2.10671 -4.15716,0 -1.71356,-2.8089 5.87072,0 0,-2.86498 2.19085,0 0,2.86498 9.8312,0 q 1.20769,0 1.55896,-0.15442 0.35109,-0.1546 0.54757,-0.49166 0.19668,-0.33707 0.19668,-0.98298 0,-0.44943 -0.11234,-1.23592 z m -2.83694,-14.27095 0.36511,-2.9493 q 2.55614,0.70218 3.98872,2.58418 1.43258,1.88182 1.43258,4.80307 0,3.67969 -2.27534,5.8425 -2.27515,2.16298 -6.37623,2.16298 -4.21324,0 -6.55868,-2.17701 -2.34546,-2.17683 -2.34546,-5.65985 0,-3.37067 2.28937,-5.50543 2.28917,-2.13474 6.44633,-2.13474 0.25275,0 0.75845,0.028 l 0,12.49952 q 2.78067,-0.14041 4.24147,-1.55896 1.46044,-1.41837 1.46044,-3.49704 0,-1.57298 -0.81453,-2.68252 -0.81454,-1.10935 -2.61223,-1.75544 z m -4.60657,9.35355 0,-9.3816 q -2.10672,0.19648 -3.17401,1.06729 -1.65729,1.37631 -1.65729,3.53928 0,1.9381 1.32022,3.27234 1.32023,1.33425 3.51108,1.50269 z m 9.99964,-15.86137 -16.76903,0 0,-2.55614 2.38751,0 q -2.78085,-1.85396 -2.78085,-5.33699 0,-1.5167 0.54776,-2.79468 0.54775,-1.27816 1.43258,-1.91023 0.88482,-0.63188 2.0927,-0.88463 0.7863,-0.14059 2.78065,-0.14059 l 10.30868,0 0,2.83711 -10.19632,0 q -1.74142,0 -2.61222,0.32305 -0.8708,0.32287 -1.37631,1.17965 -0.50569,0.85677 -0.50569,1.98033 0,1.82574 1.15178,3.14596 1.1516,1.32004 4.38169,1.32004 l 9.15707,0 0,2.83712 z m -4.99974,-16.84472 -0.44941,-2.83693 q 1.68514,-0.22472 2.584,-1.30602 0.89884,-1.08149 0.89884,-3.01957 0,-1.96632 -0.80052,-2.92126 -0.8005,-0.9551 -1.86779,-0.9551 -0.95511,0 -1.5169,0.84274 -0.36511,0.58984 -0.95493,2.92126 -0.78648,3.11773 -1.36229,4.32559 -0.5758,1.20788 -1.60119,1.83994 -1.02523,0.63189 -2.26115,0.63189 -1.12354,0 -2.07848,-0.51953 -0.95512,-0.51972 -1.57298,-1.39051 -0.5057,-0.67415 -0.84276,-1.82574 -0.33707,-1.1516 -0.33707,-2.44378 0,-1.99435 0.57581,-3.48302 0.57597,-1.48868 1.54493,-2.20487 0.96914,-0.71637 2.59821,-0.96914 l 0.3651,2.78085 q -1.292,0.19649 -2.0224,1.09533 -0.73022,0.89884 -0.73022,2.55614 0,1.96631 0.64609,2.80888 0.64609,0.84277 1.51671,0.84277 0.56178,0 1.0112,-0.36529 0.44942,-0.33707 0.75844,-1.0673 0.14041,-0.44941 0.7304,-2.52809 0.78632,-3.00538 1.30603,-4.19921 0.51971,-1.19385 1.50269,-1.88201 0.98316,-0.68816 2.41574,-0.68816 1.43258,0 2.69653,0.82874 1.26395,0.82855 1.95211,2.40154 0.68834,1.57297 0.68834,3.5391 0,3.28654 -1.36248,4.99992 -1.36229,1.71338 -4.0306,2.19084 z m -14.88721,-17.35885 -3.28635,0 0,-2.83694 3.28635,0 0,2.83694 z m 19.88695,0 -16.76903,0 0,-2.83694 16.76903,0 0,2.83694 z m 0,-18.05941 -2.10671,0 q 2.50005,1.60102 2.50005,4.71893 0,1.99436 -1.10953,3.67969 -1.10954,1.68534 -3.08987,2.61223 -1.98034,0.92689 -4.56434,0.92689 -2.5281,0 -4.56452,-0.84258 -2.03642,-0.84275 -3.13194,-2.51406 -1.09551,-1.67133 -1.09551,-3.74981 0,-1.51689 0.6461,-2.69654 0.64609,-1.17982 1.65729,-1.93809 l -8.31432,0 0,-2.80889 23.1733,0 0,2.61223 z m -8.3704,9.01649 q 3.23008,0 4.81709,-1.36229 1.587,-1.36229 1.587,-3.21624 0,-1.85378 -1.51671,-3.15998 -1.51672,-1.30602 -4.66268,-1.30602 -3.42693,0 -5.04197,1.32004 -1.61523,1.32022 -1.61523,3.25831 0,1.91005 1.54494,3.1882 1.54494,1.27798 4.88756,1.27798 z m 6.29192,-27.0689 q 1.34826,1.57299 1.90986,3.04763 0.56196,1.47465 0.56196,3.13193 0,2.78085 -1.36248,4.2555 -1.36229,1.47465 -3.469,1.47465 -1.20768,0 -2.23291,-0.56179 -1.02522,-0.56177 -1.64326,-1.46062 -0.61805,-0.89884 -0.9269,-2.05045 -0.22471,-0.84275 -0.42137,-2.52808 -0.42138,-3.42676 -0.98316,-5.05601 -0.58982,-0.028 -0.75844,-0.028 -1.71338,0 -2.4436,0.81452 -0.95512,1.09552 -0.95512,3.23028 0,2.0224 0.70218,2.9775 0.70236,0.95494 2.50004,1.40436 l -0.39333,2.78085 q -1.79768,-0.39334 -2.89302,-1.24993 -1.09551,-0.85678 -1.68551,-2.50005 -0.58983,-1.64309 -0.58983,-3.83411 0,-2.13476 0.5057,-3.48303 0.5055,-1.34827 1.27797,-1.98015 0.77247,-0.63207 1.92408,-0.88482 0.7304,-0.14041 2.64044,-0.14041 l 3.79204,0 q 3.96049,0 5.01376,-0.18265 1.05344,-0.18264 2.00838,-0.71619 l 0,2.97733 q -0.89884,0.44943 -2.07848,0.56178 z m -6.34819,0.25276 q 0.64609,1.54494 1.06729,4.6348 0.25293,1.74143 0.57597,2.47183 0.32287,0.73023 0.9269,1.12356 0.60385,0.39315 1.36229,0.39315 1.12355,0 1.882,-0.85678 0.75844,-0.8566 0.75844,-2.51389 0,-1.65729 -0.71637,-2.93526 -0.71621,-1.27798 -1.95211,-1.86799 -0.98316,-0.44942 -2.86516,-0.44942 l -1.03925,0 z m 8.42667,-18.1928 -2.10671,0 q 2.50005,1.60103 2.50005,4.71894 0,1.99435 -1.10953,3.67969 -1.10954,1.68533 -3.08987,2.61222 -1.98034,0.9269 -4.56434,0.9269 -2.5281,0 -4.56452,-0.84259 -2.03642,-0.84276 -3.13194,-2.51388 -1.09551,-1.67132 -1.09551,-3.74999 0,-1.51671 0.6461,-2.69654 0.64609,-1.17963 1.65729,-1.93808 l -8.31432,0 0,-2.80889 23.1733,0 0,2.61222 z m -8.3704,9.01649 q 3.23008,0 4.81709,-1.36229 1.587,-1.36229 1.587,-3.21606 0,-1.85396 -1.51671,-3.16016 -1.51672,-1.30602 -4.66268,-1.30602 -3.42693,0 -5.04197,1.32022 -1.61523,1.32005 -1.61523,3.25831 0,1.91005 1.54494,3.18803 1.54494,1.27797 4.88756,1.27797 z m 14.80272,-25.16064 -29.60562,0 0,-6.29192 2.35947,0 0,3.45498 24.88668,0 0,-3.45498 2.35947,0 0,6.29192 z m -6.43232,-19.91679 -2.47182,0 q 2.86516,1.93827 2.86516,5.30894 0,1.48866 -0.57598,2.78066 -0.5758,1.29218 -1.43241,1.91005 -0.85677,0.61805 -2.12073,0.8708 -0.84275,0.16862 -2.64044,0.16862 l -10.39281,0 0,-2.83711 9.29747,0 q 2.2189,0 3.00538,-0.16844 1.12356,-0.28098 1.75562,-1.1516 0.63208,-0.8708 0.63208,-2.13476 0,-1.29218 -0.64609,-2.41574 -0.6461,-1.12355 -1.78367,-1.587 -1.13758,-0.46344 -3.27234,-0.46344 l -8.98845,0 0,-2.83694 16.76903,0 0,2.55596 z m 0,-7.82804 -3.23027,0 0,-3.23009 3.23027,0 0,3.23009 z m -2.07848,-19.1303 q 1.34826,1.57298 1.90986,3.0478 0.56196,1.47465 0.56196,3.13176 0,2.78085 -1.36248,4.25549 -1.36229,1.47465 -3.469,1.47465 -1.20768,0 -2.23291,-0.56178 -1.02522,-0.56178 -1.64326,-1.46062 -0.61805,-0.89885 -0.9269,-2.05045 -0.22471,-0.84258 -0.42137,-2.52791 -0.42138,-3.42694 -0.98316,-5.056 -0.58982,-0.0282 -0.75844,-0.0282 -1.71338,0 -2.4436,0.81471 -0.95512,1.09533 -0.95512,3.23009 0,2.0224 0.70218,2.97751 0.70236,0.95494 2.50004,1.40436 l -0.39333,2.78084 q -1.79768,-0.39315 -2.89302,-1.24993 -1.09551,-0.85678 -1.68551,-2.49987 -0.58983,-1.64327 -0.58983,-3.83411 0,-2.13476 0.5057,-3.48302 0.5055,-1.34827 1.27797,-1.98034 0.77247,-0.63207 1.92408,-0.88482 0.7304,-0.1404 2.64044,-0.1404 l 3.79204,0 q 3.96049,0 5.01376,-0.18265 1.05344,-0.18246 2.00838,-0.7162 l 0,2.97734 q -0.89884,0.44942 -2.07848,0.56177 z m -6.34819,0.25294 q 0.64609,1.54475 1.06729,4.63462 0.25293,1.74142 0.57597,2.47183 0.32287,0.73022 0.9269,1.12355 0.60385,0.39316 1.36229,0.39316 1.12355,0 1.882,-0.8566 0.75844,-0.85678 0.75844,-2.51407 0,-1.65711 -0.71637,-2.93527 -0.71621,-1.27798 -1.95211,-1.8678 -0.98316,-0.44942 -2.86516,-0.44942 l -1.03925,0 z m 14.85899,-12.04147 0,6.26387 -2.35947,0 0,-3.42675 -24.88668,0 0,3.42675 -2.35947,0 0,-6.26387 29.60562,0 z"
     id="path217"
     inkscape:connector-curvature="0" />
  <g
     id="g4575"
     transform="translate(6.1642608,249.65256)">
    <path
       inkscape:connector-curvature="0"
       id="path221"
       d="m 225.53615,-196.52349 q 0,-0.22471 0.14039,-0.39316 l 5.9829,-5.95484 -5.9829,-5.9829 q -0.14039,-0.14039 -0.14039,-0.39333 0,-0.19649 0.16844,-0.37914 0.16862,-0.18264 0.39333,-0.18264 0.19649,0 0.44943,0.16862 l 5.95485,5.95485 5.92662,-5.95485 q 0.2247,-0.16862 0.42138,-0.16862 0.2247,0 0.39333,0.16862 0.16844,0.16845 0.16844,0.39316 0,0.25294 -0.14039,0.39333 l -5.9829,5.9829 5.9829,5.95484 q 0.14039,0.16845 0.14039,0.39316 0,0.25293 -0.16844,0.42138 -0.16863,0.16862 -0.39333,0.16862 -0.22471,0 -0.42138,-0.22471 l -5.92662,-5.92681 -5.95485,5.92681 q -0.22471,0.22471 -0.44943,0.22471 -0.22471,0 -0.39333,-0.18265 -0.16844,-0.18264 -0.16844,-0.40735 z"
       style="font-size:medium;font-family:mwb_cmsy10;color-interpolation:linearRGB;fill:#262626;stroke:none;color-rendering:optimizeQuality;image-rendering:optimizeQuality;text-rendering:geometricPrecision" />
    <path
       inkscape:connector-curvature="0"
       id="path225"
       d="m 255.3947,-195.68074 -2.5281,0 0,-16.12312 q -0.92688,0.8708 -2.40153,1.74161 -1.47483,0.87079 -2.65447,1.32022 l 0,-2.44378 q 2.10672,-1.0112 3.69371,-2.42976 1.58701,-1.41838 2.26114,-2.7386 l 1.62925,0 0,20.67343 z m 6.47438,-10.16809 q 0,-3.65165 0.74442,-5.87072 0.74425,-2.21888 2.2331,-3.42676 1.48866,-1.20786 3.73577,-1.20786 1.65729,0 2.90722,0.66011 1.24994,0.66011 2.06447,1.92407 0.81454,1.26396 1.27798,3.06164 0.46362,1.79769 0.46362,4.85952 0,3.62343 -0.74442,5.85652 -0.74443,2.23309 -2.23309,3.4548 -1.48867,1.22189 -3.73578,1.22189 -2.97752,0 -4.69089,-2.1628 -2.0224,-2.55614 -2.0224,-8.37041 z m 2.58418,0 q 0,5.08405 1.19384,6.75536 1.19367,1.67113 2.93527,1.67113 1.74142,0 2.92124,-1.68515 1.17966,-1.68552 1.17966,-6.74134 0,-5.08423 -1.17966,-6.75554 -1.17982,-1.67131 -2.94928,-1.67131 -1.7416,0 -2.78085,1.48885 -1.32022,1.88182 -1.32022,6.938 z"
       style="font-size:medium;font-family:SansSerif;color-interpolation:linearRGB;fill:#262626;stroke:none;color-rendering:optimizeQuality;image-rendering:optimizeQuality;text-rendering:geometricPrecision" />
    <path
       inkscape:connector-curvature="0"
       id="path229"
       d="m 283.98911,-210.06225 0,-3.70774 -6.68525,0 0,-1.74142 7.05037,-9.99984 1.54492,0 0,9.99984 2.07867,0 0,1.74142 -2.07867,0 0,3.70774 -1.91004,0 z m 0,-5.44916 0,-6.938 -4.83129,6.938 4.83129,0 z"
       style="font-family:SansSerif;color-interpolation:linearRGB;fill:#262626;stroke:none;color-rendering:optimizeQuality;image-rendering:optimizeQuality;text-rendering:geometricPrecision" />
  </g>
  <path
     style="font-weight:bold;font-size:medium;font-family:SansSerif;color-interpolation:linearRGB;stroke:none;color-rendering:optimizeQuality;image-rendering:optimizeQuality;text-rendering:geometricPrecision"
     d="m 776.49405,29.402793 0,-22.9766396 4.6909,0 0,19.0722396 11.6286,0 0,3.9044 -16.3195,0 z m 19.6253,0 0,-16.76904 4.438,0 0,16.76904 -4.438,0 z m 0.2527,-19.7745896 2.1911,-4.71893 4.9717,0 -4.3539,4.71893 -2.8089,0 z m 23.9898,19.7745896 -4.438,0 0,-8.56708 q 0,-2.72458 -0.281,-3.51125 -0.2808,-0.7863 -0.9269,-1.23573 -0.6461,-0.44941 -1.5449,-0.44941 -1.1517,0 -2.0645,0.63189 -0.9129,0.63206 -1.2499,1.67131 -0.3371,1.03924 -0.3371,3.84812 l 0,7.61215 -4.4381,0 0,-16.76904 4.1011,0 0,2.44361 q 2.219,-2.83694 5.5334,-2.83694 1.4886,0 2.6965,0.53374 1.2079,0.53373 1.84,1.34827 0.6319,0.81452 0.8706,1.86798 0.2388,1.05326 0.2388,2.99135 l 0,10.42103 z m 14.2323,-5.33698 4.41,0.7304 q -0.8427,2.44378 -2.6825,3.72175 -1.84,1.27816 -4.6206,1.27816 -4.3819,0 -6.4606,-2.86515 -1.6573,-2.30321 -1.6573,-5.78641 0,-4.1852 2.1771,-6.54467 2.1767,-2.35947 5.5194,-2.35947 3.7358,0 5.8985,2.47183 2.1631,2.47182 2.0787,7.58409 l -11.1231,0 q 0.028,1.96613 1.0532,3.06164 1.0252,1.09552 2.5702,1.09552 1.0392,0 1.7556,-0.56178 0.7162,-0.56178 1.0814,-1.82591 z m 0.2528,-4.49423 q -0.057,-1.93808 -1.0111,-2.93527 -0.9551,-0.99699 -2.3034,-0.99699 -1.4606,0 -2.3876,1.06728 -0.9551,1.03924 -0.9551,2.86498 l 6.6572,0 z m 11.3391,-1.82574 -4.0448,-0.73021 q 0.7022,-2.44378 2.3596,-3.60941 1.6572,-1.1658 4.9155,-1.1658 2.9774,0 4.4239,0.70235 1.4467,0.70218 2.0505,1.7835 0.604,1.08149 0.604,3.9747 l -0.057,5.19639 q 0,2.19085 0.2106,3.24429 0.2107,1.05327 0.8006,2.26114 l -4.3818,0 q -0.1967,-0.44942 -0.4495,-1.32022 -0.1118,-0.39316 -0.1404,-0.50552 -1.1516,1.09552 -2.4438,1.65711 -1.292,0.56196 -2.7526,0.56196 -2.6124,0 -4.1011,-1.41855 -1.4886,-1.41857 -1.4886,-3.55331 0,-1.43258 0.6741,-2.54194 0.6742,-1.10954 1.91,-1.69936 1.2359,-0.59 3.5392,-1.03942 3.1178,-0.58982 4.2977,-1.09552 l 0,-0.44942 q 0,-1.26396 -0.632,-1.81171 -0.6321,-0.54757 -2.3735,-0.54757 -1.1799,0 -1.854,0.46344 -0.6742,0.46345 -1.0674,1.64308 z m 5.9269,3.59539 q -0.8428,0.28098 -2.6966,0.67413 -1.854,0.39334 -2.4157,0.7865 -0.8709,0.61804 -0.8709,1.57297 0,0.92706 0.7024,1.60121 0.7022,0.67413 1.7695,0.67413 1.2079,0 2.2753,-0.78667 0.8145,-0.58983 1.0673,-1.46045 0.1687,-0.58999 0.1687,-2.16298 l 0,-0.89884 z m 38.6431,8.06156 -5.084,0 -2.0224,-5.25267 -9.2412,0 -1.9101,5.25267 -4.9717,0 9.0165,-23.1732996 4.9436,0 9.2693,23.1732996 z m -8.5951,-9.15707 -3.2022,-8.59512 -3.1177,8.59512 6.3199,0 z m 19.915,-7.61197 4.1571,0 0,2.44361 q 0.7865,-1.26395 2.1629,-2.05045 1.3764,-0.78649 3.0618,-0.78649 2.9212,0 4.9577,2.28936 2.0363,2.28918 2.0363,6.39007 0,4.21343 -2.0504,6.54485 -2.0507,2.33142 -4.9719,2.33142 -1.4043,0 -2.5279,-0.56196 -1.1236,-0.56159 -2.3875,-1.90986 l 0,8.45471 -4.4381,0 0,-23.14526 z m 4.4099,8.08961 q 0,2.83693 1.1096,4.1852 1.1095,1.34828 2.7387,1.34828 1.5448,0 2.5701,-1.23592 1.0252,-1.23591 1.0252,-4.07285 0,-2.64044 -1.0533,-3.91843 -1.0534,-1.27815 -2.6263,-1.27815 -1.6292,0 -2.6965,1.25012 -1.0675,1.24993 -1.0675,3.72175 z m 15.4964,-10.36493 0,-4.1289396 4.438,0 0,4.1289396 -4.438,0 z m 0,19.04436 0,-16.76904 4.438,0 0,16.76904 -4.438,0 z m 6.8553,0 6.0392,-8.65138 -5.7862,-8.11766 5.4211,0 2.9493,4.60659 3.146,-4.60659 5.1963,0 -5.6738,7.94921 6.2076,8.81983 -5.4491,0 -3.427,-5.1964 -3.4267,5.1964 -5.1967,0 z m 29.8497,-5.33698 4.4102,0.7304 q -0.8427,2.44378 -2.6825,3.72175 -1.84,1.27816 -4.6206,1.27816 -4.3819,0 -6.4606,-2.86515 -1.6573,-2.30321 -1.6573,-5.78641 0,-4.1852 2.177,-6.54467 2.1768,-2.35947 5.5195,-2.35947 3.7358,0 5.8985,2.47183 2.163,2.47182 2.0787,7.58409 l -11.1231,0 q 0.028,1.96613 1.0532,3.06164 1.0252,1.09552 2.5701,1.09552 1.0393,0 1.7557,-0.56178 0.7162,-0.56178 1.0812,-1.82591 z m 0.253,-4.49423 q -0.057,-1.93808 -1.0112,-2.93527 -0.9551,-0.99699 -2.3033,-0.99699 -1.4606,0 -2.3876,1.06728 -0.9551,1.03924 -0.9551,2.86498 l 6.6572,0 z m 8.0246,9.83121 0,-23.1732996 4.4381,0 0,23.1732996 -4.4381,0 z m 32.6147,-11.82538 -4.3819,0.78649 q -0.2247,-1.29219 -1.0111,-1.96632 -0.7865,-0.67414 -2.0224,-0.67414 -1.6574,0 -2.6545,1.15161 -0.997,1.15178 -0.997,3.84831 0,2.97734 1.0112,4.21324 1.0112,1.23592 2.6966,1.23592 1.2639,0 2.0643,-0.73022 0.8006,-0.7304 1.1377,-2.47183 l 4.3538,0.73023 q -0.6741,3.00555 -2.5982,4.55049 -1.9241,1.54493 -5.1544,1.54493 -3.6797,0 -5.8704,-2.33142 -2.1911,-2.33142 -2.1911,-6.43231 0,-4.15734 2.1911,-6.47456 2.1907,-2.31741 5.9547,-2.31741 3.0617,0 4.8594,1.32022 1.7976,1.32023 2.6122,4.01677 z m 13.08065,6.4884 4.41,0.7304 q -0.8427,2.44378 -2.6826,3.72175 -1.8397,1.27816 -4.6205,1.27816 -4.382,0 -6.4607,-2.86515 -1.657,-2.30321 -1.657,-5.78641 0,-4.1852 2.1769,-6.54467 2.1767,-2.35947 5.5193,-2.35947 3.7358,0 5.8988,2.47183 2.1628,2.47182 2.0785,7.58409 l -11.1232,0 q 0.028,1.96613 1.0534,3.06164 1.0252,1.09552 2.57,1.09552 1.0394,0 1.7556,-0.56178 0.7163,-0.56178 1.0815,-1.82591 z m 0.2527,-4.49423 q -0.056,-1.93808 -1.0111,-2.93527 -0.955,-0.99699 -2.3034,-0.99699 -1.4606,0 -2.3875,1.06728 -0.955,1.03924 -0.955,2.86498 l 6.657,0 z m 23.277,9.83121 -4.4381,0 0,-8.56708 q 0,-2.72458 -0.2808,-3.51125 -0.2809,-0.7863 -0.9268,-1.23573 -0.6462,-0.44941 -1.5452,-0.44941 -1.1514,0 -2.0643,0.63189 -0.9129,0.63206 -1.25,1.67131 -0.337,1.03924 -0.337,3.84812 l 0,7.61215 -4.4383,0 0,-16.76904 4.1012,0 0,2.44361 q 2.2191,-2.83694 5.5336,-2.83694 1.4885,0 2.6965,0.53374 1.2077,0.53373 1.8399,1.34827 0.6318,0.81452 0.8705,1.86798 0.2388,1.05326 0.2388,2.99135 l 0,10.42103 z m 12.2099,-16.76904 0,3.53912 -3.0335,0 0,6.74133 q 0,2.05045 0.084,2.40171 0.084,0.35109 0.3933,0.56179 0.3088,0.21051 0.7582,0.21051 0.59,0 1.7697,-0.42121 l 0.3933,3.45499 q -1.573,0.67413 -3.5113,0.67413 -1.2077,0 -2.1768,-0.40735 -0.9691,-0.40736 -1.4185,-1.05345 -0.4495,-0.64591 -0.6179,-1.74142 -0.1403,-0.75844 -0.1403,-3.11791 l 0,-7.30312 -2.0507,0 0,-3.53912 2.0507,0 0,-3.3426196 4.466,-2.58418 0,5.9267996 3.0335,0 z m 7.3208,16.76904 -4.4381,0 0,-16.76904 4.1291,0 0,2.38752 q 1.0393,-1.71338 1.896,-2.24711 0.8568,-0.53374 1.9241,-0.53374 1.5169,0 2.9212,0.84276 l -1.3763,3.87618 q -1.1236,-0.73022 -2.0787,-0.73022 -0.9269,0 -1.587,0.5055 -0.66,0.5057 -1.0252,1.85397 -0.3651,1.34826 -0.3651,5.61778 l 0,5.1964 z m 11.6658,-11.65695 -4.0448,-0.73021 q 0.7021,-2.44378 2.3594,-3.60941 1.6571,-1.1658 4.9154,-1.1658 2.9775,0 4.4242,0.70235 1.4465,0.70218 2.0504,1.7835 0.6038,1.08149 0.6038,3.9747 l -0.055,5.19639 q 0,2.19085 0.2107,3.24429 0.2106,1.05327 0.8004,2.26114 l -4.3818,0 q -0.1966,-0.44942 -0.4494,-1.32022 -0.1119,-0.39316 -0.1403,-0.50552 -1.1517,1.09552 -2.4437,1.65711 -1.2922,0.56196 -2.7528,0.56196 -2.6122,0 -4.101,-1.41855 -1.4886,-1.41857 -1.4886,-3.55331 0,-1.43258 0.6741,-2.54194 0.6742,-1.10954 1.9101,-1.69936 1.2359,-0.59 3.5392,-1.03942 3.1178,-0.58982 4.2975,-1.09552 l 0,-0.44942 q 0,-1.26396 -0.632,-1.81171 -0.632,-0.54757 -2.3734,-0.54757 -1.1798,0 -1.8539,0.46344 -0.6742,0.46345 -1.0673,1.64308 z m 5.9266,3.59539 q -0.8427,0.28098 -2.6966,0.67413 -1.8537,0.39334 -2.4155,0.7865 -0.8708,0.61804 -0.8708,1.57297 0,0.92706 0.7022,1.60121 0.7023,0.67413 1.7695,0.67413 1.2079,0 2.2753,-0.78667 0.8147,-0.58983 1.0674,-1.46045 0.169,-0.58999 0.169,-2.16298 l 0,-0.89884 z m 8.7549,8.06156 0,-23.1732996 4.4381,0 0,23.1732996 -4.4381,0 z"
     id="path233"
     inkscape:connector-curvature="0" />
  <path
     d="m 234,211.2061 3.724,-3.0588 3.7241,6.2875 3.724,0.6797 3.724,-1.1895 3.7241,3.5685 3.724,-1.3594 3.724,-5.2679 3.7241,-4.0783 3.724,7.307 3.7241,-14.6141 3.724,4.0784 3.724,-6.4574 3.724,16.4833 3.7241,-14.1043 3.724,15.9735 3.7241,1.0196 3.724,8.4966 3.724,-10.3658 3.7241,0.3398 3.724,-6.6273 3.724,-3.3986 3.7241,4.928 3.724,14.4442 3.7241,-9.6861 3.724,-4.4182 3.724,-8.1567 3.7241,15.9735 3.724,-5.0979 3.724,-13.7644 3.7241,13.4245 3.724,1.8693 3.724,5.7776 3.7241,-9.3462 3.724,3.3986 3.724,-3.2287 3.7241,-1.1895 3.724,7.8169 3.724,-5.098 3.7241,5.098 3.724,-15.4638 3.7241,8.8364 3.724,-14.614 3.724,7.6469 3.7241,4.4182 3.724,-6.9672 3.724,14.9539 3.7241,1.1896 3.724,4.758 3.724,-3.9084 3.7241,-8.3266 3.724,-3.7385 3.724,-0.1699 3.7241,7.1371 3.724,11.8951 3.724,-24.1302 3.7241,0.6798 3.724,6.9671 3.724,-5.6077 3.7241,7.9868 3.724,2.7189 3.7241,-11.7253 3.724,3.2287 3.7241,-4.4182 3.724,16.8232 3.724,-4.0784 3.724,14.954 3.7241,-13.2547 3.724,-1.3594 3.724,-1.1895 3.7241,-3.3986 3.724,-0.3399 3.724,-2.7189 3.7241,5.6077 3.724,-1.3594 3.7241,-0.6797 3.724,0 3.724,0.3398 3.724,4.0784 3.7241,-17.333 3.7241,17.6728 3.724,2.8889 3.724,-7.1371 3.7241,6.4573 3.724,-2.7189 3.724,-22.7707 3.724,74.7696 3.7241,-38.0645 3.724,-8.8364 3.724,-2.549 3.7241,6.1175 3.724,-2.379 3.7241,-14.954 3.724,8.6665 3.724,-9.856 3.724,16.4833 3.7241,-1.3594 3.724,-8.3266 3.724,-1.8693 3.7241,5.9476 3.724,-5.4378 3.7241,20.9015 3.724,-32.9666 3.724,28.0386 3.7241,-11.0455 3.724,-35.3456 3.724,38.0645 3.7241,2.8888 3.724,-22.091 3.7241,-8.4965 3.724,35.3456 3.724,16.9931 3.7241,-11.0455 3.724,-4.5881 3.724,-8.8364 3.724,-18.8624 3.7241,-13.0847 3.7241,34.6659 3.724,-9.8559 3.724,14.1042 3.7241,3.0588 3.724,17.5029 3.724,0.6797 3.724,1.3594 3.7241,-48.6002 3.7241,-2.8889 3.724,47.9206 3.724,-6.7972 3.724,9.686 3.7241,-79.5277 3.724,80.7172 3.724,-28.3784 3.724,-12.5749 3.7241,-40.6136 3.7241,109.4356 3.724,-9.3462 3.724,-1.0196 3.7241,7.8169 3.724,-8.4966 3.724,15.8036 3.724,-36.0254 3.7241,-98.56 3.724,16.3134 3.724,-14.9539 3.724,-19.2022 3.7242,-2.2091 3.724,83.606 3.724,92.6124 3.724,20.2218 3.7241,-4.758 3.724,-5.9476 3.724,-22.9407 3.724,-66.2731 3.7241,-128.2979 3.7241,75.6193 3.724,-70.3515 3.724,-5.0979 3.724,55.9073 3.7241,-35.3457 3.724,75.6194 3.724,82.7564 3.724,51.3191 3.7242,-59.3059 3.724,75.1095 3.724,-186.0745 3.724,58.2864 3.7241,-49.9597 3.724,-78.3382 3.724,73.92 3.724,-22.9407 3.7241,1.5293 3.7241,-27.1889 3.724,173.3296 3.724,44.522 3.7241,19.3721 3.724,-18.8624 3.724,7.3071 3.724,9.0063 3.7241,-90.7431 3.7241,-153.4478 3.724,44.8618 3.724,-60.8353 3.7241,24.9799 3.724,-12.5749 3.724,126.7685 3.724,67.8025 3.724,-25.3197 3.7241,45.7114 3.7241,-9.3462 3.724,-4.928 3.724,-93.462 3.724,-36.3653 3.7241,-18.3525 3.724,-21.2414 3.724,66.443 3.7241,-4.4182 3.724,-4.928 3.7241,-26.5092 3.724,60.4954 3.7241,30.9275 3.7239,14.614 3.7241,-25.6595 3.724,-2.2091 3.7241,19.3721 3.724,-72.3906 3.7241,0.5098 3.724,17.3329 3.7241,-22.9407 3.7239,16.8232 3.7241,-2.7189 3.724,31.0974 3.7241,-11.8952 3.724,2.7189 3.724,1.5294 3.7241,1.1895 3.724,-11.7252 3.724,4.2483 3.7241,17.163 3.724,-17.5029 3.724,-3.5686 3.724,-3.3986 3.724,6.9672 3.7241,5.2679 3.724,8.6664 3.7242,-9.686 3.724,-4.5882 3.7241,0.8497 3.724,-0.3399 3.724,-0.1699 3.724,-2.7189 3.724,9.6861 3.7241,-9.856 3.724,11.0455 3.724,-5.9476 3.7241,0.5098 3.724,-3.5686 3.7241,10.8756 3.7239,-0.6797 3.7241,-18.3525 3.724,15.1238 3.7242,0.8497 3.724,-11.3854 3.724,7.6469 3.724,-6.7973 3.7241,11.3854 3.724,-3.9084 3.724,8.3266 3.724,-24.3001 3.7241,31.0974 3.724,-19.2022 3.7241,19.0322 3.724,-27.5288 3.7241,4.2483 3.7239,0.3398 3.7241,4.5882 3.724,3.9084 3.724,-5.6077 3.7241,-0.6797 3.724,2.8888 3.724,-0.5098 3.724,5.0979 3.7242,7.307 3.724,-4.2482 3.724,-8.1567 3.724,10.1959 3.7241,-0.6798 3.724,-13.7644 3.7241,-8.8364 3.724,18.8623 3.724,-9.686 3.724,-1.8693 3.7241,10.8756 3.724,8.8364 3.724,-5.9475 3.7241,-1.3595 3.724,2.0392 3.724,-4.2483 3.724,-5.7777 3.7242,-0.3398 3.724,-5.0979 3.724,6.1175 3.7241,18.6924 3.724,-6.1175 3.7241,0.8496 3.724,-9.5161 3.724,10.0259 3.724,-11.7252 3.724,7.9867 3.724,0.5098 3.7242,-2.0391 3.724,-8.6665 3.724,7.1371 3.724,-2.0392 3.724,-11.5553 3.724,6.9672 3.724,5.0979 3.7242,-1.6993 3.724,-9.3462 3.7241,11.0455 3.724,-0.1699 3.7241,-4.5882 3.7239,1.6993 3.724,-8.6664 3.7241,2.209 3.724,-0.5097 3.724,0.1699 3.7241,3.7385 3.7241,-1.6993 3.724,16.3133 3.724,-9.1762 3.724,-2.2091 3.7241,12.235 3.724,-3.3986 3.724,0.6797 3.724,-6.1175 3.7243,-8.1567 3.724,-1.1895 3.724,1.0196 3.7239,1.0195 3.7241,5.9476 3.724,-15.2938 3.724,13.2547 3.724,4.2482 3.7242,1.5294 3.724,0.8497 3.724,3.7384 3.724,-3.7384 3.7241,-3.2287 3.724,2.549 3.724,0.8496 3.724,-2.8888 3.7242,-12.5749 3.7241,18.6924 3.724,-6.9672 3.7239,-1.3594 3.724,2.5489 3.7241,-8.3266 3.724,8.1567 3.724,5.7777 3.724,-13.7645 3.7241,-4.4182 3.7241,10.3658 3.724,-4.4182 3.724,1.1896 3.7241,0.3398 3.724,0.8497 3.724,-9.3462 3.724,10.0259 3.7242,7.8168 3.7241,1.5294 3.724,-6.2875 3.7239,-4.9279 3.7241,5.0979 3.724,-5.4378 3.724,-6.1175 3.724,7.4769 3.7241,-0.8496 3.724,-5.4378 3.7241,8.3266 3.724,7.1371 3.7241,-4.5881 3.724,-1.5294 3.724,-4.0783 3.724,-2.0392 3.7242,3.9084 3.7239,0.3398 3.7242,-0.3398 3.7238,-7.3071 3.724,2.3791 3.7242,10.8756 3.724,-11.7253 3.724,7.6469 3.724,-4.4182 3.7241,4.4182 3.724,3.5686"
     style="color-interpolation:linearRGB;fill:none;fill-rule:evenodd;stroke:#0072bd;stroke-width:1.73329997;stroke-linecap:butt;stroke-linejoin:round;color-rendering:optimizeQuality;image-rendering:optimizeQuality;text-rendering:geometricPrecision"
     id="path237"
     inkscape:connector-curvature="0" />
</svg>
