<?xml version="1.0" encoding="UTF-8" standalone="no"?>
<svg
   xmlns:dc="http://purl.org/dc/elements/1.1/"
   xmlns:cc="http://creativecommons.org/ns#"
   xmlns:rdf="http://www.w3.org/1999/02/22-rdf-syntax-ns#"
   xmlns:svg="http://www.w3.org/2000/svg"
   xmlns="http://www.w3.org/2000/svg"
   xmlns:sodipodi="http://sodipodi.sourceforge.net/DTD/sodipodi-0.dtd"
   xmlns:inkscape="http://www.inkscape.org/namespaces/inkscape"
   style="fill-opacity:1; color-rendering:auto; color-interpolation:auto; stroke:black; text-rendering:auto; stroke-linecap:square; stroke-miterlimit:10; stroke-opacity:1; shape-rendering:auto; fill:black; stroke-dasharray:none; font-weight:normal; stroke-width:1; font-family:'Dialog'; font-style:normal; stroke-linejoin:miter; font-size:12px; stroke-dashoffset:0; image-rendering:auto;"
   width="956"
   height="604"
   id="svg2"
   version="1.1"
   inkscape:version="0.91 r13725"
   sodipodi:docname="src_spectrum.svg">
  <path
     style="font-style:normal;font-weight:normal;font-size:medium;font-family:SansSerif;color-interpolation:linearRGB;fill:#262626;fill-opacity:1;stroke:none;stroke-width:1;stroke-linecap:square;stroke-linejoin:miter;stroke-miterlimit:10;stroke-dasharray:none;stroke-dashoffset:0;stroke-opacity:1;color-rendering:optimizeQuality;image-rendering:optimizeQuality;shape-rendering:auto;text-rendering:geometricPrecision"
     d="m 71.3011,349.9842 0.5468,-2.1875 q 2.6876,0.6875 4.0938,2.4687 1.4062,1.7813 1.4062,4.3438 0,2.6718 -1.0859,4.3359 -1.0859,1.6641 -3.1406,2.5391 -2.0547,0.875 -4.4141,0.875 -2.5625,0 -4.4765,-0.9844 -1.9141,-0.9844 -2.9141,-2.7969 -1,-1.8125 -1,-4 0,-2.4687 1.2578,-4.1484 1.2578,-1.6797 3.5391,-2.3516 l 0.5156,2.1407 q -1.7969,0.5781 -2.6172,1.6718 -0.8203,1.0938 -0.8203,2.7344 0,1.9062 0.9062,3.1797 0.9063,1.2734 2.4376,1.7891 1.5312,0.5156 3.1718,0.5156 2.0938,0 3.6563,-0.6094 1.5625,-0.6094 2.3437,-1.9062 0.7813,-1.2969 0.7813,-2.7969 0,-1.8281 -1.0547,-3.1016 -1.0547,-1.2734 -3.1328,-1.7109 z m 5.7656,-12.4224 -1.75,0 q 2.0156,1.3906 2.0156,3.7813 0,1.0468 -0.4062,1.9687 -0.4063,0.9219 -1.0156,1.3594 -0.6094,0.4375 -1.5,0.625 -0.5938,0.125 -1.875,0.125 l -7.3907,0 0,-2.0313 6.6094,0 q 1.5781,0 2.1406,-0.1093 0.7969,-0.2032 1.25,-0.8204 0.4531,-0.6171 0.4531,-1.5234 0,-0.9062 -0.4687,-1.7031 -0.4687,-0.7969 -1.2734,-1.1328 -0.8047,-0.336 -2.3203,-0.336 l -6.3907,0 0,-2.0156 11.9219,0 0,1.8125 z m -3.8438,-13.1509 0.2657,-2.0781 q 1.8281,0.4844 2.8359,1.8203 1.0078,1.336 1.0078,3.4141 0,2.625 -1.6094,4.1562 -1.6093,1.5313 -4.5156,1.5313 -3.0156,0 -4.6797,-1.5469 -1.664,-1.5469 -1.664,-4.0156 0,-2.4063 1.6328,-3.9219 1.6328,-1.5156 4.5859,-1.5156 0.1719,0 0.5313,0.0156 l 0,8.8906 q 1.9687,-0.1093 3.0156,-1.1093 1.0469,-1 1.0469,-2.4844 0,-1.1094 -0.586,-1.8985 -0.5859,-0.789 -1.8672,-1.2578 z m -3.2656,6.6407 0,-6.6563 q -1.5,0.1406 -2.25,0.7656 -1.1718,0.9688 -1.1718,2.5 0,1.3907 0.9296,2.3438 0.9297,0.9531 2.4922,1.0469 z m 7.1094,-11.2603 -11.9219,0 0,-1.8125 1.6875,0 q -1.9687,-1.3281 -1.9687,-3.7969 0,-1.0781 0.3906,-1.9843 0.3906,-0.9063 1.0234,-1.3594 0.6329,-0.4531 1.4922,-0.625 0.5625,-0.1094 1.9688,-0.1094 l 7.3281,0 0,2.0156 -7.25,0 q -1.2344,0 -1.8516,0.2344 -0.6172,0.2344 -0.9765,0.8359 -0.3594,0.6016 -0.3594,1.4141 0,1.2969 0.8125,2.2344 0.8125,0.9375 3.1094,0.9375 l 6.5156,0 0,2.0156 z m -1.8125,-17.2134 1.7969,-0.2812 q 0.1718,0.8437 0.1718,1.5312 0,1.0938 -0.3515,1.7031 -0.3516,0.6094 -0.9141,0.8516 -0.5625,0.2422 -2.3906,0.2422 l -6.8594,0 0,1.4844 -1.5625,0 0,-1.4844 -2.9531,0 -1.2188,-2 4.1719,0 0,-2.0469 1.5625,0 0,2.0469 6.9844,0 q 0.8594,0 1.1094,-0.1094 0.25,-0.1094 0.3906,-0.3515 0.1406,-0.2422 0.1406,-0.6953 0,-0.3282 -0.0781,-0.8907 z m 0.3437,-9.7495 q 0.9532,1.125 1.3438,2.1641 0.3906,1.039 0.3906,2.2265 0,1.9688 -0.9609,3.0235 -0.9609,1.0547 -2.4453,1.0547 -0.875,0 -1.6016,-0.3985 -0.7266,-0.3984 -1.164,-1.0468 -0.4376,-0.6485 -0.6563,-1.461 -0.1719,-0.5937 -0.3125,-1.7969 -0.2969,-2.4375 -0.6875,-3.5937 -0.4219,-0.0156 -0.5313,-0.0156 -1.2343,0 -1.75,0.5781 -0.6718,0.7656 -0.6718,2.2969 0,1.4218 0.4922,2.1015 0.4922,0.6797 1.7734,1.0078 l -0.2812,1.9844 q -1.2657,-0.2812 -2.0469,-0.8984 -0.7813,-0.6172 -1.2031,-1.7813 -0.4219,-1.164 -0.4219,-2.7109 0,-1.5313 0.3593,-2.4844 0.3594,-0.9531 0.9063,-1.3984 0.5469,-0.4453 1.375,-0.6328 0.5156,-0.0938 1.875,-0.0938 l 2.6875,0 q 2.8281,0 3.5703,-0.1328 0.7422,-0.1328 1.4297,-0.5078 l 0,2.1094 q -0.625,0.3125 -1.4688,0.4062 z m -4.5156,0.1719 q 0.4532,1.0937 0.7656,3.2969 0.1719,1.25 0.3985,1.7656 0.2265,0.5156 0.6562,0.7969 0.4297,0.2812 0.961,0.2812 0.8125,0 1.3515,-0.6172 0.5391,-0.6172 0.5391,-1.789 0,-1.1719 -0.5156,-2.0782 -0.5157,-0.9062 -1.3907,-1.3437 -0.6874,-0.3125 -2.0312,-0.3125 l -0.7344,0 z m 2.4219,-4.3696 -0.3125,-2 q 1.2031,-0.1719 1.8438,-0.9375 0.6406,-0.7657 0.6406,-2.1563 0,-1.3906 -0.5703,-2.0625 -0.5703,-0.6719 -1.336,-0.6719 -0.6719,0 -1.0781,0.5938 -0.2656,0.4062 -0.6719,2.0625 -0.5625,2.2187 -0.9765,3.0781 -0.4141,0.8594 -1.1407,1.3047 -0.7265,0.4453 -1.6015,0.4453 -0.7969,0 -1.4766,-0.3672 -0.6797,-0.3672 -1.1172,-0.9922 -0.3594,-0.4687 -0.6015,-1.2812 -0.2422,-0.8125 -0.2422,-1.75 0,-1.4063 0.4062,-2.4688 0.4063,-1.0625 1.1016,-1.5625 0.6953,-0.5 1.8515,-0.6875 l 0.2657,1.9688 q -0.9219,0.1406 -1.4375,0.7812 -0.5156,0.6407 -0.5156,1.8282 0,1.3906 0.4609,1.9843 0.4609,0.5938 1.0703,0.5938 0.3906,0 0.7188,-0.25 0.3124,-0.25 0.5312,-0.7656 0.1094,-0.3125 0.5156,-1.7969 0.5782,-2.1406 0.9375,-2.9844 0.3594,-0.8437 1.0625,-1.3281 0.7032,-0.4844 1.7344,-0.4844 1,0 1.8984,0.5859 0.8985,0.586 1.3828,1.7032 0.4844,1.1172 0.4844,2.5078 0,2.3281 -0.9609,3.5469 -0.9609,1.2187 -2.8672,1.5625 z m 8.1406,-18.7496 -21.0469,0 0,-4.4531 1.6719,0 0,2.4375 17.6875,0 0,-2.4375 1.6875,0 0,4.4531 z m -6.0469,-14.1245 q 0.9532,1.125 1.3438,2.1641 0.3906,1.0391 0.3906,2.2266 0,1.9687 -0.9609,3.0234 -0.9609,1.0547 -2.4453,1.0547 -0.875,0 -1.6016,-0.3985 -0.7266,-0.3984 -1.164,-1.0468 -0.4376,-0.6485 -0.6563,-1.461 -0.1719,-0.5937 -0.3125,-1.7968 -0.2969,-2.4375 -0.6875,-3.5938 -0.4219,-0.0156 -0.5313,-0.0156 -1.2343,0 -1.75,0.5781 -0.6718,0.7656 -0.6718,2.2969 0,1.4219 0.4922,2.1015 0.4922,0.6797 1.7734,1.0079 l -0.2812,1.9843 q -1.2657,-0.2812 -2.0469,-0.8984 -0.7813,-0.6172 -1.2031,-1.7813 -0.4219,-1.164 -0.4219,-2.7109 0,-1.5312 0.3593,-2.4844 0.3594,-0.9531 0.9063,-1.3984 0.5469,-0.4453 1.375,-0.6328 0.5156,-0.0938 1.875,-0.0938 l 2.6875,0 q 2.8281,0 3.5703,-0.1328 0.7422,-0.1328 1.4297,-0.5078 l 0,2.1094 q -0.625,0.3125 -1.4688,0.4062 z m -4.5156,0.1719 q 0.4532,1.0938 0.7656,3.2969 0.1719,1.25 0.3985,1.7656 0.2265,0.5156 0.6562,0.7969 0.4297,0.2812 0.961,0.2812 0.8125,0 1.3515,-0.6172 0.5391,-0.6171 0.5391,-1.789 0,-1.1719 -0.5156,-2.0781 -0.5157,-0.9063 -1.3907,-1.3438 -0.6874,-0.3125 -2.0312,-0.3125 l -0.7344,0 z m 5.9844,-5.7602 -2.2969,0 0,-2.2969 2.2969,0 0,2.2969 z m 0,-13.6246 -1.75,0 q 2.0156,1.3907 2.0156,3.7813 0,1.0469 -0.4062,1.9687 -0.4063,0.9219 -1.0156,1.3594 -0.6094,0.4375 -1.5,0.625 -0.5938,0.125 -1.875,0.125 l -7.3907,0 0,-2.0312 6.6094,0 q 1.5781,0 2.1406,-0.1094 0.7969,-0.2031 1.25,-0.8203 0.4531,-0.6172 0.4531,-1.5235 0,-0.9062 -0.4687,-1.7031 -0.4687,-0.7969 -1.2734,-1.1328 -0.8047,-0.3359 -2.3203,-0.3359 l -6.3907,0 0,-2.0157 11.9219,0 0,1.8125 z m 0,-5.5571 -2.2969,0 0,-2.2969 2.2969,0 0,2.2969 z m 4.5781,-9.187 0,4.4531 -1.6875,0 0,-2.4375 -17.6875,0 0,2.4375 -1.6719,0 0,-4.4531 21.0469,0 z"
     id="path229-0"
     inkscape:connector-curvature="0" />
  <metadata
     id="metadata241">
    <rdf:RDF>
      <cc:Work
         rdf:about="">
        <dc:format>image/svg+xml</dc:format>
        <dc:type
           rdf:resource="http://purl.org/dc/dcmitype/StillImage" />
      </cc:Work>
    </rdf:RDF>
  </metadata>
  <sodipodi:namedview
     pagecolor="#ffffff"
     bordercolor="#666666"
     borderopacity="1"
     objecttolerance="10"
     gridtolerance="10"
     guidetolerance="10"
     inkscape:pageopacity="0"
     inkscape:pageshadow="2"
     inkscape:window-width="944"
     inkscape:window-height="1002"
     id="namedview239"
     showgrid="false"
     inkscape:zoom="0.73012552"
     inkscape:cx="520.05002"
     inkscape:cy="255.63908"
     inkscape:window-x="960"
     inkscape:window-y="0"
     inkscape:window-maximized="0"
     inkscape:current-layer="svg2" />
  <!--Generated by the Batik Graphics2D SVG Generator-->
  <defs
     id="genericDefs">
    <marker
       inkscape:stockid="Arrow1Mend"
       orient="auto"
       refY="0"
       refX="0"
       id="Arrow1Mend-9"
       style="overflow:visible"
       inkscape:isstock="true">
      <path
         inkscape:connector-curvature="0"
         id="path4634-7"
         d="M 0,0 5,-5 -12.5,0 5,5 0,0 Z"
         style="fill:#000000;fill-opacity:1;fill-rule:evenodd;stroke:#000000;stroke-width:1pt;stroke-opacity:1"
         transform="matrix(-0.4,0,0,-0.4,-4,0)" />
    </marker>
    <marker
       inkscape:stockid="Arrow1Mend"
       orient="auto"
       refY="0"
       refX="0"
       id="Arrow1Mend-4-0"
       style="overflow:visible"
       inkscape:isstock="true">
      <path
         inkscape:connector-curvature="0"
         id="path4634-1-9"
         d="M 0,0 5,-5 -12.5,0 5,5 0,0 Z"
         style="fill:#000000;fill-opacity:1;fill-rule:evenodd;stroke:#000000;stroke-width:1pt;stroke-opacity:1"
         transform="matrix(-0.4,0,0,-0.4,-4,0)" />
    </marker>
    <defs
       id="defs1">
      <clipPath
         id="clipPath1"
         clipPathUnits="userSpaceOnUse">
        <path
           id="path9"
           d="M0 0 L956 0 L956 604 L0 604 L0 0 Z" />
      </clipPath>
    </defs>
  </defs>
  <line
     y2="45"
     style="color-interpolation:linearRGB;fill:none;fill-opacity:0.14900004;stroke:#262626;stroke-width:0.66670001;stroke-linecap:butt;stroke-linejoin:round;stroke-opacity:0.14900004;color-rendering:optimizeQuality;image-rendering:optimizeQuality;text-rendering:geometricPrecision"
     x1="192.5175"
     x2="192.5175"
     y1="538"
     id="line23" />
  <line
     y2="45"
     style="color-interpolation:linearRGB;fill:none;fill-opacity:0.14900004;stroke:#262626;stroke-width:0.66670001;stroke-linecap:butt;stroke-linejoin:round;stroke-opacity:0.14900004;color-rendering:optimizeQuality;image-rendering:optimizeQuality;text-rendering:geometricPrecision"
     x1="287.54309"
     x2="287.54309"
     y1="538"
     id="line25" />
  <line
     y2="45"
     style="color-interpolation:linearRGB;fill:none;fill-opacity:0.14900004;stroke:#262626;stroke-width:0.66670001;stroke-linecap:butt;stroke-linejoin:round;stroke-opacity:0.14900004;color-rendering:optimizeQuality;image-rendering:optimizeQuality;text-rendering:geometricPrecision"
     x1="382.5686"
     x2="382.5686"
     y1="538"
     id="line27" />
  <line
     y2="45"
     style="color-interpolation:linearRGB;fill:none;fill-opacity:0.14900004;stroke:#262626;stroke-width:0.66670001;stroke-linecap:butt;stroke-linejoin:round;stroke-opacity:0.14900004;color-rendering:optimizeQuality;image-rendering:optimizeQuality;text-rendering:geometricPrecision"
     x1="477.59421"
     x2="477.59421"
     y1="538"
     id="line29" />
  <line
     y2="45"
     style="color-interpolation:linearRGB;fill:none;fill-opacity:0.14900004;stroke:#262626;stroke-width:0.66670001;stroke-linecap:butt;stroke-linejoin:round;stroke-opacity:0.14900004;color-rendering:optimizeQuality;image-rendering:optimizeQuality;text-rendering:geometricPrecision"
     x1="572.61981"
     x2="572.61981"
     y1="538"
     id="line31" />
  <line
     y2="45"
     style="color-interpolation:linearRGB;fill:none;fill-opacity:0.14900004;stroke:#262626;stroke-width:0.66670001;stroke-linecap:butt;stroke-linejoin:round;stroke-opacity:0.14900004;color-rendering:optimizeQuality;image-rendering:optimizeQuality;text-rendering:geometricPrecision"
     x1="667.64539"
     x2="667.64539"
     y1="538"
     id="line33" />
  <line
     y2="45"
     style="color-interpolation:linearRGB;fill:none;fill-opacity:0.14900004;stroke:#262626;stroke-width:0.66670001;stroke-linecap:butt;stroke-linejoin:round;stroke-opacity:0.14900004;color-rendering:optimizeQuality;image-rendering:optimizeQuality;text-rendering:geometricPrecision"
     x1="762.67102"
     x2="762.67102"
     y1="538"
     id="line35" />
  <line
     y2="45"
     style="color-interpolation:linearRGB;fill:none;fill-opacity:0.14900004;stroke:#262626;stroke-width:0.66670001;stroke-linecap:butt;stroke-linejoin:round;stroke-opacity:0.14900004;color-rendering:optimizeQuality;image-rendering:optimizeQuality;text-rendering:geometricPrecision"
     x1="857.69647"
     x2="857.69647"
     y1="538"
     id="line37" />
  <line
     y2="520.94897"
     style="color-interpolation:linearRGB;fill:none;fill-opacity:0.14900004;stroke:#262626;stroke-width:0.66670001;stroke-linecap:butt;stroke-linejoin:round;stroke-opacity:0.14900004;color-rendering:optimizeQuality;image-rendering:optimizeQuality;text-rendering:geometricPrecision"
     x1="865"
     x2="124"
     y1="520.94897"
     id="line39" />
  <line
     y2="461.71951"
     style="color-interpolation:linearRGB;fill:none;fill-opacity:0.14900004;stroke:#262626;stroke-width:0.66670001;stroke-linecap:butt;stroke-linejoin:round;stroke-opacity:0.14900004;color-rendering:optimizeQuality;image-rendering:optimizeQuality;text-rendering:geometricPrecision"
     x1="865"
     x2="124"
     y1="461.71951"
     id="line41" />
  <line
     y2="402.4899"
     style="color-interpolation:linearRGB;fill:none;fill-opacity:0.14900004;stroke:#262626;stroke-width:0.66670001;stroke-linecap:butt;stroke-linejoin:round;stroke-opacity:0.14900004;color-rendering:optimizeQuality;image-rendering:optimizeQuality;text-rendering:geometricPrecision"
     x1="865"
     x2="124"
     y1="402.4899"
     id="line43" />
  <line
     y2="343.26041"
     style="color-interpolation:linearRGB;fill:none;fill-opacity:0.14900004;stroke:#262626;stroke-width:0.66670001;stroke-linecap:butt;stroke-linejoin:round;stroke-opacity:0.14900004;color-rendering:optimizeQuality;image-rendering:optimizeQuality;text-rendering:geometricPrecision"
     x1="865"
     x2="124"
     y1="343.26041"
     id="line45" />
  <line
     y2="284.03091"
     style="color-interpolation:linearRGB;fill:none;fill-opacity:0.14900004;stroke:#262626;stroke-width:0.66670001;stroke-linecap:butt;stroke-linejoin:round;stroke-opacity:0.14900004;color-rendering:optimizeQuality;image-rendering:optimizeQuality;text-rendering:geometricPrecision"
     x1="865"
     x2="124"
     y1="284.03091"
     id="line47" />
  <line
     y2="224.8013"
     style="color-interpolation:linearRGB;fill:none;fill-opacity:0.14900004;stroke:#262626;stroke-width:0.66670001;stroke-linecap:butt;stroke-linejoin:round;stroke-opacity:0.14900004;color-rendering:optimizeQuality;image-rendering:optimizeQuality;text-rendering:geometricPrecision"
     x1="865"
     x2="124"
     y1="224.8013"
     id="line49" />
  <line
     y2="165.57179"
     style="color-interpolation:linearRGB;fill:none;fill-opacity:0.14900004;stroke:#262626;stroke-width:0.66670001;stroke-linecap:butt;stroke-linejoin:round;stroke-opacity:0.14900004;color-rendering:optimizeQuality;image-rendering:optimizeQuality;text-rendering:geometricPrecision"
     x1="865"
     x2="124"
     y1="165.57179"
     id="line51" />
  <line
     y2="106.3423"
     style="color-interpolation:linearRGB;fill:none;fill-opacity:0.14900004;stroke:#262626;stroke-width:0.66670001;stroke-linecap:butt;stroke-linejoin:round;stroke-opacity:0.14900004;color-rendering:optimizeQuality;image-rendering:optimizeQuality;text-rendering:geometricPrecision"
     x1="865"
     x2="124"
     y1="106.3423"
     id="line53" />
  <line
     y2="47.112701"
     style="color-interpolation:linearRGB;fill:none;fill-opacity:0.14900004;stroke:#262626;stroke-width:0.66670001;stroke-linecap:butt;stroke-linejoin:round;stroke-opacity:0.14900004;color-rendering:optimizeQuality;image-rendering:optimizeQuality;text-rendering:geometricPrecision"
     x1="865"
     x2="124"
     y1="47.112701"
     id="line55" />
  <line
     x1="124"
     x2="865"
     y1="538"
     style="color-interpolation:linearRGB;fill:none;fill-opacity:1;stroke:#262626;stroke-width:0.66670001;stroke-linecap:square;stroke-linejoin:round;stroke-opacity:1;color-rendering:optimizeQuality;image-rendering:optimizeQuality;text-rendering:geometricPrecision"
     y2="538"
     id="line57" />
  <line
     x1="124"
     x2="865"
     y1="45"
     style="color-interpolation:linearRGB;fill:none;fill-opacity:1;stroke:#262626;stroke-width:0.66670001;stroke-linecap:square;stroke-linejoin:round;stroke-opacity:1;color-rendering:optimizeQuality;image-rendering:optimizeQuality;text-rendering:geometricPrecision"
     y2="45"
     id="line59" />
  <line
     x1="192.5175"
     x2="192.5175"
     y1="538"
     style="color-interpolation:linearRGB;fill:none;fill-opacity:1;stroke:#262626;stroke-width:0.66670001;stroke-linecap:square;stroke-linejoin:round;stroke-opacity:1;color-rendering:optimizeQuality;image-rendering:optimizeQuality;text-rendering:geometricPrecision"
     y2="530.59003"
     id="line61" />
  <line
     x1="287.54309"
     x2="287.54309"
     y1="538"
     style="color-interpolation:linearRGB;fill:none;fill-opacity:1;stroke:#262626;stroke-width:0.66670001;stroke-linecap:square;stroke-linejoin:round;stroke-opacity:1;color-rendering:optimizeQuality;image-rendering:optimizeQuality;text-rendering:geometricPrecision"
     y2="530.59003"
     id="line63" />
  <line
     x1="382.5686"
     x2="382.5686"
     y1="538"
     style="color-interpolation:linearRGB;fill:none;fill-opacity:1;stroke:#262626;stroke-width:0.66670001;stroke-linecap:square;stroke-linejoin:round;stroke-opacity:1;color-rendering:optimizeQuality;image-rendering:optimizeQuality;text-rendering:geometricPrecision"
     y2="530.59003"
     id="line65" />
  <line
     x1="477.59421"
     x2="477.59421"
     y1="538"
     style="color-interpolation:linearRGB;fill:none;fill-opacity:1;stroke:#262626;stroke-width:0.66670001;stroke-linecap:square;stroke-linejoin:round;stroke-opacity:1;color-rendering:optimizeQuality;image-rendering:optimizeQuality;text-rendering:geometricPrecision"
     y2="530.59003"
     id="line67" />
  <line
     x1="572.61981"
     x2="572.61981"
     y1="538"
     style="color-interpolation:linearRGB;fill:none;fill-opacity:1;stroke:#262626;stroke-width:0.66670001;stroke-linecap:square;stroke-linejoin:round;stroke-opacity:1;color-rendering:optimizeQuality;image-rendering:optimizeQuality;text-rendering:geometricPrecision"
     y2="530.59003"
     id="line69" />
  <line
     x1="667.64539"
     x2="667.64539"
     y1="538"
     style="color-interpolation:linearRGB;fill:none;fill-opacity:1;stroke:#262626;stroke-width:0.66670001;stroke-linecap:square;stroke-linejoin:round;stroke-opacity:1;color-rendering:optimizeQuality;image-rendering:optimizeQuality;text-rendering:geometricPrecision"
     y2="530.59003"
     id="line71" />
  <line
     x1="762.67102"
     x2="762.67102"
     y1="538"
     style="color-interpolation:linearRGB;fill:none;fill-opacity:1;stroke:#262626;stroke-width:0.66670001;stroke-linecap:square;stroke-linejoin:round;stroke-opacity:1;color-rendering:optimizeQuality;image-rendering:optimizeQuality;text-rendering:geometricPrecision"
     y2="530.59003"
     id="line73" />
  <line
     x1="857.69647"
     x2="857.69647"
     y1="538"
     style="color-interpolation:linearRGB;fill:none;fill-opacity:1;stroke:#262626;stroke-width:0.66670001;stroke-linecap:square;stroke-linejoin:round;stroke-opacity:1;color-rendering:optimizeQuality;image-rendering:optimizeQuality;text-rendering:geometricPrecision"
     y2="530.59003"
     id="line75" />
  <line
     x1="192.5175"
     x2="192.5175"
     y1="45"
     style="color-interpolation:linearRGB;fill:none;fill-opacity:1;stroke:#262626;stroke-width:0.66670001;stroke-linecap:square;stroke-linejoin:round;stroke-opacity:1;color-rendering:optimizeQuality;image-rendering:optimizeQuality;text-rendering:geometricPrecision"
     y2="52.41"
     id="line77" />
  <line
     x1="287.54309"
     x2="287.54309"
     y1="45"
     style="color-interpolation:linearRGB;fill:none;fill-opacity:1;stroke:#262626;stroke-width:0.66670001;stroke-linecap:square;stroke-linejoin:round;stroke-opacity:1;color-rendering:optimizeQuality;image-rendering:optimizeQuality;text-rendering:geometricPrecision"
     y2="52.41"
     id="line79" />
  <line
     x1="382.5686"
     x2="382.5686"
     y1="45"
     style="color-interpolation:linearRGB;fill:none;fill-opacity:1;stroke:#262626;stroke-width:0.66670001;stroke-linecap:square;stroke-linejoin:round;stroke-opacity:1;color-rendering:optimizeQuality;image-rendering:optimizeQuality;text-rendering:geometricPrecision"
     y2="52.41"
     id="line81" />
  <line
     x1="477.59421"
     x2="477.59421"
     y1="45"
     style="color-interpolation:linearRGB;fill:none;fill-opacity:1;stroke:#262626;stroke-width:0.66670001;stroke-linecap:square;stroke-linejoin:round;stroke-opacity:1;color-rendering:optimizeQuality;image-rendering:optimizeQuality;text-rendering:geometricPrecision"
     y2="52.41"
     id="line83" />
  <line
     x1="572.61981"
     x2="572.61981"
     y1="45"
     style="color-interpolation:linearRGB;fill:none;fill-opacity:1;stroke:#262626;stroke-width:0.66670001;stroke-linecap:square;stroke-linejoin:round;stroke-opacity:1;color-rendering:optimizeQuality;image-rendering:optimizeQuality;text-rendering:geometricPrecision"
     y2="52.41"
     id="line85" />
  <line
     x1="667.64539"
     x2="667.64539"
     y1="45"
     style="color-interpolation:linearRGB;fill:none;fill-opacity:1;stroke:#262626;stroke-width:0.66670001;stroke-linecap:square;stroke-linejoin:round;stroke-opacity:1;color-rendering:optimizeQuality;image-rendering:optimizeQuality;text-rendering:geometricPrecision"
     y2="52.41"
     id="line87" />
  <line
     x1="762.67102"
     x2="762.67102"
     y1="45"
     style="color-interpolation:linearRGB;fill:none;fill-opacity:1;stroke:#262626;stroke-width:0.66670001;stroke-linecap:square;stroke-linejoin:round;stroke-opacity:1;color-rendering:optimizeQuality;image-rendering:optimizeQuality;text-rendering:geometricPrecision"
     y2="52.41"
     id="line89" />
  <line
     x1="857.69647"
     x2="857.69647"
     y1="45"
     style="color-interpolation:linearRGB;fill:none;fill-opacity:1;stroke:#262626;stroke-width:0.66670001;stroke-linecap:square;stroke-linejoin:round;stroke-opacity:1;color-rendering:optimizeQuality;image-rendering:optimizeQuality;text-rendering:geometricPrecision"
     y2="52.41"
     id="line91" />
  <path
     style="font-size:medium;font-family:SansSerif;color-interpolation:linearRGB;fill:#262626;stroke:none;color-rendering:optimizeQuality;image-rendering:optimizeQuality;text-rendering:geometricPrecision"
     d="m 185.0956,565.1521 0,1.7812 -9.9375,0 q -0.0312,-0.6719 0.2032,-1.2812 0.3906,-1.0157 1.2265,-2 0.8359,-0.9844 2.4141,-2.2813 2.4531,-2 3.3125,-3.1797 0.8593,-1.1797 0.8593,-2.2266 0,-1.0937 -0.789,-1.8437 -0.7891,-0.75 -2.0391,-0.75 -1.3437,0 -2.1406,0.7969 -0.7969,0.7968 -0.8125,2.2187 l -1.8906,-0.2031 q 0.1875,-2.125 1.4609,-3.2344 1.2735,-1.1094 3.4141,-1.1094 2.1718,0 3.4297,1.2032 1.2578,1.2031 1.2578,2.9687 0,0.9063 -0.3672,1.7735 -0.3672,0.8672 -1.2266,1.8359 -0.8593,0.9687 -2.8437,2.6406 -1.6563,1.4063 -2.1328,1.8985 -0.4766,0.4922 -0.7735,0.9922 l 7.375,0 z m 1.9761,-5.625 q 0,-2.6719 0.5469,-4.2969 0.5468,-1.625 1.625,-2.5078 1.0781,-0.8829 2.7187,-0.8829 1.2188,0 2.1328,0.4844 0.9141,0.4844 1.5078,1.4063 0.5938,0.9219 0.9297,2.2343 0.336,1.3126 0.336,3.5626 0,2.6406 -0.5391,4.2656 -0.5391,1.625 -1.625,2.5078 -1.0859,0.8828 -2.7422,0.8828 -2.1719,0 -3.4062,-1.5469 -1.4844,-1.875 -1.4844,-6.1093 z m 1.8906,0 q 0,3.6874 0.8672,4.914 0.8672,1.2266 2.1328,1.2266 1.2813,0 2.1485,-1.2266 0.8671,-1.2266 0.8671,-4.914 0,-3.7188 -0.8671,-4.9376 -0.8672,-1.2187 -2.1641,-1.2187 -1.2656,0 -2.0313,1.0781 -0.9531,1.375 -0.9531,5.0782 z m 9.7886,0 q 0,-2.6719 0.5469,-4.2969 0.5468,-1.625 1.625,-2.5078 1.0781,-0.8829 2.7187,-0.8829 1.2188,0 2.1328,0.4844 0.9141,0.4844 1.5078,1.4063 0.5938,0.9219 0.9297,2.2343 0.336,1.3126 0.336,3.5626 0,2.6406 -0.5391,4.2656 -0.5391,1.625 -1.625,2.5078 -1.0859,0.8828 -2.7422,0.8828 -2.1719,0 -3.4062,-1.5469 -1.4844,-1.875 -1.4844,-6.1093 z m 1.8906,0 q 0,3.6874 0.8672,4.914 0.8672,1.2266 2.1328,1.2266 1.2813,0 2.1485,-1.2266 0.8671,-1.2266 0.8671,-4.914 0,-3.7188 -0.8671,-4.9376 -0.8672,-1.2187 -2.1641,-1.2187 -1.2656,0 -2.0313,1.0781 -0.9531,1.375 -0.9531,5.0782 z"
     id="path95"
     inkscape:connector-curvature="0" />
  <path
     style="font-size:medium;font-family:SansSerif;color-interpolation:linearRGB;fill:#262626;stroke:none;color-rendering:optimizeQuality;image-rendering:optimizeQuality;text-rendering:geometricPrecision"
     d="m 270.4181,562.9645 1.8594,-0.25 q 0.3125,1.5782 1.0781,2.2657 0.7656,0.6875 1.8594,0.6875 1.2969,0 2.1953,-0.8985 0.8984,-0.8984 0.8984,-2.2421 0,-1.2657 -0.8281,-2.0938 -0.8281,-0.8281 -2.1094,-0.8281 -0.5312,0 -1.3125,0.2187 l 0.2188,-1.625 q 0.1718,0.0156 0.2968,0.0156 1.1719,0 2.1172,-0.6171 0.9454,-0.6172 0.9454,-1.8985 0,-1.0156 -0.6876,-1.6797 -0.6874,-0.664 -1.7812,-0.664 -1.0781,0 -1.7891,0.6797 -0.7109,0.6796 -0.9297,2.0234 l -1.8437,-0.3281 q 0.3437,-1.8438 1.5391,-2.8672 1.1953,-1.0235 2.9922,-1.0235 1.2187,0 2.2578,0.5313 1.039,0.5313 1.5859,1.4375 0.5469,0.9062 0.5469,1.9375 0,0.9687 -0.5235,1.7734 -0.5234,0.8047 -1.539,1.2735 1.3281,0.3125 2.0625,1.2812 0.7344,0.9688 0.7344,2.4219 0,1.9687 -1.4297,3.3359 -1.4297,1.3672 -3.6329,1.3672 -1.9687,0 -3.2812,-1.1797 -1.3125,-1.1797 -1.5,-3.0547 z m 11.6792,-3.4374 q 0,-2.6719 0.5469,-4.2969 0.5468,-1.625 1.625,-2.5078 1.0781,-0.8829 2.7187,-0.8829 1.2188,0 2.1328,0.4844 0.9141,0.4844 1.5078,1.4063 0.5938,0.9219 0.9297,2.2343 0.336,1.3126 0.336,3.5626 0,2.6406 -0.5391,4.2656 -0.5391,1.625 -1.625,2.5078 -1.0859,0.8828 -2.7422,0.8828 -2.1719,0 -3.4062,-1.5469 -1.4844,-1.875 -1.4844,-6.1093 z m 1.8906,0 q 0,3.6874 0.8672,4.914 0.8672,1.2266 2.1328,1.2266 1.2813,0 2.1485,-1.2266 0.8671,-1.2266 0.8671,-4.914 0,-3.7188 -0.8671,-4.9376 -0.8672,-1.2187 -2.1641,-1.2187 -1.2656,0 -2.0313,1.0781 -0.9531,1.375 -0.9531,5.0782 z m 9.7886,0 q 0,-2.6719 0.5469,-4.2969 0.5468,-1.625 1.625,-2.5078 1.0781,-0.8829 2.7187,-0.8829 1.2188,0 2.1328,0.4844 0.9141,0.4844 1.5078,1.4063 0.5938,0.9219 0.9297,2.2343 0.336,1.3126 0.336,3.5626 0,2.6406 -0.5391,4.2656 -0.5391,1.625 -1.625,2.5078 -1.0859,0.8828 -2.7422,0.8828 -2.1719,0 -3.4062,-1.5469 -1.4844,-1.875 -1.4844,-6.1093 z m 1.8906,0 q 0,3.6874 0.8672,4.914 0.8672,1.2266 2.1328,1.2266 1.2813,0 2.1485,-1.2266 0.8671,-1.2266 0.8671,-4.914 0,-3.7188 -0.8671,-4.9376 -0.8672,-1.2187 -2.1641,-1.2187 -1.2656,0 -2.0313,1.0781 -0.9531,1.375 -0.9531,5.0782 z"
     id="path99"
     inkscape:connector-curvature="0" />
  <path
     style="font-size:medium;font-family:SansSerif;color-interpolation:linearRGB;fill:#262626;stroke:none;color-rendering:optimizeQuality;image-rendering:optimizeQuality;text-rendering:geometricPrecision"
     d="m 371.3498,566.9333 0,-3.5938 -6.5156,0 0,-1.7031 6.8594,-9.7343 1.5156,0 0,9.7343 2.0313,0 0,1.7031 -2.0313,0 0,3.5938 -1.8594,0 z m 0,-5.2969 0,-6.7656 -4.7031,6.7656 4.7031,0 z m 5.773,-2.1093 q 0,-2.6719 0.5469,-4.2969 0.5468,-1.625 1.625,-2.5078 1.0781,-0.8829 2.7187,-0.8829 1.2188,0 2.1328,0.4844 0.9141,0.4844 1.5078,1.4063 0.5938,0.9219 0.9297,2.2343 0.336,1.3126 0.336,3.5626 0,2.6406 -0.5391,4.2656 -0.5391,1.625 -1.625,2.5078 -1.0859,0.8828 -2.7422,0.8828 -2.1719,0 -3.4062,-1.5469 -1.4844,-1.875 -1.4844,-6.1093 z m 1.8906,0 q 0,3.6874 0.8672,4.914 0.8672,1.2266 2.1328,1.2266 1.2813,0 2.1485,-1.2266 0.8671,-1.2266 0.8671,-4.914 0,-3.7188 -0.8671,-4.9376 -0.8672,-1.2187 -2.1641,-1.2187 -1.2656,0 -2.0313,1.0781 -0.9531,1.375 -0.9531,5.0782 z m 9.7886,0 q 0,-2.6719 0.5469,-4.2969 0.5468,-1.625 1.625,-2.5078 1.0781,-0.8829 2.7187,-0.8829 1.2188,0 2.1328,0.4844 0.9141,0.4844 1.5078,1.4063 0.5938,0.9219 0.9297,2.2343 0.336,1.3126 0.336,3.5626 0,2.6406 -0.5391,4.2656 -0.5391,1.625 -1.625,2.5078 -1.0859,0.8828 -2.7422,0.8828 -2.1719,0 -3.4062,-1.5469 -1.4844,-1.875 -1.4844,-6.1093 z m 1.8906,0 q 0,3.6874 0.8672,4.914 0.8672,1.2266 2.1328,1.2266 1.2813,0 2.1485,-1.2266 0.8671,-1.2266 0.8671,-4.914 0,-3.7188 -0.8671,-4.9376 -0.8672,-1.2187 -2.1641,-1.2187 -1.2656,0 -2.0313,1.0781 -0.9531,1.375 -0.9531,5.0782 z"
     id="path103"
     inkscape:connector-curvature="0" />
  <path
     style="font-size:medium;font-family:SansSerif;color-interpolation:linearRGB;fill:#262626;stroke:none;color-rendering:optimizeQuality;image-rendering:optimizeQuality;text-rendering:geometricPrecision"
     d="m 460.4692,562.9958 1.9375,-0.1719 q 0.2187,1.4219 1,2.1328 0.7813,0.711 1.8906,0.711 1.3281,0 2.25,-1 0.9219,-1 0.9219,-2.6719 0,-1.5781 -0.8828,-2.4922 -0.8828,-0.9141 -2.3203,-0.9141 -0.8907,0 -1.6094,0.4063 -0.7187,0.4063 -1.125,1.0625 l -1.7344,-0.2344 1.4531,-7.7187 7.4688,0 0,1.7656 -6,0 -0.7969,4.0313 q 1.3438,-0.9376 2.8281,-0.9376 1.9688,0 3.3282,1.3672 1.3594,1.3672 1.3594,3.5078 0,2.0313 -1.1876,3.5313 -1.4531,1.8125 -3.9531,1.8125 -2.0469,0 -3.3437,-1.1484 -1.2969,-1.1485 -1.4844,-3.0391 z m 11.6792,-3.4687 q 0,-2.6719 0.5469,-4.2969 0.5468,-1.625 1.625,-2.5078 1.0781,-0.8829 2.7187,-0.8829 1.2188,0 2.1328,0.4844 0.9141,0.4844 1.5078,1.4063 0.5938,0.9219 0.9297,2.2343 0.336,1.3126 0.336,3.5626 0,2.6406 -0.5391,4.2656 -0.5391,1.625 -1.625,2.5078 -1.0859,0.8828 -2.7422,0.8828 -2.1719,0 -3.4062,-1.5469 -1.4844,-1.875 -1.4844,-6.1093 z m 1.8906,0 q 0,3.6874 0.8672,4.914 0.8672,1.2266 2.1328,1.2266 1.2813,0 2.1485,-1.2266 0.8671,-1.2266 0.8671,-4.914 0,-3.7188 -0.8671,-4.9376 -0.8672,-1.2187 -2.1641,-1.2187 -1.2656,0 -2.0313,1.0781 -0.9531,1.375 -0.9531,5.0782 z m 9.7886,0 q 0,-2.6719 0.5469,-4.2969 0.5468,-1.625 1.625,-2.5078 1.0781,-0.8829 2.7187,-0.8829 1.2188,0 2.1328,0.4844 0.9141,0.4844 1.5078,1.4063 0.5938,0.9219 0.9297,2.2343 0.336,1.3126 0.336,3.5626 0,2.6406 -0.5391,4.2656 -0.5391,1.625 -1.625,2.5078 -1.0859,0.8828 -2.7422,0.8828 -2.1719,0 -3.4062,-1.5469 -1.4844,-1.875 -1.4844,-6.1093 z m 1.8906,0 q 0,3.6874 0.8672,4.914 0.8672,1.2266 2.1328,1.2266 1.2813,0 2.1485,-1.2266 0.8671,-1.2266 0.8671,-4.914 0,-3.7188 -0.8671,-4.9376 -0.8672,-1.2187 -2.1641,-1.2187 -1.2656,0 -2.0313,1.0781 -0.9531,1.375 -0.9531,5.0782 z"
     id="path107"
     inkscape:connector-curvature="0" />
  <path
     style="font-size:medium;font-family:SansSerif;color-interpolation:linearRGB;fill:#262626;stroke:none;color-rendering:optimizeQuality;image-rendering:optimizeQuality;text-rendering:geometricPrecision"
     d="m 565.0729,555.5895 -1.8437,0.1407 q -0.2344,-1.0938 -0.6875,-1.5781 -0.75,-0.7969 -1.8438,-0.7969 -0.8906,0 -1.5625,0.5 -0.8594,0.625 -1.3672,1.8437 -0.5078,1.2188 -0.5234,3.4844 0.6719,-1.0156 1.6328,-1.5078 0.961,-0.4922 2.0234,-0.4922 1.8438,0 3.1407,1.3594 1.2969,1.3594 1.2969,3.5156 0,1.4062 -0.6094,2.625 -0.6094,1.2188 -1.6797,1.8594 -1.0703,0.6406 -2.4141,0.6406 -2.3125,0 -3.7656,-1.6953 -1.4531,-1.6953 -1.4531,-5.5859 0,-4.3594 1.6093,-6.3438 1.3907,-1.7188 3.7813,-1.7188 1.7656,0 2.8984,0.9922 1.1329,0.9922 1.3672,2.7578 z m -7.5469,6.4688 q 0,0.9531 0.4063,1.8281 0.4063,0.875 1.1328,1.3281 0.7266,0.4532 1.5391,0.4532 1.1562,0 2,-0.9375 0.8437,-0.9375 0.8437,-2.5625 0,-1.5625 -0.8281,-2.461 -0.8281,-0.8984 -2.0938,-0.8984 -1.25,0 -2.125,0.8984 -0.875,0.8985 -0.875,2.3516 z m 9.648,-2.5312 q 0,-2.6719 0.5469,-4.2969 0.5468,-1.625 1.625,-2.5078 1.0781,-0.8829 2.7187,-0.8829 1.2188,0 2.1328,0.4844 0.9141,0.4844 1.5078,1.4063 0.5938,0.9219 0.9297,2.2343 0.336,1.3126 0.336,3.5626 0,2.6406 -0.5391,4.2656 -0.5391,1.625 -1.625,2.5078 -1.0859,0.8828 -2.7422,0.8828 -2.1719,0 -3.4062,-1.5469 -1.4844,-1.875 -1.4844,-6.1093 z m 1.8906,0 q 0,3.6874 0.8672,4.914 0.8672,1.2266 2.1328,1.2266 1.2813,0 2.1485,-1.2266 0.8671,-1.2266 0.8671,-4.914 0,-3.7188 -0.8671,-4.9376 -0.8672,-1.2187 -2.1641,-1.2187 -1.2656,0 -2.0313,1.0781 -0.9531,1.375 -0.9531,5.0782 z m 9.7886,0 q 0,-2.6719 0.5469,-4.2969 0.5468,-1.625 1.625,-2.5078 1.0781,-0.8829 2.7187,-0.8829 1.2188,0 2.1328,0.4844 0.9141,0.4844 1.5078,1.4063 0.5938,0.9219 0.9297,2.2343 0.336,1.3126 0.336,3.5626 0,2.6406 -0.5391,4.2656 -0.5391,1.625 -1.625,2.5078 -1.0859,0.8828 -2.7422,0.8828 -2.1719,0 -3.4062,-1.5469 -1.4844,-1.875 -1.4844,-6.1093 z m 1.8906,0 q 0,3.6874 0.8672,4.914 0.8672,1.2266 2.1328,1.2266 1.2813,0 2.1485,-1.2266 0.8671,-1.2266 0.8671,-4.914 0,-3.7188 -0.8671,-4.9376 -0.8672,-1.2187 -2.1641,-1.2187 -1.2656,0 -2.0313,1.0781 -0.9531,1.375 -0.9531,5.0782 z"
     id="path111"
     inkscape:connector-curvature="0" />
  <path
     style="font-size:medium;font-family:SansSerif;color-interpolation:linearRGB;fill:#262626;stroke:none;color-rendering:optimizeQuality;image-rendering:optimizeQuality;text-rendering:geometricPrecision"
     d="m 650.6454,553.8708 0,-1.7813 9.7188,0 0,1.4376 q -1.4219,1.5312 -2.836,4.0624 -1.414,2.5313 -2.1797,5.2188 -0.5625,1.875 -0.7031,4.125 l -1.9062,0 q 0.0312,-1.7812 0.6953,-4.2891 0.664,-2.5078 1.914,-4.8437 1.25,-2.336 2.6563,-3.9297 l -7.3594,0 z m 11.5542,5.6563 q 0,-2.6719 0.5469,-4.2969 0.5468,-1.625 1.625,-2.5078 1.0781,-0.8829 2.7187,-0.8829 1.2188,0 2.1328,0.4844 0.9141,0.4844 1.5078,1.4063 0.5938,0.9219 0.9297,2.2343 0.336,1.3126 0.336,3.5626 0,2.6406 -0.5391,4.2656 -0.5391,1.625 -1.625,2.5078 -1.0859,0.8828 -2.7422,0.8828 -2.1719,0 -3.4062,-1.5469 -1.4844,-1.875 -1.4844,-6.1093 z m 1.8906,0 q 0,3.6874 0.8672,4.914 0.8672,1.2266 2.1328,1.2266 1.2813,0 2.1485,-1.2266 0.8671,-1.2266 0.8671,-4.914 0,-3.7188 -0.8671,-4.9376 -0.8672,-1.2187 -2.1641,-1.2187 -1.2656,0 -2.0313,1.0781 -0.9531,1.375 -0.9531,5.0782 z m 9.7886,0 q 0,-2.6719 0.5469,-4.2969 0.5468,-1.625 1.625,-2.5078 1.0781,-0.8829 2.7187,-0.8829 1.2188,0 2.1328,0.4844 0.9141,0.4844 1.5078,1.4063 0.5938,0.9219 0.9297,2.2343 0.336,1.3126 0.336,3.5626 0,2.6406 -0.5391,4.2656 -0.5391,1.625 -1.625,2.5078 -1.0859,0.8828 -2.7422,0.8828 -2.1719,0 -3.4062,-1.5469 -1.4844,-1.875 -1.4844,-6.1093 z m 1.8906,0 q 0,3.6874 0.8672,4.914 0.8672,1.2266 2.1328,1.2266 1.2813,0 2.1485,-1.2266 0.8671,-1.2266 0.8671,-4.914 0,-3.7188 -0.8671,-4.9376 -0.8672,-1.2187 -2.1641,-1.2187 -1.2656,0 -2.0313,1.0781 -0.9531,1.375 -0.9531,5.0782 z"
     id="path115"
     inkscape:connector-curvature="0" />
  <path
     style="font-size:medium;font-family:SansSerif;color-interpolation:linearRGB;fill:#262626;stroke:none;color-rendering:optimizeQuality;image-rendering:optimizeQuality;text-rendering:geometricPrecision"
     d="m 748.3898,558.7771 q -1.1563,-0.4219 -1.711,-1.1954 -0.5547,-0.7734 -0.5547,-1.8672 0,-1.6406 1.1797,-2.7578 1.1797,-1.1172 3.1328,-1.1172 1.9688,0 3.1719,1.1407 1.2031,1.1406 1.2031,2.7812 0,1.0469 -0.5468,1.8203 -0.5469,0.7735 -1.6719,1.1954 1.3906,0.4531 2.1093,1.4609 0.7188,1.0078 0.7188,2.3984 0,1.9219 -1.3594,3.2344 -1.3594,1.3125 -3.5937,1.3125 -2.2188,0 -3.586,-1.3125 -1.3671,-1.3125 -1.3671,-3.2813 0,-1.4687 0.75,-2.4609 0.75,-0.9922 2.125,-1.3515 z m -0.375,-3.125 q 0,1.0624 0.6874,1.7421 0.6876,0.6797 1.7813,0.6797 1.0625,0 1.75,-0.6718 0.6875,-0.6719 0.6875,-1.6407 0,-1.0156 -0.7031,-1.7109 -0.7031,-0.6953 -1.75,-0.6953 -1.0625,0 -1.7578,0.6797 -0.6953,0.6796 -0.6953,1.6172 z m -0.5938,6.9374 q 0,0.7969 0.375,1.5313 0.375,0.7344 1.1094,1.1406 0.7344,0.4063 1.5937,0.4063 1.3125,0 2.1797,-0.8516 0.8672,-0.8516 0.8672,-2.164 0,-1.3282 -0.8906,-2.2032 -0.8906,-0.875 -2.2188,-0.875 -1.3125,0 -2.164,0.8672 -0.8516,0.8672 -0.8516,2.1484 z m 9.8042,-3.0624 q 0,-2.6719 0.5469,-4.2969 0.5468,-1.625 1.625,-2.5078 1.0781,-0.8829 2.7187,-0.8829 1.2188,0 2.1328,0.4844 0.9141,0.4844 1.5078,1.4063 0.5938,0.9219 0.9297,2.2343 0.336,1.3126 0.336,3.5626 0,2.6406 -0.5391,4.2656 -0.5391,1.625 -1.625,2.5078 -1.0859,0.8828 -2.7422,0.8828 -2.1719,0 -3.4062,-1.5469 -1.4844,-1.875 -1.4844,-6.1093 z m 1.8906,0 q 0,3.6874 0.8672,4.914 0.8672,1.2266 2.1328,1.2266 1.2813,0 2.1485,-1.2266 0.8671,-1.2266 0.8671,-4.914 0,-3.7188 -0.8671,-4.9376 -0.8672,-1.2187 -2.1641,-1.2187 -1.2656,0 -2.0313,1.0781 -0.9531,1.375 -0.9531,5.0782 z m 9.7886,0 q 0,-2.6719 0.5469,-4.2969 0.5468,-1.625 1.625,-2.5078 1.0781,-0.8829 2.7187,-0.8829 1.2188,0 2.1328,0.4844 0.9141,0.4844 1.5078,1.4063 0.5938,0.9219 0.9297,2.2343 0.336,1.3126 0.336,3.5626 0,2.6406 -0.5391,4.2656 -0.5391,1.625 -1.625,2.5078 -1.0859,0.8828 -2.7422,0.8828 -2.1719,0 -3.4062,-1.5469 -1.4844,-1.875 -1.4844,-6.1093 z m 1.8906,0 q 0,3.6874 0.8672,4.914 0.8672,1.2266 2.1328,1.2266 1.2813,0 2.1485,-1.2266 0.8671,-1.2266 0.8671,-4.914 0,-3.7188 -0.8671,-4.9376 -0.8672,-1.2187 -2.1641,-1.2187 -1.2656,0 -2.0313,1.0781 -0.9531,1.375 -0.9531,5.0782 z"
     id="path119"
     inkscape:connector-curvature="0" />
  <path
     style="font-size:medium;font-family:SansSerif;color-interpolation:linearRGB;fill:#262626;stroke:none;color-rendering:optimizeQuality;image-rendering:optimizeQuality;text-rendering:geometricPrecision"
     d="m 840.8527,563.4645 1.7657,-0.1718 q 0.2187,1.25 0.8593,1.8125 0.6407,0.5625 1.6407,0.5625 0.8437,0 1.4843,-0.3906 0.6407,-0.3907 1.0547,-1.0391 0.4141,-0.6485 0.6875,-1.7578 0.2735,-1.1094 0.2735,-2.25 0,-0.125 -0.0157,-0.375 -0.5468,0.8906 -1.5078,1.4375 -0.9609,0.5468 -2.0703,0.5468 -1.875,0 -3.164,-1.3515 -1.2891,-1.3516 -1.2891,-3.5703 0,-2.2969 1.3438,-3.6875 1.3437,-1.3907 3.375,-1.3907 1.4687,0 2.6874,0.7891 1.2188,0.7891 1.8438,2.25 0.625,1.4609 0.625,4.2266 0,2.8906 -0.625,4.5937 -0.625,1.7032 -1.8594,2.5938 -1.2344,0.8906 -2.8906,0.8906 -1.7656,0 -2.8828,-0.9766 -1.1172,-0.9765 -1.336,-2.7422 z m 7.5469,-6.6406 q 0,-1.5937 -0.8437,-2.5234 -0.8438,-0.9297 -2.0313,-0.9297 -1.2343,0 -2.1484,1 -0.9141,1 -0.9141,2.6094 0,1.4375 0.8672,2.3281 0.8672,0.8906 2.1328,0.8906 1.2969,0 2.1172,-0.8906 0.8203,-0.8906 0.8203,-2.4844 z m 3.8511,2.7032 q 0,-2.6719 0.5469,-4.2969 0.5468,-1.625 1.625,-2.5078 1.0781,-0.8829 2.7187,-0.8829 1.2188,0 2.1328,0.4844 0.9141,0.4844 1.5078,1.4063 0.5938,0.9219 0.9297,2.2343 0.336,1.3126 0.336,3.5626 0,2.6406 -0.5391,4.2656 -0.5391,1.625 -1.625,2.5078 -1.0859,0.8828 -2.7422,0.8828 -2.1719,0 -3.4062,-1.5469 -1.4844,-1.875 -1.4844,-6.1093 z m 1.8906,0 q 0,3.6874 0.8672,4.914 0.8672,1.2266 2.1328,1.2266 1.2813,0 2.1485,-1.2266 0.8671,-1.2266 0.8671,-4.914 0,-3.7188 -0.8671,-4.9376 -0.8672,-1.2187 -2.1641,-1.2187 -1.2656,0 -2.0313,1.0781 -0.9531,1.375 -0.9531,5.0782 z m 9.7886,0 q 0,-2.6719 0.5469,-4.2969 0.5468,-1.625 1.625,-2.5078 1.0781,-0.8829 2.7187,-0.8829 1.2188,0 2.1328,0.4844 0.9141,0.4844 1.5078,1.4063 0.5938,0.9219 0.9297,2.2343 0.336,1.3126 0.336,3.5626 0,2.6406 -0.5391,4.2656 -0.5391,1.625 -1.625,2.5078 -1.0859,0.8828 -2.7422,0.8828 -2.1719,0 -3.4062,-1.5469 -1.4844,-1.875 -1.4844,-6.1093 z m 1.8906,0 q 0,3.6874 0.8672,4.914 0.8672,1.2266 2.1328,1.2266 1.2813,0 2.1485,-1.2266 0.8671,-1.2266 0.8671,-4.914 0,-3.7188 -0.8671,-4.9376 -0.8672,-1.2187 -2.1641,-1.2187 -1.2656,0 -2.0313,1.0781 -0.9531,1.375 -0.9531,5.0782 z"
     id="path123"
     inkscape:connector-curvature="0" />
  <path
     style="font-size:medium;font-family:SansSerif;color-interpolation:linearRGB;fill:#262626;stroke:none;color-rendering:optimizeQuality;image-rendering:optimizeQuality;text-rendering:geometricPrecision"
     d="m 381.6879,597.2667 0,-16.4688 2.1719,0 0,14.5313 8.1094,0 0,1.9375 -10.2813,0 z m 11.8696,-5.9688 q 0,-3.3124 1.8438,-4.9062 1.5312,-1.3281 3.75,-1.3281 2.4531,0 4.0156,1.6172 1.5625,1.6171 1.5625,4.4609 0,2.2969 -0.6875,3.6172 -0.6875,1.3203 -2.0078,2.0469 -1.3203,0.7265 -2.8828,0.7265 -2.5,0 -4.0469,-1.6015 -1.5469,-1.6016 -1.5469,-4.6329 z m 2.0782,0 q 0,2.2969 1,3.4376 1,1.1406 2.5156,1.1406 1.5,0 2.5,-1.1485 1,-1.1484 1,-3.4921 0,-2.2188 -1.0078,-3.3516 -1.0078,-1.1328 -2.4922,-1.1328 -1.5156,0 -2.5156,1.1328 -1,1.1328 -1,3.414 z m 11.4633,5.9688 0,-11.9219 1.8125,0 0,1.6875 q 1.3282,-1.9687 3.7969,-1.9687 1.0781,0 1.9844,0.3906 0.9062,0.3906 1.3594,1.0234 0.4531,0.6329 0.625,1.4922 0.1093,0.5625 0.1093,1.9688 l 0,7.3281 -2.0156,0 0,-7.25 q 0,-1.2344 -0.2344,-1.8516 -0.2343,-0.6172 -0.8359,-0.9765 -0.6016,-0.3594 -1.4141,-0.3594 -1.2968,0 -2.2343,0.8125 -0.9375,0.8125 -0.9375,3.1094 l 0,6.5156 -2.0157,0 z m 12.4165,0.9844 1.9688,0.2968 q 0.125,0.9063 0.6875,1.3282 0.75,0.5625 2.0469,0.5625 1.4062,0 2.1718,-0.5625 0.7657,-0.5625 1.0313,-1.5782 0.1562,-0.6093 0.1562,-2.5937 -1.3281,1.5625 -3.3125,1.5625 -2.4531,0 -3.8047,-1.7734 -1.3515,-1.7735 -1.3515,-4.2578 0,-1.7032 0.625,-3.1485 0.625,-1.4453 1.7969,-2.2344 1.1718,-0.789 2.75,-0.789 2.1093,0 3.4843,1.7187 l 0,-1.4375 1.8594,0 0,10.2969 q 0,2.7969 -0.5625,3.9609 -0.5625,1.1641 -1.7969,1.836 -1.2343,0.6719 -3.0312,0.6719 -2.125,0 -3.4453,-0.961 -1.3203,-0.9609 -1.2735,-2.8984 z m 1.6719,-7.1563 q 0,2.3438 0.9375,3.4219 0.9375,1.0781 2.3438,1.0781 1.3906,0 2.3281,-1.0703 0.9375,-1.0703 0.9375,-3.3672 0,-2.1875 -0.9688,-3.2968 -0.9687,-1.1094 -2.3437,-1.1094 -1.3438,0 -2.2891,1.0937 -0.9453,1.0938 -0.9453,3.25 z m 11.5103,-7.9687 0,-2.3282 2.0156,0 0,2.3282 -2.0156,0 z m 0,14.1406 0,-11.9219 2.0156,0 0,11.9219 -2.0156,0 z m 9.5161,-1.8125 0.2812,1.7969 q -0.8437,0.1718 -1.5312,0.1718 -1.0938,0 -1.7031,-0.3515 -0.6094,-0.3516 -0.8516,-0.9141 -0.2422,-0.5625 -0.2422,-2.3906 l 0,-6.8594 -1.4844,0 0,-1.5625 1.4844,0 0,-2.9531 2,-1.2188 0,4.1719 2.0469,0 0,1.5625 -2.0469,0 0,6.9844 q 0,0.8594 0.1094,1.1094 0.1094,0.25 0.3515,0.3906 0.2422,0.1406 0.6954,0.1406 0.3281,0 0.8906,-0.0781 z m 9.7807,1.8125 0,-1.75 q -1.3906,2.0156 -3.7812,2.0156 -1.0469,0 -1.9688,-0.4062 -0.9218,-0.4063 -1.3593,-1.0156 -0.4375,-0.6094 -0.625,-1.5 -0.125,-0.5938 -0.125,-1.875 l 0,-7.3907 2.0312,0 0,6.6094 q 0,1.5781 0.1094,2.1406 0.2031,0.7969 0.8203,1.25 0.6172,0.4531 1.5234,0.4531 0.9063,0 1.7032,-0.4687 0.7968,-0.4687 1.1328,-1.2734 0.3359,-0.8047 0.3359,-2.3203 l 0,-6.3907 2.0156,0 0,11.9219 -1.8125,0 z m 12.7134,0 0,-1.5 q -1.125,1.7656 -3.3281,1.7656 -1.4219,0 -2.625,-0.7812 -1.2031,-0.7813 -1.8594,-2.1953 -0.6562,-1.4141 -0.6562,-3.2422 0,-1.7813 0.6015,-3.2344 0.6016,-1.4531 1.7891,-2.2344 1.1875,-0.7812 2.6562,-0.7812 1.0782,0 1.9219,0.4609 0.8438,0.461 1.375,1.1797 l 0,-5.9063 2,0 0,16.4688 -1.875,0 z m -6.3906,-5.9531 q 0,2.2969 0.9687,3.4297 0.9688,1.1328 2.2813,1.1328 1.3281,0 2.25,-1.086 0.9219,-1.0859 0.9219,-3.3046 0,-2.4532 -0.9375,-3.5938 -0.9375,-1.1406 -2.3282,-1.1406 -1.3437,0 -2.25,1.0937 -0.9062,1.0938 -0.9062,3.4688 z m 25.5723,5.9531 0,-1.5 q -1.125,1.7656 -3.3282,1.7656 -1.4218,0 -2.625,-0.7812 -1.2031,-0.7813 -1.8593,-2.1953 -0.6563,-1.4141 -0.6563,-3.2422 0,-1.7813 0.6016,-3.2344 0.6015,-1.4531 1.789,-2.2344 1.1875,-0.7812 2.6563,-0.7812 1.0781,0 1.9219,0.4609 0.8437,0.461 1.375,1.1797 l 0,-5.9063 2,0 0,16.4688 -1.875,0 z m -6.3907,-5.9531 q 0,2.2969 0.9688,3.4297 0.9687,1.1328 2.2812,1.1328 1.3282,0 2.25,-1.086 0.9219,-1.0859 0.9219,-3.3046 0,-2.4532 -0.9375,-3.5938 -0.9375,-1.1406 -2.3281,-1.1406 -1.3438,0 -2.25,1.0937 -0.9063,1.0938 -0.9063,3.4688 z m 19.6197,2.1093 2.0781,0.2657 q -0.4844,1.8281 -1.8203,2.8359 -1.336,1.0078 -3.4141,1.0078 -2.625,0 -4.1562,-1.6094 -1.5313,-1.6093 -1.5313,-4.5156 0,-3.0156 1.5469,-4.6797 1.5469,-1.664 4.0156,-1.664 2.4063,0 3.9219,1.6328 1.5156,1.6328 1.5156,4.5859 0,0.1719 -0.0156,0.5313 l -8.8906,0 q 0.1093,1.9687 1.1093,3.0156 1,1.0469 2.4844,1.0469 1.1094,0 1.8985,-0.586 0.789,-0.5859 1.2578,-1.8672 z m -6.6407,-3.2656 6.6563,0 q -0.1406,-1.5 -0.7656,-2.25 -0.9688,-1.1718 -2.5,-1.1718 -1.3907,0 -2.3438,0.9296 -0.9531,0.9297 -1.0469,2.4922 z m 16.9004,1.1406 q 0,-3.3124 1.8438,-4.9062 1.5312,-1.3281 3.75,-1.3281 2.4531,0 4.0156,1.6172 1.5625,1.6171 1.5625,4.4609 0,2.2969 -0.6875,3.6172 -0.6875,1.3203 -2.0078,2.0469 -1.3203,0.7265 -2.8828,0.7265 -2.5,0 -4.0469,-1.6015 -1.5469,-1.6016 -1.5469,-4.6329 z m 2.0782,0 q 0,2.2969 1,3.4376 1,1.1406 2.5156,1.1406 1.5,0 2.5,-1.1485 1,-1.1484 1,-3.4921 0,-2.2188 -1.0078,-3.3516 -1.0078,-1.1328 -2.4922,-1.1328 -1.5156,0 -2.5156,1.1328 -1,1.1328 -1,3.414 z m 11.4633,5.9688 0,-11.9219 1.8125,0 0,1.6875 q 1.3282,-1.9687 3.7969,-1.9687 1.0781,0 1.9844,0.3906 0.9062,0.3906 1.3594,1.0234 0.4531,0.6329 0.625,1.4922 0.1093,0.5625 0.1093,1.9688 l 0,7.3281 -2.0156,0 0,-7.25 q 0,-1.2344 -0.2344,-1.8516 -0.2343,-0.6172 -0.8359,-0.9765 -0.6016,-0.3594 -1.4141,-0.3594 -1.2968,0 -2.2343,0.8125 -0.9375,0.8125 -0.9375,3.1094 l 0,6.5156 -2.0157,0 z m 20.5259,0 0,-1.5 q -1.125,1.7656 -3.3281,1.7656 -1.4219,0 -2.625,-0.7812 -1.2031,-0.7813 -1.8594,-2.1953 -0.6562,-1.4141 -0.6562,-3.2422 0,-1.7813 0.6015,-3.2344 0.6016,-1.4531 1.7891,-2.2344 1.1875,-0.7812 2.6562,-0.7812 1.0782,0 1.9219,0.4609 0.8438,0.461 1.375,1.1797 l 0,-5.9063 2,0 0,16.4688 -1.875,0 z m -6.3906,-5.9531 q 0,2.2969 0.9687,3.4297 0.9688,1.1328 2.2813,1.1328 1.3281,0 2.25,-1.086 0.9219,-1.0859 0.9219,-3.3046 0,-2.4532 -0.9375,-3.5938 -0.9375,-1.1406 -2.3282,-1.1406 -1.3437,0 -2.25,1.0937 -0.9062,1.0938 -0.9062,3.4688 z m 19.229,4.4843 q -1.125,0.9532 -2.1641,1.3438 -1.039,0.3906 -2.2265,0.3906 -1.9688,0 -3.0235,-0.9609 -1.0547,-0.9609 -1.0547,-2.4453 0,-0.875 0.3985,-1.6016 0.3984,-0.7266 1.0469,-1.164 0.6484,-0.4376 1.4609,-0.6563 0.5937,-0.1719 1.7969,-0.3125 2.4375,-0.2969 3.5937,-0.6875 0.0156,-0.4219 0.0156,-0.5313 0,-1.2343 -0.5781,-1.75 -0.7656,-0.6718 -2.2969,-0.6718 -1.4218,0 -2.1015,0.4922 -0.6797,0.4922 -1.0078,1.7734 l -1.9844,-0.2812 q 0.2812,-1.2657 0.8984,-2.0469 0.6172,-0.7813 1.7813,-1.2031 1.164,-0.4219 2.7109,-0.4219 1.5313,0 2.4844,0.3593 0.9531,0.3594 1.3984,0.9063 0.4453,0.5469 0.6328,1.375 0.0938,0.5156 0.0938,1.875 l 0,2.6875 q 0,2.8281 0.1328,3.5703 0.1328,0.7422 0.5078,1.4297 l -2.1094,0 q -0.3125,-0.625 -0.4062,-1.4688 z m -0.1719,-4.5156 q -1.0937,0.4532 -3.2969,0.7656 -1.25,0.1719 -1.7656,0.3985 -0.5156,0.2265 -0.7969,0.6562 -0.2812,0.4297 -0.2812,0.961 0,0.8125 0.6172,1.3515 0.6172,0.5391 1.789,0.5391 1.1719,0 2.0782,-0.5156 0.9062,-0.5157 1.3437,-1.3907 0.3125,-0.6874 0.3125,-2.0312 l 0,-0.7344 z m 11.6192,10.5625 0,-21.0469 4.4531,0 0,1.6719 -2.4375,0 0,17.6875 2.4375,0 0,1.6875 -4.4531,0 z m 6.3432,-4.5781 0,-11.9219 1.8125,0 0,1.6875 q 1.3281,-1.9687 3.7969,-1.9687 1.0781,0 1.9844,0.3906 0.9062,0.3906 1.3593,1.0234 0.4532,0.6329 0.625,1.4922 0.1094,0.5625 0.1094,1.9688 l 0,7.3281 -2.0156,0 0,-7.25 q 0,-1.2344 -0.2344,-1.8516 -0.2344,-0.6172 -0.8359,-0.9765 -0.6016,-0.3594 -1.4141,-0.3594 -1.2969,0 -2.2344,0.8125 -0.9375,0.8125 -0.9375,3.1094 l 0,6.5156 -2.0156,0 z m 12.7915,0 0,-11.9219 1.8125,0 0,1.6719 q 0.5625,-0.875 1.4922,-1.4141 0.9297,-0.539 2.1172,-0.539 1.3281,0 2.1797,0.5547 0.8515,0.5546 1.1953,1.539 1.4062,-2.0937 3.6875,-2.0937 1.7656,0 2.7187,0.9843 0.9532,0.9844 0.9532,3.0313 l 0,8.1875 -2,0 0,-7.5156 q 0,-1.2032 -0.1953,-1.7422 -0.1954,-0.5391 -0.7188,-0.8594 -0.5234,-0.3203 -1.2109,-0.3203 -1.2657,0 -2.0938,0.8359 -0.8281,0.836 -0.8281,2.6797 l 0,6.9219 -2.0156,0 0,-7.75 q 0,-1.3438 -0.5,-2.0156 -0.5,-0.6719 -1.625,-0.6719 -0.8438,0 -1.5703,0.4453 -0.7266,0.4453 -1.0547,1.3125 -0.3282,0.8672 -0.3282,2.4922 l 0,6.1875 -2.0156,0 z m 22.5342,4.5781 -4.4531,0 0,-1.6875 2.4375,0 0,-17.6875 -2.4375,0 0,-1.6719 4.4531,0 0,21.0469 z"
     id="path127"
     inkscape:connector-curvature="0" />
  <line
     y2="45"
     style="color-interpolation:linearRGB;fill:none;stroke:#262626;stroke-width:0.66670001;stroke-linejoin:round;color-rendering:optimizeQuality;image-rendering:optimizeQuality;text-rendering:geometricPrecision"
     x1="124"
     x2="124"
     y1="538"
     id="line131" />
  <line
     y2="45"
     style="color-interpolation:linearRGB;fill:none;stroke:#262626;stroke-width:0.66670001;stroke-linejoin:round;color-rendering:optimizeQuality;image-rendering:optimizeQuality;text-rendering:geometricPrecision"
     x1="865"
     x2="865"
     y1="538"
     id="line133" />
  <line
     y2="520.94897"
     style="color-interpolation:linearRGB;fill:none;stroke:#262626;stroke-width:0.66670001;stroke-linejoin:round;color-rendering:optimizeQuality;image-rendering:optimizeQuality;text-rendering:geometricPrecision"
     x1="124"
     x2="131.41"
     y1="520.94897"
     id="line135" />
  <line
     y2="461.71951"
     style="color-interpolation:linearRGB;fill:none;stroke:#262626;stroke-width:0.66670001;stroke-linejoin:round;color-rendering:optimizeQuality;image-rendering:optimizeQuality;text-rendering:geometricPrecision"
     x1="124"
     x2="131.41"
     y1="461.71951"
     id="line137" />
  <line
     y2="402.4899"
     style="color-interpolation:linearRGB;fill:none;stroke:#262626;stroke-width:0.66670001;stroke-linejoin:round;color-rendering:optimizeQuality;image-rendering:optimizeQuality;text-rendering:geometricPrecision"
     x1="124"
     x2="131.41"
     y1="402.4899"
     id="line139" />
  <line
     y2="343.26041"
     style="color-interpolation:linearRGB;fill:none;stroke:#262626;stroke-width:0.66670001;stroke-linejoin:round;color-rendering:optimizeQuality;image-rendering:optimizeQuality;text-rendering:geometricPrecision"
     x1="124"
     x2="131.41"
     y1="343.26041"
     id="line141" />
  <line
     y2="284.03091"
     style="color-interpolation:linearRGB;fill:none;stroke:#262626;stroke-width:0.66670001;stroke-linejoin:round;color-rendering:optimizeQuality;image-rendering:optimizeQuality;text-rendering:geometricPrecision"
     x1="124"
     x2="131.41"
     y1="284.03091"
     id="line143" />
  <line
     y2="224.8013"
     style="color-interpolation:linearRGB;fill:none;stroke:#262626;stroke-width:0.66670001;stroke-linejoin:round;color-rendering:optimizeQuality;image-rendering:optimizeQuality;text-rendering:geometricPrecision"
     x1="124"
     x2="131.41"
     y1="224.8013"
     id="line145" />
  <line
     y2="165.57179"
     style="color-interpolation:linearRGB;fill:none;stroke:#262626;stroke-width:0.66670001;stroke-linejoin:round;color-rendering:optimizeQuality;image-rendering:optimizeQuality;text-rendering:geometricPrecision"
     x1="124"
     x2="131.41"
     y1="165.57179"
     id="line147" />
  <line
     y2="106.3423"
     style="color-interpolation:linearRGB;fill:none;stroke:#262626;stroke-width:0.66670001;stroke-linejoin:round;color-rendering:optimizeQuality;image-rendering:optimizeQuality;text-rendering:geometricPrecision"
     x1="124"
     x2="131.41"
     y1="106.3423"
     id="line149" />
  <line
     y2="47.112701"
     style="color-interpolation:linearRGB;fill:none;stroke:#262626;stroke-width:0.66670001;stroke-linejoin:round;color-rendering:optimizeQuality;image-rendering:optimizeQuality;text-rendering:geometricPrecision"
     x1="124"
     x2="131.41"
     y1="47.112701"
     id="line151" />
  <line
     y2="520.94897"
     style="color-interpolation:linearRGB;fill:none;stroke:#262626;stroke-width:0.66670001;stroke-linejoin:round;color-rendering:optimizeQuality;image-rendering:optimizeQuality;text-rendering:geometricPrecision"
     x1="865"
     x2="857.59003"
     y1="520.94897"
     id="line153" />
  <line
     y2="461.71951"
     style="color-interpolation:linearRGB;fill:none;stroke:#262626;stroke-width:0.66670001;stroke-linejoin:round;color-rendering:optimizeQuality;image-rendering:optimizeQuality;text-rendering:geometricPrecision"
     x1="865"
     x2="857.59003"
     y1="461.71951"
     id="line155" />
  <line
     y2="402.4899"
     style="color-interpolation:linearRGB;fill:none;stroke:#262626;stroke-width:0.66670001;stroke-linejoin:round;color-rendering:optimizeQuality;image-rendering:optimizeQuality;text-rendering:geometricPrecision"
     x1="865"
     x2="857.59003"
     y1="402.4899"
     id="line157" />
  <line
     y2="343.26041"
     style="color-interpolation:linearRGB;fill:none;stroke:#262626;stroke-width:0.66670001;stroke-linejoin:round;color-rendering:optimizeQuality;image-rendering:optimizeQuality;text-rendering:geometricPrecision"
     x1="865"
     x2="857.59003"
     y1="343.26041"
     id="line159" />
  <line
     y2="284.03091"
     style="color-interpolation:linearRGB;fill:none;stroke:#262626;stroke-width:0.66670001;stroke-linejoin:round;color-rendering:optimizeQuality;image-rendering:optimizeQuality;text-rendering:geometricPrecision"
     x1="865"
     x2="857.59003"
     y1="284.03091"
     id="line161" />
  <line
     y2="224.8013"
     style="color-interpolation:linearRGB;fill:none;stroke:#262626;stroke-width:0.66670001;stroke-linejoin:round;color-rendering:optimizeQuality;image-rendering:optimizeQuality;text-rendering:geometricPrecision"
     x1="865"
     x2="857.59003"
     y1="224.8013"
     id="line163" />
  <line
     y2="165.57179"
     style="color-interpolation:linearRGB;fill:none;stroke:#262626;stroke-width:0.66670001;stroke-linejoin:round;color-rendering:optimizeQuality;image-rendering:optimizeQuality;text-rendering:geometricPrecision"
     x1="865"
     x2="857.59003"
     y1="165.57179"
     id="line165" />
  <line
     y2="106.3423"
     style="color-interpolation:linearRGB;fill:none;stroke:#262626;stroke-width:0.66670001;stroke-linejoin:round;color-rendering:optimizeQuality;image-rendering:optimizeQuality;text-rendering:geometricPrecision"
     x1="865"
     x2="857.59003"
     y1="106.3423"
     id="line167" />
  <line
     y2="47.112701"
     style="color-interpolation:linearRGB;fill:none;stroke:#262626;stroke-width:0.66670001;stroke-linejoin:round;color-rendering:optimizeQuality;image-rendering:optimizeQuality;text-rendering:geometricPrecision"
     x1="865"
     x2="857.59003"
     y1="47.112701"
     id="line169" />
  <path
     style="font-size:medium;font-family:SansSerif;color-interpolation:linearRGB;fill:#262626;stroke:none;color-rendering:optimizeQuality;image-rendering:optimizeQuality;text-rendering:geometricPrecision"
     d="m 87.9417,522.0428 q 0,-2.6719 0.5469,-4.2969 0.5469,-1.625 1.625,-2.5078 1.0781,-0.8829 2.7187,-0.8829 1.2188,0 2.1328,0.4844 0.9141,0.4844 1.5078,1.4063 0.5938,0.9219 0.9297,2.2343 0.336,1.3126 0.336,3.5626 0,2.6406 -0.5391,4.2656 -0.539,1.625 -1.625,2.5078 -1.0859,0.8828 -2.7422,0.8828 -2.1718,0 -3.4062,-1.5469 -1.4844,-1.875 -1.4844,-6.1093 z m 1.8906,0 q 0,3.6874 0.8672,4.914 0.8672,1.2266 2.1328,1.2266 1.2813,0 2.1485,-1.2266 0.8671,-1.2266 0.8671,-4.914 0,-3.7188 -0.8671,-4.9376 -0.8672,-1.2187 -2.1641,-1.2187 -1.2656,0 -2.0312,1.0781 -0.9532,1.375 -0.9532,5.0782 z m 10.8198,7.4062 0,-2.1094 2.1094,0 0,2.1094 -2.1094,0 z m 4.8033,-3.9375 1.9375,-0.1719 q 0.2187,1.4219 1,2.1328 0.7812,0.711 1.8906,0.711 1.3281,0 2.25,-1 0.9219,-1 0.9219,-2.6719 0,-1.5781 -0.8828,-2.4922 -0.8829,-0.9141 -2.3204,-0.9141 -0.8906,0 -1.6093,0.4063 -0.7188,0.4063 -1.125,1.0625 l -1.7344,-0.2344 1.4531,-7.7187 7.4688,0 0,1.7656 -6,0 -0.7969,4.0313 q 1.3437,-0.9376 2.8281,-0.9376 1.9688,0 3.3281,1.3672 1.3594,1.3672 1.3594,3.5078 0,2.0313 -1.1875,3.5313 -1.4531,1.8125 -3.9531,1.8125 -2.0469,0 -3.3438,-1.1484 -1.2968,-1.1485 -1.4843,-3.0391 z"
     id="path173"
     inkscape:connector-curvature="0" />
  <path
     style="font-size:medium;font-family:SansSerif;color-interpolation:linearRGB;fill:#262626;stroke:none;color-rendering:optimizeQuality;image-rendering:optimizeQuality;text-rendering:geometricPrecision"
     d="m 112.8948,470.2195 -1.8437,0 0,-11.7656 q -0.6719,0.6406 -1.7578,1.2734 -1.086,0.6328 -1.9454,0.961 l 0,-1.7969 q 1.5469,-0.7188 2.711,-1.7578 1.164,-1.0391 1.6484,-2.0079 l 1.1875,0 0,15.0938 z"
     id="path177"
     inkscape:connector-curvature="0" />
  <path
     style="font-size:medium;font-family:SansSerif;color-interpolation:linearRGB;fill:#262626;stroke:none;color-rendering:optimizeQuality;image-rendering:optimizeQuality;text-rendering:geometricPrecision"
     d="m 94.8948,410.9899 -1.8437,0 0,-11.7656 q -0.6719,0.6406 -1.7578,1.2734 -1.086,0.6328 -1.9454,0.961 l 0,-1.7969 q 1.5469,-0.7188 2.711,-1.7578 1.164,-1.0391 1.6484,-2.0079 l 1.1875,0 0,15.0938 z m 5.7573,0 0,-2.1094 2.1094,0 0,2.1094 -2.1094,0 z m 4.8033,-3.9375 1.9375,-0.1719 q 0.2187,1.4219 1,2.1328 0.7812,0.711 1.8906,0.711 1.3281,0 2.25,-1 0.9219,-1 0.9219,-2.6719 0,-1.5781 -0.8828,-2.4922 -0.8829,-0.9141 -2.3204,-0.9141 -0.8906,0 -1.6093,0.4063 -0.7188,0.4063 -1.125,1.0625 l -1.7344,-0.2344 1.4531,-7.7187 7.4688,0 0,1.7656 -6,0 -0.7969,4.0313 q 1.3437,-0.9376 2.8281,-0.9376 1.9688,0 3.3281,1.3672 1.3594,1.3672 1.3594,3.5078 0,2.0313 -1.1875,3.5313 -1.4531,1.8125 -3.9531,1.8125 -2.0469,0 -3.3438,-1.1484 -1.2968,-1.1485 -1.4843,-3.0391 z"
     id="path181"
     inkscape:connector-curvature="0" />
  <path
     style="font-size:medium;font-family:SansSerif;color-interpolation:linearRGB;fill:#262626;stroke:none;color-rendering:optimizeQuality;image-rendering:optimizeQuality;text-rendering:geometricPrecision"
     d="m 115.6448,349.9792 0,1.7812 -9.9375,0 q -0.0312,-0.6719 0.2032,-1.2812 0.3906,-1.0157 1.2265,-2 0.8359,-0.9844 2.4141,-2.2813 2.4531,-2 3.3125,-3.1797 0.8593,-1.1797 0.8593,-2.2266 0,-1.0937 -0.789,-1.8437 -0.7891,-0.75 -2.0391,-0.75 -1.3437,0 -2.1406,0.7969 -0.7969,0.7968 -0.8125,2.2187 l -1.8906,-0.2031 q 0.1875,-2.125 1.4609,-3.2344 1.2735,-1.1094 3.4141,-1.1094 2.1718,0 3.4297,1.2032 1.2578,1.2031 1.2578,2.9687 0,0.9063 -0.3672,1.7735 -0.3672,0.8672 -1.2266,1.8359 -0.8593,0.9687 -2.8437,2.6406 -1.6563,1.4063 -2.1328,1.8985 -0.4766,0.4922 -0.7735,0.9922 l 7.375,0 z"
     id="path185"
     inkscape:connector-curvature="0" />
  <path
     style="font-size:medium;font-family:SansSerif;color-interpolation:linearRGB;fill:#262626;stroke:none;color-rendering:optimizeQuality;image-rendering:optimizeQuality;text-rendering:geometricPrecision"
     d="m 97.6448,290.7497 0,1.7812 -9.9375,0 q -0.0312,-0.6719 0.2032,-1.2812 0.3906,-1.0157 1.2265,-2 0.8359,-0.9844 2.4141,-2.2813 2.4531,-2 3.3125,-3.1797 0.8593,-1.1797 0.8593,-2.2266 0,-1.0937 -0.789,-1.8437 -0.7891,-0.75 -2.0391,-0.75 -1.3437,0 -2.1406,0.7969 -0.7969,0.7968 -0.8125,2.2187 l -1.8906,-0.2031 q 0.1875,-2.125 1.4609,-3.2344 1.2735,-1.1094 3.4141,-1.1094 2.1718,0 3.4297,1.2032 1.2578,1.2031 1.2578,2.9687 0,0.9063 -0.3672,1.7735 -0.3672,0.8672 -1.2266,1.8359 -0.8593,0.9687 -2.8437,2.6406 -1.6563,1.4063 -2.1328,1.8985 -0.4766,0.4922 -0.7735,0.9922 l 7.375,0 z m 3.0073,1.7812 0,-2.1094 2.1094,0 0,2.1094 -2.1094,0 z m 4.8033,-3.9375 1.9375,-0.1719 q 0.2187,1.4219 1,2.1328 0.7812,0.711 1.8906,0.711 1.3281,0 2.25,-1 0.9219,-1 0.9219,-2.6719 0,-1.5781 -0.8828,-2.4922 -0.8829,-0.9141 -2.3204,-0.9141 -0.8906,0 -1.6093,0.4063 -0.7188,0.4063 -1.125,1.0625 l -1.7344,-0.2344 1.4531,-7.7187 7.4688,0 0,1.7656 -6,0 -0.7969,4.0313 q 1.3437,-0.9376 2.8281,-0.9376 1.9688,0 3.3281,1.3672 1.3594,1.3672 1.3594,3.5078 0,2.0313 -1.1875,3.5313 -1.4531,1.8125 -3.9531,1.8125 -2.0469,0 -3.3438,-1.1484 -1.2968,-1.1485 -1.4843,-3.0391 z"
     id="path189"
     inkscape:connector-curvature="0" />
  <path
     style="font-size:medium;font-family:SansSerif;color-interpolation:linearRGB;fill:#262626;stroke:none;color-rendering:optimizeQuality;image-rendering:optimizeQuality;text-rendering:geometricPrecision"
     d="m 105.9417,229.3325 1.8594,-0.25 q 0.3125,1.5782 1.0781,2.2657 0.7656,0.6875 1.8594,0.6875 1.2969,0 2.1953,-0.8985 0.8984,-0.8984 0.8984,-2.2421 0,-1.2657 -0.8281,-2.0938 -0.8281,-0.8281 -2.1094,-0.8281 -0.5312,0 -1.3125,0.2187 l 0.2188,-1.625 q 0.1718,0.0156 0.2968,0.0156 1.1719,0 2.1172,-0.6171 0.9454,-0.6172 0.9454,-1.8985 0,-1.0156 -0.6876,-1.6797 -0.6874,-0.664 -1.7812,-0.664 -1.0781,0 -1.7891,0.6797 -0.7109,0.6796 -0.9297,2.0234 l -1.8437,-0.3281 q 0.3437,-1.8438 1.5391,-2.8672 1.1953,-1.0235 2.9922,-1.0235 1.2187,0 2.2578,0.5313 1.039,0.5313 1.5859,1.4375 0.5469,0.9062 0.5469,1.9375 0,0.9687 -0.5235,1.7734 -0.5234,0.8047 -1.539,1.2735 1.3281,0.3125 2.0625,1.2812 0.7344,0.9688 0.7344,2.4219 0,1.9687 -1.4297,3.3359 -1.4297,1.3672 -3.6329,1.3672 -1.9687,0 -3.2812,-1.1797 -1.3125,-1.1797 -1.5,-3.0547 z"
     id="path193"
     inkscape:connector-curvature="0" />
  <path
     style="font-size:medium;font-family:SansSerif;color-interpolation:linearRGB;fill:#262626;stroke:none;color-rendering:optimizeQuality;image-rendering:optimizeQuality;text-rendering:geometricPrecision"
     d="m 87.9417,170.103 1.8594,-0.25 q 0.3125,1.5782 1.0781,2.2657 0.7656,0.6875 1.8594,0.6875 1.2969,0 2.1953,-0.8985 0.8984,-0.8984 0.8984,-2.2421 0,-1.2657 -0.8281,-2.0938 -0.8281,-0.8281 -2.1094,-0.8281 -0.5312,0 -1.3125,0.2187 l 0.2188,-1.625 q 0.1718,0.0156 0.2968,0.0156 1.1719,0 2.1172,-0.6171 0.9454,-0.6172 0.9454,-1.8985 0,-1.0156 -0.6876,-1.6797 -0.6874,-0.664 -1.7812,-0.664 -1.0781,0 -1.7891,0.6797 -0.7109,0.6796 -0.9297,2.0234 l -1.8437,-0.3281 q 0.3437,-1.8438 1.5391,-2.8672 1.1953,-1.0235 2.9922,-1.0235 1.2187,0 2.2578,0.5313 1.039,0.5313 1.5859,1.4375 0.5469,0.9062 0.5469,1.9375 0,0.9687 -0.5235,1.7734 -0.5234,0.8047 -1.539,1.2735 1.3281,0.3125 2.0625,1.2812 0.7344,0.9688 0.7344,2.4219 0,1.9687 -1.4297,3.3359 -1.4297,1.3672 -3.6329,1.3672 -1.9687,0 -3.2812,-1.1797 -1.3125,-1.1797 -1.5,-3.0547 z m 12.7104,3.9688 0,-2.1094 2.1094,0 0,2.1094 -2.1094,0 z m 4.8033,-3.9375 1.9375,-0.1719 q 0.2187,1.4219 1,2.1328 0.7812,0.711 1.8906,0.711 1.3281,0 2.25,-1 0.9219,-1 0.9219,-2.6719 0,-1.5781 -0.8828,-2.4922 -0.8829,-0.9141 -2.3204,-0.9141 -0.8906,0 -1.6093,0.4063 -0.7188,0.4063 -1.125,1.0625 l -1.7344,-0.2344 1.4531,-7.7187 7.4688,0 0,1.7656 -6,0 -0.7969,4.0313 q 1.3437,-0.9376 2.8281,-0.9376 1.9688,0 3.3281,1.3672 1.3594,1.3672 1.3594,3.5078 0,2.0313 -1.1875,3.5313 -1.4531,1.8125 -3.9531,1.8125 -2.0469,0 -3.3438,-1.1484 -1.2968,-1.1485 -1.4843,-3.0391 z"
     id="path197"
     inkscape:connector-curvature="0" />
  <path
     style="font-size:medium;font-family:SansSerif;color-interpolation:linearRGB;fill:#262626;stroke:none;color-rendering:optimizeQuality;image-rendering:optimizeQuality;text-rendering:geometricPrecision"
     d="m 111.8479,114.8423 0,-3.5938 -6.5156,0 0,-1.7031 6.8594,-9.7343 1.5156,0 0,9.7343 2.0313,0 0,1.7031 -2.0313,0 0,3.5938 -1.8594,0 z m 0,-5.2969 0,-6.7656 -4.7031,6.7656 4.7031,0 z"
     id="path201"
     inkscape:connector-curvature="0" />
  <path
     style="font-size:medium;font-family:SansSerif;color-interpolation:linearRGB;fill:#262626;stroke:none;color-rendering:optimizeQuality;image-rendering:optimizeQuality;text-rendering:geometricPrecision"
     d="m 93.8479,55.6127 0,-3.5938 -6.5156,0 0,-1.7031 6.8594,-9.7343 1.5156,0 0,9.7343 2.0313,0 0,1.7031 -2.0313,0 0,3.5938 -1.8594,0 z m 0,-5.2969 0,-6.7656 -4.7031,6.7656 4.7031,0 z m 6.8042,5.2969 0,-2.1094 2.1094,0 0,2.1094 -2.1094,0 z m 4.8033,-3.9375 1.9375,-0.1719 q 0.2187,1.4219 1,2.1328 0.7812,0.711 1.8906,0.711 1.3281,0 2.25,-1 0.9219,-1 0.9219,-2.6719 0,-1.5781 -0.8828,-2.4922 -0.8829,-0.9141 -2.3204,-0.9141 -0.8906,0 -1.6093,0.4063 -0.7188,0.4063 -1.125,1.0625 l -1.7344,-0.2344 1.4531,-7.7187 7.4688,0 0,1.7656 -6,0 -0.7969,4.0313 q 1.3437,-0.9376 2.8281,-0.9376 1.9688,0 3.3281,1.3672 1.3594,1.3672 1.3594,3.5078 0,2.0313 -1.1875,3.5313 -1.4531,1.8125 -3.9531,1.8125 -2.0469,0 -3.3438,-1.1484 -1.2968,-1.1485 -1.4843,-3.0391 z"
     id="path205"
     inkscape:connector-curvature="0" />
  <path
     style="font-size:medium;font-family:mwb_cmsy10;color-interpolation:linearRGB;fill:#262626;stroke:none;color-rendering:optimizeQuality;image-rendering:optimizeQuality;text-rendering:geometricPrecision"
     d="m 127.0938,39.3906 q 0,-0.1562 0.0937,-0.2968 l 4.375,-4.3438 -4.375,-4.375 q -0.0937,-0.0938 -0.0937,-0.2656 0,-0.1563 0.1171,-0.2891 0.1172,-0.1328 0.2891,-0.1328 0.1562,0 0.3281,0.125 l 4.3438,4.3594 4.3281,-4.3594 q 0.1719,-0.125 0.3125,-0.125 0.1719,0 0.2969,0.125 0.125,0.125 0.125,0.2969 0,0.1718 -0.1094,0.2656 l -4.375,4.375 4.375,4.3438 q 0.1094,0.1406 0.1094,0.2968 0,0.1719 -0.125,0.2969 -0.125,0.125 -0.2969,0.125 -0.1563,0 -0.3125,-0.1563 l -4.3281,-4.3281 -4.3438,4.3281 q -0.1562,0.1563 -0.3281,0.1563 -0.1719,0 -0.2891,-0.1328 -0.1171,-0.1328 -0.1171,-0.2891 z"
     id="path213"
     inkscape:connector-curvature="0" />
  <path
     style="font-size:medium;font-family:SansSerif;color-interpolation:linearRGB;fill:#262626;stroke:none;color-rendering:optimizeQuality;image-rendering:optimizeQuality;text-rendering:geometricPrecision"
     d="m 148.8281,40 -1.8437,0 0,-11.7656 q -0.6719,0.6406 -1.7578,1.2734 -1.086,0.6328 -1.9454,0.961 l 0,-1.7969 q 1.5469,-0.7188 2.711,-1.7578 1.164,-1.0391 1.6484,-2.0079 l 1.1875,0 0,15.0938 z m 4.7261,-7.4062 q 0,-2.6719 0.5469,-4.2969 0.5468,-1.625 1.625,-2.5078 1.0781,-0.8829 2.7187,-0.8829 1.2188,0 2.1328,0.4844 0.9141,0.4844 1.5078,1.4063 0.5938,0.9219 0.9297,2.2343 0.336,1.3126 0.336,3.5626 0,2.6406 -0.5391,4.2656 -0.5391,1.625 -1.625,2.5078 -1.0859,0.8828 -2.7422,0.8828 -2.1719,0 -3.4062,-1.5469 -1.4844,-1.875 -1.4844,-6.1093 z m 1.8906,0 q 0,3.6874 0.8672,4.914 0.8672,1.2266 2.1328,1.2266 1.2813,0 2.1485,-1.2266 0.8671,-1.2266 0.8671,-4.914 0,-3.7188 -0.8671,-4.9376 -0.8672,-1.2187 -2.1641,-1.2187 -1.2656,0 -2.0313,1.0781 -0.9531,1.375 -0.9531,5.0782 z"
     id="path217"
     inkscape:connector-curvature="0" />
  <path
     style="font-size:medium;font-family:SansSerif;color-interpolation:linearRGB;fill:#262626;stroke:none;color-rendering:optimizeQuality;image-rendering:optimizeQuality;text-rendering:geometricPrecision"
     d="m 170.1719,30 0,-2.75 -4.9688,0 0,-1.2812 5.2344,-7.4219 1.1406,0 0,7.4219 1.5469,0 0,1.2812 -1.5469,0 0,2.75 -1.4062,0 z m 0,-4.0312 0,-5.1719 -3.5781,5.1719 3.5781,0 z"
     id="path221"
     inkscape:connector-curvature="0" />
  <path
     d="m 130.3965,535.4721 0.6686,-0.2961 0.6686,0.5093 0.6685,-0.4501 0.6684,0.3553 0.6683,-0.5804 0.6683,0.616 0.6683,-0.3436 0.6682,0.4976 0.668,-0.616 0.6681,0.2724 0.668,-0.4975 0.6678,0.6397 0.6679,-0.3435 0.6677,0.2843 0.6677,-0.1777 0.6677,0.2961 0.6676,-0.4264 0.6674,0.3553 0.6675,-0.4856 0.6673,0.6396 0.6674,-0.6751 0.6673,0.4501 0.6672,-0.2369 0.667,0.4501 0.6671,-0.5686 0.667,0.2488 0.667,-0.1185 0.6669,0.2488 0.6668,-0.3554 0.6667,0.4383 0.6668,-0.5331 0.6666,0.5212 0.6666,-0.3198 0.6666,0.2725 0.6664,-0.4265 0.6664,0.3909 0.6664,-0.3909 0.6663,0.5331 0.6663,-0.2725 0.6662,0.0948 0.6661,-0.2843 0.6661,0.2843 0.666,-0.2961 0.666,0.3672 0.6659,-0.545 0.6659,0.4621 0.6657,-0.4028 0.6659,0.2725 0.6656,-0.6042 0.6657,0.2843 0.6657,-0.4265 0.6655,0.7226 0.6655,-0.616 0.6654,0.3555 0.6654,-0.5213 0.6654,0.6989 0.6653,-0.5331 0.6652,0.4147 0.6653,-0.2725 0.6651,0.0237 0.6652,-0.154 0.665,0.1421 0.665,-0.0473 0.665,0.1066 0.6649,-0.2725 0.6649,0.3909 0.6648,-0.5093 0.6648,0.5212 0.6647,-0.4975 0.6647,0.4501 0.6647,-0.379 0.6646,0.5211 0.6645,-0.6041 0.6646,0.3198 0.6645,-0.1895 0.6644,0.2606 0.6644,-0.2014 0.6643,0.0119 0.6644,0.0356 0.6643,0.2843 0.6642,-0.2607 0.6641,0.2132 0.6643,-0.3316 0.664,0.3909 0.6641,-0.3317 0.6641,0.4146 0.6639,-0.5212 0.664,0.4383 0.6639,-0.4265 0.664,0.4028 0.6637,-0.3791 0.6639,0.3791 0.6637,-0.3672 0.6638,0.3909 0.6637,-0.5686 0.6637,0.4738 0.6636,-0.2606 0.6636,0.2251 0.6636,-0.3909 0.6635,0.379 0.6635,-0.2843 0.6635,0.2725 0.6634,-0.3436 0.6634,0.4502 0.6634,-0.4265 0.6634,0.4146 0.6632,-0.3672 0.6633,0.2607 0.6633,-0.2843 0.6632,0.2843 0.6632,-0.3318 0.6632,0.5213 0.663,-0.391 0.6632,0.462 0.6631,-0.6989 0.663,0.5094 0.6631,-0.3553 0.6629,0.225 0.663,-0.1777 0.663,0.4028 0.6629,-0.3909 0.6629,0.2251 0.6629,-0.3791 0.6628,0.4738 0.6628,-0.3909 0.6628,0.4857 0.6628,-0.5923 0.6627,0.5212 0.6628,-0.4383 0.6626,0.3435 0.6627,-0.2369 0.6627,0.2606 0.6626,-0.5212 0.6626,0.5804 0.6627,-0.379 0.6626,0.4975 0.6625,-0.4028 0.6625,0.3318 0.6625,-0.4502 0.6626,0.2843 0.6625,-0.2724 0.6624,0.3079 0.6624,-0.4975 0.6625,0.4383 0.6624,-0.3435 0.6624,0.5212 0.6624,-0.4857 0.6623,0.3672 0.6625,-0.4857 0.6623,0.4976 0.6623,-0.3673 0.6622,0.4739 0.6624,-0.6752 0.6622,0.5804 0.6623,-0.3791 0.6623,0.391 0.6622,-0.6042 0.6622,0.3791 0.6623,-0.1777 0.6622,0.462 0.6622,-0.3672 0.6622,0.4028 0.6622,-0.6161 0.6621,0.77 0.6622,-0.533 0.6621,0.1658 0.6622,-0.2843 0.6621,0.2725 0.6621,-0.1304 0.6622,0.1422 0.6621,-0.2014 0.6621,0.3791 0.6621,-0.2725 0.662,0.0474 0.6622,-0.3198 0.662,0.379 0.6621,-0.1895 0.6621,0.2014 0.6621,-0.308 0.662,0.3909 0.6621,-0.2488 0.6621,0.2843 0.662,-0.5093 0.662,0.4975 0.6621,-0.462 0.662,0.2251 0.6621,-0.3909 0.662,0.4738 0.6621,-0.2488 0.662,0.5213 0.662,-0.77 0.6622,0.533 0.6619,-0.4856 0.6622,0.4383 0.6621,-0.391 0.662,0.4028 0.662,-0.1066 0.6621,0.2369 0.662,-0.3316 0.6621,0.2605 0.6621,-0.4501 0.6621,0.4264 0.6621,-0.2843 0.662,0.391 0.6621,-0.5213 0.6621,0.4383 0.6621,-0.2961 0.6622,0.2251 0.6621,0 0.6622,0.0355 0.662,-0.1658 0.6621,0.2843 0.6623,-0.545 0.6621,0.462 0.6621,-0.4146 0.6623,0.3791 0.6621,-0.2606 0.6622,0.462 0.6622,-0.5567 0.6622,0.4619 0.6623,-0.5686 0.6622,0.6515 0.6623,-0.4856 0.6622,0.379 0.6623,-0.4975 0.6623,0.5212 0.6623,-0.3435 0.6623,0.308 0.6624,-0.4502 0.6623,0.3199 0.6624,-0.308 0.6624,0.2132 0.6624,-0.3317 0.6624,0.7108 0.6624,-0.5923 0.6625,0.2962 0.6625,-0.2962 0.6625,0.0947 0.6624,-0.0947 0.6625,0.379 0.6626,-0.3909 0.6626,0.3791 0.6626,-0.1303 0.6626,0.0829 0.6626,-0.6752 0.6626,0.7344 0.6627,-0.2843 0.6626,0.3199 0.6627,-0.4027 0.6628,0.2013 0.6627,-0.2013 0.6628,0.3908 0.6628,-0.3316 0.6629,0.4501 0.6628,-0.5331 0.6629,0.4146 0.6629,-0.4501 0.6629,0.3198 0.6629,-0.225 0.663,0.4383 0.663,-0.4028 0.6629,0.2369 0.6631,-0.2724 0.6631,0.2488 0.6631,-0.1659 0.6632,0.2843 0.6631,-0.5567 0.6633,0.5686 0.6631,-0.3791 0.6633,0.4501 0.6633,-0.6041 0.6633,0.5567 0.6634,-0.4501 0.6633,0.4027 0.6634,-0.1895 0.6635,0.2725 0.6635,-0.4383 0.6634,0.3791 0.6636,-0.2133 0.6635,0.2014 0.6636,-0.4383 0.6636,0.4027 0.6637,-0.3316 0.6637,0.4146 0.6637,-0.4976 0.6638,0.5094 0.6638,-0.4738 0.6639,0.379 0.6639,-0.533 0.6639,0.533 0.6639,-0.3316 0.664,0.4264 0.6641,-0.4857 0.664,0.4739 0.6642,-0.3673 0.6641,0.2251 0.6642,-0.154 0.6642,0.2843 0.6644,-0.5212 0.6643,0.5449 0.6643,-0.2251 0.6644,0.2606 0.6645,-0.5804 0.6644,0.4976 0.6645,-0.3554 0.6646,0.2487 0.6646,-0.3198 0.6647,0.2962 0.6646,-0.1067 0.6648,0.154 0.6648,-0.3435 0.6648,0.4857 0.6649,-0.3317 0.6649,0.2487 0.665,-0.4383 0.665,0.5686 0.6651,-0.4738 0.6652,0.3198 0.665,-0.2487 0.6652,0.1184 0.6653,-0.379 0.6653,0.3198 0.6654,-0.3672 0.6654,0.2606 0.6655,-0.5923 0.6655,0.4975 0.6655,-0.4738 0.6656,0.2251 0.6657,-0.4146 0.6657,0.2606 0.6657,-0.3673 0.6658,0.2725 0.6659,-0.5094 0.6659,0.1896 0.6661,-0.6516 0.6659,0.5805 0.6662,-0.6278 0.6661,0.3909 0.6662,-0.5449 0.6662,0.2843 0.6663,-0.6397 0.6665,0.5212 0.6662,-0.6041 0.6666,0.379 0.6665,-0.7581 0.6666,0.3317 0.6667,-0.3435 0.6667,-0.083 0.6668,-0.5212 0.6668,0.308 0.6668,-0.8174 0.667,0.3317 0.667,-0.6989 0.6671,-0.1303 0.6671,-0.5449 0.6672,0.0829 0.6672,-0.6397 0.6674,0.0593 0.6674,-0.8411 0.6674,-0.0237 0.6675,-0.6989 0.6675,0.2843 0.6677,-1.0069 0.6677,0.1185 0.6678,-0.8885 0.6678,0.0948 0.6679,-0.8766 0.668,-0.0119 0.6679,-0.7226 0.6681,0.1777 0.6683,-0.8055 0.6682,-0.0948 0.6683,-1.1253 0.6683,0.1185 0.6684,-1.0306 0.6685,-0.2843 0.6686,-0.8174 0.6686,-0.1777 0.6687,-0.9477 0.6688,-0.3672 0.6689,-0.9595 0.669,-0.4265 0.6689,-0.9476 0.6691,-0.4028 0.6691,-1.1017 0.6692,-0.225 0.6693,-1.2912 0.6694,-0.5213 0.6695,-0.9713 0.6694,-0.4383 0.6695,-1.3031 0.6698,-0.5331 0.6697,-1.0187 0.6698,-0.5804 0.6699,-1.6111 0.67,-0.2014 0.67,-1.1372 0.6701,-0.8766 0.6702,-1.2201 0.6702,-0.6042 0.6704,-1.5044 0.6705,-0.6397 0.6704,-1.5162 0.6706,-0.6753 0.6707,-1.6702 0.6707,-0.7108 0.6708,-1.5755 0.671,-0.9477 0.671,-1.6228 0.671,-0.8766 0.6712,-1.5637 0.6711,-1.232 0.6714,-1.7413 0.6714,-0.8292 0.6715,-2.0731 0.6716,-0.9121 0.6716,-1.765 0.6717,-1.2439 0.6719,-0.5923 0.6719,2.2034 0.6719,1.9427 0.6721,2.6179 0.6722,0.391 0.6722,-3.9684 0.6724,-4.0987 0.6723,-1.8124 0.6726,-2.2271 0.6727,-0.6278 0.6726,-0.6397 0.6728,1.7295 0.6729,0.8648 0.6729,-5.07 0.673,-7.4985 0.6732,-6.9062 0.6732,1.4926 0.6734,1.3623 0.6733,-0.462 0.6736,-0.3791 0.6736,-1.1016 0.6737,-0.3673 0.6737,-1.1135 0.6739,-0.5567 0.674,-1.4216 0.674,-0.0118 0.6742,-1.2675 0.6743,0.1895 0.6743,-0.9477 0.6745,-0.1421 0.6745,-1.1253 0.6746,-0.4265 0.6748,-0.5449 0.6748,-0.7108 0.6749,-1.1609 0.6751,0.1066 0.6751,-1.611 0.6752,-0.8055 0.6754,-1.3386 0.6754,-0.0829 0.6755,-1.694 0.6756,-0.4738 0.6757,-1.1728 0.6758,-0.4146 0.6759,-0.7581 0.6762,-0.8766 0.6761,-1.1728 0.6762,-0.4146 0.6763,-1.2083 0.6764,-0.6989 0.6766,-1.0069 0.6766,-0.2132 0.6768,-1.1372 0.6769,-0.4738 0.6769,-0.9359 0.6771,-0.4975 0.6771,-1.303 0.6773,-0.7582 0.6774,-1.1727 0.6774,-0.2014 0.6777,-1.2912 0.6777,-0.7108 0.6778,-1.1372 0.6779,0 0.678,-1.9901 0.6782,-0.4857 0.6782,-1.5163 0.6784,-0.9002 0.6785,-0.9122 0.6786,-1.2675 0.6787,-1.0543 0.6787,-0.9358 0.679,-1.3859 0.679,-1.0543 0.6791,-1.8954 0.6792,-1.1254 0.6794,-1.765 0.6795,-0.3909 0.6796,-2.0849 0.6797,-1.2557 0.6798,-2.0256 0.68,-0.77 0.6799,-1.4334 0.6803,-0.6633 0.6802,-1.8243 0.6804,-1.1846 0.6806,-2.7245 0.6806,-1.8717 0.6807,-2.2744 0.6809,-1.386 0.681,-2.7482 0.6811,-1.5874 0.6812,-2.843 0.6813,-2.1678 0.6816,-2.7245 0.6815,-1.6229 0.6817,-2.5588 0.6818,-1.6821 0.682,-2.2744 0.682,-1.5518 0.6822,-2.8549 0.6824,-1.457 0.6824,-2.4284 0.6825,-1.6466 0.6828,-2.6772 0.6827,-1.4926 0.683,-2.5942 0.683,-1.8243 0.6832,-3.0799 0.6833,-1.8243 0.6834,-2.6653 0.6836,-2.2034 0.6837,-2.8075 0.6838,-2.2507 0.684,-3.0325 0.6839,-2.3337 0.6843,-2.997 0.6843,-2.3929 0.6845,-3.1036 0.6845,-2.1915 0.6848,-3.7433 0.6849,-1.694 0.6849,-3.1154 0.685,-2.6061 0.6854,-3.234 0.6853,-1.765 0.6855,-3.0207 0.6856,-2.2744 0.6858,-3.2221 0.6859,-2.0849 0.686,-2.8904 0.6861,-2.4758 0.6864,-3.0918 0.6863,-2.227 0.6867,-3.0325 0.6866,-2.5943 0.6869,-3.0681 0.6869,-2.4876 0.6871,-3.4235 0.6873,-2.2863 0.6874,-3.5182 0.6875,-1.9782 0.6876,-3.0918 0.6878,-2.3692 0.688,-3.1866 0.688,-2.3454 0.6883,-3.542 0.6882,-1.3622 0.6885,-2.8075 0.6887,-2.5232 0.6887,-2.5587 0.6889,-2.0612 0.6891,-2.9023 0.6892,-1.8242 0.6894,-3.6959 0.6894,-2.1797 0.6897,-2.8193 0.6897,-1.9783 0.69,-3.0562 0.6899,-2.4403 0.6902,-4.2171 0.6904,-1.6348 0.6904,-3.2694 0.6907,-1.8125 0.6908,-3.0917 0.6909,-1.5874 0.6911,-2.7719 0.6911,-1.8125 0.6914,-2.689 0.6915,-2.0138 0.6917,-2.9378 0.6917,-1.7769 0.6921,-2.5942 0.6921,-2.5232 0.6923,-2.4403 0.6923,-1.2912 0.6926,-2.4994 0.6927,-1.1965 0.6928,-3.1155 0.6929,-2.0019 0.6933,-2.2863 0.6933,-1.9545 0.6934,-2.7483 0.6936,-0.6278 0.6938,-2.6654 0.6939,-3.1154 0.6941,-2.9378 0.6942,-1.7414 0.6944,-3.2813 0.6945,-1.457 0.6948,-2.5587 0.6949,-2.3929 0.695,-2.2981 0.6951,-1.8954 0.6954,-4.3593 0.6954,-2.5587 0.6957,-3.6248 0.6958,-2.8667 0.6958,-3.6249 0.6962,-1.5992 0.6963,0.7937 0.6963,0 0.6968,-4.2764 0.6966,-2.7956 0.697,-3.8381 0.6971,-2.3455 0.6972,-2.6772 0.6974,-2.073 0.6975,-1.4807 0.6977,-3.5656 0.6979,-10.6732 0.6981,-4.5725 0.6983,-2.0375 0.6983,-0.308 0.6985,-0.4502 0.6987,-0.8647 0.6989,-0.7463 0.699,-0.0474 0.6992,-0.2487 0.6994,-0.462 0.6995,-0.6634 0.6997,1.5637 0.6998,-0.545 0.7001,0 0.7003,-0.0592 0.7003,0.4028 0.7006,-0.4146 0.7006,1.3267 0.7009,-0.4738 0.7012,0.6752 0.7011,0.462 0.7014,0.8173 0.7016,-0.3553 0.7017,0.9358 0.7019,0.0711 0.7021,1.5873 0.7022,0.2369 0.7024,0.391 0.7027,0.3909 0.7028,1.2082 0.7029,-0.9713 0.703,1.4333 0.7033,0.2843 0.7035,0.7582 0.7037,0.6752 0.7037,0.8411 0.7041,0.6633 0.7043,1.0306 0.7042,0.4502 0.7046,1.1135 0.7046,-0.3199 0.705,1.5992 0.705,-0.308 0.7052,1.7296 0.7054,0.5922 0.7057,0.5094 0.7056,0.0829 0.706,1.4689 0.7062,-0.0947 0.7063,1.303 0.7066,-0.0711 0.7066,1.2557 0.7069,0.8055 0.7069,0.8292 0.7073,0.0948 0.7074,2.0138 0.7076,-0.308 0.7078,1.0661 0.7079,0.6397 0.7083,1.3268 0.7083,0.2724 0.7085,1.1728 0.7087,0.4857 0.7089,1.457 0.7091,-0.5449 0.7092,0.7344 0.7095,0.5449 0.7096,1.0899 0.7099,-0.5094 0.71,1.1846 0.7103,-1.2201 0.7103,1.7768 0.7106,-0.0473 0.7108,0.4501 0.7109,-0.1421 0.7112,1.1608 0.7114,0.3317 0.7115,1.0899 0.7116,0.0237 0.712,1.2793 0.7122,-0.0948 0.7122,0.8766 0.7126,0.3317 0.7127,0.6279 0.7129,-0.3436 0.713,1.3268 0.7133,-0.0237 0.7135,0.3435 0.7136,-0.2724 0.714,0.8766 0.714,-0.083 0.7143,1.3149 0.7144,-0.1421 0.7147,0.8766 0.7147,0.4501 0.7151,0.5568 0.7153,0.2369 0.7154,1.5637 0.7158,0.1658 0.7158,0.8647 0.716,0.545 0.7162,1.4215 0.7165,0.1303 0.7166,1.0543 0.7168,-0.308 0.7171,1.8598 0.7173,0.4501 0.7174,0.8766 0.7177,0.5568 0.7179,1.3267 0.718,-0.7818 0.7183,1.4926 0.7185,0.154 0.7186,2.1085 0.719,0.2725 0.719,1.7532 0.7193,1.1016 0.7196,2.2389 0.7196,1.1846 0.7199,2.4284 0.7202,1.3742 0.7203,2.4284 0.7206,0.5923 0.7206,1.7058 0.7211,0.7818 0.7212,1.1846 0.7213,0.6278 0.7217,1.3386 0.7216,0.3909 0.7221,1.1965 0.7222,-0.154 0.7224,1.149 0.7227,-0.3791 0.7229,-0.4027 0.723,-0.3791 0.7233,0.3554 0.7235,-0.2488 0.7237,-0.2013 0.7238,-0.2133 0.7243,0.7819 0.7242,-0.3673 0.7246,0.3436 0.7248,-0.8292 0.725,0.2369 0.7253,-1.2794 0.7254,-0.9713 0.7256,-1.3505 0.7259,-0.2132 0.7261,-1.1965 0.7263,-0.8173 0.7265,-1.4215 0.7267,-0.6278 0.7269,-2.1915 0.7273,-1.848 0.7274,-2.9496 0.7277,-1.6703 0.7277,-2.8193 0.7281,-0.9714 0.7282,-1.7414 0.7286,-1.4452 0.7287,-3.305 0.7289,-1.4096 0.7292,-0.7226 0.7293,-0.154 0.7297,0.4501 0.7299,1.694 0.73,0.4857 0.7303,1.6821 0.7305,2.2863 0.7308,2.4994 0.7308,1.7177 0.7313,3.5538 0.7315,3.0562 0.7316,4.0632 0.7319,3.305 0.7321,4.0986 0.7323,3.7434 0.7326,4.7976 0.7328,4.146 0.7329,5.4847 0.7333,4.6199 0.7335,5.8282 0.7337,4.7739 0.7339,6.1598 0.7342,4.2646 0.7345,6.3849 0.7345,4.8568 0.7348,5.7571 0.7353,5.3899 0.7353,6.1362 0.7355,5.5083 0.7359,6.6811 0.7359,5.2241 0.7362,6.1717 0.7367,5.7334 0.7367,6.5863 0.737,5.2004 0.7371,6.5863 0.7375,5.8045 0.7376,5.9467 0.7379,5.0937 0.7382,6.7166 0.7384,4.8213 0.7387,6.2784 0.7388,5.07 0.7391,5.9585 0.7394,4.8094 0.7396,6.231 0.7398,5.0463 0.7401,5.3899 0.7402,5.0819 0.7406,6.1125 0.7408,4.4185 0.741,5.6861 0.7413,4.7146 0.7416,5.5202 0.7416,4.4778 0.7422,5.0582 0.7421,4.6317 0.7426,5.0464 0.7427,4.1697 0.743,5.2478 0.7432,3.6959 0.7435,4.8568 0.7438,3.3169 0.7439,4.5133 0.7443,3.6367 0.7443,4.2763 0.7447,2.9497 0.745,4.454 0.7452,2.6653 0.7455,3.767 0.7457,2.5114 0.746,3.1628 0.7461,2.4403 0.7465,2.9852 0.7467,2.3218 0.7469,2.381 0.7473,2.0493 0.7474,2.2626 0.7477,1.1609 0.7481,2.073 0.7481,0.7108 0.7485,1.9072 0.7487,0.5212 0.749,0.9714 0.7492,-0.0948 0.7494,0.9832 0.7498,-0.308 0.75,0.6634 0.7502,-0.5331 0.7506,0.2488 0.7507,-0.4028 0.7509,-0.2724 0.7513,-0.6279 0.7516,-0.0829 0.7518,-0.6989 0.7521,-0.0711 0.7523,-0.4738 0.7525,-0.4501 0.7529,-1.4097 0.7531,0.2961 0.7533,-1.2201 0.7536,-0.0711 0.7538,-1.1727 0.7541,-0.4146 0.7544,-1.6111 0.7546,-0.5449 0.755,-1.4689 0.7552,0.2014 0.7554,-0.6634 0.7557,-0.0118 0.756,-0.1185 0.7562,0.083 0.7565,-0.4146 0.7568,0.533 0.7571,-0.2843 0.7572,0.7937 0.7576,-0.4028 0.7578,0.77 0.758,-0.3317 0.7584,0.77 0.7586,0.0593 0.759,1.5281 0.7591,0.1421 0.7593,1.3268 0.7598,0.4738 0.7599,1.386 0.7603,0.5567 0.7605,1.7888 0.7608,0.7936 0.761,1.8717 0.7613,0.5449 0.7616,1.7414 0.7619,0.6041 0.7621,1.9309 0.7624,0.8173 0.7627,1.7414 0.763,0.5093 0.7632,1.1846 0.7635,0.4857 0.7638,1.078 0.7639,0.4146 0.7645,1.5044 0.7647,0.1659 0.7647,1.5281 0.7652,0.616 0.7653,1.9309 0.7658,0.9358 0.766,1.9783 0.7663,1.4096 0.7666,2.0257 0.7668,1.3267 0.7671,1.7295 0.7674,0.8648 0.7676,1.8479 0.7679,1.1965 0.7682,1.7413 0.7686,0.8529 0.7687,1.6111 0.7691,0.7107 0.7692,1.6348 0.7698,0.2487 0.7699,1.2912 0.7702,0.2843 0.7704,1.1136 0.7709,-0.0119 0.771,1.3149 0.7713,-0.0829 0.7716,0.8173 0.7719,-0.0355 0.7722,1.0543 0.7725,-0.3672 0.7727,0.6633 0.7731,-0.2843 0.7733,0.4147 0.7736,-0.1659 0.7739,0.2962 0.7742,-0.462 0.7745,0.1895 0.7747,-0.2132 0.7752,0.1066 0.7753,-0.6041 0.7757,0.2605 0.7758,-0.7462 0.7763,-0.2133 0.7765,-0.3435 0.7768,-0.1777 0.7771,-0.6989 0.7774,0.0119 0.7777,-0.8056 0.778,0 0.7782,-0.6396 0.7786,-0.2133 0.7789,-0.462 0.7792,0.1659 0.7794,-0.7819 0.7797,0.1422 0.7801,-0.7581 0.7803,0.1184 0.7807,-0.8173 0.7808,-0.0356 0.7813,-0.7581 0.7816,-0.1066 0.7818,-0.8411 0.7821,0.0237 0.7823,-0.6042 0.7828,0.0948 0.783,-0.3672 0.7833,0.1066 0.7837,-0.3672 0.7838,0.3435 0.7843,-0.3672 0.7845,0.5686 0.7848,-0.1066 0.7852,0.8411 0.7854,-0.391 0.7857,0.7819 0.7862,-0.3436 0.7862,0.616 0.7866,-0.1777 0.787,0.6278 0.7871,-0.4264 0.7876,0.6278 0.7879,-0.2961 0.7881,0.462 0.7886,-0.3435 0.7886,0.6633 0.7893,-0.2487 0.7893,0.841 0.7897,0.1896 0.7901,0.7818 0.7903,0.0118 0.7906,0.6871 0.7909,0.8884"
     style="color-interpolation:linearRGB;fill:none;fill-rule:evenodd;stroke:#0000ff;stroke-width:2.66669989;stroke-linecap:butt;stroke-linejoin:round;color-rendering:optimizeQuality;image-rendering:optimizeQuality;text-rendering:geometricPrecision"
     id="path237"
     inkscape:connector-curvature="0" />
  <path
     style="font-style:normal;font-weight:normal;font-size:12px;font-family:Dialog;color-interpolation:auto;fill:none;fill-opacity:1;fill-rule:evenodd;stroke:#000000;stroke-width:2;stroke-linecap:butt;stroke-linejoin:miter;stroke-miterlimit:10;stroke-dasharray:none;stroke-dashoffset:0;stroke-opacity:1;marker-end:url(#Arrow1Mend-9);color-rendering:auto;image-rendering:auto;shape-rendering:auto;text-rendering:auto"
     d="m 440.24775,295.03266 49.39212,0"
     id="path4619-3"
     inkscape:connector-curvature="0" />
  <path
     style="font-style:normal;font-weight:normal;font-size:12px;font-family:Dialog;color-interpolation:auto;fill:none;fill-opacity:1;fill-rule:evenodd;stroke:#000000;stroke-width:2;stroke-linecap:butt;stroke-linejoin:miter;stroke-miterlimit:10;stroke-dasharray:none;stroke-dashoffset:0;stroke-opacity:1;marker-end:url(#Arrow1Mend-4-0);color-rendering:auto;image-rendering:auto;shape-rendering:auto;text-rendering:auto"
     d="m 751.4557,295.03266 -49.39212,0"
     id="path4619-8-0"
     inkscape:connector-curvature="0" />
  <text
     xml:space="preserve"
     style="font-style:normal;font-variant:normal;font-weight:normal;font-stretch:normal;font-size:27.5px;line-height:125%;font-family:serif;-inkscape-font-specification:serif;letter-spacing:0px;word-spacing:0px;color-interpolation:auto;fill:#000000;fill-opacity:1;stroke:none;stroke-width:1px;stroke-linecap:butt;stroke-linejoin:miter;stroke-miterlimit:10;stroke-dasharray:none;stroke-dashoffset:0;stroke-opacity:1;color-rendering:auto;image-rendering:auto;shape-rendering:auto;text-rendering:auto"
     x="343.80322"
     y="239.50226"
     id="text5070-2"
     sodipodi:linespacing="125%"><tspan
       sodipodi:role="line"
       id="tspan5072-2"
       x="343.80322"
       y="239.50226">FWHM:</tspan><tspan
       sodipodi:role="line"
       x="343.80322"
       y="273.87726"
       id="tspan5103-5">101.93nm</tspan></text>
  <line
     x1="464.99478"
     x2="464.99478"
     y1="63.032486"
     style="font-style:normal;font-weight:normal;font-size:12px;font-family:Dialog;color-interpolation:linearRGB;fill:none;fill-opacity:1;stroke:#262626;stroke-width:0.66670001;stroke-linecap:square;stroke-linejoin:round;stroke-miterlimit:10;stroke-dasharray:none;stroke-dashoffset:0;stroke-opacity:1;color-rendering:optimizeQuality;image-rendering:optimizeQuality;shape-rendering:auto;text-rendering:geometricPrecision"
     y2="70.44249"
     id="line91-7" />
  <text
     xml:space="preserve"
     style="font-style:normal;font-variant:normal;font-weight:normal;font-stretch:normal;font-size:27.5px;line-height:125%;font-family:serif;-inkscape-font-specification:serif;letter-spacing:0px;word-spacing:0px;color-interpolation:auto;fill:#000000;fill-opacity:1;stroke:none;stroke-width:1px;stroke-linecap:butt;stroke-linejoin:miter;stroke-miterlimit:10;stroke-dasharray:none;stroke-dashoffset:0;stroke-opacity:1;color-rendering:auto;image-rendering:auto;shape-rendering:auto;text-rendering:auto"
     x="419.08694"
     y="84.842239"
     id="text5070-8"
     sodipodi:linespacing="125%"><tspan
       sodipodi:role="line"
       id="tspan5072-9"
       x="419.08694"
       y="84.842239">=568.19nm</tspan></text>
  <path
     inkscape:connector-curvature="0"
     style="font-style:normal;font-weight:normal;font-size:12px;font-family:Dialog;display:inline;color-interpolation:auto;fill:#000000;fill-opacity:1;stroke:#000000;stroke-width:0;stroke-linecap:square;stroke-linejoin:miter;stroke-miterlimit:10;stroke-dasharray:none;stroke-dashoffset:0;stroke-opacity:1;color-rendering:auto;image-rendering:auto;shape-rendering:auto;text-rendering:auto;enable-background:new"
     d="m 402.90959,75.032786 -5.6273,11.67057 -2.9718,0 7.6474,-15.74228 -0.2849,-1.47004 c -0.3334,-1.60417 -0.7807,-2.68973 -1.3449,-3.26536 -0.5641,-0.57563 -1.1881,-0.86045 -1.8776,-0.86045 -0.624,0 -1.1682,0.228 -1.6355,0.68382 -0.4673,0.45583 -0.7722,1.19666 -0.9175,2.21958 l -0.6012,0 c 0.034,-1.73525 0.4616,-3.1285 1.2851,-4.17429 0.5926,-0.75208 1.3106,-1.13111 2.154,-1.13111 0.7465,0 1.3847,0.29626 1.9204,0.88622 0.8006,0.90022 1.4588,2.49314 1.9688,4.77533 l 2.6726,11.75317 c 0.4018,1.75811 0.8577,2.90066 1.3677,3.42202 0.5015,0.53568 1.0913,0.80056 1.7694,0.80056 0.6468,0 1.1767,-0.2164 1.5956,-0.65243 0.4188,-0.43586 0.6639,-1.12839 0.7436,-2.0856 l 0.6525,0 c 0.012,0.29062 0.017,0.50719 0.017,0.65242 0,1.45895 -0.3618,2.63273 -1.0855,3.52168 -0.5443,0.66676 -1.2566,1.00296 -2.137,1.00296 -0.7778,0 -1.4759,-0.32767 -2.0856,-0.98572 -0.6098,-0.65823 -1.1853,-2.16548 -1.721,-4.52481 l -1.5044,-6.49624 z"
     id="path3885" />
  <text
     xml:space="preserve"
     style="font-style:normal;font-variant:normal;font-weight:normal;font-stretch:normal;font-size:15.19468307px;line-height:125%;font-family:serif;-inkscape-font-specification:serif;letter-spacing:0px;word-spacing:0px;color-interpolation:auto;fill:#000000;fill-opacity:1;stroke:none;stroke-width:1px;stroke-linecap:butt;stroke-linejoin:miter;stroke-miterlimit:10;stroke-dasharray:none;stroke-dashoffset:0;stroke-opacity:1;color-rendering:auto;image-rendering:auto;shape-rendering:auto;text-rendering:auto"
     x="411.63126"
     y="90.509628"
     id="text5070-8-9"
     sodipodi:linespacing="125%"><tspan
       sodipodi:role="line"
       id="tspan5072-9-2"
       x="411.63126"
       y="90.509628">0</tspan></text>
  <path
     style="fill:none;fill-rule:evenodd;stroke:#000000;stroke-width:1;stroke-linecap:butt;stroke-linejoin:miter;stroke-opacity:1;stroke-miterlimit:10;stroke-dasharray:1,8;stroke-dashoffset:0"
     d="m 556.75358,72.584527 0,462.249283"
     id="path4896"
     inkscape:connector-curvature="0" />
  <text
     xml:space="preserve"
     style="font-style:normal;font-variant:normal;font-weight:normal;font-stretch:normal;font-size:27.5px;line-height:125%;font-family:serif;-inkscape-font-specification:serif;letter-spacing:0px;word-spacing:0px;color-interpolation:auto;fill:#000000;fill-opacity:1;stroke:none;stroke-width:1px;stroke-linecap:butt;stroke-linejoin:miter;stroke-miterlimit:10;stroke-dasharray:none;stroke-dashoffset:0;stroke-opacity:1;color-rendering:auto;image-rendering:auto;shape-rendering:auto;text-rendering:auto"
     x="170.46106"
     y="129.05408"
     id="text5097"
     sodipodi:linespacing="125%"><tspan
       sodipodi:role="line"
       id="tspan5099"
       x="170.46106"
       y="129.05408">Resolucin axial:</tspan><tspan
       sodipodi:role="line"
       x="170.46106"
       y="163.42908"
       id="tspan5101">0.72   m</tspan></text>
  <path
     inkscape:connector-curvature="0"
     style="font-style:normal;font-weight:normal;font-size:12px;font-family:Dialog;display:inline;color-interpolation:auto;fill:#000000;fill-opacity:1;stroke:#000000;stroke-width:0;stroke-linecap:square;stroke-linejoin:miter;stroke-miterlimit:10;stroke-dasharray:none;stroke-dashoffset:0;stroke-opacity:1;color-rendering:auto;image-rendering:auto;shape-rendering:auto;text-rendering:auto;enable-background:new"
     d="m 236.5428,151.30002 0,8.19594 c 0,1.08796 0.0488,1.84883 0.14845,2.28276 0.0811,0.30847 0.20415,0.5312 0.36654,0.6657 0.1624,0.13479 0.33638,0.20425 0.51733,0.20425 0.22735,0 0.43613,-0.11393 0.63099,-0.33875 0.19488,-0.22509 0.3387,-0.675 0.42918,-1.34556 l 0.55676,0 c -0.15311,1.21328 -0.45237,2.05308 -0.89778,2.51466 -0.44541,0.46172 -1.00681,0.69362 -1.68653,0.69362 -0.67042,0 -1.2063,-0.20397 -1.603,-0.61233 -0.3967,-0.40823 -0.63796,-1.11352 -0.72147,-2.12034 -0.92331,1.02307 -1.80019,1.73754 -2.63068,2.14117 -0.83052,0.40365 -1.54271,0.60554 -2.15051,0.60554 -0.40829,0 -0.8073,-0.0792 -1.19702,-0.23898 -0.38974,-0.16008 -0.7702,-0.39198 -1.14136,-0.70059 -0.0186,1.31306 0.095,2.46132 0.3387,3.43797 0.17165,0.69835 0.2575,1.18786 0.2575,1.46854 0,0.48937 -0.12533,0.87912 -0.3735,1.16911 -0.24823,0.28997 -0.53124,0.43615 -0.84908,0.43615 -0.32707,0 -0.59385,-0.12783 -0.80266,-0.38043 -0.28069,-0.34335 -0.4222,-0.77477 -0.4222,-1.29208 0,-0.25288 0.0534,-0.57066 0.16239,-0.95123 0.25286,-0.85133 0.41292,-1.59595 0.47556,-2.2294 0.10911,-1.08797 0.1624,-2.01127 0.1624,-2.77215 l 0,-10.83357 2.28271,0 0,7.84329 c 0,0.92331 0.0766,1.59136 0.23199,1.99737 0.15542,0.406 0.43149,0.72851 0.82818,0.96499 0.39669,0.23676 0.79803,0.35279 1.19703,0.35279 0.47093,0 1.02769,-0.1416 1.6726,-0.42227 0.64493,-0.28067 1.29679,-0.73308 1.95795,-1.35946 l 0,-9.37671 2.25953,0 z"
     id="path3887" />
</svg>
