<?xml version="1.0" encoding="UTF-8" standalone="no"?>
<!-- Created with Inkscape (http://www.inkscape.org/) -->

<svg
   xmlns:dc="http://purl.org/dc/elements/1.1/"
   xmlns:cc="http://creativecommons.org/ns#"
   xmlns:rdf="http://www.w3.org/1999/02/22-rdf-syntax-ns#"
   xmlns:svg="http://www.w3.org/2000/svg"
   xmlns="http://www.w3.org/2000/svg"
   xmlns:sodipodi="http://sodipodi.sourceforge.net/DTD/sodipodi-0.dtd"
   xmlns:inkscape="http://www.inkscape.org/namespaces/inkscape"
   width="210mm"
   height="297mm"
   viewBox="0 0 744.09448819 1052.3622047"
   id="svg2"
   version="1.1"
   inkscape:version="0.91 r13725"
   sodipodi:docname="Tissue_backscattering.svg">
  <defs
     id="defs4" />
  <sodipodi:namedview
     id="base"
     pagecolor="#ffffff"
     bordercolor="#666666"
     borderopacity="1.0"
     inkscape:pageopacity="0.0"
     inkscape:pageshadow="2"
     inkscape:zoom="1.4142136"
     inkscape:cx="532.4951"
     inkscape:cy="338.63372"
     inkscape:document-units="px"
     inkscape:current-layer="layer1"
     showgrid="false"
     inkscape:window-width="1535"
     inkscape:window-height="876"
     inkscape:window-x="1345"
     inkscape:window-y="24"
     inkscape:window-maximized="1" />
  <metadata
     id="metadata7">
    <rdf:RDF>
      <cc:Work
         rdf:about="">
        <dc:format>image/svg+xml</dc:format>
        <dc:type
           rdf:resource="http://purl.org/dc/dcmitype/StillImage" />
        <dc:title />
      </cc:Work>
    </rdf:RDF>
  </metadata>
  <g
     inkscape:label="Capa 1"
     inkscape:groupmode="layer"
     id="layer1">
    <g
       id="g3821"
       style="stroke:#ffcc00;stroke-opacity:1"
       transform="translate(-27.4386,-23)">
      <path
         inkscape:connector-curvature="0"
         id="path3735"
         d="m 271.09969,814.34501 26.64277,-11.74302 -4.41941,-5.55584 19.31916,-6.9448 -4.16688,-5.80838 20.32932,-6.9448 -4.41941,-8.08122 22.34962,-7.95495 -4.79822,-6.81853 22.09708,-7.82868 -4.92449,-5.93465 21.97082,-8.71256 -5.68211,-5.3033 21.97082,-6.9448 -6.18719,-6.31345 21.08694,-6.18719 -5.17703,-7.07107 22.72843,-8.08122 -6.56599,-5.3033 20.32932,-7.19734 -6.56599,-5.55583 20.83439,-6.31346 -5.17703,-8.08122 -53.03301,0 -185.99434,154.55334 z"
         style="fill:none;fill-rule:evenodd;stroke:#ffcc00;stroke-width:1px;stroke-linecap:butt;stroke-linejoin:miter;stroke-opacity:1" />
      <path
         inkscape:connector-curvature="0"
         id="path3737"
         d="m 212.75942,814.66132 0,6.2518 57.8022,0 27.31107,-13.32453 0,-5.1151"
         style="fill:none;fill-rule:evenodd;stroke:#ffcc00;stroke-width:0.99391687px;stroke-linecap:butt;stroke-linejoin:miter;stroke-opacity:1" />
      <path
         inkscape:connector-curvature="0"
         id="path3739"
         d="m 296.22723,799.8872 16.66752,-5.36643 0,-4.29315"
         style="fill:none;fill-rule:evenodd;stroke:#ffcc00;stroke-width:1px;stroke-linecap:butt;stroke-linejoin:miter;stroke-opacity:1" />
      <path
         inkscape:connector-curvature="0"
         id="path3739-1"
         d="m 311.14987,787.78834 17.7055,-5.59761 0,-4.47809"
         style="fill:none;fill-rule:evenodd;stroke:#ffcc00;stroke-width:1.05263293px;stroke-linecap:butt;stroke-linejoin:miter;stroke-opacity:1" />
      <path
         inkscape:connector-curvature="0"
         id="path3739-5"
         d="m 326.72991,773.45635 20.33821,-6.54828 0,-5.23863"
         style="fill:none;fill-rule:evenodd;stroke:#ffcc00;stroke-width:1.22022974px;stroke-linecap:butt;stroke-linejoin:miter;stroke-opacity:1" />
      <path
         inkscape:connector-curvature="0"
         id="path3739-54"
         d="m 345.00001,758.31077 19.47073,-6.26898 0,-5.01519"
         style="fill:none;fill-rule:evenodd;stroke:#ffcc00;stroke-width:1.16818404px;stroke-linecap:butt;stroke-linejoin:miter;stroke-opacity:1" />
      <path
         inkscape:connector-curvature="0"
         id="path3739-54-6"
         d="m 361.66924,743.79773 19.47073,-6.26898 0,-5.01519"
         style="fill:none;fill-rule:evenodd;stroke:#ffcc00;stroke-width:1.16818404px;stroke-linecap:butt;stroke-linejoin:miter;stroke-opacity:1" />
      <path
         inkscape:connector-curvature="0"
         id="path3739-54-5"
         d="m 379.16623,730.68494 18.68944,-6.1789 0,-4.94313"
         style="fill:none;fill-rule:evenodd;stroke:#ffcc00;stroke-width:1.13625455px;stroke-linecap:butt;stroke-linejoin:miter;stroke-opacity:1" />
      <path
         inkscape:connector-curvature="0"
         id="path3739-54-69"
         d="m 395.22677,717.95154 17.39878,-5.80179 0,-4.64144"
         style="fill:none;fill-rule:evenodd;stroke:#ffcc00;stroke-width:1.06233644px;stroke-linecap:butt;stroke-linejoin:miter;stroke-opacity:1" />
      <path
         inkscape:connector-curvature="0"
         id="path3739-54-3"
         d="m 410.24728,703.86778 19.98257,-6.50738 0,-5.20591"
         style="fill:none;fill-rule:evenodd;stroke:#ffcc00;stroke-width:1.20573115px;stroke-linecap:butt;stroke-linejoin:miter;stroke-opacity:1" />
      <path
         inkscape:connector-curvature="0"
         id="path3739-54-7"
         d="m 427.36798,690.10158 16.87722,-5.75801 0,-4.60641"
         style="fill:none;fill-rule:evenodd;stroke:#ffcc00;stroke-width:1.0423373px;stroke-linecap:butt;stroke-linejoin:miter;stroke-opacity:1" />
      <path
         inkscape:connector-curvature="0"
         id="path3739-54-4"
         d="m 441.28778,677.80193 16.80691,-5.41824 0,-4.3346"
         style="fill:none;fill-rule:evenodd;stroke:#ffcc00;stroke-width:1.00900853px;stroke-linecap:butt;stroke-linejoin:miter;stroke-opacity:1" />
      <path
         inkscape:connector-curvature="0"
         id="path3819"
         d="m 270.71428,814.2372 0,6.5625"
         style="fill:none;fill-rule:evenodd;stroke:#ffcc00;stroke-width:1px;stroke-linecap:butt;stroke-linejoin:miter;stroke-opacity:1" />
    </g>
    <path
       style="fill:none;fill-rule:evenodd;stroke:#000000;stroke-width:1px;stroke-linecap:butt;stroke-linejoin:miter;stroke-opacity:1"
       d="m 483.57143,657.3622 -195.35714,162.5 c 0,0 30.9653,4.9989 46.07142,2.14286 6.02167,-1.13849 11.62537,-4.19432 16.78572,-7.5 64.36051,-41.22883 155.8529,-76.47273 172.5,-151.07143 0.45282,-2.02916 -0.76545,-4.56803 -2.5,-5.71428 -10.42908,-6.89191 -37.5,-0.35715 -37.5,-0.35715 z"
       id="path3836"
       inkscape:connector-curvature="0"
       sodipodi:nodetypes="ccssssc" />
    <path
       style="fill:none;fill-rule:evenodd;stroke:#000000;stroke-width:1px;stroke-linecap:butt;stroke-linejoin:miter;stroke-opacity:1"
       d="m 288.39855,820.02712 c 0,0 -14.87669,7.11608 -12.6269,12.62691 6.23643,15.27604 32.99808,0.36111 49.49747,0.50507 23.23324,0.20271 46.50623,1.86476 69.70053,0.50508 16.2603,-0.9532 32.61025,-2.42433 48.48732,-6.06092 12.29942,-2.81714 25.12944,-5.48419 35.86041,-12.12183 58.31722,-36.07214 145.25994,-144.60334 145.25994,-144.60334 0,0 -6.64297,-10.48029 -11.9198,-13.48553 -12.17168,-6.93196 -27.00219,-7.94061 -40.91118,-9.59645 -25.41164,-3.02521 -52.69747,-9.18496 -76.77159,-0.50508 -5.17102,1.8644 -12.62691,10.60661 -12.62691,10.60661"
       id="path3838"
       inkscape:connector-curvature="0"
       sodipodi:nodetypes="cssssscsssc" />
    <ellipse
       style="opacity:1;fill:none;fill-opacity:1;stroke:#ff0000;stroke-width:2.32705998;stroke-linejoin:miter;stroke-miterlimit:4;stroke-dasharray:none;stroke-dashoffset:0;stroke-opacity:1"
       id="path3842"
       cx="418.58817"
       cy="955.48126"
       rx="8.2724934"
       ry="8.0812206"
       transform="matrix(0.97687846,-0.2137954,0,1,0,0)" />
    <path
       style="fill:none;fill-rule:evenodd;stroke:#000000;stroke-width:1px;stroke-linecap:butt;stroke-linejoin:miter;stroke-opacity:1"
       d="m 494.46967,824.06773 c 0,0 67.83688,-52.52163 90.45916,-77.73124 22.62229,-25.20961 53.99266,-66.72057 53.99266,-66.72057"
       id="path3859"
       inkscape:connector-curvature="0"
       sodipodi:nodetypes="czc" />
    <path
       style="fill:none;fill-rule:evenodd;stroke:#000000;stroke-width:1px;stroke-linecap:butt;stroke-linejoin:miter;stroke-opacity:1"
       d="m 492.07143,648.18363 c 0,0 22.10688,-26.41732 33.64286,-30.10714 17.91878,-5.44775 36.57582,7.85461 50.71428,9.28571 7.07607,0.58102 11.66961,-1.75254 20.71429,-2.85714 9.04468,-1.1046 24.56419,-3.89008 33.57143,-3.57143 18.76548,3.35953 37.80854,5.46833 55.71428,11.42857 12.62146,4.31007 33.67689,11.30374 39.28572,18.57143 8.26303,10.87157 -2.53971,19.69987 -10.71429,25 -11.46771,7.37496 -17.09398,15.41242 -13.57143,27.14286 13.08312,21.57586 4.21796,31.42745 -17.57143,42 -10.21023,7.78423 -22.7824,11.9747 -31.71428,20.14286 -19.69498,18.03597 -21.28286,44.56151 -19.28572,68.57143 0.45205,5.24313 3.3319,13.93846 2.14286,17.85714 -17.46401,21.81248 -61.79729,-3.92655 -81.42857,-7.14286 -29.10409,-2.28715 -47.35066,0.42205 -72.85714,7.14286 -16.27379,2.64331 -35.4089,8.02726 -50,7.14286 -12.8101,-1.79047 -28.08717,-2.40374 -37.14286,-2.85715 -34.98342,-1.97738 -73.08023,-4.67539 -104.28572,-2.85714 -13.81532,1.33546 -35.76883,15.0159 -40.71428,5.71429 -4.04329,-8.04368 27.16439,-26.07503 27.16439,-26.07503"
       id="path3876"
       inkscape:connector-curvature="0"
       sodipodi:nodetypes="ccczcccccccccccccccc" />
    <path
       style="opacity:0.56699997;fill:#ffff00;fill-opacity:0.69082121;stroke:none;stroke-width:2.29999995;stroke-linejoin:miter;stroke-miterlimit:4;stroke-dasharray:none;stroke-dashoffset:0;stroke-opacity:1"
       d="m 316.39723,733.25642 c -0.55334,-0.79304 -0.97521,-1.46839 -0.9375,-1.50079 0.0497,-0.0427 13.15593,-4.69705 20.80519,-7.38844 0.0873,-0.0307 0.1116,0.4262 0.1116,2.09518 l 0,2.13445 -9.39732,3.02288 c -5.16852,1.66258 -9.4375,3.03542 -9.48661,3.05074 -0.0491,0.0153 -0.54201,-0.62099 -1.09536,-1.41402 z"
       id="path4682"
       inkscape:connector-curvature="0" />
    <path
       style="opacity:0.56699997;fill:#ffff00;fill-opacity:0.69082121;stroke:none;stroke-width:2.29999995;stroke-linejoin:miter;stroke-miterlimit:4;stroke-dasharray:none;stroke-dashoffset:0;stroke-opacity:1"
       d="m 298.6235,748.19924 c -0.45012,-0.82771 -0.81806,-1.54088 -0.81765,-1.58482 4.2e-4,-0.0439 4.75154,-1.76954 10.55804,-3.83466 l 10.55728,-3.75476 0.0239,2.18323 c 0.0131,1.20078 0.009,2.19791 -0.009,2.21583 -0.0315,0.0315 -19.39572,6.28011 -19.46182,6.28011 -0.018,0 -0.40096,-0.67722 -0.85108,-1.50493 z"
       id="path4684"
       inkscape:connector-curvature="0" />
    <path
       style="opacity:0.56699997;fill:#ffff00;fill-opacity:0.69082121;stroke:none;stroke-width:2.29999995;stroke-linejoin:miter;stroke-miterlimit:4;stroke-dasharray:none;stroke-dashoffset:0;stroke-opacity:1"
       d="m 282.82773,762.8698 c -0.57807,-0.8192 -0.87389,-1.31152 -0.80357,-1.33734 0.66173,-0.24297 18.69435,-6.38186 18.74633,-6.38186 0.0387,0 0.0703,0.81598 0.0703,1.81328 l 0,1.81328 -8.41518,2.6631 c -4.62835,1.4647 -8.47545,2.67725 -8.54911,2.69455 -0.0874,0.0205 -0.45146,-0.41853 -1.04879,-1.26501 z"
       id="path4686"
       inkscape:connector-curvature="0" />
    <path
       style="opacity:0.56699997;fill:#ffff00;fill-opacity:0.69082121;stroke:none;stroke-width:2.29999995;stroke-linejoin:miter;stroke-miterlimit:4;stroke-dasharray:none;stroke-dashoffset:0;stroke-opacity:1"
       d="m 267.68669,775.43606 c -0.48253,-0.60786 -0.8639,-1.11863 -0.8475,-1.13504 0.048,-0.048 17.94538,-6.47185 18.03103,-6.47185 0.0427,0 0.0777,0.74156 0.0777,1.6479 l 0,1.6479 -0.73661,0.23238 c -5.52485,1.74287 -15.48956,4.99441 -15.55803,5.07666 -0.0649,0.078 -0.32903,-0.19475 -0.96662,-0.99795 z"
       id="path4688"
       inkscape:connector-curvature="0" />
    <path
       style="opacity:0.56699997;fill:#ffff00;fill-opacity:0.69082121;stroke:none;stroke-width:2.29999995;stroke-linejoin:miter;stroke-miterlimit:4;stroke-dasharray:none;stroke-dashoffset:0;stroke-opacity:1"
       d="m 243.78724,794.4107 0,-2.52562 12.95279,-5.71099 c 7.12404,-3.14104 12.9909,-5.72465 13.03748,-5.74134 0.0522,-0.0187 0.0754,0.71564 0.0606,1.91401 l -0.0241,1.94437 -12.94643,6.31901 c -7.12053,3.47545 -12.97656,6.32062 -13.01339,6.32259 -0.0368,0.002 -0.067,-1.13294 -0.067,-2.52203 z"
       id="path4690"
       inkscape:connector-curvature="0" />
    <path
       style="opacity:0.56699997;fill:#ffff00;fill-opacity:0.69082121;stroke:none;stroke-width:2.29999995;stroke-linejoin:miter;stroke-miterlimit:4;stroke-dasharray:none;stroke-dashoffset:0;stroke-opacity:1"
       d="m 186.03975,794.56751 0,-2.77792 13.09037,0 c 7.1997,0 19.92762,0.0755 28.28427,0.16766 l 15.1939,0.16767 0,2.61025 0,2.61025 -28.28427,0 -28.28427,0 0,-2.77791 z"
       id="path4694"
       inkscape:connector-curvature="0" />
    <path
       style="opacity:0.56699997;fill:#ffff00;fill-opacity:0.69082121;stroke:none;stroke-width:2.29999995;stroke-linejoin:miter;stroke-miterlimit:4;stroke-dasharray:none;stroke-dashoffset:0;stroke-opacity:1"
       d="m 333.46398,719.03741 c -0.4891,-0.58092 -0.8591,-1.07421 -0.8222,-1.0962 0.095,-0.0566 20.38475,-8.09571 20.43265,-8.09571 0.0217,0 0.0287,0.95233 0.0155,2.11628 l -0.0239,2.11628 -8.25893,2.65962 c -4.54241,1.46278 -8.75278,2.81628 -9.35637,3.00777 l -1.09744,0.34817 -0.88929,-1.05621 z"
       id="path4696"
       inkscape:connector-curvature="0" />
    <path
       style="opacity:0.56699997;fill:#ffff00;fill-opacity:0.69082121;stroke:none;stroke-width:2.29999995;stroke-linejoin:miter;stroke-miterlimit:4;stroke-dasharray:none;stroke-dashoffset:0;stroke-opacity:1"
       d="m 350.6278,705.45758 c -0.84994,-0.79256 -1.51289,-1.47175 -1.47321,-1.50931 0.0763,-0.0723 20.41181,-6.51348 20.56368,-6.51348 0.056,0 0.0888,0.67038 0.0888,1.81331 l 0,1.8133 -8.72768,2.88686 c -4.80022,1.58778 -8.76785,2.90115 -8.81696,2.9186 -0.0491,0.0175 -0.7847,-0.61672 -1.63464,-1.40928 z"
       id="path4698"
       inkscape:connector-curvature="0" />
    <path
       style="opacity:0.56699997;fill:#ffff00;fill-opacity:0.69082121;stroke:none;stroke-width:2.29999995;stroke-linejoin:miter;stroke-miterlimit:4;stroke-dasharray:none;stroke-dashoffset:0;stroke-opacity:1"
       d="m 366.47347,692.47702 c -0.925,-0.94522 -1.64822,-1.73886 -1.60714,-1.76364 0.0701,-0.0423 19.02247,-5.61229 19.52799,-5.73917 l 0.23419,-0.0588 0,1.90737 0,1.90737 -8.14732,2.71358 c -4.48103,1.49247 -8.1875,2.7222 -8.23661,2.73272 -0.0491,0.0105 -0.84611,-0.75423 -1.77111,-1.69945 z"
       id="path4700"
       inkscape:connector-curvature="0" />
    <path
       style="opacity:0.56699997;fill:#ffff00;fill-opacity:0.69082121;stroke:none;stroke-width:2.29999995;stroke-linejoin:miter;stroke-miterlimit:4;stroke-dasharray:none;stroke-dashoffset:0;stroke-opacity:1"
       d="m 381.55636,678.87522 c -0.56085,-0.76768 -1.01312,-1.40231 -1.00504,-1.41027 0.04,-0.0395 21.42307,-7.61945 21.49436,-7.61945 0.0485,0 0.0823,0.84115 0.0815,2.03125 l -0.001,2.03125 -6.44959,2.0954 c -3.54726,1.15246 -7.94597,2.58414 -9.77489,3.1815 l -3.32531,1.08611 -1.01974,-1.39579 z"
       id="path4702"
       inkscape:connector-curvature="0" />
    <path
       style="opacity:0.56699997;fill:#ffff00;fill-opacity:0.69082121;stroke:none;stroke-width:2.29999995;stroke-linejoin:miter;stroke-miterlimit:4;stroke-dasharray:none;stroke-dashoffset:0;stroke-opacity:1"
       d="m 398.43587,665.22823 c -1.38892,-1.12571 -1.48888,-1.22602 -1.29464,-1.29915 0.11577,-0.0436 4.38907,-1.55958 9.49621,-3.36888 5.10714,-1.80929 9.35684,-3.31756 9.44377,-3.35169 0.14866,-0.0584 0.15662,0.0512 0.13393,1.8455 l -0.0241,1.90757 -8.03571,2.74317 c -4.41965,1.50875 -8.0759,2.74322 -8.125,2.74328 -0.0491,5e-5 -0.7666,-0.54886 -1.59443,-1.2198 z"
       id="path4704"
       inkscape:connector-curvature="0" />
    <path
       style="opacity:0.56699997;fill:#ffff00;fill-opacity:0.69082121;stroke:none;stroke-width:2.29999995;stroke-linejoin:miter;stroke-miterlimit:4;stroke-dasharray:none;stroke-dashoffset:0;stroke-opacity:1"
       d="m 412.38534,652.72377 c -1.27572,-1.07797 -1.62906,-1.42054 -1.51785,-1.4716 0.20878,-0.0958 19.0089,-5.78167 19.11705,-5.78167 0.058,0 0.0904,0.63327 0.0904,1.76451 l 0,1.7645 -7.96875,2.56672 c -4.38281,1.41169 -7.98884,2.56579 -8.01339,2.56465 -0.0246,-0.001 -0.79291,-0.63433 -1.70746,-1.40711 z"
       id="path4706"
       inkscape:connector-curvature="0" />
    <path
       style="opacity:0.56699997;fill:#ffff00;fill-opacity:0.69082121;stroke:none;stroke-width:2.29999995;stroke-linejoin:miter;stroke-miterlimit:4;stroke-dasharray:none;stroke-dashoffset:0;stroke-opacity:1"
       d="m 188.35266,790.37998 c 0.18661,-0.18462 41.64286,-34.65712 92.125,-76.60554 l 91.78572,-76.26985 26.35002,-0.002 26.35002,-0.002 2.11896,3.29888 c 1.16542,1.81438 2.00434,3.40777 1.86426,3.54086 -0.14008,0.13309 -4.67434,1.56856 -10.07612,3.18994 -5.40179,1.62138 -9.95403,3.06149 -10.1161,3.20024 -0.16207,0.13875 1.08549,1.42747 2.77235,2.86383 1.68686,1.43636 2.94446,2.71896 2.79467,2.85022 -0.14979,0.13127 -4.53128,1.73345 -9.73664,3.56039 -5.20535,1.82695 -9.57908,3.4194 -9.71939,3.53879 -0.1403,0.11938 1.18768,1.36287 2.95107,2.76331 l 3.20618,2.54626 -2.59393,0.94049 c -1.42666,0.51727 -6.36484,2.28459 -10.97374,3.92738 -4.6089,1.64279 -8.42447,3.12502 -8.47905,3.29386 -0.0546,0.16884 0.95455,1.72948 2.24252,3.46809 1.28796,1.73861 2.24169,3.26116 2.1194,3.38345 -0.12228,0.12228 -4.72782,1.54033 -10.23453,3.1512 -5.50671,1.61088 -10.10963,3.0263 -10.22871,3.14538 -0.11908,0.11908 1.13037,1.57042 2.77656,3.22521 2.9082,2.92339 2.96843,3.01799 2.12407,3.33601 -0.47796,0.18003 -5.42719,1.75421 -10.9983,3.49819 l -10.12927,3.17088 2.88455,2.70886 2.88456,2.70886 -9.36243,3.68506 c -5.14932,2.02678 -10.05917,3.98207 -10.91077,4.34509 l -1.54836,0.66004 2.3958,2.87241 c 1.3177,1.57982 2.33588,2.92452 2.26265,2.9882 -0.0732,0.0637 -4.79388,1.76613 -10.4903,3.7832 -5.69643,2.01707 -10.56253,3.77486 -10.81356,3.9062 -0.32275,0.16886 0.23662,1.20756 1.91014,3.54696 1.3016,1.8195 2.31056,3.3528 2.24213,3.40735 -0.0684,0.0546 -5.02621,1.83279 -11.01729,3.95164 -5.99107,2.11886 -10.93323,3.88487 -10.98257,3.92449 -0.0494,0.0396 0.86739,1.82563 2.0372,3.96892 1.1698,2.14329 2.01375,4.0033 1.87543,4.13335 -0.13832,0.13006 -4.63095,1.72324 -9.98363,3.5404 -5.35268,1.81717 -9.73214,3.44156 -9.73214,3.60978 0,0.16821 0.82457,1.43952 1.83238,2.82513 1.02804,1.41343 1.69432,2.64956 1.51786,2.81605 -0.17299,0.16321 -4.40907,1.76893 -9.41352,3.56827 -5.00444,1.79934 -9.15863,3.33117 -9.23154,3.40408 -0.0729,0.0729 0.76718,1.24613 1.86685,2.60717 1.09967,1.36105 1.9994,2.62675 1.9994,2.81269 0,0.18594 -5.7243,2.86013 -12.72067,5.94264 l -12.72067,5.60459 -27.7079,0 c -17.29331,0 -27.58038,-0.12617 -27.36862,-0.33568 z"
       id="path4710"
       inkscape:connector-curvature="0" />
    <path
       style="opacity:0.56699997;fill:#ff8080;fill-opacity:1;stroke:none;stroke-width:2.29999995;stroke-linejoin:miter;stroke-miterlimit:4;stroke-dasharray:none;stroke-dashoffset:0;stroke-opacity:1"
       d="m 250.03553,1089.9297 c -31.62259,-0.2491 -57.60009,-0.5574 -57.72778,-0.6851 -0.12768,-0.1276 2.25485,-2.7191 5.29452,-5.7588 l 5.52668,-5.5267 22.9511,1.0819 22.9511,1.0819 8.61244,-3.9108 8.61243,-3.9107 85.59925,-75.00002 c 47.07959,-41.25 85.93628,-75.25015 86.34819,-75.5559 0.65224,-0.48412 0.5668,-0.98448 -0.66169,-3.875 l -1.41064,-3.3191 -2.29999,-0.0678 c -1.26499,-0.0373 -9.47578,-0.20606 -18.2462,-0.375 l -15.94622,-0.30716 4.94622,-4.15913 4.94621,-4.15914 38.28433,0.22229 38.28433,0.22229 19.96567,4.63727 19.96567,4.63728 6.38475,6.31168 6.38476,6.31168 -72.78749,72.22126 -72.78749,72.2213 -17.34726,5.9242 -17.34727,5.9242 -25.25,3.2115 c -13.8875,1.7664 -25.3625,3.1763 -25.5,3.1331 -0.1375,-0.043 -26.12303,-0.2823 -57.74562,-0.5314 z"
       id="path4770"
       inkscape:connector-curvature="0" />
    <path
       style="opacity:0.56699997;fill:#800000;fill-opacity:1;stroke:none;stroke-width:2.29999995;stroke-linejoin:miter;stroke-miterlimit:4;stroke-dasharray:none;stroke-dashoffset:0;stroke-opacity:1"
       d=""
       id="path4823"
       inkscape:connector-curvature="0" />
    <path
       style="opacity:0.56699997;fill:#980098;fill-opacity:0.60869565;stroke:none;stroke-width:2.29999995;stroke-linejoin:miter;stroke-miterlimit:4;stroke-dasharray:none;stroke-dashoffset:0;stroke-opacity:1"
       d="m 139.92504,1071.8694 c -9.99214,-0.4913 -18.23003,-0.9679 -18.30643,-1.0591 -0.0764,-0.091 43.35683,-36.3345 96.5183,-80.54078 l 96.65722,-80.375 15.89921,0.004 c 8.74457,0.002 17.42714,-0.23213 18.83626,-0.0628 2.2986,0.27619 2.27065,0.10814 3,1.63762 0.44713,0.93762 1.37545,3.06869 1.37545,3.43709 0,0.3684 -19.18125,16.6554 -41.9375,36.57527 -22.75625,19.91987 -61.41294,53.7641 -85.90376,75.2094 l -44.52875,38.9915 -8.0974,3.6038 c -9.47205,4.2156 -5.86386,3.938 -33.5126,2.5786 z"
       id="path4829"
       inkscape:connector-curvature="0"
       sodipodi:nodetypes="cssccscssscscc" />
    <path
       style="fill:none;fill-rule:evenodd;stroke:#000000;stroke-width:1px;stroke-linecap:butt;stroke-linejoin:miter;stroke-opacity:1"
       d="m 247,857.8622 -18,0.5 270.5,-237.5 26,-3"
       id="path4845"
       inkscape:connector-curvature="0"
       sodipodi:nodetypes="cccc" />
    <path
       style="opacity:1;fill:#ffaaaa;fill-opacity:0.49275363;stroke:none;stroke-width:2.29999995;stroke-linejoin:miter;stroke-miterlimit:4;stroke-dasharray:none;stroke-dashoffset:0;stroke-opacity:1"
       d="m -54.149529,1106.3039 c 0,-0.541 -2.48597,-0.8725 -7.5523,-1.0071 l -7.55229,-0.2007 L 63.595537,988.42348 C 136.66286,924.25354 197.04391,871.31751 197.77566,870.78786 c 1.13583,-0.82213 23.06289,-3.94535 23.6409,-3.36734 0.11009,0.11009 -6.50339,6.01176 -14.69664,13.11482 -9.16198,7.94289 -14.75817,13.27593 -14.53667,13.85313 0.33784,0.8804 -2.49725,3.52173 -17.84041,16.62108 -2.9701,2.53574 -46.12954,38.47734 -95.909853,79.87019 -64.340576,53.49986 -92.554126,77.39576 -97.580736,82.64746 -3.88909,4.0632 -7.07107,7.6346 -7.07107,7.9364 0,0.3018 -5.56846,5.5438 -12.37437,11.649 -6.8059,6.1051 -13.09031,11.7522 -13.96535,12.549 -0.87505,0.7968 -1.59099,1.0859 -1.59099,0.6423 z"
       id="path4847"
       inkscape:connector-curvature="0" />
    <path
       style="fill:none;fill-rule:evenodd;stroke:#000000;stroke-width:1px;stroke-linecap:butt;stroke-linejoin:miter;stroke-opacity:1"
       d="m 247,860.3622 c 0,0 -3.88946,12.09904 0,15.5 12.80896,3.0517 32.92748,-5.0144 47,-6.5 12.38587,-1.68133 24.9966,-0.65911 36.5,0 55.75324,0.1528 96.46589,16.16979 145,1.5 7.05496,-2.09789 14.09764,-4.26294 21.25,-6 4.04978,-0.98355 8.2867,-1.91024 12.25,-2.5 11.14837,-2.03603 24.09263,-2.67211 34.5,-1.5 4.54795,0.58643 8.59518,3.22511 13,4.5 18.31433,2.78087 38.75617,10.35752 55.5,12.5 5.63128,0.65389 11.42322,0.51902 17,-0.5 25.52182,-4.78293 19.00898,-19.51392 18,-41 -0.75896,-15.02059 -3.14113,-30.72877 2,-44.5 6.01809,-14.03954 19.05249,-24.86379 31.5,-32 21.47666,-10.01055 39.88067,-18.64028 36.32583,-44.67678 -0.57786,-4.22335 -2.90713,-8.07638 -3.51517,-12.29549 -4.16271,-18.0389 18.46157,-23.81291 19.4393,-36.52773 0.0584,-2.98085 -1.04279,-5.82925 -2.25,-8.5 -1.14679,-2.5371 -4.64905,-6.93934 -4.64905,-6.93934"
       id="path4849"
       inkscape:connector-curvature="0"
       sodipodi:nodetypes="cccccacccccccccccac" />
    <path
       style="fill:none;fill-rule:evenodd;stroke:#000000;stroke-width:1px;stroke-linecap:butt;stroke-linejoin:miter;stroke-opacity:1"
       d="m 418.52143,864.86495 c 0,0 6.69937,-10.25815 11.39949,-14.02818 16.87821,-12.57472 42.26845,-9.22454 56.95408,-19.97457 3.03089,-2.29798 8.375,-7.75 8.375,-7.75"
       id="path4851"
       inkscape:connector-curvature="0"
       sodipodi:nodetypes="cccc" />
    <path
       style="fill:none;fill-rule:evenodd;stroke:#000000;stroke-width:1px;stroke-linecap:butt;stroke-linejoin:miter;stroke-opacity:1"
       d="m 402.5,861.6122 c 0,0 2.50099,-4.60681 4,-6.75 7.85683,-10.31998 19.26939,-20.14048 30.75,-24 2.48829,-0.80542 7.25,-3 7.25,-3"
       id="path4868"
       inkscape:connector-curvature="0"
       sodipodi:nodetypes="cccc" />
    <path
       style="fill:none;fill-rule:evenodd;stroke:#000000;stroke-width:1px;stroke-linecap:butt;stroke-linejoin:miter;stroke-opacity:1"
       d="m 638.75,679.6122 c 0,0 2.51856,-5.92833 2.5,-8.75 -0.89813,-7.02115 -5.92187,-12.48188 -7.75,-18.5 -1.71849,-4.86377 -1.62364,-9.94238 -0.5,-14.25 1.19191,-6.64652 5.16245,-10.28359 9.25,-15"
       id="path4870"
       inkscape:connector-curvature="0"
       sodipodi:nodetypes="ccccc" />
    <path
       style="fill:none;fill-rule:evenodd;stroke:#000000;stroke-width:1px;stroke-linecap:butt;stroke-linejoin:miter;stroke-opacity:1"
       d="m 625,670.3622 c 0.18082,-3.40119 -1.74646,-6.93278 -2.625,-9.25 -3.01546,-7.06994 -4.8779,-14.72713 -4.125,-21.5 1.68386,-6.14185 4.10953,-12.08245 6.5,-18.5"
       id="path4872"
       inkscape:connector-curvature="0"
       sodipodi:nodetypes="cccc" />
    <ellipse
       style="opacity:1;fill:none;fill-opacity:1;stroke:#ff0000;stroke-width:1.91387224;stroke-linejoin:miter;stroke-miterlimit:4;stroke-dasharray:none;stroke-dashoffset:0;stroke-opacity:1"
       id="path3842-4"
       cx="644.35461"
       cy="766.47772"
       rx="6.803647"
       ry="6.6463361"
       transform="matrix(0.97687846,-0.2137954,0,1,0,0)" />
    <path
       style="opacity:1;fill:#ff0000;fill-opacity:0.72463769;stroke:#ff0000;stroke-width:1.14999998;stroke-linejoin:miter;stroke-miterlimit:4;stroke-dasharray:none;stroke-dashoffset:0;stroke-opacity:1"
       d="m 416.93609,856.61613 c -1.925,-0.19758 -5.03407,-0.38717 -6.90904,-0.42133 l -3.40905,-0.0621 1.14485,-1.625 c 2.22932,-3.16428 10.73138,-11.53149 14.92324,-14.68656 4.83131,-3.63635 9.63146,-6.23776 16.5,-8.94206 2.6125,-1.0286 5.01391,-2.08049 5.33646,-2.33752 0.32256,-0.25703 4.48506,-1.44005 9.25,-2.62894 13.79349,-3.44156 20.71428,-6.32139 30.19331,-12.56382 31.89217,-21.00263 80.49039,-69.1194 131.26654,-129.9661 9.63032,-11.54033 10.45369,-12.66749 10.45369,-14.31061 0,-0.80895 -1.12899,-4.39201 -2.50888,-7.96237 -2.77473,-7.17942 -3.76021,-10.94419 -4.27196,-16.3199 -0.29626,-3.112 -0.15596,-4.19947 1.04821,-8.125 0.76464,-2.49267 1.5554,-4.53212 1.75724,-4.53212 0.20184,0 0.50991,0.56948 0.68461,1.26551 0.69284,2.76051 5.63521,4.1163 8.88302,2.43679 l 1.54258,-0.79769 -0.33681,1.42269 c -0.70673,2.98526 -0.91206,11.02819 -0.34979,13.70092 0.31493,1.49698 2.13252,5.87178 4.0391,9.72178 1.90657,3.85 3.68335,7.98017 3.94838,9.17815 0.55933,2.52819 -0.27096,6.50812 -2.07343,9.9389 -2.77134,5.27489 -38.32741,49.57245 -52.89473,65.89895 -8.79593,9.85813 -24.80077,24.46456 -48.08542,43.88399 -12.57335,10.48619 -39.17989,31.88757 -41.31734,33.23423 -0.72313,0.4556 -3.29327,2.69128 -5.71143,4.96818 -6.86601,6.46494 -11.86083,8.48647 -30.60335,12.38597 -11.42373,2.37678 -18.05721,4.37115 -23.75,7.14047 -3.9778,1.93505 -5.41481,2.9862 -8.83944,6.46593 -2.98112,3.02908 -4.40398,4.13391 -5.25,4.07656 -0.63831,-0.0433 -2.73556,-0.24032 -4.66056,-0.43789 z"
       id="path4924"
       inkscape:connector-curvature="0" />
    <path
       style="opacity:1;fill:#ff0000;fill-opacity:0.72463768;stroke:#ff0000;stroke-width:0.40658638;stroke-linejoin:miter;stroke-miterlimit:4;stroke-dasharray:none;stroke-dashoffset:0;stroke-opacity:1"
       d="m 418.08516,862.73802 c -0.25315,-1.59104 -0.86463,-2.94013 -1.82946,-4.03622 l -0.71983,-0.81777 0.76633,0.004 c 0.92874,0.005 5.80312,0.46616 5.89501,0.55805 0.0462,0.0462 -3.52041,5.17967 -3.87128,5.57207 -0.0173,0.0194 -0.12568,-0.55663 -0.24077,-1.28003 z"
       id="path4926"
       inkscape:connector-curvature="0" />
    <path
       style="opacity:1;fill:#ff0000;fill-opacity:0.72463768;stroke:#ff0000;stroke-width:0.071875;stroke-linejoin:miter;stroke-miterlimit:4;stroke-dasharray:none;stroke-dashoffset:0;stroke-opacity:1"
       d="m 404.82637,858.53597 c 0.007,-0.0129 0.20678,-0.35142 0.44405,-0.75228 l 0.43141,-0.72885 0.14373,0.0169 c 0.0791,0.009 0.46382,0.0336 0.85503,0.054 0.3912,0.0204 0.70694,0.0415 0.70164,0.0468 -0.005,0.005 -0.14782,0.0672 -0.31671,0.13744 -0.61437,0.2557 -1.3291,0.642 -1.91549,1.03531 -0.30702,0.20592 -0.37101,0.24143 -0.34366,0.1907 z"
       id="path4928"
       inkscape:connector-curvature="0" />
    <path
       style="opacity:1;fill:#ff0000;fill-opacity:0.72463768;stroke:#ff0000;stroke-width:0.10164659;stroke-linejoin:miter;stroke-miterlimit:4;stroke-dasharray:none;stroke-dashoffset:0;stroke-opacity:1"
       d="m 636.9832,628.14053 c 0.0206,-0.17015 0.0359,-0.69716 0.034,-1.17114 -0.003,-0.71508 -0.0203,-0.94079 -0.10229,-1.32583 -0.26684,-1.25294 -0.78712,-2.24142 -1.61001,-3.05885 -0.35091,-0.34857 -0.38543,-0.39589 -0.27124,-0.3717 0.072,0.0152 1.52298,0.2571 3.22445,0.53745 1.70148,0.28035 3.10718,0.514 3.12379,0.51922 0.0166,0.005 -0.43788,0.53651 -1.00996,1.18064 -1.34865,1.51848 -2.21306,2.51959 -2.862,3.31456 -0.2877,0.35245 -0.53236,0.65076 -0.54368,0.66291 -0.0113,0.0122 -0.004,-0.11711 0.0169,-0.28726 z"
       id="path4930"
       inkscape:connector-curvature="0" />
    <path
       style="opacity:1;fill:#ff0000;fill-opacity:0.72463768;stroke:#ff0000;stroke-width:0.10164659;stroke-linejoin:miter;stroke-miterlimit:4;stroke-dasharray:none;stroke-dashoffset:0;stroke-opacity:1"
       d="m 624.05753,624.45032 c 0.0124,-0.0365 0.25919,-0.69688 0.54836,-1.46761 l 0.52576,-1.40131 0.22138,-0.0242 c 0.30472,-0.0333 2.16791,-0.1128 2.55624,-0.10913 0.26648,0.003 0.29925,0.0105 0.20631,0.0505 -1.40785,0.60499 -2.45358,1.32873 -3.52057,2.43652 -0.30805,0.31983 -0.54991,0.55168 -0.53748,0.51522 z"
       id="path4932"
       inkscape:connector-curvature="0" />
    <path
       style="opacity:1;fill:#ff0000;fill-opacity:0.72463768;stroke:#ff0000;stroke-width:0.10164659;stroke-linejoin:miter;stroke-miterlimit:4;stroke-dasharray:none;stroke-dashoffset:0;stroke-opacity:1"
       d="m 621.39807,631.57811 c 0,-0.0207 0.097,-0.30422 0.21565,-0.63008 l 0.21566,-0.59247 0.0258,0.26251 c 0.0142,0.14437 0.038,0.4154 0.053,0.60228 l 0.0272,0.33979 -0.17356,-0.002 c -0.0955,-10e-4 -0.21636,0.0112 -0.26868,0.0278 -0.0523,0.0166 -0.0951,0.0133 -0.0951,-0.007 z"
       id="path4934"
       inkscape:connector-curvature="0" />
    <path
       style="opacity:1;fill:#ff0000;fill-opacity:0.72463768;stroke:#ff0000;stroke-width:0.10164659;stroke-linejoin:miter;stroke-miterlimit:4;stroke-dasharray:none;stroke-dashoffset:0;stroke-opacity:1"
       d="m 627.5227,634.48062 c -0.6406,-0.10063 -1.39402,-0.38668 -1.86756,-0.70906 -0.30627,-0.2085 -0.83269,-0.72603 -1.05261,-1.03483 -0.55998,-0.78632 -0.81798,-1.66386 -0.81798,-2.78224 0,-0.71771 0.0866,-1.25592 0.31161,-1.93621 0.83607,-2.52804 3.0336,-4.51093 5.55429,-5.01182 0.50734,-0.10081 1.58197,-0.10171 2.02428,-0.002 1.69304,0.38286 2.87664,1.52046 3.32024,3.19122 0.10515,0.39603 0.11776,0.52458 0.12136,1.23743 0.003,0.61597 -0.0142,0.88004 -0.0767,1.17009 -0.3298,1.53067 -1.05769,2.81783 -2.2252,3.93491 -1.01089,0.96722 -2.25291,1.63143 -3.51375,1.87906 -0.43815,0.0861 -1.41198,0.12064 -1.778,0.0631 z"
       id="path4936"
       inkscape:connector-curvature="0" />
  </g>
</svg>
